<svg id="Layer_1" data-name="Layer 1" xmlns="http://www.w3.org/2000/svg" viewBox="0 0 250.86 246.41"><defs><style>.cls-1{fill:#0098cc;}.cls-2{fill:none;stroke:#fff;stroke-linecap:round;stroke-linejoin:round;stroke-width:5px;}</style></defs><title>FormsIcon</title><ellipse class="cls-1" cx="125.43" cy="123.21" rx="125.43" ry="123.21"/><polyline class="cls-2" points="186.7 183.11 186.7 183.11 186.53 184.32 186.17 185.54 185.46 186.93 184.59 188.14 183.53 189.18 182.29 190.05 181.23 190.75 180 190.92 81.96 190.92 81.96 190.92 80.73 190.75 79.49 190.05 78.26 189.18 77.02 188.14 76.14 186.93 75.26 185.54 74.73 184.32 74.55 183.11 74.55 62.34 74.55 62.34 74.73 61.12 75.26 60.08 75.96 59.04 77.02 58 78.08 57.31 79.32 56.61 80.55 56.26 81.6 56.09"/><polyline class="cls-2" points="193.12 73.17 193.12 175.6 193.12 175.6 192.95 176.64 192.59 177.69 192.24 178.55 191.53 179.42 190.65 180.12 189.58 180.64 188.52 180.99 187.46 181.16 88.99 181.16 88.99 181.16 87.92 180.99 86.86 180.64 85.8 180.12 84.91 179.42 84.21 178.55 83.85 177.69 83.5 176.64 83.32 175.6 83.32 54.76 83.32 54.76 83.5 53.55 83.85 52.51 84.21 51.64 84.91 50.77 85.8 50.08 86.86 49.56 87.92 49.21 88.99 49.21 168.68 49.21"/><line class="cls-2" x1="139.96" y1="142.15" x2="101.42" y2="142.15"/><line class="cls-2" x1="175.59" y1="126.66" x2="101.42" y2="126.66"/><line class="cls-2" x1="175.59" y1="110.59" x2="101.42" y2="110.59"/><line class="cls-2" x1="175.59" y1="95.1" x2="101.42" y2="95.1"/><polygon class="cls-2" points="168.6 67.27 168.6 49.21 193.12 72.73 174.28 72.73 174.28 72.73 173.04 72.55 171.98 72.22 171.09 71.7 170.2 71.02 169.49 70.34 168.96 69.32 168.6 68.3 168.6 67.27 168.6 67.27 168.6 67.27 168.6 67.27"/><polyline class="cls-2" points="175.81 191.26 175.81 191.26 175.64 192.47 175.29 193.69 174.6 195.08 173.74 196.29 172.71 197.33 171.5 198.2 170.46 198.9 169.25 199.07 73.34 199.07 73.34 199.07 72.14 198.9 70.93 198.2 69.72 197.33 68.51 196.29 67.65 195.08 66.79 193.69 66.28 192.47 66.1 191.26 66.1 70.49 66.1 70.49 66.28 69.27 66.79 68.23 67.48 67.19 68.51 66.15 69.55 65.46 70.76 64.76 71.96 64.42 73 64.24"/></svg>