<svg id="Layer_1" data-name="Layer 1" xmlns="http://www.w3.org/2000/svg" viewBox="0 0 250.86 246.41"><defs><style>.cls-1,.cls-3{fill:none;stroke:#fff;stroke-width:5px;}.cls-1{stroke-miterlimit:10;}.cls-2{fill:#0098cc;}.cls-3{stroke-linecap:round;stroke-linejoin:round;}</style></defs><title>RocketIcon</title><polyline class="cls-1" points="125.63 60.33 125.63 60.33 122.26 60.33 118.9 60.75 115.54 61.16 112.38 61.57 109.22 62.39 106.07 63.21 102.92 64.24 99.98 65.47 97.03 66.7 94.3 68.14 91.57 69.58 88.83 71.22 86.31 73.07 83.79 74.93 81.47 76.98 79.16 79.24 76.85 81.5 74.74 83.76 72.85 86.22 70.96 88.69 69.27 91.36 67.81 94.04 66.33 96.7 65.07 99.58 63.81 102.45 62.76 105.53 61.92 108.62 61.07 111.7 60.65 114.78 60.23 118.07 59.81 121.36 59.81 124.64 59.81 124.64 59.81 127.93 60.23 131.22 60.65 134.51 61.07 137.59 61.92 140.67 62.76 143.76 63.81 146.84 65.07 149.72 66.33 152.59 67.81 155.26 69.27 157.93 70.96 160.61 72.85 163.07 74.74 165.53 76.85 167.79 79.16 170.06 81.47 172.32 83.79 174.37 86.31 176.22 88.83 178.07 91.57 179.72 94.3 181.15 97.03 182.59 99.98 183.82 102.92 185.06 106.07 186.09 109.22 186.9 112.38 187.72 115.54 188.13 118.9 188.55 122.26 188.96 125.63 188.96 125.63 188.96 129 188.96 132.36 188.55 135.72 188.13 138.88 187.72 142.03 186.9 145.19 186.09 148.34 185.06 151.28 183.82 154.22 182.59 156.96 181.15 159.7 179.72 162.43 178.07 164.96 176.22 167.48 174.37 169.79 172.32 172.11 170.06 174.41 167.79 176.52 165.53 178.41 163.07 180.3 160.61 181.98 157.93 183.46 155.26 184.93 152.59 186.19 149.72 187.45 146.84 188.5 143.76 189.35 140.67 190.19 137.59 190.61 134.51 191.03 131.22 191.45 127.93 191.45 124.64 191.45 124.64 191.45 121.36 191.03 118.07 190.61 114.78 190.19 111.7 189.35 108.62 188.5 105.53 187.45 102.45 186.19 99.58 184.93 96.7 183.46 94.04 181.98 91.36 180.3 88.69 178.41 86.22 176.52 83.76 174.41 81.5 172.11 79.24 169.79 76.98 167.48 74.93 164.96 73.07 162.43 71.22 159.7 69.58 156.96 68.14 154.22 66.7 151.28 65.47 148.34 64.24 145.19 63.21 142.03 62.39 138.88 61.57 135.72 61.16 132.36 60.75 129 60.33 125.63 60.33 125.63 60.33"/><polyline class="cls-1" points="152.31 101.05 152.31 101.05 153.72 101.27 155.14 101.68 156.35 102.52 157.56 103.36 158.37 104.61 158.97 106.08 159.38 107.54 159.57 109.22 159.57 109.22 159.38 110.89 158.97 112.36 158.37 113.82 157.56 115.08 156.35 115.92 155.14 116.75 153.72 117.17 152.31 117.38 152.31 117.38 150.9 117.17 149.49 116.75 148.27 115.92 147.06 115.08 146.25 113.82 145.65 112.36 145.24 110.89 145.04 109.22 145.04 109.22 145.24 107.54 145.65 106.08 146.25 104.61 147.06 103.36 148.27 102.52 149.49 101.68 150.9 101.27 152.31 101.05 152.31 101.05"/><polyline class="cls-1" points="98.62 101.05 98.62 101.05 100.09 101.27 101.58 101.68 102.85 102.52 104.11 103.36 104.96 104.61 105.59 106.08 106.02 107.54 106.22 109.22 106.22 109.22 106.02 110.89 105.59 112.36 104.96 113.82 104.11 115.08 102.85 115.92 101.58 116.75 100.09 117.17 98.62 117.38 98.62 117.38 97.13 117.17 95.65 116.75 94.39 115.92 93.11 115.08 92.27 113.82 91.63 112.36 91.21 110.89 91 109.22 91 109.22 91.21 107.54 91.63 106.08 92.27 104.61 93.11 103.36 94.39 102.52 95.65 101.68 97.13 101.27 98.62 101.05 98.62 101.05"/><polyline class="cls-1" points="159.57 151.53 159.57 151.53 156.02 154.73 152.26 157.72 148.08 160.06 143.9 162.19 139.3 163.69 134.9 164.96 130.09 165.6 125.29 165.81 125.29 165.81 120.48 165.6 115.67 164.96 111.28 163.69 106.68 162.19 102.49 160.06 98.31 157.72 94.55 154.73 91 151.53"/><ellipse class="cls-2" cx="126.39" cy="124.16" rx="125.43" ry="123.21"/><path class="cls-3" d="M147,200.54V157l42.62-41.86h0l1.26-1.24,1.05-1.65,1.26-1.64L194,109l1.89-3.72,1.47-4.12,1.05-4.33,1-4.54.63-4.54.22-4.54.21-4.54V74.53l-.21-3.91-.42-3.72-.63-3.09-.63-2.68-.84-2.06-.64-.83-.41-.41h0l-.42-.41-.84-.62-2.1-.83-2.73-.62-3.15-.62-3.78-.41-4-.21h-4.2l-4.62.21-4.62.2-4.62.62-4.61,1-4.41,1-4.2,1.44-3.78,1.85-1.89.83-1.47,1.24-1.68,1-1.26,1.24L95.76,106.71H51.46l-1.26.2-.84.2-.84.41-.42.62v.62l.22.83.42.82.84,1,20.78,20.21-2.73,2.68L56.29,136.4h0l-1.26.41-1.05.41-.63.83-.41.62v.82l.21,1,.42.82.84,1,56.26,55.27h0l1.05.83.84.41,1.05.21h.84l.63-.41.84-.62.42-1,.42-1.24,2.09-11.14,2.73-2.68,20.57,20.42h0l1.05.83.84.41.84.2h.63l.63-.41.42-.82.21-.83.22-1.24Zm-45.77-43.1h0l-.63.62-.63.41-.84.2H97.44l-.84-.2-.63-.41-.63-.62h0l-.63-.62-.41-.62-.22-.82v-1.65l.22-.83.41-.62.63-.62,21.83-21.45h0l.63-.41.63-.41.84-.21.84-.2.84.2.63.21.84.41.63.41h0l.42.62.42.83.21.62.21.82-.21.83-.21.82-.42.62-.42.62-21.83,21.45ZM163.58,116h0l-1.05.82-1.05.62-1.26.41-1.47.2-1.27-.2-1.26-.41-1.05-.62-1-.82L137.54,99.69h0l-.84-1-.63-1-.42-1.24-.21-1.24.21-1.45.42-1.24.63-1,.84-1h0l8.19-8.25h0l1.47-1.24,1.47-1,1.68-.83,1.47-.82,1.68-.62,1.89-.41,1.68-.2h3.57l1.68.2,1.89.41,1.68.62,1.47.82,1.68.83,1.47,1L172,82.17h0l1.26,1.44L174.28,85l.84,1.65.84,1.45.63,1.65.41,1.85.22,1.65v3.51L177,98.46l-.41,1.85L176,102l-.84,1.44-.84,1.65-1.05,1.44L172,107.94h0l-8.4,8Z"/><polygon class="cls-3" points="77.69 174.17 77.69 174.17 76.43 173.12 75.19 172.49 73.74 172.07 72.28 171.86 70.83 172.07 69.37 172.49 67.92 173.12 66.67 174.17 66.67 174.17 65.43 176.05 63.55 178.99 59.81 186.75 56.49 193.88 55.04 197.03 55.04 197.03 58.15 195.56 65.21 192.2 72.9 188.43 75.81 186.54 77.69 185.29 77.69 185.29 78.72 184.03 79.34 182.56 79.76 181.09 79.96 179.62 79.76 178.16 79.34 176.68 78.72 175.43 77.69 174.17 77.69 174.17 77.69 174.17 77.69 174.17"/><polygon class="cls-3" points="88.5 188.86 88.5 188.86 87.46 188.05 86.43 187.44 85.19 187.03 83.95 186.83 82.71 187.03 81.47 187.44 80.43 188.05 79.4 188.86 79.4 188.86 78.37 190.09 77.54 191.91 76.71 194.15 75.88 196.58 74.85 200.84 74.44 202.47 74.44 202.47 76.3 202.27 80.64 201.05 82.91 200.44 85.19 199.63 87.26 198.61 88.5 197.8 88.5 197.8 89.32 196.78 89.94 195.56 90.36 194.55 90.36 193.33 90.36 192.11 89.94 190.89 89.32 189.88 88.5 188.86 88.5 188.86 88.5 188.86 88.5 188.86"/><polygon class="cls-3" points="63.26 163.55 63.26 163.55 62.18 162.71 61.1 162.07 59.8 161.64 58.51 161.64 57.21 161.64 56.13 162.07 54.84 162.71 53.76 163.55 53.76 163.55 52.9 164.83 51.82 166.94 50.96 169.28 50.31 171.61 49.02 176.06 48.79 177.98 48.79 177.98 50.52 177.55 55.06 176.49 57.65 175.64 60.02 174.79 61.97 173.94 63.26 172.88 63.26 172.88 64.12 171.82 64.77 170.77 65.2 169.49 65.42 168.22 65.2 166.94 64.77 165.67 64.12 164.61 63.26 163.55 63.26 163.55 63.26 163.55 63.26 163.55"/></svg>