<svg id="Layer_1" data-name="Layer 1" xmlns="http://www.w3.org/2000/svg" viewBox="0 0 250.86 246.41"><defs><style>.cls-1{fill:#0098cc;}.cls-2{fill:none;stroke:#fff;stroke-miterlimit:10;stroke-width:5px;}</style></defs><title>SmileIcon</title><ellipse class="cls-1" cx="125.63" cy="124.65" rx="125.43" ry="123.21"/><polyline class="cls-2" points="125.63 60.33 125.63 60.33 122.26 60.33 118.9 60.75 115.54 61.16 112.38 61.57 109.22 62.39 106.07 63.21 102.92 64.24 99.98 65.47 97.03 66.7 94.3 68.14 91.57 69.58 88.83 71.22 86.31 73.07 83.79 74.93 81.47 76.98 79.16 79.24 76.85 81.5 74.74 83.76 72.85 86.22 70.96 88.69 69.27 91.36 67.81 94.04 66.33 96.7 65.07 99.58 63.81 102.45 62.76 105.53 61.92 108.62 61.07 111.7 60.65 114.78 60.23 118.07 59.81 121.36 59.81 124.64 59.81 124.64 59.81 127.93 60.23 131.22 60.65 134.51 61.07 137.59 61.92 140.67 62.76 143.76 63.81 146.84 65.07 149.72 66.33 152.59 67.81 155.26 69.27 157.93 70.96 160.61 72.85 163.07 74.74 165.53 76.85 167.79 79.16 170.06 81.47 172.32 83.79 174.37 86.31 176.22 88.83 178.07 91.57 179.72 94.3 181.15 97.03 182.59 99.98 183.82 102.92 185.06 106.07 186.09 109.22 186.9 112.38 187.72 115.54 188.13 118.9 188.55 122.26 188.96 125.63 188.96 125.63 188.96 129 188.96 132.36 188.55 135.72 188.13 138.88 187.72 142.03 186.9 145.19 186.09 148.34 185.06 151.28 183.82 154.22 182.59 156.96 181.15 159.7 179.72 162.43 178.07 164.96 176.22 167.48 174.37 169.79 172.32 172.11 170.06 174.41 167.79 176.52 165.53 178.41 163.07 180.3 160.61 181.98 157.93 183.46 155.26 184.93 152.59 186.19 149.72 187.45 146.84 188.5 143.76 189.35 140.67 190.19 137.59 190.61 134.51 191.03 131.22 191.45 127.93 191.45 124.64 191.45 124.64 191.45 121.36 191.03 118.07 190.61 114.78 190.19 111.7 189.35 108.62 188.5 105.53 187.45 102.45 186.19 99.58 184.93 96.7 183.46 94.04 181.98 91.36 180.3 88.69 178.41 86.22 176.52 83.76 174.41 81.5 172.11 79.24 169.79 76.98 167.48 74.93 164.96 73.07 162.43 71.22 159.7 69.58 156.96 68.14 154.22 66.7 151.28 65.47 148.34 64.24 145.19 63.21 142.03 62.39 138.88 61.57 135.72 61.16 132.36 60.75 129 60.33 125.63 60.33 125.63 60.33"/><polyline class="cls-2" points="152.31 101.05 152.31 101.05 153.72 101.27 155.14 101.68 156.35 102.52 157.56 103.36 158.37 104.61 158.97 106.08 159.38 107.54 159.57 109.22 159.57 109.22 159.38 110.89 158.97 112.36 158.37 113.82 157.56 115.08 156.35 115.92 155.14 116.75 153.72 117.17 152.31 117.38 152.31 117.38 150.9 117.17 149.49 116.75 148.27 115.92 147.06 115.08 146.25 113.82 145.65 112.36 145.24 110.89 145.04 109.22 145.04 109.22 145.24 107.54 145.65 106.08 146.25 104.61 147.06 103.36 148.27 102.52 149.49 101.68 150.9 101.27 152.31 101.05 152.31 101.05"/><polyline class="cls-2" points="98.62 101.05 98.62 101.05 100.09 101.27 101.58 101.68 102.85 102.52 104.11 103.36 104.96 104.61 105.59 106.08 106.02 107.54 106.22 109.22 106.22 109.22 106.02 110.89 105.59 112.36 104.96 113.82 104.11 115.08 102.85 115.92 101.58 116.75 100.09 117.17 98.62 117.38 98.62 117.38 97.13 117.17 95.65 116.75 94.39 115.92 93.11 115.08 92.27 113.82 91.63 112.36 91.21 110.89 91 109.22 91 109.22 91.21 107.54 91.63 106.08 92.27 104.61 93.11 103.36 94.39 102.52 95.65 101.68 97.13 101.27 98.62 101.05 98.62 101.05"/><polyline class="cls-2" points="159.57 151.53 159.57 151.53 156.02 154.73 152.26 157.72 148.08 160.06 143.9 162.19 139.3 163.69 134.9 164.96 130.09 165.6 125.29 165.81 125.29 165.81 120.48 165.6 115.67 164.96 111.28 163.69 106.68 162.19 102.49 160.06 98.31 157.72 94.55 154.73 91 151.53"/></svg>