<svg xmlns="http://www.w3.org/2000/svg" viewBox="0 0 250.5 68.89"><defs><style>.cls-1{fill:#c0e5e7;stroke:#6fcbdc;}.cls-1,.cls-115{stroke-miterlimit:10;}.cls-114,.cls-2,.cls-3,.cls-7{isolation:isolate;}.cls-3{font-size:12px;fill:#369;}.cls-3,.cls-7{font-family:Montserrat-Bold, Montserrat;font-weight:700;}.cls-4{fill:#24516c;}.cls-115,.cls-43,.cls-5{fill:none;}.cls-16,.cls-5{stroke:#fff;}.cls-14,.cls-15,.cls-39,.cls-40,.cls-5{stroke-linejoin:round;}.cls-5{stroke-width:0.72px;}.cls-6{fill:#6fcbdc;}.cls-7{font-size:40px;}.cls-16,.cls-7,.cls-8{fill:#fff;}.cls-115,.cls-18,.cls-19,.cls-9{stroke:#000;}.cls-10,.cls-11,.cls-117,.cls-119,.cls-12,.cls-120,.cls-121,.cls-122,.cls-13,.cls-16,.cls-17,.cls-20,.cls-21,.cls-22,.cls-23,.cls-24,.cls-25,.cls-26,.cls-27,.cls-28,.cls-29,.cls-31,.cls-32,.cls-33,.cls-35,.cls-36,.cls-37,.cls-38,.cls-41,.cls-42,.cls-9{stroke-width:0.5px;}.cls-10{fill:#fbe7bc;stroke:#fbe7bc;}.cls-11,.cls-116,.cls-19{fill:#ffe8bc;}.cls-11{stroke:#ffe8bc;}.cls-12{fill:#73421a;stroke:#73421a;}.cls-13{fill:#8f5e2b;stroke:#8f5e2b;}.cls-14{fill:#ccdd60;}.cls-14,.cls-15{stroke:#c7c7c7;}.cls-14,.cls-15,.cls-39,.cls-40{stroke-linecap:round;}.cls-15,.cls-40{fill:#f2f2f2;}.cls-17{fill:#394f51;stroke:#394f51;}.cls-123,.cls-18{fill:#fdd9b2;}.cls-115,.cls-18,.cls-19{stroke-width:0.25px;}.cls-20,.cls-30{fill:#fedab3;}.cls-20{stroke:#fedab3;}.cls-21{fill:#fee9bd;stroke:#fee9bd;}.cls-22{fill:#d6a166;stroke:#d6a166;}.cls-23{fill:#fee9be;stroke:#fee9be;}.cls-24{fill:#fde9bd;stroke:#fde9bd;}.cls-25{fill:#a16e3b;stroke:#a16e3b;}.cls-26{fill:#633103;stroke:#633103;}.cls-27{fill:#fefefe;stroke:#fefefe;}.cls-28{fill:#9e6b37;stroke:#9e6b37;}.cls-29{fill:#6e3c0c;stroke:#6e3c0c;}.cls-31{fill:#010000;stroke:#010000;}.cls-32{fill:#734112;stroke:#734112;}.cls-33{fill:#905e2c;stroke:#905e2c;}.cls-34{fill:#fedab2;}.cls-35{fill:#f0fafa;stroke:#f0fafa;}.cls-36{fill:#ebfcfd;stroke:#ebfcfd;}.cls-37{fill:#fefbfb;stroke:#fefbfb;}.cls-124,.cls-38{fill:#010101;}.cls-38{stroke:#010101;}.cls-39{fill:#cf6;}.cls-39,.cls-40{stroke:#c8c8c8;}.cls-41{fill:#00ddd5;stroke:#00c2b9;}.cls-42{fill:#394f50;stroke:#394f50;}.cls-44{fill:#676767;}.cls-45{fill:#e8e8e8;}.cls-46{fill:#a4a4a4;}.cls-47{fill:#6e6e6e;}.cls-48{fill:#a0a0a0;}.cls-49{fill:#303030;}.cls-50{fill:#b1b1b1;}.cls-51{fill:#b5b5b5;}.cls-52{fill:#868686;}.cls-53{fill:gray;}.cls-54{fill:#757575;}.cls-55{fill:#7c7c7c;}.cls-56{fill:#a6a6a6;}.cls-57{fill:#979797;}.cls-58{fill:#5c5c5c;}.cls-59{fill:#6b6b6b;}.cls-60{fill:#919191;}.cls-61{fill:#626262;}.cls-62{fill:#222;}.cls-63{fill:#5b5b5b;}.cls-64{fill:#989898;}.cls-65{fill:#969696;}.cls-66{fill:#8a8a8a;}.cls-67{fill:#8f8f8f;}.cls-68{fill:#a2a2a2;}.cls-69{fill:#888;}.cls-70{fill:#7e7e7e;}.cls-71{fill:#787878;}.cls-72{fill:#828282;}.cls-73{fill:#1e1e1e;}.cls-74{fill:#252525;}.cls-75{fill:#292929;}.cls-76{fill:#aaa;}.cls-77{fill:#b2b2b2;}.cls-78{fill:#bcbcbc;}.cls-79{fill:#8b8b8b;}.cls-80{fill:#9f9f9f;}.cls-81{fill:#efefef;}.cls-82{fill:#bbb;}.cls-83{fill:#b3b3b3;}.cls-84{fill:#9c9c9c;}.cls-85{fill:#bdbdbd;}.cls-86{fill:#353535;}.cls-87{fill:#6d6d6d;}.cls-88{fill:#696969;}.cls-89{fill:#181818;}.cls-90{fill:#9b9b9b;}.cls-91{fill:#686868;}.cls-92{fill:#9d9d9d;}.cls-93{fill:#6c6c6c;}.cls-94{fill:#878787;}.cls-95{fill:#909090;}.cls-96{fill:#c2c2c2;}.cls-97{fill:#606060;}.cls-98{fill:#d6d6d6;}.cls-99{fill:#1d1d1d;}.cls-100{fill:#6f6f6f;}.cls-101{fill:#656565;}.cls-102{fill:#ebebeb;}.cls-103{fill:#5a5a5a;}.cls-104{fill:#e9e9e9;}.cls-105{fill:#585858;}.cls-106{fill:#565656;}.cls-107{fill:#9a9a9a;}.cls-108{fill:#5e5e5e;}.cls-109{fill:#bfbfbf;}.cls-110{fill:#484848;}.cls-111{fill:#2e2e2e;}.cls-112{fill:#262626;}.cls-113{fill:#454545;}.cls-114{font-size:1.95px;fill:#cbcbca;font-family:MyriadPro-Regular, Myriad Pro;}.cls-117{fill:#d5a066;stroke:#d5a066;}.cls-118{fill:#ffe8bd;}.cls-119{fill:#a06e3b;stroke:#a06e3b;}.cls-120{fill:#623412;stroke:#623412;}.cls-121{fill:#9d6b37;stroke:#9d6b37;}.cls-122{fill:#6e3e18;stroke:#6e3e18;}.cls-125{fill:#fdd9b1;}.cls-126{fill:#ebf6f9;}.cls-127{fill:#fffbfb;}</style></defs><title>step2a</title><g id="Layer_2" data-name="Layer 2"><g id="Layer_1-2" data-name="Layer 1"><rect class="cls-1" x="0.5" y="8.72" width="249.5" height="55"/><g class="cls-2"><text class="cls-3" transform="translate(102.52 24.07) scale(1.02 1)">Snap picture </text><text class="cls-3" transform="translate(102.52 38.47) scale(1.02 1)">of photo </text><text class="cls-3" transform="translate(102.52 52.87) scale(1.02 1)">identifcation</text></g><path class="cls-4" d="M43.75,3.48l.18,0v.21l-.18,0-.12,0-.06-.11.06-.11.12,0Zm1.34-.16.12,0,.12,0,.06.11v.21l-.06,0-.12.11H45l-.12-.11-.06,0v-.2l.06-.11L45,3.38l.12,0ZM68.86,6.65V62.14l-.06,0H21.46l-.06,0V6.65ZM45.1,64l-.37.05-.31.05-.24.16-.24.16-.24.22-.12.27-.12.27v.59l.12.27.18.21.18.22.24.21.31.11.31.11h.61l.31-.11.31-.16.24-.16.18-.22.18-.21.06-.32.06-.27-.06-.27-.06-.27-.18-.27-.18-.22-.27-.2-.31-.16L45.4,64Zm.37-.11.31.11.31.16.31.16.18.27.18.27.12.27v.64l-.12.27-.18.27-.18.27-.31.16-.31.16-.31.11h-.74l-.31-.11-.31-.11-.31-.22-.18-.21L43.45,66l-.12-.27-.06-.32v-.05l.06-.32.12-.27.12-.27.24-.27.24-.16.31-.16.37-.11ZM20.85,1l-.49,0-.43.11-.43.21-.37.27-.3.36-.18.38-.12.38-.06.43V65.68l.06.43.12.43.24.38.37.32.37.21.49.22.49.11.55.05h48l.55-.05.49-.11.43-.22.43-.27.31-.32.24-.38.18-.43.06-.48V3.16l-.06-.43-.12-.38L71.37,2l-.31-.32-.37-.27-.43-.21-.49-.11L69.29,1Zm49-.11.49.16.43.22.43.27.31.32.24.43.12.43.06.43V65.58l-.06.48-.12.48-.31.38-.31.38-.43.27-.49.22-.55.16L69.1,68h-48L20.49,68,20,67.8l-.49-.22-.43-.27-.31-.3-.24-.38-.18-.43-.06-.48V3.16l.06-.43.18-.43.18-.43.37-.32.37-.27.43-.22.48-.15Zm-49-.54-.61.05-.61.11-.55.27-.49.38-.37.43-.31.48-.18.54-.06.54V65.68l.06.59.24.54.31.48.43.38.49.38.61.27.61.16.73.05h48l.67-.05.61-.16L71,68l.49-.38L72,67.2l.31-.48.18-.59.06-.59V3.16l-.06-.54-.18-.54L72,1.6l-.37-.43L71.12.8,70.57.53,70,.42l-.71,0Z"/><path class="cls-5" d="M43.75,3.48l.18,0v.21l-.18,0-.12,0-.06-.11.06-.11.12,0Zm1.34-.16.12,0,.12,0,.06.11v.21l-.06,0-.12.11H45l-.12-.11-.06,0v-.2l.06-.11L45,3.38l.12,0ZM68.86,6.65V62.14l-.06,0H21.46l-.06,0V6.65ZM45.1,64l-.37.05-.31.05-.24.16-.24.16-.24.22-.12.27-.12.27v.59l.12.27.18.21.18.22.24.21.31.11.31.11h.61l.31-.11.31-.16.24-.16.18-.22.18-.21.06-.32.06-.27-.06-.27-.06-.27-.18-.27-.18-.22-.27-.2-.31-.16L45.4,64Zm.37-.11.31.11.31.16.31.16.18.27.18.27.12.27v.64l-.12.27-.18.27-.18.27-.31.16-.31.16-.31.11h-.74l-.31-.11-.31-.11-.31-.22-.18-.21L43.45,66l-.12-.27-.06-.32v-.05l.06-.32.12-.27.12-.27.24-.27.24-.16.31-.16.37-.11ZM20.85,1l-.49,0-.43.11-.43.21-.37.27-.3.36-.18.38-.12.38-.06.43V65.68l.06.43.12.43.24.38.37.32.37.21.49.22.49.11.55.05h48l.55-.05.49-.11.43-.22.43-.27.31-.32.24-.38.18-.43.06-.48V3.16l-.06-.43-.12-.38L71.37,2l-.31-.32-.37-.27-.43-.21-.49-.11L69.29,1Zm49-.11.49.16.43.22.43.27.31.32.24.43.12.43.06.43V65.58l-.06.48-.12.48-.31.38-.31.38-.43.27-.49.22-.55.16L69.1,68h-48L20.49,68,20,67.8l-.49-.22-.43-.27-.31-.3-.24-.38-.18-.43-.06-.48V3.16l.06-.43.18-.43.18-.43.37-.32.37-.27.43-.22.48-.15Zm-49-.54-.61.05-.61.11-.55.27-.49.38-.37.43-.31.48-.18.54-.06.54V65.68l.06.59.24.54.31.48.43.38.49.38.61.27.61.16.73.05h48l.67-.05.61-.16L71,68l.49-.38L72,67.2l.31-.48.18-.59.06-.59V3.16l-.06-.54-.18-.54L72,1.6l-.37-.43L71.12.8,70.57.53,70,.42l-.71,0Z"/><rect class="cls-6" x="197.76" y="8.91" width="52.02" height="55.03"/><text class="cls-7" transform="translate(209.24 50.95) scale(1.21 1)">2</text><rect class="cls-8" x="21.72" y="6.16" width="46.57" height="56.56"/><path class="cls-9" d="M37.67,24.2a.54.54,0,0,0-.34-.1.52.52,0,0,0-.36.14.43.43,0,0,0-.13.36.5.5,0,0,0,.15.34.54.54,0,0,0,.68,0,.49.49,0,0,0,.13-.38A.44.44,0,0,0,37.67,24.2Zm2.62.18h-.08l-.2-.16-.19-.16H39.5L39.19,24l-.31-.1-.53.07a2.65,2.65,0,0,0-.87.24,2.12,2.12,0,0,0-.62.49,1.77,1.77,0,0,0-.37.63,1.46,1.46,0,0,0-.06.63,1.56,1.56,0,0,0,.16.53,2.17,2.17,0,0,0,.38.49,2.74,2.74,0,0,0,.31.29h.08v-.48a2.59,2.59,0,0,1,0-.54v-.29h.1l.18.14a.71.71,0,0,0,.48.12.85.85,0,0,0,.46-.14.52.52,0,0,0,.21-.23l0-.15v-.2a.82.82,0,0,0,0-.26.63.63,0,0,0-.15-.2l-.11-.1H39a2,2,0,0,1,.41,0H40v-.48Z"/><path class="cls-9" d="M40.13,21.57h0v.26h-.22a5.45,5.45,0,0,1-1.26-.44A11.9,11.9,0,0,0,36.92,21a4.38,4.38,0,0,0-1.08-.13,4,4,0,0,0-1,.11l-.43.11h0l.37-.2a3.31,3.31,0,0,1,.88-.31,4.29,4.29,0,0,1,1.06-.09,7.18,7.18,0,0,1,1.29.18,5.12,5.12,0,0,1,1.22.41,5,5,0,0,1,.7.42Z"/><path class="cls-10" d="M53,27.2h-.28l.15-.54a11,11,0,0,1,.51-1.38q.36-.85.69-.84a.93.93,0,0,1,.52.15.85.85,0,0,1,.26.31.9.9,0,0,1,.06.44,1.55,1.55,0,0,1-.2.61,3,3,0,0,1-.4.58,2.82,2.82,0,0,1-.58.47,3.58,3.58,0,0,1-.41.24Z"/><path class="cls-11" d="M34.25,26.31l.25.76v.11H34a1.91,1.91,0,0,1-.37-.2,3.2,3.2,0,0,1-.57-.46,3,3,0,0,1-.46-.6,1.46,1.46,0,0,1-.2-.62,1.17,1.17,0,0,1,0-.41.93.93,0,0,1,.25-.3.73.73,0,0,1,.46-.21q.25,0,.56.58A10.31,10.31,0,0,1,34.25,26.31Z"/><path class="cls-12" d="M56,14.72h.06v.07h.14l.09.17a6.83,6.83,0,0,1,.31.79,15,15,0,0,1,.45,1.79,15.55,15.55,0,0,1,.29,2.2q.06,1,0,2.53t0,1.74v.58h0v-.34a.09.09,0,0,1-.06-.06,2.15,2.15,0,0,0-.69,0,8.59,8.59,0,0,0-.92,0h-.33v.07h0l0-.06A1.24,1.24,0,0,0,55.1,24a1,1,0,0,0-.4-.2l-.27-.07v0h.13l.13-.14a6.38,6.38,0,0,0,.39-.52,5.38,5.38,0,0,0,.56-1.1,8.29,8.29,0,0,0,.44-1.5,9.68,9.68,0,0,0,.18-1.66V18.2l-.47,1.64A22.12,22.12,0,0,1,55.1,22l-.24.54h0V22.1a7.71,7.71,0,0,0-.1-1.09q-.1-.67-.22-1.37A17.44,17.44,0,0,0,53.66,18q-.37-1.16-.75-2.09L52.55,15v-.13H56Z"/><path class="cls-13" d="M57.23,24.4v.17L57,25.82q-.21,1.25-.58,2.71t-.89,2.9q-.52,1.45-.71,1.88l-.2.47h0v.12h0v-.16q0-.09.18-1.22A18.64,18.64,0,0,0,55,30.27a13.66,13.66,0,0,0,0-1.44v-.49H54.9v.4h0V28.6a.07.07,0,0,1-.07.07h-.06a3.49,3.49,0,0,0-.82,0h-1.7v.07h-.08v-.07h0v-.06l.14-.44.12-.39h0l.14.07a.78.78,0,0,0,.41.06,1.63,1.63,0,0,0,.63-.2,3,3,0,0,0,.66-.47,3.59,3.59,0,0,0,.56-.69,2.67,2.67,0,0,0,.33-.7,2.5,2.5,0,0,0,.06-.74,1.86,1.86,0,0,0-.07-.55v-.19h.33a8.59,8.59,0,0,1,.92,0,2.15,2.15,0,0,1,.69,0,.09.09,0,0,0,.06.06v.17Z"/><path class="cls-14" d="M39.88,36.09,40,36a1,1,0,0,0-.31.63,1.56,1.56,0,0,0,.28.94,5.57,5.57,0,0,0,1.8,1.71,2.36,2.36,0,0,1,.42.3,13.31,13.31,0,0,1,.49,1.24,3.66,3.66,0,0,0,.25.67,9.16,9.16,0,0,1-.09,1q-.27,2.46-.36,4.93a.36.36,0,0,1-.06.24c-.16-.25-.27-.52-.42-.77-.28-.54-.62-1.06-.94-1.58a13.45,13.45,0,0,0-.86-1.18,9,9,0,0,0-.79-.77,3.19,3.19,0,0,0-1-.6.28.28,0,0,1-.28-.23.66.66,0,0,1,.18-.26c.31-.31.65-.59.94-.92a8,8,0,0,0,.67-.62.21.21,0,0,0,0-.29,1,1,0,0,0-.32-.11c-.52-.1-1-.23-1.54-.36a1.38,1.38,0,0,0-.6-.09V40a2.6,2.6,0,0,0-.85-1.5h.07c.47-.37,1-.71,1.44-1.06l1.82-1.32Z"/><path class="cls-15" d="M37.41,39.89A1.38,1.38,0,0,1,38,40c.51.13,1,.26,1.54.36a1,1,0,0,1,.32.11.21.21,0,0,1,0,.29,8,8,0,0,1-.67.62c-.29.33-.63.61-.94.92a.66.66,0,0,0-.18.26c0,.14.17.19.28.23a3.19,3.19,0,0,1,1,.6,9,9,0,0,1,.79.77,13.45,13.45,0,0,1,.86,1.18A15.31,15.31,0,0,1,42,46.93c.15.25.26.53.42.77s0,.6,0,.9c-.36,0-.72-.08-1.08-.11s-.68-.1-1-.15a.25.25,0,0,0-.18,0h0a.66.66,0,0,0,.25-.48A.38.38,0,0,0,40,47.5a5.37,5.37,0,0,0-1,0c-.14-.42-.2-.86-.3-1.3-.26-1.22-.52-2.43-.79-3.65-.17-.87-.36-1.73-.54-2.6Z"/><path class="cls-15" d="M47.88,43.47a.24.24,0,0,1,.14,0,.18.18,0,0,0,.07.17,6.71,6.71,0,0,1,.67,1.91,3.61,3.61,0,0,1,0,.92,2.15,2.15,0,0,1-.37,1.06A2,2,0,0,1,48,48a4.08,4.08,0,0,1-2.24.74,1.79,1.79,0,0,1-.81,0v-.58c.21-.48.47-1,.7-1.43s.64-1.14,1-1.68a7.72,7.72,0,0,1,1.24-1.52Z"/><path class="cls-15" d="M52.44,61c0-.43-.09-.87-.13-1.3s-.06-.62-.09-.93c-.07-.75-.14-1.5-.22-2.25s-.16-1.52-.22-2.28-.13-1.33-.19-2a8.84,8.84,0,0,0-.09-1v-.46a7.5,7.5,0,0,1-2,1l-.6.17-.41.09h-.14l-.41.07a4.89,4.89,0,0,1-.55.06h-1.3c-.42,0-.76-.07-1.13-.07H44.8v0a9.59,9.59,0,0,1-.3,1.26c.07,1.09.15,2.17.26,3.26,0,.36.08.71.1,1.07h0c.06.51.1,1,.18,1.52v.17a1.76,1.76,0,0,0,.08.57c.08.19,0,.32.06.48s0,.37.08.55h7.28ZM51,59.09a.81.81,0,0,1-.68.22,1.38,1.38,0,0,1-.8-.37,5.06,5.06,0,0,1-.91-1.33c-.2-.35-.34-.71-.51-1.07a3.65,3.65,0,0,1-.24-.7.84.84,0,0,1,.63-.93.87.87,0,0,1,.71.12,1.33,1.33,0,0,1,.43.63l.6,1.13c.16.25.28.52.44.77l.12.2.12.2.11.2c0,.07.06.14.09.21A.67.67,0,0,1,51,59.09Z"/><path class="cls-15" d="M36.09,55.42Z"/><path class="cls-15" d="M39.81,51.21h0a1.66,1.66,0,0,0,.68-.13v.09l.39.12a7.84,7.84,0,0,1-.89,0Z"/><path class="cls-15" d="M43,53.39c-.1,1.18-.2,2.37-.34,3.55,0,.26-.07.52-.08.77h0c-.08.81-.21,1.62-.31,2.44l-.14.93H42c.08-.53.16-1.06.23-1.6s.13-.8.15-1.21.13-1,.18-1.52.07-.71.1-1.07q.14-1.34.23-2.69h0v.18Z"/><path class="cls-15" d="M48.51,54.92a.87.87,0,0,1,.71.12,1.34,1.34,0,0,1,.43.63l.6,1.13c.16.25.28.52.44.77a4.72,4.72,0,0,1,.44.81.67.67,0,0,1-.11.71.81.81,0,0,1-.68.22,1.38,1.38,0,0,1-.8-.37,5.06,5.06,0,0,1-.91-1.33c-.2-.35-.34-.71-.51-1.07a3.63,3.63,0,0,1-.24-.7.84.84,0,0,1,.63-.93Z"/><path class="cls-16" d="M36.09,55.41Z"/><path class="cls-17" d="M45.09,60.52a1.32,1.32,0,0,0,.08.55H42.11l.14-.93c.11-.81.23-1.62.31-2.44a2.11,2.11,0,0,0,.37.06,14.2,14.2,0,0,0,1.83,0c.06.51.1,1,.18,1.52v.17A1.76,1.76,0,0,0,45,60,1.31,1.31,0,0,1,45.09,60.52Z"/><path class="cls-15" d="M43.76,52c.91.16,1.2.17,1.77.24a10.15,10.15,0,0,0,1.79,0,9.4,9.4,0,0,0,1.1-.16,8.07,8.07,0,0,0,3-1.27A5.75,5.75,0,0,0,53.9,47,7.09,7.09,0,0,0,54,45c0-.29-.09-.58-.08-.88v.06a6.38,6.38,0,0,0-.21-1A10.71,10.71,0,0,0,53,41.37a7.88,7.88,0,0,0-1.27-1.83A5.41,5.41,0,0,0,51.1,39a.64.64,0,0,1-.19.46,2.19,2.19,0,0,1-1,.42c-.51.14-1,.26-1.55.38a6.44,6.44,0,0,0-.71.14.21.21,0,0,0-.15.24.62.62,0,0,0,.24.33c.25.2.46.43.7.64s.34.37.53.54a2.26,2.26,0,0,1,.32.32.2.2,0,0,1-.12.29l-.54.22a3.53,3.53,0,0,0,0-.63v1.11H48a.18.18,0,0,0,.07.17,6.71,6.71,0,0,1,.67,1.91,3.61,3.61,0,0,1,0,.92,2.15,2.15,0,0,1-.37,1.06A2,2,0,0,1,48,48a4.08,4.08,0,0,1-2.24.74,12.61,12.61,0,0,1-2.31-.06c-1-.07-2.07-.18-2.07-.18a6.33,6.33,0,0,1-1-.15.25.25,0,0,0-.18,0c.14.07.32.17.32.34a.63.63,0,0,1-.26.52c.13.07.29.12.36.25a.5.5,0,0,1,0,.34,1.13,1.13,0,0,1-.31.33c.14,0,.32,0,.4.17a.54.54,0,0,1-.18.71v.09c.4.12,1.39.5,1.6.56a16.66,16.66,0,0,0,1.69.37Z"/><path class="cls-15" d="M44.45,51.16c.91-.16,1.48-.32,1.69-.37s1.19-.44,1.6-.56v-.09a.54.54,0,0,1-.18-.71c.09-.13.26-.14.4-.17a1.13,1.13,0,0,1-.31-.33.5.5,0,0,1,0-.34c.07-.13.23-.18.36-.25a.63.63,0,0,1-.26-.52c0-.18.17-.27.32-.34a.25.25,0,0,0-.18,0c-.34,0-.68.12-1,.15,0,0-1.09.11-2.07.18a12.61,12.61,0,0,1-2.31.06,4.08,4.08,0,0,1-2.24-.74,2,2,0,0,1-.43-.48,2.15,2.15,0,0,1-.37-1.06,3.61,3.61,0,0,1,0-.92,6.71,6.71,0,0,1,.67-1.91.18.18,0,0,1,.07-.17H39.7V41.48a3.53,3.53,0,0,0,0,.63l-.54-.22A.19.19,0,0,1,39,41.6a2.26,2.26,0,0,1,.32-.32c.19-.17.34-.37.53-.54s.45-.44.7-.64a.62.62,0,0,0,.24-.33.21.21,0,0,0-.15-.24,6.44,6.44,0,0,0-.71-.14L38.42,39a2.19,2.19,0,0,1-1-.42.64.64,0,0,1-.19-.46,5.41,5.41,0,0,0-.59.58,7.88,7.88,0,0,0-1.27,1.83,10.71,10.71,0,0,0-.69,1.89,6.38,6.38,0,0,0-.21,1v-.06c0,.29-.08.58-.08.88a7.09,7.09,0,0,0,.07,2A5.75,5.75,0,0,0,36.9,50a8.07,8.07,0,0,0,3,1.27,9.4,9.4,0,0,0,1.1.16,10.15,10.15,0,0,0,1.79,0c.57-.07.86-.08,1.77-.24Z"/><path class="cls-15" d="M36.1,58.48Z"/><path class="cls-15" d="M36.28,58h0l-.06.11-.08.19.08-.19Z"/><path class="cls-18" d="M67.52,40.5l.15,1.11c-.27,0-.76-.68-1-.68-.53,0-1.24-1.16-1.76-1.14s-.73-.46-1.11-.42l-1.38.17c-.46.06-.78.12-1.17.2s-.81.18-1.21.28l-.82.23-.85.29-.53.2h-.15c-.37-.07-.75-.12-1.12-.22-.62-.16-1.24-.31-1.85-.51a7.94,7.94,0,0,1-2.84-1.54,4.15,4.15,0,0,1-1.18-1.69,2.08,2.08,0,0,1-.06-.32v-.2a2.28,2.28,0,0,1,.11-.68,1.62,1.62,0,0,1,.49-.77,1.42,1.42,0,0,1,.86-.35,1.44,1.44,0,0,1,1.37.79,2,2,0,0,0,.77.77,8.53,8.53,0,0,0,2.16.86,24.82,24.82,0,0,0,4,.7h.35l0-.08a.94.94,0,0,0,.24.1l1.56.12,1.87.12L66,38C66.26,38,67.31,40.5,67.52,40.5Z"/><path class="cls-19" d="M68.22,63.65V40.94l-.7-.44-1.41-.81-1-.54c-.32-.17-.85-.4-1.29-.58s-.74-.31-1.12-.45-.79-.27-1.18-.39l-.82-.23-.87-.19-.55-.11-.14-.06H59c-.34,0-.68-.09-1-.09H50a1,1,0,0,0-.46.12,1.73,1.73,0,0,0-1,1.72A1.79,1.79,0,0,0,49,40.12a1.36,1.36,0,0,0,.38.27l.36.15h7.65a11.32,11.32,0,0,1,1.55.15h0a3.76,3.76,0,0,1,.67.12l.15.06.35.11.51.22a4.46,4.46,0,0,1,2,1.77,6.38,6.38,0,0,1,.79,2.38,12,12,0,0,1,.11,2.08,14.58,14.58,0,0,1-.18,2,8.73,8.73,0,0,1-.68,2.28,5.58,5.58,0,0,1-1.54,2,4.45,4.45,0,0,1-1.68.88,6.42,6.42,0,0,1-.77.16H53.75c-.39.07-.79.12-1.18.2a5,5,0,0,0-2,.85A1.87,1.87,0,0,0,49.93,58,1.52,1.52,0,0,0,51,59.1a1.44,1.44,0,0,0,1.26-.26,2.61,2.61,0,0,1,.67-.32,6.06,6.06,0,0,1,1.81-.22h3l1.42.15c.46.06.92.11,1.37.19s.75.14,1.12.23c.65.17,1.3.33,1.94.54a8.75,8.75,0,0,1,2.18,1.06,5.31,5.31,0,0,1,1.65,1.84A5.58,5.58,0,0,1,68,63.65"/><path class="cls-20" d="M50.23,28.26a7,7,0,0,1-.44,2.45,3.88,3.88,0,0,1-.63,1.11A6.81,6.81,0,0,1,47.78,33a13.13,13.13,0,0,1-2.09,1.16,2.44,2.44,0,0,1-.25.09,1.23,1.23,0,0,0-.07.21c-.62.31-1.23.64-1.86.94a6.26,6.26,0,0,1-.71.33c0-.51,0-1,0-1.53A12.94,12.94,0,0,1,41,33.29a8,8,0,0,1-1.86-1.42,2.64,2.64,0,0,1-.49-.89,9.15,9.15,0,0,1-.33-1.27l0,0a.7.7,0,0,0,.21-.41l.11.4a4.22,4.22,0,0,0,.83,1.59,6.32,6.32,0,0,0,1,1s.62.31,1.22.59a15.1,15.1,0,0,0,1.42.62.63.63,0,0,0,.5-.15.89.89,0,0,1,.74-.13c.21.06.31.29.54.32A7.78,7.78,0,0,0,46.32,33c.18-.11.55-.3,1-.57a4,4,0,0,0,1.22-1.13,5.54,5.54,0,0,0,1.21-2.86c.38-.21.51-.17.51-.17Z"/><path d="M54.66,24.53a.88.88,0,0,0-.25-.31.77.77,0,0,0-.5-.15q-.31,0-.66.85a10.2,10.2,0,0,0-.48,1.4l-.15.54h.08l0,0,0,0H53a1,1,0,0,0,.24,0l.4-.24a2.78,2.78,0,0,0,.55-.47,2.55,2.55,0,0,0,.38-.58,1.53,1.53,0,0,0,.19-.62A1.32,1.32,0,0,0,54.66,24.53Zm-19.3,2.31v-.05L35.11,26a10.12,10.12,0,0,0-.53-1.37c-.2-.41-.38-.61-.53-.58a.68.68,0,0,0-.44.22,1,1,0,0,0-.24.3,1.5,1.5,0,0,0,.18,1,2.71,2.71,0,0,0,.44.61,3.17,3.17,0,0,0,.54.47,2.42,2.42,0,0,0,.35.21l.23,0h.25Zm18.43-5.34a19.76,19.76,0,0,0-.33-2.09,19.88,19.88,0,0,0-.67-2.51c-.26-.76-.5-1.4-.72-1.92a4.66,4.66,0,0,0-.37-.78s0,0,0,0a.55.55,0,0,1-.09.11,3.2,3.2,0,0,0-.31.43,4.39,4.39,0,0,1-.46.59c-.15.16-.42.44-.8.82a14.49,14.49,0,0,1-1.09,1c-.34.28-.66.51-.94.7a7.61,7.61,0,0,1-.67.4l-1,.41a13.52,13.52,0,0,1-2,.57l-1.19.28h0v0h0l.24-.21.66-.56a4.52,4.52,0,0,1,.45-.37s.08-.05.17-.15a5.63,5.63,0,0,1,.47-.44,2.77,2.77,0,0,1,.38-.31s.08-.05.17-.15l.7-.71a11.1,11.1,0,0,0,.79-.85l.24-.29h0l0,0,0,0,0-.05,0-.05h0v-.08h-.17l0,0,0,0h0l0,0-.63.37c-.39.23-1,.55-1.73,1a23.08,23.08,0,0,1-2.24,1.09,18.28,18.28,0,0,1-2.72.88c-1.09.27-2.37.54-3.86.81s-2.23.53-2.23.77,0,.63.1,1.12a7.41,7.41,0,0,0,.42,1.64c.22.59.38.91.46.94l.47.13.33.07h0v-.08h-.14v0s-.08-.16-.24-.46l-.23-.45,0-.07,0-.07v-.07h.05v0h.11l.23.15a1.7,1.7,0,0,0,.33.19l.15.05,0,0,.05,0,.05,0h.19v-.08h-.08l0-.07,0,0L36,22.72l-.07-.19,0-.05,0-.05,0,0,0,0v-.07h.1l0,0,0,0h0l.3.14a1,1,0,0,0,.41.11,3.88,3.88,0,0,0,.56-.21,4.16,4.16,0,0,1,.9-.26,4.08,4.08,0,0,1,2,.17,3.54,3.54,0,0,1,.64.26l.16.1,0,0h0l0,0,0,0h0v0h0l-.07,0L41,23l-.09,0-.67-.14-.57-.11h-.23l0,0,0,0,0,0,0,0,0,0,0,0,0,0,0,0,.48.25a3.55,3.55,0,0,1,.67.43,1.92,1.92,0,0,1,.2.19h0v0h.09l0,0,0,0h0v0h0v0h0v0h-.11l0,0,0,0h0l0,0-.33-.19-.3-.17,0,0-.11-.05H40.2s0,0,0,0h0a1.75,1.75,0,0,0-.29-.11l-.3-.1h-.05l-.17,0-.11,0-.66,0a3,3,0,0,0-1.1.21,3.67,3.67,0,0,0-.9.55c-.3.24-.46.43-.46.55a2.27,2.27,0,0,0,.28.75,3.57,3.57,0,0,0,.55.86,2.46,2.46,0,0,0,.66.49,2.49,2.49,0,0,0,.66.26,4.05,4.05,0,0,0,.9,0,5,5,0,0,0,.64,0H40l.31-.07.38-.09.05,0h.13v0H41l0,0,0,0,0,0h-.06l0,0h-.08l0,0a.1.1,0,0,0-.05,0,3.74,3.74,0,0,1-.48.19,3.1,3.1,0,0,1-1,.19A7.51,7.51,0,0,1,37.57,27a5.14,5.14,0,0,0-1.33-.15l-.33,0h0l.05.33a5.1,5.1,0,0,0,.32,1,3.79,3.79,0,0,0,.64,1,3.37,3.37,0,0,0,.64.58c.18.13.26.19.27.22v0h0l0,0,0,0a0,0,0,0,1,0,0h0s0,0,0,0h0s0,0,0,0h0a0,0,0,0,0,0,0h0l.37.24.68.46.09.06c.66.44,1.29.82,1.9,1.16s1.21.63,1.71.83a4.36,4.36,0,0,0,.91.29l.19,0a1.34,1.34,0,0,0,.39-.07,8,8,0,0,0,1-.39c.68-.31,1.38-.67,2.08-1.07l1.3-.76.23-.15c.31-.21.64-.42.94-.65l.14-.1a2.31,2.31,0,0,0,.32-.25h0s0,0,0,0v0h0s0,0,0,0v0h.14l.34-.32a3.32,3.32,0,0,0,.54-.64,5.48,5.48,0,0,0,.47-1.06l.26-.74v-.1H52l-.22,0a6.43,6.43,0,0,0-1.09.15,8.67,8.67,0,0,1-1.4.19,3.61,3.61,0,0,1-.74,0,4.73,4.73,0,0,1-.65-.21l-.44-.18h-.1l-.07,0h0l0,0h.07v0h.13l.28.07.38.09.09,0h.23a4.82,4.82,0,0,0,.64,0,4.47,4.47,0,0,0,.83,0,2.91,2.91,0,0,0,.66-.26,2.45,2.45,0,0,0,.67-.45,3.41,3.41,0,0,0,.49-.7A3.47,3.47,0,0,0,52,24.6a.7.7,0,0,0,0-.35s-.19-.17-.47-.4a3.77,3.77,0,0,0-.89-.53,3.3,3.3,0,0,0-1.1-.21l-.66,0-.11,0-.11,0-.05,0-.05,0,.43,0a2.4,2.4,0,0,1,.76.18,2,2,0,0,1,.63.44,1.83,1.83,0,0,1,.41.57,1.8,1.8,0,0,1,.11.66,1.47,1.47,0,0,1-.13.64,2.54,2.54,0,0,1-.3.51,1.13,1.13,0,0,1-.28.28l-.1.06h0l-.07,0,0,0,0,0,0,0,0,0h0v-.48a3,3,0,0,0,0-.52l0-.15,0-.05,0-.05,0-.05,0-.05h-.05v0h-.06s0,.05-.13.13a.68.68,0,0,1-.41.14.79.79,0,0,1-.45-.07.63.63,0,0,1-.25-.32,1.07,1.07,0,0,1-.09-.34v-.14h0l0-.05a.51.51,0,0,1,.06-.14l0-.08h.08l.07,0h0V24.3h-.1l0,0,0,0-.07,0a3.7,3.7,0,0,0-.5,0h-.45l-.07,0-.07,0h0v-.07l0,0,0,0h.15l.07-.11c.05-.07.09-.13.13-.14l.06,0h.05l0,0,0,0h0l0,0,0,0h0l-.07,0-.05,0-.05,0h0l0,0-.41.23c-.25.15-.37.21-.37.18a3.66,3.66,0,0,1,.31-.33,3.83,3.83,0,0,1,.92-.63c.42-.22.59-.32.51-.32s-.38.05-.9.15-.69.08-.49-.05a3.43,3.43,0,0,1,.78-.38,4.1,4.1,0,0,1,1-.21,4,4,0,0,1,.95,0,4.16,4.16,0,0,1,.9.26,5,5,0,0,0,.56.21,1.33,1.33,0,0,0,.52-.17c.27-.13.4-.16.38-.1s-.08.2-.2.44-.08.32.11.27a1.65,1.65,0,0,0,.58-.3c.19-.15.29-.18.29-.1a1.07,1.07,0,0,1-.14.4,2.75,2.75,0,0,1-.3.51,1.34,1.34,0,0,0-.18.27s.05,0,.17,0a1.87,1.87,0,0,0,.4-.1q.23-.08.53-.85A4.48,4.48,0,0,0,53.79,21.49Zm3.28-2.13a18,18,0,0,0-.28-2.22,15.18,15.18,0,0,0-.43-1.81,6.5,6.5,0,0,0-.29-.8L56,14.36v-.08l0,0,0,0,0,0,0,0,0,0-.07-.14a4.78,4.78,0,0,0-.33-.45,6.58,6.58,0,0,0-.52-.59,5,5,0,0,0-.77-.58,5.53,5.53,0,0,0-1.07-.55,4.67,4.67,0,0,0-1-.27.7.7,0,0,1-.63-.46,3.26,3.26,0,0,0-.37-.74,2.31,2.31,0,0,0-.5-.58,4,4,0,0,0-1-.55,7.75,7.75,0,0,0-1.38-.48,16,16,0,0,0-1.64-.31,13.57,13.57,0,0,0-2-.17,16.89,16.89,0,0,0-1.71.05,15.8,15.8,0,0,0-1.77.3,11.43,11.43,0,0,0-2,.59c-.63.25-1.05.44-1.3.56l-.38.19,0,0,0,0h0l-.49.29c-.31.19-.56.35-.76.49s-.43.31-.71.51a2.91,2.91,0,0,0-.43.33,5.12,5.12,0,0,1-.42.41l-.41.38h-.05v0h0s0,0,0,0h0l-.33.38h0l-.16.17-.13.14,0,0a6,6,0,0,0-.51.67l-.18.28a7.19,7.19,0,0,0-.57,1.21c-.16.44-.32,1-.49,1.66a17.31,17.31,0,0,0-.35,2,24.61,24.61,0,0,0-.11,2.67c0,1.15,0,1.91.05,2.3s.06.63.07.73l0,.15,0,.11,0,.11h0l.16.93c.1.63.27,1.4.5,2.33s.53,2,.92,3.25.62,1.94.69,2.14.11.31.14.35l0,.05,0,.05,0,.05,0,.05,0,.05,0,0,0,0v-.19l0-.19c0-.13-.05-.57-.11-1.36s-.09-1.51-.11-2.2l0-1,0,.05,0,.05,0,.05,0,.05,0,.05,0,.05.92,2.87L35.77,36a.63.63,0,0,0,.79.44l.67-.11h.05v0s-.09-.66-.27-1.9l-.26-1.87v-.22h0l0,0,0,0h0l0,.05,0,.05,0,0s.17.28.47.76.62,1,.95,1.57a1.7,1.7,0,0,0,1.79.71c.87-.08,1.34-.27,1.4-.56a5.84,5.84,0,0,0,.11-1.23v-.22c0-.4-.07-.63-.2-.69s-.54-.3-1.21-.72-1-.65-1.48-1L38.36,31c-.58-.44-1-.79-1.36-1.09a6.45,6.45,0,0,1-.72-.77,4.57,4.57,0,0,1-.49-1c-.17-.46-.26-.68-.29-.67a1.66,1.66,0,0,1-.35,0,1.59,1.59,0,0,1-.71-.21A1.74,1.74,0,0,1,34,27a.57.57,0,0,0-.15-.15,3.26,3.26,0,0,1-.43-.54,2.48,2.48,0,0,1-.4-.82l-.1-.4v-.37a2.51,2.51,0,0,1,0-.32h0s0-.05,0-.06a2,2,0,0,1,.15-.35.83.83,0,0,1,.25-.32.92.92,0,0,1,.41-.15l.26,0v-.08l0-.07a4.48,4.48,0,0,0-.19-.48,6.2,6.2,0,0,1-.31-1,7.89,7.89,0,0,1-.2-1.33l0-.73h-.11l-.52.06-.41.05-.11,0-.11,0h0l.07,0h.08l0,0,0,0L33.31,19l1.83-1.23.82-.57.66-.48c.37-.26.66-.49.91-.68a4.31,4.31,0,0,0,.38-.32,3.42,3.42,0,0,1,.46-.41c.21-.17.48-.42.82-.74l.51-.5.3-.3.07-.07c.33-.33.51-.5.52-.5a0,0,0,0,0,0,0v0l.06-.07a.5.5,0,0,0,.08-.11l0,0h.08l0,0,0,0H41v.08l0,0,0,0,0,.07,0,0,0,0v.08h0a.92.92,0,0,0-.13.22,6.23,6.23,0,0,1-.54.8,11.31,11.31,0,0,1-.83,1c-.27.29-.59.62-.95.95s-.85.74-1.46,1.22-1.1.85-1.45,1.09l-.53.37h0l0,0,0,0h0l0,0,0,0-.07,0h.23l2.22-.4a33.66,33.66,0,0,0,3.39-.73,13.81,13.81,0,0,0,1.7-.56c.34-.15.85-.4,1.5-.73s1.3-.71,2-1.12,1.24-.76,1.75-1.09l.82-.53.1-.06,0,0h.13l.07,0h.06v.07l0,.05,0,.05,0,0,0,0,0,.05s0,.11-.07.24a11.07,11.07,0,0,1-.56,1.16A7.51,7.51,0,0,1,47,16.61a7.21,7.21,0,0,1-.89.9,7.5,7.5,0,0,1-.85.67l-.37.25h0l-.07,0h0l0,0,0,0h0l.07,0,.07,0,.8-.28A8.9,8.9,0,0,0,47,17.7c.41-.23.74-.43,1-.61A6.65,6.65,0,0,0,49,16.3c.35-.35.54-.53.56-.54s.09-.07.21-.2l.4-.45c.16-.17.4-.45.72-.86s.54-.68.66-.83a2.13,2.13,0,0,1,.18-.25h0l0-.07,0,0,0,0h0v0h.05l0,0,0,0,0,0,0,0,.28.64c.19.43.28.64.29.64h0v.1l.35.93c.24.63.47,1.33.71,2.11s.4,1.41.49,1.88.16.93.21,1.38.08.81.09,1.1l0,.43,0,0,0,0,0,0,0,0,0-.07h0l0,0,.22-.54q.2-.5.66-2.16L56,17.68l0-.07,0-.07,0-.07,0-.07,0,.88a9.65,9.65,0,0,1-.17,1.68,9.44,9.44,0,0,1-.42,1.51,5.35,5.35,0,0,1-.53,1.12c-.18.26-.3.44-.38.52a.78.78,0,0,0-.11.15h0v0h-.09v.08l.25.07a.81.81,0,0,1,.38.21,1.41,1.41,0,0,1,.16.18s0,.05.05.06h0a.51.51,0,0,0,0,.11,2,2,0,0,1,.06.55,3.17,3.17,0,0,1-.05.75,3,3,0,0,1-.31.71,3.08,3.08,0,0,1-.53.7,3.27,3.27,0,0,1-.63.47,1.7,1.7,0,0,1-.59.21.75.75,0,0,1-.4-.05l-.14-.07h0l-.11.4c-.07.26-.11.41-.14.45l0,.05,0,.07v.05h0l-.16.31a3.58,3.58,0,0,1-.52.72,10.12,10.12,0,0,1-.89.85c-.34.29-.64.53-.89.71h0c-.25.18-.75.5-1.49,1s-1.3.81-1.69,1a1,1,0,0,0-.55.94V34a5.67,5.67,0,0,0,.14,1c0,.15.16.25.37.33a2.57,2.57,0,0,0,.63.14,6.88,6.88,0,0,0,.7,0c1,0,1.61-.11,1.68-.33s.25-.61.5-1.14.42-.92.52-1.16l.17-.4,0,0,0,0,0,0,0,0,0,0,0-.05,0-.05V34c0,1.19.27,1.81.83,1.86s1-.31,1.22-1.1.54-1.76.87-3,.53-2,.64-2.48a7.37,7.37,0,0,0,.16-.78v-.09h0l0-.11,0-.11V28h.07v.19l0,.31c0,.21,0,.7,0,1.45a20.84,20.84,0,0,1-.17,2.27c-.1.76-.16,1.17-.17,1.23l0,.09,0,.09,0,.09v.07h0l0-.05,0-.05,0,0,0,0h0l0,0s.07-.19.2-.48.34-.93.67-1.9a30.11,30.11,0,0,0,.85-2.93c.24-1,.42-1.9.55-2.74l.2-1.27h0l0-.17,0-.17,0-.24c0-.16,0-.74.05-1.75S57.11,20.06,57.06,19.36Zm.54-1.46A17.14,17.14,0,0,0,57.27,16a10.68,10.68,0,0,0-.4-1.38,10.12,10.12,0,0,0-.56-1.16,6.21,6.21,0,0,0-.9-1.24,5.18,5.18,0,0,0-.89-.77,5.71,5.71,0,0,0-.88-.45,4,4,0,0,0-1-.27c-.33,0-.5-.08-.51-.13s-.08-.21-.22-.5a3.89,3.89,0,0,0-.53-.86,2.74,2.74,0,0,0-.89-.68,9.49,9.49,0,0,0-1.42-.54,11.93,11.93,0,0,0-1.9-.4,20,20,0,0,0-2.07-.15c-.68,0-1.41,0-2.18.07a14.54,14.54,0,0,0-1.81.23,19.05,19.05,0,0,0-1.88.5,15.67,15.67,0,0,0-2.18.83,12.38,12.38,0,0,0-1.7,1A9.8,9.8,0,0,0,34,11.3a10.42,10.42,0,0,0-.82.9l-.56.81a11.89,11.89,0,0,0-.86,1.55A14.64,14.64,0,0,0,31,16.75a17.16,17.16,0,0,0-.45,2.14A18.16,18.16,0,0,0,30.36,21a22.58,22.58,0,0,0,.09,2.33c.07.82.23,1.86.47,3.11s.49,2.35.76,3.27.56,1.77.88,2.58.68,1.68,1.1,2.65l.64,1.45,0,0,0,0h0l0,0,0,0,0,0,0,0v-.19l0-.15c0-.09-.05-.44-.11-1s-.1-1.17-.14-1.79l0-.93,0,.05,0,.05,0,.07,0,.07.56,1.79c.38,1.19.61,1.92.71,2.18a3.92,3.92,0,0,1,.16.45v.05l1-.27,1-.28h0v0s-.08-.44-.22-1.25l-.21-1.21,0-.11,0-.11v-.11h0l0,0,0,0,0,0,0,0,0,.05,0,.05L38,35.32a1.66,1.66,0,0,0,1.86,1h.08l.44,0a9.29,9.29,0,0,1,1.05-.06c.16,0,.3-.18.42-.61l.06-.23a8.91,8.91,0,0,0,.19-1.05c0-.17,0-.3.05-.43s0-.3,0-.37v-.14h.08l.07,0,.73.28a2.88,2.88,0,0,0,1,.26,2.72,2.72,0,0,0,.74-.21l.56-.21.07,0h0l0,.07.07.58,0,.17a9.08,9.08,0,0,0,.25,1.3c.1.37.23.53.39.51h0c.16,0,.24-.05.22-.06s.45,0,1.38,0h.27c1,0,1.61-.24,1.81-.76s.31-.81.33-.83l0,0,0-.05,0-.05,0-.05,0-.05,0,0,0,0,0,1c0,.65,0,1,0,1.09v.11h.05l1.25.18c.79.1,1.21.11,1.24,0s.19-.61.46-1.57.49-1.79.66-2.49l.24-1.06,0-.14,0-.14h0v.26l-.09,1c-.06.67-.16,1.36-.28,2.06s-.2,1.06-.21,1.12l0,.07,0,.07,0,.07v.08h.07v-.1l0,0,0,0h0v0h0l0,0,0-.06s.18-.29.49-.82.63-1.15,1-1.87.58-1.3.75-1.75.34-1,.54-1.7S57,27.92,57.2,27s.31-1.91.43-2.94a30.86,30.86,0,0,0,.17-3.39C57.72,19.46,57.68,18.53,57.61,17.9Z"/><path class="cls-21" d="M43.57,31.11a.05.05,0,0,1-.05,0S43.4,31,43.19,31l-.31,0,0,.05a.09.09,0,0,1-.06.06s-.05.05-.06.14a.24.24,0,0,0,.06.2c.05.06.2.09.42.09s.33,0,.33-.05,0-.06,0-.06,0-.05,0-.15S43.59,31.11,43.57,31.11Zm2.12-.71a7.39,7.39,0,0,1-1.53.15,9.94,9.94,0,0,1-1.3,0,5.67,5.67,0,0,1-.59-.17l-.44-.15s-.07.05-.1.16l0,.17,0,0,0,0h.1l.05,0,.19.05c.08,0,.68,0,1.79.05a9.31,9.31,0,0,0,2-.08c.21-.07.31-.17.32-.29S46,30.33,45.69,30.4Zm-2.06-3.06c-.2.16-.32.27-.4.33a.47.47,0,0,0-.1.31.75.75,0,0,0,.2.46,1,1,0,0,0,.3.3c.07,0,.08-.05,0-.27a1.51,1.51,0,0,1,.08-.86C43.87,27.29,43.83,27.2,43.64,27.34ZM48,24.55h0s0,0,0,0,0,0,0,0,0,0,0,0a0,0,0,0,0,0,0S48,24.55,48,24.55Zm-6.51-1,0-.06h-.13v.08h0v0h0v0h0v0s0,0,0,0l.06,0h.05S41.55,23.56,41.52,23.5Zm-.31,0h-.05v0H41v.08h.15s0,0,0,0ZM41.09,21h0a0,0,0,0,0,0,0s0,0,0,0,0,0,0,0v0S41.1,21,41.09,21Zm12-.19a4,4,0,0,1-.41-.27,3.16,3.16,0,0,0-.8-.38,4.44,4.44,0,0,0-1.78-.1c-.23,0-.53.11-.93.23a4.43,4.43,0,0,0-1.09.47,2.63,2.63,0,0,0-.59.44l-.1.15v.19l0,0,0,0h.1l0,0,0,0,.26,0a5.16,5.16,0,0,0,1.25-.47,10.81,10.81,0,0,1,1.42-.56,3.87,3.87,0,0,1,1-.11,3.64,3.64,0,0,1,.9.09l.41.11.05,0,.05,0,.05,0,0,0,0,0h.11v0A.17.17,0,0,0,53.1,20.78Zm-12.4.45a1.42,1.42,0,0,0-.22-.21,4,4,0,0,0-.67-.42,4.7,4.7,0,0,0-1.17-.42A6.11,6.11,0,0,0,37.42,20a4,4,0,0,0-1,.09,2.9,2.9,0,0,0-.83.31l-.35.21h0v0h-.1v0h0l0,0,0,0,.05,0,.05,0,.41-.11a3.7,3.7,0,0,1,.95-.11,3.61,3.61,0,0,1,1,.14,11,11,0,0,1,1.47.57,5.32,5.32,0,0,0,1.19.45h.21l0,0,.07,0,0,0h0l0,0,0,0v-.26Zm3.58-3.81a2.17,2.17,0,0,0-.45.26v0h-.09v-.05s0-.05,0-.05,0,0,0,0v0h-.06l0,0s0,0,0,0a3.13,3.13,0,0,1-.48.26,2.75,2.75,0,0,1-.63.25c-.1,0-.16,0-.18.07a.08.08,0,0,1-.09,0,.08.08,0,0,0-.09,0s0,0-.07,0a0,0,0,0,0-.06,0s-.06.05-.15.06-.14,0-.14,0a0,0,0,0,1-.06,0s0,0,0,0,0,0,0,0a0,0,0,0,0-.05,0,5.24,5.24,0,0,1-.82.22,9.76,9.76,0,0,1-1,.22c-.11,0-.17,0-.18.06s0,0-.07,0-.07,0-.07,0-.06,0-.17,0-.16,0-.17,0,0,0-.07,0-.07,0-.07,0a.76.76,0,0,1-.33.07c-.22,0-.33.05-.33.07s0,0-.07,0a.36.36,0,0,0-.15,0,1.59,1.59,0,0,1-.3.06l-.22,0-.09,0-.09,0,.17,0,.17,0,.47,0a4.69,4.69,0,0,1,.52.05l.1,0,.18,0,.17,0a.12.12,0,0,1,.08,0s.05,0,.05,0,0,0,.06,0,.05.06.08.05,0,0,.05,0a.1.1,0,0,0,.05,0l.27.09a3,3,0,0,1,.68.37l.44.29H41l.07,0h.06l0-.07h0l0,0h0v0h-.11l0,0-.14-.09a5.61,5.61,0,0,0-.48-.3,4.65,4.65,0,0,0-1-.4l-.62-.17H38.6v-.07h.15L40,19.15l1.35-.33.5-.15a8.33,8.33,0,0,0,1.1-.41l.71-.3s.05,0,.05-.06,0,0,0,0a.1.1,0,0,1,0,.05s0,0,0,0,0,0,0-.06,0-.06,0-.07.06,0,.1-.08.06,0,.05,0,0,.09,0,.09a0,0,0,0,0,0,0s0,0,.1,0a3,3,0,0,0,.35-.29,1.86,1.86,0,0,1,.29-.25,0,0,0,0,0,0,0S44.57,17.27,44.28,17.42Zm9.51,4.07a19.76,19.76,0,0,0-.33-2.09,19.88,19.88,0,0,0-.67-2.51c-.26-.76-.5-1.4-.72-1.92a4.66,4.66,0,0,0-.37-.78s0,0,0,0a.55.55,0,0,1-.09.11,3.2,3.2,0,0,0-.31.43,4.39,4.39,0,0,1-.46.59c-.15.16-.42.44-.8.82a14.49,14.49,0,0,1-1.09,1c-.34.28-.66.51-.94.7a7.61,7.61,0,0,1-.67.4l-1,.41a13.52,13.52,0,0,1-2,.57l-1.19.28h0v0h0l.24-.21.66-.56a4.52,4.52,0,0,1,.45-.37s.08-.05.17-.15a5.63,5.63,0,0,1,.47-.44,2.77,2.77,0,0,1,.38-.31s.08-.05.17-.15l.7-.71a11.1,11.1,0,0,0,.79-.85l.24-.29h0l0,0,0,0,0-.05,0-.05h0v-.08h-.17l0,0,0,0h0l0,0-.63.37c-.39.23-1,.55-1.73,1a23.08,23.08,0,0,1-2.24,1.09,18.28,18.28,0,0,1-2.72.88c-1.09.27-2.37.54-3.86.81s-2.23.53-2.23.77,0,.63.1,1.12a7.41,7.41,0,0,0,.42,1.64c.22.59.38.91.46.94l.47.13.33.07h0v-.08h-.14v0s-.08-.16-.24-.46l-.23-.45,0-.07,0-.07v-.07h.05v0h.11l.23.15a1.7,1.7,0,0,0,.33.19l.15.05,0,0,.05,0,.05,0h.19v-.08h-.08l0-.07,0,0L36,22.72l-.07-.19,0-.05,0-.05,0,0,0,0v-.07h.1l0,0,0,0h0l.3.14a1,1,0,0,0,.41.11,3.88,3.88,0,0,0,.56-.21,4.16,4.16,0,0,1,.9-.26,4.08,4.08,0,0,1,2,.17,3.54,3.54,0,0,1,.64.26l.16.1,0,0h0l0,0,0,0h0v0h0l-.07,0L41,23l-.09,0-.67-.14-.57-.11h-.23l0,0,0,0,0,0,0,0,0,0,0,0,0,0,0,0,.48.25a3.55,3.55,0,0,1,.67.43,1.92,1.92,0,0,1,.2.19h0v0h.09l0,.05,0,.05h.14v-.1h0l0,0,0,0h0v-.07h.1l.05,0,.05,0h.25v-.11l0,0,0,0h-.06l0,0s0,0,0,0,.07-.15.07-.42a.72.72,0,0,0-.38-.64L41,22.14v-.07h0l.07,0a.74.74,0,0,0,.07-.32s0-.08,0-.11,0-.2,0-.2,0,0,0-.1a.27.27,0,0,1,0-.07L41.2,21h0v-.07h-.06v-.07h.11v.65a1.93,1.93,0,0,1,0,.58,0,0,0,0,0,0,0s.07.07.22.15l.15.08h0l.16.1c.06,0,.1.25.13.59a.18.18,0,0,0,0,.07A5.88,5.88,0,0,0,42,24a14.19,14.19,0,0,1,0,2.09,19.87,19.87,0,0,1-.15,2.42,6,6,0,0,1-.14.74.51.51,0,0,1,0,.11l0,.05,0,0,0,.07,0,0h-.15l0-.05,0-.05,0,0,0,0,0-.05a.2.2,0,0,1,0-.09s.05-.21.14-.56a8.86,8.86,0,0,0,.14-1.44l0-.92V26.2a1.3,1.3,0,0,1,0-.22s0-.09,0-.21,0-.31,0-.57a6,6,0,0,0,0-.95l0-.26,0-.07,0-.07,0,0,0,0v.15l0,.05,0,.05,0,.28a6.75,6.75,0,0,1,0,.76c0,.32,0,.53,0,.64l0,.15,0,.07,0,.15,0,.07h0v0s-.05.05-.16.07l-.15,0,0,.06a.1.1,0,0,0,.05.07.49.49,0,0,1,.1.23,3.55,3.55,0,0,1,0,.86,3.76,3.76,0,0,1-.19,1.14,3.27,3.27,0,0,1-.41.83,1.72,1.72,0,0,1-.55.51,2.26,2.26,0,0,1-.76.26,3,3,0,0,1-.86,0h0a2.34,2.34,0,0,1-.46-.1.21.21,0,0,1-.08,0l-.17-.08h-.05l0,0,0,0h-.25v.07H38v.08h0v0h0s0,0,0,0v0h0s0,0,0,0v0l.37.24.68.46.09.06c.66.44,1.29.82,1.9,1.16s1.21.63,1.71.83a4.36,4.36,0,0,0,.91.29l.19,0a1.34,1.34,0,0,0,.39-.07,8,8,0,0,0,1-.39c.68-.31,1.38-.67,2.08-1.07l1.3-.76.23-.15c.31-.21.64-.42.94-.65l.14-.1a2.31,2.31,0,0,0,.32-.25h0a0,0,0,0,1,0,0h0s0,0,0,0h0a0,0,0,0,1,0,0h0l0,0,.14-.11.14-.11h.08v0H51v0h0v-.07h-.05v0h-.15v0h-.07l0,0-.11.08-.08.06h-.06l0,0,0,0h0s-.07.05-.19.15,0,0,0,0a.47.47,0,0,1-.24.13l-.18,0a2.55,2.55,0,0,1-.38,0h0l-.57,0a1.81,1.81,0,0,1-.62-.14,1.67,1.67,0,0,1-.49-.27,2.31,2.31,0,0,1-.42-.46,2.8,2.8,0,0,1-.38-.75,3.23,3.23,0,0,1-.17-1,3.66,3.66,0,0,1,0-.76s0,0,0-.06a.71.71,0,0,1,0-.14,0,0,0,0,1,0,0h0a0,0,0,0,0,0,0,.11.11,0,0,0,.05-.06l0,0,.17,0a.36.36,0,0,1,.25,0c.05,0,.09.07.09.08v0h0s0,0,0,0v0h.08l.28.07.38.09.09,0h.23v0l-.07,0,0,0,0,0-.05,0-.05,0h0l0,0,0,0h-.13l.15-.07a.57.57,0,0,0,.2-.14.24.24,0,0,0,.05-.1v0h0v-.13h0s0,0,0,0a0,0,0,0,0,0,0,0,0,0,0,1,0,0s-.05,0-.15,0-.16,0-.18-.07a1.62,1.62,0,0,1,0-.37l0-.28,0-.15,0,.11,0,.11,0-.15a.09.09,0,0,1,0-.05c0-.07,0-.1.07-.11s.06,0,.05-.06,0-.05.07-.07l.09,0v-.1l.06,0,.05,0a0,0,0,0,1,0,0h0v.11h0v0h0l0-.05a.51.51,0,0,1,.06-.14l0-.08h.08l.07,0h0v-.07h-.1l0,0,0,0-.07,0a3.7,3.7,0,0,0-.5,0h-.47l-.07,0-.07,0h0v-.07l0,0,0,0h.15l.07-.11c.05-.07.09-.13.13-.14l.06,0h.05l0,0,0,0h0l0,0,0,0h0l-.07,0-.05,0-.05,0h0l0,0-.41.23c-.25.15-.37.21-.37.18a3.66,3.66,0,0,1,.31-.33,3.83,3.83,0,0,1,.92-.63c.42-.22.59-.32.51-.32s-.38.05-.9.15-.69.08-.49-.05a3.43,3.43,0,0,1,.78-.38,4.1,4.1,0,0,1,1-.21,4,4,0,0,1,.95,0,4.16,4.16,0,0,1,.9.26,5,5,0,0,0,.56.21,1.33,1.33,0,0,0,.52-.17c.27-.13.4-.16.38-.1s-.08.2-.2.44-.08.32.11.27a1.65,1.65,0,0,0,.58-.3c.19-.15.29-.18.29-.1a1.07,1.07,0,0,1-.14.4,2.75,2.75,0,0,1-.3.51,1.34,1.34,0,0,0-.18.27s.05,0,.17,0a1.87,1.87,0,0,0,.4-.1q.23-.08.53-.85A3.5,3.5,0,0,0,53.79,21.49Z"/><path class="cls-22" d="M37.36,10h0v0h.17l.21.19a4.14,4.14,0,0,0,.86.5,9.23,9.23,0,0,0,1.16.48,11.45,11.45,0,0,0,1.57.35c.71.13,1.19.2,1.45.22s.75,0,1.47,0,1.15,0,1.28,0l.21,0h.09l0,0,0,0,0,0,0,0,0,0-.05,0-.4.15a16,16,0,0,1-1.61.41q-1.27.28-2,.38l-.76.09V13l0,0,0,0,0,0,0,0,0,0,0,0v-.08h-.1l0,0,0,0h-.08l0,0-.08.11-.06.07h0s0,0,0,0h-.05l-.48.05c-.28,0-.92,0-1.88,0a15.78,15.78,0,0,1-2.18-.11,6.24,6.24,0,0,1-1.23-.3l-.5-.19,0,0,0,0,0,0,0,0h0v0h0v0h.1l.41-.38a3.59,3.59,0,0,0,.42-.41,2.33,2.33,0,0,1,.43-.33c.28-.2.52-.37.71-.51s.45-.3.76-.49.5-.26.51-.27Z"/><path class="cls-9" d="M38.36,23.88a.52.52,0,0,0-.32-.1.46.46,0,0,0-.34.14.45.45,0,0,0-.13.37.52.52,0,0,0,.15.34.48.48,0,0,0,.65,0,.52.52,0,0,0,.13-.39A.44.44,0,0,0,38.36,23.88Zm2.49.18,0,0h-.08l0,0,0,0h0l-.19-.17-.18-.16h0l0,0,0,0h0s0,0,0,0v0h-.08v0a1.75,1.75,0,0,0-.29-.11l-.3-.1-.5.06a2.47,2.47,0,0,0-.83.24,2,2,0,0,0-.58.5,1.7,1.7,0,0,0-.35.64,1.46,1.46,0,0,0-.05.64,1.59,1.59,0,0,0,.15.54,3.53,3.53,0,0,0,.66.78l0,0,.07,0,0,0,0,0,0,0,0,0h0v-.48a2.3,2.3,0,0,1,0-.54l0-.17,0-.05,0-.05,0,0,0,0h.05v0h.05l.18.15a.6.6,0,0,0,.46.11.76.76,0,0,0,.44-.15.54.54,0,0,0,.2-.23,1,1,0,0,1,.05-.15v-.21a.76.76,0,0,0-.05-.26.67.67,0,0,0-.14-.2l-.1-.1,0,0,0,0h0l.05,0,.05,0,.05,0,.05,0,.17,0a2.1,2.1,0,0,1,.4,0,1.88,1.88,0,0,1,.31,0l.09,0,.07,0,.07,0h0v-.07Z"/><path class="cls-9" d="M40.7,21.22l0,0v.26l0,0,0,0h0l0,0,0,0,0,0,0,0h-.21a4.8,4.8,0,0,1-1.19-.45,9.71,9.71,0,0,0-1.47-.57,4.1,4.1,0,0,0-1-.14,3.7,3.7,0,0,0-.95.11l-.41.11-.05,0-.05,0,0,0,0,0h.19l.35-.21a3,3,0,0,1,.83-.31,4,4,0,0,1,1-.09,6.11,6.11,0,0,1,1.23.19,4.77,4.77,0,0,1,1.16.42,5.69,5.69,0,0,1,.67.42Z"/><path class="cls-9" d="M53.15,20.85v0H53l0,0,0,0-.05,0-.05,0-.05,0-.41-.11a3.58,3.58,0,0,0-.9-.09,3.87,3.87,0,0,0-1,.11,9.94,9.94,0,0,0-1.42.56,5.69,5.69,0,0,1-1.25.47l-.26,0,0,0,0,0h-.07l0,0,0,0v-.19l.1-.15a2.48,2.48,0,0,1,.58-.44,4.43,4.43,0,0,1,1.09-.47,7.33,7.33,0,0,1,.93-.22,4.87,4.87,0,0,1,.83,0,3.93,3.93,0,0,1,.95.15,2.59,2.59,0,0,1,.8.38l.41.27C53.13,20.8,53.15,20.82,53.15,20.85Z"/><path class="cls-23" d="M40.2,24.66h0s0,0,0,0,0,0,0,0,0,0,0,0Zm-.15-.15h0Zm-.11,0Zm1.93-.27,0-.26,0-.07,0-.07,0,0,0,0v.15l0,.05,0,.05,0,.28a6.75,6.75,0,0,1,0,.76c0,.32,0,.53,0,.64l0,.15V26l0-.05s0-.07,0-.17,0-.31,0-.57A6,6,0,0,0,41.87,24.24ZM41,20.59s-.06,0-.06,0a.1.1,0,0,0,.06.07s.07,0,.07,0A.16.16,0,0,0,41,20.59Zm-.52-.41v0s0,0,0,0S40.49,20.19,40.48,20.19Zm3.69-2.65a.12.12,0,0,0-.06.11c0,.05,0,0,.06,0S44.22,17.5,44.18,17.54Zm.19-.1v0s0,0,0,0S44.37,17.42,44.37,17.43Zm-.08,0a2.17,2.17,0,0,0-.45.26v0h-.09v-.05s0-.05,0-.05,0,0,0,0v0h-.06l0,0s0,0,0,0a3.13,3.13,0,0,1-.48.26,2.75,2.75,0,0,1-.63.25c-.1,0-.16,0-.18.07a.08.08,0,0,1-.09,0,.08.08,0,0,0-.09,0s0,0-.07,0a0,0,0,0,0-.06,0s-.06.05-.15.06-.14,0-.14,0a0,0,0,0,1-.06,0s0,0,0,0,0,0,0,0a0,0,0,0,0-.05,0,5.24,5.24,0,0,1-.82.22,9.76,9.76,0,0,1-1,.22c-.11,0-.17,0-.18.06s0,0-.07,0-.07,0-.07,0-.06,0-.17,0-.16,0-.17,0,0,0-.07,0-.07,0-.07,0a.76.76,0,0,1-.33.07c-.22,0-.33.05-.33.07s0,0-.07,0a.36.36,0,0,0-.15,0,1.59,1.59,0,0,1-.3.06l-.22,0-.09,0-.09,0,.17,0,.17,0,.47,0a4.69,4.69,0,0,1,.52.05l.1,0,.18,0,.17,0a.12.12,0,0,1,.08,0s.05,0,.05,0,0,0,.06,0,.05.06.08.05,0,0,.05,0a.1.1,0,0,0,.05,0l.27.09a3,3,0,0,1,.68.37l.44.29H41l.07,0h.06l0-.07v.1h0s0,0,0,0a.05.05,0,0,1,0,0h0s0,0,0,0h0s0,.07,0,.17,0,.05,0,.07a.11.11,0,0,0,0,.09s0,.08,0,.21,0,.07,0,.11c0,.21-.05.31-.07.32l-.07,0h0v.07l.38.23a.69.69,0,0,1,.38.64c0,.28,0,.42-.07.42s-.06,0,0,0l0,0h.06l0,0,0,0v.11h0l0,0,0,0h0v0l-.06-.05,0-.05h0l-.05-.08h-.1v.08h0v0h0v0h0v0s0,0,0,0l.06,0h.11v0h-.14l-.05,0-.05,0h0l0,0,0,0h0v0h-.1v0H41v.08h.09v0h0l0,0,0,.07,0,.05h0v.07h0v0h0V24H41.2l0,0,0,0h0l0,0-.33-.19-.3-.17,0,0-.11-.05H40.1v0h0l.07,0,0,0,0,0h0l.18.16.19.17h0l0,0,0,0h.08l0,0,0,0v.07h0l-.07,0-.07,0-.09,0-.31,0a1.54,1.54,0,0,0-.4,0l-.17,0-.05,0-.05,0-.05,0-.05,0h0l0,0,0,0,.1.1a.52.52,0,0,1,.14.2,1.13,1.13,0,0,1,.05.26v.17H40l0-.3v0h0l0,0h0l.05,0,.05,0h0v0h0v.06a.11.11,0,0,0,.06.08s0,0,0,0a.22.22,0,0,1,0,.1v.11l0-.22,0,.09,0,.09-.05.23c0,.16-.05.24-.05.26a.12.12,0,0,0,0,.08,1,1,0,0,0,0,.09v0h-.05l-.15,0a.21.21,0,0,0-.19.07l-.09.09h0v.07l0,.14a.26.26,0,0,0,.13.18l.17.06.07,0h-.15v0s0,0,0,0v0h0l-.07,0-.07,0,0,0,0,0h0v0H40l.31-.07.38-.09.05,0h.08v0s0,0,0,0h0v-.06s0,0,0,0h0a.2.2,0,0,1,.1,0h0l.24,0,.14,0s0,0,0,0v0l.15,0c.1,0,.16-.05.16-.07v0h0l0,0,0,0,0,.14,0,.14,0,.92a7.15,7.15,0,0,1-.14,1.44,4.14,4.14,0,0,1-.14.56l0,.09,0,.05,0,0,0,0,0,.05,0,.05h.15l0,0,0-.07,0,0,0-.05a.51.51,0,0,1,0-.11s.05-.28.14-.74a20,20,0,0,0,.15-2.42,14.12,14.12,0,0,0,0-2.09,7.62,7.62,0,0,1-.11-.95.18.18,0,0,0,0-.07.93.93,0,0,0-.28-.7h0a.94.94,0,0,1-.26-.79v-.63l-.11-.13s0,0,0,0l0-.05v-.05h-.05v0H41l0,0-.14-.09a5.61,5.61,0,0,0-.48-.3,4.65,4.65,0,0,0-1-.4l-.62-.17h-.19v-.07h.15L40,19.08l1.35-.33.5-.15a8.33,8.33,0,0,0,1.1-.41l.71-.3s.05,0,.05-.06,0,0,0,0a.1.1,0,0,1,0,.05s0,0,0,0,0,0,0-.06,0-.06,0-.07.06,0,.1-.08.06,0,.05,0,0,.09,0,.09a0,0,0,0,0,0,0s0,0,.1,0a3,3,0,0,0,.35-.29,1.86,1.86,0,0,1,.29-.25,0,0,0,0,0,0,0S44.57,17.27,44.28,17.42Z"/><path class="cls-24" d="M53,26.91h-.19l0,0,0,0h-.08l.15-.54a11.87,11.87,0,0,1,.48-1.4q.34-.86.66-.85a.89.89,0,0,1,.5.15.88.88,0,0,1,.25.31.85.85,0,0,1,.05.45,1.53,1.53,0,0,1-.19.62,3.52,3.52,0,0,1-.38.58,2.51,2.51,0,0,1-.55.47,2.58,2.58,0,0,1-.4.24A.69.69,0,0,1,53,26.91Z"/><path class="cls-21" d="M35.11,26l.24.76v.1h-.25l-.22,0a1.69,1.69,0,0,1-.35-.21,3.17,3.17,0,0,1-.54-.47,2.71,2.71,0,0,1-.44-.61,1.74,1.74,0,0,1-.2-.63,1.1,1.1,0,0,1,0-.41,1,1,0,0,1,.24-.3.64.64,0,0,1,.44-.22c.16,0,.34.19.53.58S34.94,25.51,35.11,26Z"/><path class="cls-25" d="M54.42,28.3v-.07l0,.07,0,.07v.18q0,.09-.16.78c-.1.46-.31,1.28-.64,2.48s-.62,2.18-.87,3-.66,1.14-1.22,1.1-.83-.67-.83-1.86V32.23l0,.05,0,.05,0,0,0,0,0,0,0,0,0,0s-.07.16-.17.4-.27.63-.52,1.16-.42.92-.5,1.14-.64.33-1.69.33-1.61-.17-1.69-.5a5.91,5.91,0,0,1-.15-1.12,1,1,0,0,1,.55-.94q.56-.33,1.69-1c.75-.47,1.24-.79,1.49-1s.54-.41.9-.71a11.94,11.94,0,0,0,.89-.85,3.58,3.58,0,0,0,.52-.72l.16-.31h0s0,0,0,0v0h0l.05,0,0,0H53.5a3.18,3.18,0,0,1,.78,0,0,0,0,0,0,.05,0A.12.12,0,0,0,54.42,28.3Z"/><path class="cls-26" d="M55.88,14.1l0,0,0,0,0,0,0,0,0,0v.08h-.14v-.08h-.17l-1.54.05-1.49,0v0h-.1v0h0s-.1-.21-.29-.64l-.28-.64,0,0,0,0,0,0,0,0h-.07l0,0,0,0,0,0,0,0h0a2.13,2.13,0,0,0-.18.25c-.11.16-.33.44-.66.83s-.56.68-.72.85-.29.31-.4.45-.18.2-.21.2-.21.19-.56.54a6.65,6.65,0,0,1-.93.79c-.26.18-.59.38-1,.61a8.9,8.9,0,0,1-1.41.63l-.8.28-.07,0-.07,0h0l0,0,0,0h0l0,0,0,0h0l.37-.25a10,10,0,0,0,.85-.67,12,12,0,0,0,.89-.9,8.68,8.68,0,0,0,.92-1.45A11.07,11.07,0,0,0,48.45,14c0-.13.06-.21.07-.24l0-.05,0,0,0,0,0-.05,0-.05v-.07h-.06l0,0,0,0h-.13l0,0-.1.06-.82.53c-.51.32-1.1.69-1.75,1.09s-1.31.77-2,1.11-1.15.58-1.5.73a17.65,17.65,0,0,1-1.7.56,33.66,33.66,0,0,1-3.39.73l-2.22.4h-.22l0,0,0,0,0,0,0,0h0l0,0,0,0h0l.53-.37c.35-.24.83-.61,1.45-1.09s1.11-.89,1.46-1.22.68-.66.95-.95a13,13,0,0,0,.83-1,7.63,7.63,0,0,0,.54-.8.92.92,0,0,1,.13-.22h0v0L41.6,13q.77-.09,2-.38c.85-.19,1.38-.32,1.61-.41l.4-.15.05,0,0,0,0,0,0,0,0,0,0,0,0,0H45.8l-.21,0c-.14,0-.56,0-1.28,0s-1.21,0-1.47,0-.74-.1-1.45-.22a10.05,10.05,0,0,1-1.57-.35,11.13,11.13,0,0,1-1.16-.48,3.86,3.86,0,0,1-.86-.5l-.21-.19h-.17v0h0l0,0,0,0,.38-.19c.25-.13.69-.31,1.3-.56a12,12,0,0,1,2-.59c.7-.15,1.28-.25,1.77-.3a12.4,12.4,0,0,1,1.71-.05,15.39,15.39,0,0,1,2,.17c.65.1,1.19.21,1.64.31a8.68,8.68,0,0,1,1.38.48,4.42,4.42,0,0,1,1,.55,2.82,2.82,0,0,1,.5.58,4.07,4.07,0,0,1,.37.74.7.7,0,0,0,.63.46,4.52,4.52,0,0,1,1,.27,5.53,5.53,0,0,1,1.07.55,5,5,0,0,1,.77.58c.16.16.33.37.52.59a4.78,4.78,0,0,1,.33.45C55.9,14,55.86,14.08,55.88,14.1Z"/><path class="cls-27" d="M38,23.78a.46.46,0,0,1,.32.1.45.45,0,0,1,.13.37.48.48,0,0,1-.13.38.48.48,0,0,1-.65,0,.58.58,0,0,1-.15-.34.48.48,0,0,1,.11-.37A.56.56,0,0,1,38,23.78Z"/><path class="cls-28" d="M32.84,24.88l0,.07,0,.05s0,.05,0,.05h0s0,0,0,0h0l.1.4a2.57,2.57,0,0,0,.4.82,3.82,3.82,0,0,0,.43.54A.87.87,0,0,1,34,27a1.74,1.74,0,0,0,.4.25,1.47,1.47,0,0,0,.71.21,1.66,1.66,0,0,0,.35,0,2.45,2.45,0,0,1,.29.67,4.57,4.57,0,0,0,.49,1,5.08,5.08,0,0,0,.72.77A15.58,15.58,0,0,0,38.36,31c.58.43,1.21.86,1.88,1.27l1.21.72c.14.07.2.38.2.91a5.84,5.84,0,0,1-.11,1.23c-.07.28-.53.47-1.4.56A1.69,1.69,0,0,1,38.34,35c-.33-.56-.66-1.09-.95-1.57s-.45-.74-.47-.76l0,0,0-.05,0-.05h0l0,0,0,0h0v.22L37,34.42c.18,1.24.26,1.88.27,1.9v0h-.05l-.67.11a.62.62,0,0,1-.79-.44l-1.09-3.41-.92-2.87,0-.05,0-.05,0-.05,0-.05,0-.05,0-.05,0,1c0,.69.05,1.42.11,2.2s.1,1.24.11,1.36l0,.19v.19l0,0,0,0,0-.05,0-.05,0-.05,0-.05,0-.05a3.45,3.45,0,0,0-.14-.35c-.07-.2-.3-.92-.69-2.14s-.69-2.32-.92-3.25-.39-1.71-.5-2.33l-.16-.93v-.15h0v-.05s0-.05,0,0a.05.05,0,0,0,.05,0,1.79,1.79,0,0,1,.63,0c.41,0,.62,0,.64.07s0,.06,0,.05,0,0,0,0Z"/><path class="cls-29" d="M31.41,24.74h0s0,0,0,0S31.42,24.75,31.41,24.74ZM40.55,13.1l-.5.06c-.27,0-.79.05-1.58.05h-.34a14.18,14.18,0,0,1-2.18-.11,6.06,6.06,0,0,1-1.23-.3l-.5-.19,0,0,0,0h0l0,0s0,0,0,0v0h0s-.05,0-.09.1-.1.15-.24.3h0l-.23.25,0,.05,0,0-.21.25a1.18,1.18,0,0,0-.1.14l-.2.27-.18.28a7.19,7.19,0,0,0-.57,1.21c-.16.44-.32,1-.49,1.66a17.31,17.31,0,0,0-.35,2,24.61,24.61,0,0,0-.11,2.67c0,1.15,0,1.91.05,2.3s.06.63.07.73l0,.15,0,.11,0,.11h0v-.15h0l.05-.09a0,0,0,0,1,0,0h0a1.22,1.22,0,0,1,.51-.06h.13c.41,0,.62,0,.64.07s0,.06,0,.05,0,0,0,.07l0,.07v.15h.07v-.37a2.51,2.51,0,0,1,0-.32h0s0-.05,0-.06a2,2,0,0,1,.15-.35.83.83,0,0,1,.25-.32.92.92,0,0,1,.41-.15l.26,0V23.4l0-.07a4.48,4.48,0,0,0-.19-.48,6.2,6.2,0,0,1-.31-1,7.89,7.89,0,0,1-.2-1.33l0-.73h-.11l-.52.06-.41.05-.11,0-.11,0h0l.07,0h.08l0,0,0,0L33.27,19l1.83-1.23.82-.57.66-.48c.37-.26.66-.49.91-.68a4.31,4.31,0,0,0,.38-.32,3.42,3.42,0,0,1,.46-.41c.21-.17.48-.42.82-.74l.5-.49.31-.31.07-.07c.33-.33.51-.5.52-.5a0,0,0,0,0,0,0v-.05Z"/><path class="cls-30" d="M40.91,26.49h0a0,0,0,0,0,0,0Zm.68.22c0-.15-.08-.23-.1-.23a.1.1,0,0,1-.05-.07l0-.06v0s0,0,0,0a.2.2,0,0,1-.14,0l-.24,0h0c-.06,0-.09,0-.1,0h0s0,0,0,0h0s0,0,0,0v0l0,0s0,0,0,0a0,0,0,0,1,0,0h-.13l0,0a.1.1,0,0,0-.05,0,3.74,3.74,0,0,1-.48.19,3.1,3.1,0,0,1-1,.19A7.51,7.51,0,0,1,37.57,27a5.14,5.14,0,0,0-1.33-.15l-.33,0h0l.05.33a5.1,5.1,0,0,0,.32,1,3.79,3.79,0,0,0,.64,1,3.37,3.37,0,0,0,.64.58c.18.13.26.19.27.22v0h.1v.08h.15v-.07H38s0,0,0,0l0,0h-.08V29.9H38l0,0,0,0h.05l.17.08.08,0a2.34,2.34,0,0,0,.46.1h0a2.63,2.63,0,0,0,.86,0,2.18,2.18,0,0,0,.76-.26,1.83,1.83,0,0,0,.55-.51,3.28,3.28,0,0,0,.41-.83,4.85,4.85,0,0,0,.15-2Z"/><path class="cls-31" d="M41.87,30.74l-.05,0h-.1l0,0,0,0,0-.17c0-.11.06-.17.1-.16s.19.05.44.15a3.89,3.89,0,0,0,.59.17,12.5,12.5,0,0,0,1.3,0,6.79,6.79,0,0,0,1.53-.15c.3-.08.45-.05.44.06s-.11.22-.32.29a10.24,10.24,0,0,1-2,.08c-1.11,0-1.7,0-1.79-.05Z"/><path class="cls-32" d="M55.78,14.3h.05v.08H56l.08.17a7.86,7.86,0,0,1,.29.8,15.71,15.71,0,0,1,.43,1.81,18,18,0,0,1,.28,2.22c0,.7,0,1.54,0,2.56s0,1.59-.05,1.75l0,.24,0,.17,0,.17h0v-.17c0-.11,0-.17,0-.18a.11.11,0,0,1-.05-.06,2,2,0,0,0-.66,0,6.73,6.73,0,0,0-.88.05l-.24,0H55V24h0l-.05-.06-.16-.18a.91.91,0,0,0-.38-.21l-.25-.07v-.08h.14a1.57,1.57,0,0,1,.11-.15c.07-.09.2-.26.38-.52a5.49,5.49,0,0,0,.53-1.11A8.72,8.72,0,0,0,55.75,20a9.65,9.65,0,0,0,.17-1.68l0-.88,0,.07,0,.07,0,.07,0,.07-.45,1.66a21.11,21.11,0,0,1-.66,2.16l-.22.54,0,0h0l0,0,0,0,0,0,0,0,0,0,0,0,0-.43c0-.28,0-.66-.09-1.1S54.11,20,54,19.49a19.24,19.24,0,0,0-.48-1.88c-.24-.78-.47-1.48-.71-2.11l-.35-.93v-.13h.1v0l1.49,0,1.54-.05.15,0Z"/><path class="cls-33" d="M57,24.08v.17l-.2,1.27c-.14.85-.31,1.76-.55,2.74s-.52,2-.85,2.93-.55,1.61-.67,1.9-.18.45-.2.48l0,0h0l0,0,0,0,0,.05,0,.05h0v-.07l0-.09,0-.09,0-.09c0-.06.07-.47.17-1.23A20.84,20.84,0,0,0,54.71,30a13,13,0,0,0,0-1.45l0-.31v-.19h-.07v.19l0,.11,0,.11h0v-.08l0-.07,0-.07v.07c0,.05,0,.07-.06.07s-.05,0-.05,0a2.63,2.63,0,0,0-.78,0h-1.3v.07h-.07v-.08l0,0,0,0,0-.05s.05-.19.14-.45l.11-.4h0l.14.07a.63.63,0,0,0,.4.05,1.41,1.41,0,0,0,.59-.21,3.27,3.27,0,0,0,.63-.47,4.23,4.23,0,0,0,.53-.7,2.64,2.64,0,0,0,.31-.71,2.31,2.31,0,0,0,.05-.74,2.71,2.71,0,0,0-.06-.55A.37.37,0,0,1,55,24v-.08h.08l.24,0c.16,0,.45,0,.88-.05a2,2,0,0,1,.66,0,.11.11,0,0,0,.05.06.32.32,0,0,1,0,.18Z"/><path class="cls-34" d="M50.92,29.17h0v0h-.15v0h-.07l-.06.05s-.06.05-.05.07,0,0,.09,0l.09-.07h.08v0h.1v0h0v-.07Zm-3.73-2.68h0v0h0S47.2,26.49,47.19,26.49Zm4.88.32H52l-.22,0a6.43,6.43,0,0,0-1.09.15,8.67,8.67,0,0,1-1.4.19,3.61,3.61,0,0,1-.74,0,4.73,4.73,0,0,1-.65-.21l-.44-.18h-.15a0,0,0,0,1,0,0s0,0,0,0l0,0v0s0-.06-.11-.1a.55.55,0,0,0-.31-.05c-.14,0-.21,0-.21,0a.06.06,0,0,0,0,.05s0,0,0,0,0,0,0,0h0a0,0,0,0,1,0,0,.71.71,0,0,0,0,.14s0,0,0,.06a3.7,3.7,0,0,0,0,.76,3.65,3.65,0,0,0,.17,1,2.53,2.53,0,0,0,.38.75,2.67,2.67,0,0,0,.42.46,1.67,1.67,0,0,0,.49.27,2.5,2.5,0,0,0,.62.14l.57,0h0a2.55,2.55,0,0,0,.38,0l.18,0A.58.58,0,0,0,50,29.9s0,0,0,0l.19-.15h0l0,0,0,0h.07v0h0v0h0a.08.08,0,0,1,0,0h0l0,0,0,0h0l0,0h.1v0h.08l.34-.32a3.32,3.32,0,0,0,.54-.64,5.48,5.48,0,0,0,.47-1.06l.26-.74v-.1Z"/><path class="cls-35" d="M48.83,23.09l.11,0,.66,0a3,3,0,0,1,1.1.21,3.77,3.77,0,0,1,.89.53,4.46,4.46,0,0,1,.47.4.7.7,0,0,1,0,.35,3.47,3.47,0,0,1-.34.77,3.41,3.41,0,0,1-.49.7,2.63,2.63,0,0,1-.67.45,2.74,2.74,0,0,1-.66.26,5.69,5.69,0,0,1-.83,0,5,5,0,0,1-.64,0v0l0,0,0,0,0,0,0,0-.05,0-.05,0h0l0,0,0,0h-.13l.15-.07a.57.57,0,0,0,.2-.14.24.24,0,0,0,.05-.1v0h0v-.13h0a0,0,0,0,1,0,0,0,0,0,0,0,0,0,0,0,0,0,1,0,0s-.05,0-.15,0-.16,0-.17-.07a1.62,1.62,0,0,1,0-.37l0-.28,0-.07,0-.07,0,.11,0,.11,0-.15a.69.69,0,0,1,.09-.28l.07-.14H48v0h.06v-.15h.15v.15h0v.11a.7.7,0,0,0,.09.34.76.76,0,0,0,.25.32.79.79,0,0,0,.45.07.57.57,0,0,0,.41-.14.69.69,0,0,0,.11-.13h.14l0,.05,0,.05,0,.05,0,.05,0,.15a2.7,2.7,0,0,1,0,.52v.48h0l0,0,0,0,0,0,0,0,0,0,0,0h0s0,0,.1-.06a1.23,1.23,0,0,0,.28-.27,2,2,0,0,0,.3-.51,1.51,1.51,0,0,0,.13-.64,1.8,1.8,0,0,0-.11-.66,1.72,1.72,0,0,0-.41-.57,2,2,0,0,0-.63-.44,2.64,2.64,0,0,0-.76-.18l-.43,0,.05,0,.05,0Z"/><path class="cls-36" d="M40,24.62h0S40,24.63,40,24.62Zm.31.71.05-.23,0-.09,0-.09,0,.22,0-.11a.59.59,0,0,0,0-.1v0a.44.44,0,0,0,0-.09.14.14,0,0,0-.06-.08h0a0,0,0,0,0,0,0h0v0h0l0,0,0,0H40v0l0,0H39.9v0l0,0h.05v0h0V25h-.06v0s0,.07-.05.15a.49.49,0,0,1-.2.23.84.84,0,0,1-.44.15.7.7,0,0,1-.46-.11l-.18-.15h-.05v0h-.05l0,0,0,0,0,.05,0,.05,0,.17a3.06,3.06,0,0,0,0,.54v.48h0l0,0,0,0,0,0,0,0-.07,0,0,0a3.24,3.24,0,0,1-.29-.29,2.19,2.19,0,0,1-.37-.49,1.59,1.59,0,0,1-.15-.54,1.67,1.67,0,0,1,.05-.64,1.87,1.87,0,0,1,.35-.64,2.2,2.2,0,0,1,.58-.5,2.47,2.47,0,0,1,.83-.24l.5-.06h-.05l-.17,0-.11,0-.66,0a3,3,0,0,0-1.1.21,3.67,3.67,0,0,0-.9.55c-.3.24-.46.43-.46.55a2.27,2.27,0,0,0,.28.75,3.57,3.57,0,0,0,.55.86,2.46,2.46,0,0,0,.66.49,2.49,2.49,0,0,0,.66.26,4.05,4.05,0,0,0,.9,0,5,5,0,0,0,.64,0h0v0h0l0,0,0,0,.07,0,.07,0h.15v-.08h.06l-.07,0-.17-.06a.24.24,0,0,1-.13-.18l0-.14v-.07h0l.09-.09a.21.21,0,0,1,.19-.07l.15,0h.05v0a.49.49,0,0,1,0-.09.29.29,0,0,1,0-.08C40.29,25.58,40.31,25.49,40.34,25.33Z"/><path class="cls-37" d="M42.84,31l0-.05.31,0c.21,0,.32,0,.33.06a.05.05,0,0,0,.05,0s0,.05,0,.15,0,.15,0,.15,0,0,0,.06-.11.05-.33.05a.75.75,0,0,1-.42-.09.2.2,0,0,1-.06-.2.18.18,0,0,1,.06-.14A.08.08,0,0,0,42.84,31Z"/><path class="cls-38" d="M43.76,27.64a1.58,1.58,0,0,0-.08.85c.05.22,0,.3,0,.27a1,1,0,0,1-.3-.3.75.75,0,0,1-.2-.46.42.42,0,0,1,.1-.31c.07-.06.2-.18.4-.33S43.87,27.29,43.76,27.64Z"/><path class="cls-20" d="M42.79,34.21c0,.51,0,1,0,1.53a6.26,6.26,0,0,0,.71-.33l1.86-.94a1.23,1.23,0,0,1,.07-.21c0,.39,0,.77,0,1.16A1.41,1.41,0,0,0,46,36.59a.3.3,0,0,1,0,.09,3.17,3.17,0,0,1-1.63,1,1.19,1.19,0,0,0,.19.31h-.94a3,3,0,0,0,.2-.3A3.94,3.94,0,0,1,42.51,37c-.11-.11-.28-.22-.3-.4a1.33,1.33,0,0,0,.58-1.1c0-.45,0-.89,0-1.31Z"/><path class="cls-39" d="M40.45,35.9l.15-.08a1.1,1.1,0,0,0-.3.64,1.62,1.62,0,0,0,.27.95,5.29,5.29,0,0,0,1.71,1.72,2.29,2.29,0,0,1,.41.3c.16.42.33.82.47,1.25a4.71,4.71,0,0,0,.23.68,8.46,8.46,0,0,1-.09,1q-.27,2.49-.34,5l-.06.24c-.16-.25-.26-.52-.41-.78-.27-.55-.58-1.07-.9-1.6A13.4,13.4,0,0,0,40.76,44a8.87,8.87,0,0,0-.75-.78,3.18,3.18,0,0,0-1-.61c-.11,0-.26-.09-.27-.23a.62.62,0,0,1,.17-.27c.29-.31.63-.59.9-.93a7.22,7.22,0,0,0,.64-.63c.05-.08.08-.22,0-.29a1.07,1.07,0,0,0-.3-.11c-.49-.1-1-.23-1.46-.37a1.19,1.19,0,0,0-.56-.09s0,.05,0,.07a2.64,2.64,0,0,0-.81-1.52l.06,0c.44-.38.92-.72,1.37-1.07.61-.43,1.18-.88,1.75-1.31Z"/><path class="cls-39" d="M51.13,38.8a.67.67,0,0,1-.19.47,2,2,0,0,1-1,.43l-1.47.39c-.23.06-.46.06-.68.15a.22.22,0,0,0-.15.24.67.67,0,0,0,.23.33c.23.2.44.43.66.65s.32.38.5.54a1.77,1.77,0,0,1,.3.32.2.2,0,0,1-.11.29c-.17.07-.34.14-.51.22a4.33,4.33,0,0,0,0-.64c0,.38,0,.75,0,1.13h-.49a.34.34,0,0,0-.14,0,8,8,0,0,0-1.18,1.53c-.34.55-.65,1.13-.95,1.7s-.46.95-.67,1.44l0,0c0-.48,0-.95,0-1.43s-.05-1-.07-1.45-.06-1-.14-1.54c0-.77-.15-1.54-.23-2.31a.37.37,0,0,0,.13-.21,10.9,10.9,0,0,1,.57-1.61c.05-.16.22-.23.34-.31a6,6,0,0,0,1.69-1.6,2.74,2.74,0,0,0,.38-.83,1,1,0,0,0-.29-.95.64.64,0,0,1,.15.07l2.46,1.9a5.85,5.85,0,0,1,.73.62A.82.82,0,0,1,51.13,38.8Z"/><path class="cls-40" d="M38.11,39.73a1.15,1.15,0,0,1,.56.09c.48.14,1,.26,1.46.37a1,1,0,0,1,.3.11.24.24,0,0,1,0,.29,7.2,7.2,0,0,1-.64.63c-.27.33-.61.62-.9.93a.62.62,0,0,0-.17.27c0,.14.16.2.27.23a2.9,2.9,0,0,1,1,.61,8.87,8.87,0,0,1,.75.78,13.4,13.4,0,0,1,.82,1.19c.31.52.63,1.05.9,1.6.15.25.25.53.41.78s0,.61,0,.91c-.34,0-.69-.08-1-.1s-.65-.1-1-.15a.26.26,0,0,0-.18,0l-.05,0a.69.69,0,0,0,.24-.48.37.37,0,0,0-.32-.37,4.71,4.71,0,0,0-.94,0c-.13-.43-.19-.88-.29-1.31-.25-1.23-.49-2.46-.75-3.68-.17-.88-.34-1.75-.51-2.63A.23.23,0,0,0,38.11,39.73Z"/><path class="cls-40" d="M48.06,43.35s.08,0,.14,0l.06.18a6.88,6.88,0,0,1,.64,1.93,4,4,0,0,1,0,.93,2.12,2.12,0,0,1-.35,1.06,2,2,0,0,1-.41.48,3.71,3.71,0,0,1-2.13.75,1.61,1.61,0,0,1-.77,0c0-.2,0-.39,0-.58.2-.49.45-1,.67-1.44s.61-1.15.95-1.7a8.34,8.34,0,0,1,1.18-1.53Z"/><path class="cls-40" d="M52.4,61.1c-.05-.44-.08-.88-.13-1.31s-.05-.63-.08-.94c-.07-.76-.14-1.51-.21-2.27s-.16-1.53-.21-2.3-.11-1.35-.18-2c0-.33-.05-.66-.08-1l0-.23s0-.22,0-.24a7.11,7.11,0,0,1-1.93,1L49,52l-.39.09-.13,0-.39.07a4.45,4.45,0,0,1-.52.06H47.5c-.4,0-.79,0-1.19,0s-.72-.07-1.07-.07h-.15v0s0-.07,0-.1,0,.07,0,.1a10.66,10.66,0,0,1-.28,1.27c.06,1.1.15,2.19.25,3.3,0,.37.08.72.09,1.09h0c.05.51.09,1,.18,1.54,0,.05,0,.11,0,.17s0,.39.07.57l.06.48c0,.19,0,.38.07.56h6.92S52.4,61.11,52.4,61.1Zm-1.35-2a.72.72,0,0,1-.65.22,1.29,1.29,0,0,1-.76-.38,5.15,5.15,0,0,1-.87-1.34c-.19-.34-.32-.72-.49-1.09a4,4,0,0,1-.23-.71.84.84,0,0,1,.59-.94.79.79,0,0,1,.68.13,1.48,1.48,0,0,1,.42.64c.19.39.38.76.57,1.14s.26.52.42.77l.11.2L51,58a1.94,1.94,0,0,1,.1.21,1.88,1.88,0,0,1,.08.22A.73.73,0,0,1,51.05,59.14Z"/><path class="cls-40" d="M36.85,55.42h0Z"/><path class="cls-40" d="M40.39,51.18s0,0,0,0A1.53,1.53,0,0,0,41,51v.09l.37.13a7.62,7.62,0,0,1-.85,0Z"/><path class="cls-40" d="M43.41,53.37c-.09,1.2-.2,2.39-.32,3.59,0,.26-.06.52-.07.78h0c-.08.82-.2,1.64-.3,2.46,0,.31-.08.63-.14.94h-.11c.07-.54.16-1.07.22-1.62s.11-.81.15-1.22.11-1,.18-1.54c0-.37.06-.72.09-1.09.08-.91.16-1.81.22-2.71a0,0,0,0,0,0,0c0,.06,0,.13,0,.19S43.4,53.32,43.41,53.37Z"/><path class="cls-41" d="M47.86,36.77a2.51,2.51,0,0,1-.38.83,5.88,5.88,0,0,1-1.69,1.6c-.13.09-.28.16-.34.31a11.35,11.35,0,0,0-.57,1.61.47.47,0,0,1-.13.21c.08.77.19,1.53.23,2.31.07.51.07,1,.14,1.54s0,1,.07,1.45,0,.95,0,1.43,0,1.14,0,1.7c0,.32,0,.66-.05,1s-.06.88-.13,1.31a8.76,8.76,0,0,1-.3,1.38c.06,1.1.15,2.2.25,3.3,0,.37.08.72.09,1.09a12.16,12.16,0,0,1-1.74,0,2.11,2.11,0,0,1-.35-.06c0-.26.05-.52.07-.78.13-1.19.23-2.39.32-3.59l-.19-.75c-.08-.35-.1-.72-.17-1.07a35,35,0,0,1-.1-4.18q.08-2.49.34-5c0-.34.09-.68.09-1a3.06,3.06,0,0,1-.23-.68c-.13-.43-.31-.83-.47-1.25a2.29,2.29,0,0,0-.41-.3,5.5,5.5,0,0,1-1.71-1.72,1.65,1.65,0,0,1-.27-.95,1,1,0,0,1,.3-.64,1.71,1.71,0,0,1,1.07-.44.46.46,0,0,1,.24,0,1.74,1.74,0,0,0,.07.8c.05.15.17.25.21.4s.19.28.3.4a4.36,4.36,0,0,0,1.79.68,3.36,3.36,0,0,0,1.7-1,.3.3,0,0,1,0-.09,1.53,1.53,0,0,0,.27-.57,3.77,3.77,0,0,0,0-.59,1,1,0,0,1,.53,0,1.65,1.65,0,0,1,.79.41A1,1,0,0,1,47.86,36.77Z"/><path class="cls-40" d="M48.67,54.91a.79.79,0,0,1,.68.13,1.39,1.39,0,0,1,.42.64c.19.39.38.76.57,1.14s.26.52.42.77a4.7,4.7,0,0,1,.42.82.67.67,0,0,1-.75.94,1.29,1.29,0,0,1-.76-.38,5.15,5.15,0,0,1-.87-1.34c-.19-.34-.32-.72-.49-1.09a4,4,0,0,1-.23-.71.84.84,0,0,1,.59-.93Z"/><path class="cls-16" d="M36.85,55.42Z"/><path class="cls-42" d="M45.42,60.58c0,.19,0,.38.07.56H42.58c0-.31.09-.63.14-.94.1-.82.22-1.64.3-2.46a1.94,1.94,0,0,0,.35.06,12.13,12.13,0,0,0,1.74,0c.05.51.09,1,.18,1.54,0,.05,0,.11,0,.17s0,.39.07.57A3.72,3.72,0,0,0,45.42,60.58Z"/><path class="cls-40" d="M44.15,52c.87.17,1.15.17,1.68.24a9.09,9.09,0,0,0,1.71,0,8.67,8.67,0,0,0,1-.16,7.44,7.44,0,0,0,2.89-1.28A5.86,5.86,0,0,0,53.79,47a7.89,7.89,0,0,0,.07-2c0-.3-.08-.58-.08-.89l0,.06a6.81,6.81,0,0,0-.2-1,12.09,12.09,0,0,0-.65-1.91,8.06,8.06,0,0,0-1.21-1.85,5.94,5.94,0,0,0-.56-.58.67.67,0,0,1-.19.47,2,2,0,0,1-1,.43l-1.47.39c-.23.06-.46.06-.68.15a.22.22,0,0,0-.15.24.67.67,0,0,0,.23.33c.23.2.44.43.66.65s.32.38.5.54a1.77,1.77,0,0,1,.3.32.2.2,0,0,1-.11.29c-.17.07-.34.14-.51.22a4.33,4.33,0,0,0,0-.64c0,.38,0,.75,0,1.13h-.49l.06.18a6.88,6.88,0,0,1,.64,1.93,4,4,0,0,1,0,.93,2.12,2.12,0,0,1-.35,1.06,2,2,0,0,1-.41.48,3.71,3.71,0,0,1-2.13.75,11.64,11.64,0,0,1-2.2-.05c-.94-.07-2-.18-2-.18-.32,0-.65-.1-1-.15a.26.26,0,0,0-.18,0c.14.07.3.17.3.34a.65.65,0,0,1-.25.52c.13.06.28.11.34.25a.55.55,0,0,1,0,.34,1.13,1.13,0,0,1-.29.33c.14,0,.3,0,.39.17A.55.55,0,0,1,41,51v.09c.39.11,1.33.5,1.51.56a13.44,13.44,0,0,0,1.62.38Z"/><path class="cls-40" d="M44.8,51.12c.87-.17,1.41-.32,1.61-.38s1.14-.45,1.51-.56v-.09a.57.57,0,0,1-.18-.72c.08-.13.25-.14.39-.17a1.11,1.11,0,0,1-.29-.33.55.55,0,0,1,0-.34.69.69,0,0,1,.34-.25.66.66,0,0,1-.25-.52c0-.18.17-.27.3-.34a.21.21,0,0,0-.18,0c-.32.05-.65.13-1,.15,0,0-1,.11-2,.18a10.81,10.81,0,0,1-2.2.05A3.71,3.71,0,0,1,40.79,47a2,2,0,0,1-.41-.48A2.31,2.31,0,0,1,40,45.46a3.94,3.94,0,0,1,0-.93,7.11,7.11,0,0,1,.64-1.93l.06-.18h-.49c0-.38,0-.75,0-1.13a4.33,4.33,0,0,0,0,.64c-.17-.08-.34-.15-.51-.22a.21.21,0,0,1-.11-.29,2.22,2.22,0,0,1,.3-.32c.18-.17.32-.38.5-.54s.43-.45.66-.65a.61.61,0,0,0,.23-.33.21.21,0,0,0-.15-.24c-.22-.08-.46-.08-.68-.15L39,38.79a2,2,0,0,1-1-.43.7.7,0,0,1-.19-.47,5,5,0,0,0-.56.58A8.29,8.29,0,0,0,36,40.32a10.56,10.56,0,0,0-.65,1.91,6.81,6.81,0,0,0-.2,1l0-.06c0,.29-.07.58-.08.89a7.43,7.43,0,0,0,.07,2,5.86,5.86,0,0,0,2.32,3.83,7.52,7.52,0,0,0,2.89,1.28,7,7,0,0,0,1,.16,10,10,0,0,0,1.71,0c.54-.07.82-.08,1.69-.24Z"/><path class="cls-40" d="M36.15,55.42h0Zm.71,3.09h0s0,0,0,0S36.86,58.5,36.86,58.51Zm0-.13a1.61,1.61,0,0,1,.08-.2A1,1,0,0,0,36.91,58.39Zm6.29-6.56c0-.16-.07-.3-.09-.46s0-.23-.05-.34a.3.3,0,0,1,0,.09s0,0,0,0c-.41,0-.81.07-1.23.06H41.4l.46.16.31.1a3.79,3.79,0,0,1,.88.3s0,0,0,0,0,.19,0,.14a6.32,6.32,0,0,0,.13.67,0,0,0,0,0,0,0c0,.11.05.23.08.34l0-.57C43.29,52.2,43.24,52,43.2,51.82Z"/><path class="cls-40" d="M43.23,52.63s0,0,0,0a6.32,6.32,0,0,1-.13-.67c0,.05,0-.07,0-.14s0,0,0,0a4.36,4.36,0,0,0-.88-.3l-.31-.1-.46-.16h0a7.19,7.19,0,0,1-.82,0h-.22c-.27,0-.55-.09-.82-.14a7.44,7.44,0,0,1-2.89-1.28s0,.21,0,.24l0,.23c0,.33-.05.66-.08,1-.06.68-.14,1.35-.18,2s-.14,1.53-.21,2.3S36,57,35.9,57.8c0,.31-.05.63-.08.94s-.07.88-.13,1.31-.07.73-.1,1.1h6.87c.07-.54.16-1.07.22-1.62s.11-.81.15-1.22.11-1,.18-1.54c0-.37.06-.72.09-1.09.08-.91.16-1.81.22-2.71h0C43.28,52.86,43.25,52.74,43.23,52.63Zm-6.38,2.8h0Zm0,3.09h0v0Zm0-.13a1.61,1.61,0,0,1,.08-.2A1,1,0,0,0,36.91,58.39Z"/><path class="cls-40" d="M36.86,58.51s0,0,0,0,0,0,0,0Z"/><path class="cls-40" d="M37,58.08h0L37,58.2c0,.06-.05.13-.08.2a1.61,1.61,0,0,1,.08-.2Z"/><line class="cls-43" x1="57.69" y1="55.74" x2="57.68" y2="55.74"/><rect class="cls-44" x="38.87" y="40.42" width="25.45" height="15.32" rx="0.46" ry="0.46"/><rect class="cls-43" x="39.54" y="41.14" width="24.11" height="13.88" rx="3.62" ry="3.62"/><rect class="cls-45" x="50.91" y="50.09" width="11.21" height="0.94"/><rect class="cls-43" x="41.26" y="44.57" width="8.77" height="9.68"/><rect class="cls-46" x="50.87" y="44.57" width="11.3" height="1.68"/><rect class="cls-45" x="50.91" y="46.86" width="11.21" height="0.94"/><rect class="cls-45" x="50.91" y="48.48" width="11.21" height="0.94"/><rect class="cls-45" x="50.91" y="51.7" width="11.21" height="0.94"/><rect class="cls-45" x="50.91" y="53.31" width="11.21" height="0.94"/><path class="cls-45" d="M55.88,53.35Z"/><path class="cls-45" d="M58.25,53.36Z"/><path class="cls-45" d="M58.31,53.33Z"/><path class="cls-45" d="M60.78,53.34Z"/><path class="cls-47" d="M59.71,54.23h-.16v-.82h.28A1.48,1.48,0,0,1,59.71,54.23Z"/><path class="cls-48" d="M59.94,53.36v.53h0a.9.9,0,0,1,0,.14.29.29,0,0,1,0,.08h0l-.06.07h-.13v-.87Z"/><path class="cls-49" d="M60.16,53.36v.87H60A1.51,1.51,0,0,1,60,54a1.42,1.42,0,0,1,0-.15,1.39,1.39,0,0,1,0-.48v0Z"/><path class="cls-50" d="M61,54.23h-.06a.25.25,0,0,1-.06-.08.34.34,0,0,1,0-.17v-.06h0v-.15a2.18,2.18,0,0,0,0-.33v-.08H61v.55C61,54.09,61,54.13,61,54.23Z"/><path class="cls-51" d="M59.39,54a.7.7,0,0,1,0,.12.62.62,0,0,1,0,.11h-.06a3.94,3.94,0,0,1,0-.76v-.11h.16a1.79,1.79,0,0,0,0,.29h0A1.78,1.78,0,0,1,59.39,54Z"/><path class="cls-52" d="M59.39,54.23a1,1,0,0,1,0-.11v-.75h.1v.76S59.48,54.23,59.39,54.23Z"/><path class="cls-53" d="M51.81,53.36v.1h0v.26h0v.16h0a.49.49,0,0,0,0,.18.31.31,0,0,0,.08.13H52v-.87Z"/><path class="cls-54" d="M60.83,53.77v.29h0a.32.32,0,0,1,0,.08h0l-.06.07h-.06v-.87h.11C60.83,53.5,60.83,53.63,60.83,53.77Z"/><path class="cls-55" d="M60,53.36v.87h0v-.17a1.57,1.57,0,0,1,0-.16,2.1,2.1,0,0,1,0-.46Z"/><path class="cls-56" d="M60,53.36v.87h-.1v-.07a3.74,3.74,0,0,1,0-.8Z"/><path class="cls-57" d="M51.91,53.36v.87h-.13a.13.13,0,0,1,0-.15.89.89,0,0,0,0-.09,1.82,1.82,0,0,0,0-.27,1.92,1.92,0,0,1,0-.27v-.08Z"/><path class="cls-58" d="M59.27,54.23H59.2v-.87h.06C59.27,53.65,59.27,53.94,59.27,54.23Z"/><path class="cls-59" d="M59.9,53.36v.87h-.06v-.87Z"/><path class="cls-60" d="M61.06,53.36v.87H61v-.87Z"/><path class="cls-61" d="M51.82,53.76q0,.08,0,.16h0a1.54,1.54,0,0,1,0,.19v.12h-.06v-.87h.09v.1h0A1,1,0,0,0,51.82,53.76Z"/><path class="cls-62" d="M60.93,54.23h-.06v-.16h0v-.15a1.84,1.84,0,0,1,0-.45v-.11H61A5.08,5.08,0,0,0,60.93,54.23Z"/><path class="cls-63" d="M60.86,53.36v.87H60.8v-.07a3.22,3.22,0,0,1,0-.8h.06Z"/><rect class="cls-64" x="59.33" y="53.36" width="0.06" height="0.87"/><path class="cls-65" d="M60.8,53.36v.87h-.06v-.87h.06Z"/><path class="cls-66" d="M54.12,53.92h0a1,1,0,0,1,0,.15.94.94,0,0,1-.06.16H53.7a1.55,1.55,0,0,1,0-.25,1.54,1.54,0,0,1,0,.25s-.06,0-.06-.08v-.79h.09v0h.42v.14A1.58,1.58,0,0,1,54.12,53.92Z"/><path class="cls-67" d="M60.61,53.39a8.1,8.1,0,0,0-.06.84H60.3v-.87h.32Z"/><path class="cls-64" d="M57.6,54.23h-.26c-.12-.18,0-.37-.06-.56s0-.21,0-.31h.35v.55C57.63,54.09,57.66,54.13,57.6,54.23Z"/><path class="cls-68" d="M59.14,53.36H59v0h-.19v.14h0a2,2,0,0,0,0,.21,1.11,1.11,0,0,1,0,.16h0a.54.54,0,0,0,0,.26h0v0h.06L59,54a1.59,1.59,0,0,0,0,.25h.13C59.14,53.93,59.14,53.64,59.14,53.36Z"/><path class="cls-69" d="M58.27,53.9h0s0,.07,0,.1h0v.06h0v.13H58a4.77,4.77,0,0,1,0-.87h.29a.81.81,0,0,1,0,.1A1.31,1.31,0,0,1,58.27,53.9Z"/><path class="cls-55" d="M54.73,54.08h0v.1h-.18v-.87h.27A1.77,1.77,0,0,1,54.73,54.08Z"/><path class="cls-70" d="M56.52,53.72a2,2,0,0,1-.06.29h0a.3.3,0,0,1-.07.23h-.13a2.08,2.08,0,0,1-.06-.32,1.92,1.92,0,0,1,0-.45v-.11h.3A1.37,1.37,0,0,1,56.52,53.72Z"/><path class="cls-66" d="M55.56,53.36v.87h-.13l-.06-.07h0a.35.35,0,0,1,0-.12.84.84,0,0,1,0-.17h0a1.4,1.4,0,0,0,0-.15h0v-.3Z"/><path class="cls-71" d="M52.49,54a1,1,0,0,1-.06.26H52.3a2,2,0,0,1-.06-.87h.24v.21A2,2,0,0,1,52.49,54Z"/><path class="cls-49" d="M57.35,54.23h-.12v-.87h.13C57.35,53.65,57.34,53.94,57.35,54.23Z"/><path class="cls-52" d="M54.41,54.23h-.13a1.68,1.68,0,0,1-.06-.19,1.35,1.35,0,0,1,0-.59v-.1h.2C54.41,53.64,54.41,53.93,54.41,54.23Z"/><path class="cls-72" d="M57,54.08h0v.1h-.12v-.87H57A1.66,1.66,0,0,1,57,54.08Z"/><path class="cls-73" d="M55.11,54.23H55a1,1,0,0,1-.06-.16v-.14h0a1.44,1.44,0,0,1,0-.4h0v-.15h.2A7.68,7.68,0,0,0,55.11,54.23Z"/><path class="cls-72" d="M54.92,53.91V54h0a1.75,1.75,0,0,1,0,.18h-.13v-.1a5.26,5.26,0,0,1,0-.77H55v.1A2,2,0,0,1,54.92,53.91Z"/><path class="cls-55" d="M57.09,54.23H57s0-.07,0-.1a5,5,0,0,1,0-.77h.15A4.15,4.15,0,0,0,57.09,54.23Z"/><path class="cls-74" d="M52.3,53.84v.39h-.12v-.87h.11a.19.19,0,0,0,0,.13A.86.86,0,0,1,52.3,53.84Z"/><path class="cls-60" d="M56.64,54.23h-.13a1.24,1.24,0,0,1-.06-.23h0a2,2,0,0,1,0-.64h.19A3.64,3.64,0,0,1,56.64,54.23Z"/><path class="cls-75" d="M56.52,53.36v.87h-.13v-.86Z"/><path class="cls-76" d="M54.73,53.36v.86h-.06v-.87Z"/><path class="cls-77" d="M61.31,54.23h-.06a3.94,3.94,0,0,1,0-.76.8.8,0,0,1,0-.11h.09A8.43,8.43,0,0,0,61.31,54.23Z"/><path class="cls-78" d="M52.49,54.23h-.06v-.87h.1A4.87,4.87,0,0,1,52.49,54.23Z"/><path class="cls-79" d="M56.7,53.36v.85h0v-.87Z"/><path class="cls-51" d="M53.35,53.36h0v.07c-.07.24,0,.49-.07.72l-.06.07h-.06A1.69,1.69,0,0,1,53.1,54h0a1.2,1.2,0,0,1,0-.12,1.26,1.26,0,0,1,0-.44v-.1Z"/><path class="cls-80" d="M58.5,54.23h-.06a.25.25,0,0,1-.06-.08.75.75,0,0,1,0-.34,2.88,2.88,0,0,0,0-.43h.22v.55A.41.41,0,0,1,58.5,54.23Z"/><path class="cls-48" d="M53.06,54v.11a.83.83,0,0,1,0,.15H53l-.06-.07h0a.25.25,0,0,1,0-.07,1.49,1.49,0,0,1,0-.24,3.1,3.1,0,0,0,0-.47h.25v.22A2.24,2.24,0,0,1,53.06,54Z"/><path class="cls-50" d="M57,53.36v.87h-.1v-.87Z"/><path class="cls-56" d="M55.84,53.89a1,1,0,0,1,0,.17.31.31,0,0,1,0,.08h0l-.06.07h-.06a3.94,3.94,0,0,1,0-.76.64.64,0,0,1,0-.11h.22A3.32,3.32,0,0,0,55.84,53.89Z"/><path class="cls-81" d="M54.18,53.36v.54h0a.85.85,0,0,1,0,.13.28.28,0,0,1,0,.08h0l-.06.06H54V53.3Z"/><path class="cls-82" d="M52.87,53.91v.32h-.06a3.94,3.94,0,0,1,0-.76.81.81,0,0,1,0-.11h.14v.11A1.8,1.8,0,0,1,52.87,53.91Z"/><path class="cls-83" d="M51.83,54.1h0v-.74h.07V54C51.85,54,51.86,54.08,51.83,54.1Z"/><path class="cls-84" d="M55.33,53.66V54a.34.34,0,0,1,0,.13h0l-.06.07h0v-.85h.15A.7.7,0,0,0,55.33,53.66Z"/><path class="cls-85" d="M55.94,54.23h-.06v-.16a1.47,1.47,0,0,1,0-.16,1.87,1.87,0,0,1,0-.44v-.11H56v.55A.48.48,0,0,1,55.94,54.23Z"/><path class="cls-86" d="M58.84,54.18H58.7v-.87h.13v.78A.07.07,0,0,1,58.84,54.18Z"/><path class="cls-87" d="M52.57,53.36v.82c0,.11,0,0-.06,0v-.87Z"/><path class="cls-88" d="M55.37,54.16v.07H55.3v-.07a3.23,3.23,0,0,1,0-.8h.1A3.19,3.19,0,0,1,55.37,54.16Z"/><path class="cls-89" d="M58,54.23s-.06,0-.06-.08v-.8H58Z"/><path class="cls-64" d="M53.45,54.23l-.06-.07h0a.26.26,0,0,1,0-.07,2.31,2.31,0,0,1,0-.38V53.4h.17v.76S53.53,54.23,53.45,54.23Z"/><path class="cls-90" d="M53.38,53.92v.31h-.13v-.06a4.21,4.21,0,0,0,0-.81h.15v.11A1.84,1.84,0,0,1,53.38,53.92Z"/><path class="cls-91" d="M55,53.36v.87h-.06V54h0v-.11h0a3.38,3.38,0,0,1,0-.4h0v-.15Z"/><rect class="cls-92" x="54.85" y="53.36" width="0.06" height="0.87"/><path class="cls-93" d="M59,54.23h-.06v-.87H59v.87Z"/><path class="cls-94" d="M58.82,54.23v-.1h0v-.26h0a2.78,2.78,0,0,1,0-.37h0v-.14h.08v.87Z"/><path class="cls-95" d="M58.5,54.23v-.87h.06v.76S58.58,54.23,58.5,54.23Z"/><path class="cls-96" d="M54.28,53.36v.87h-.06v-.16a1.47,1.47,0,0,1,0-.16,2,2,0,0,1,0-.44v-.11Z"/><path class="cls-97" d="M54.21,53.36v.87h-.06v-.06h0v-.25h0a3.88,3.88,0,0,1,0-.42v-.14Z"/><path class="cls-98" d="M54.15,53.36v.87h-.06v-.86Z"/><path class="cls-99" d="M53.7,54.23h-.06v-.87h.06v.87Z"/><path class="cls-100" d="M58.43,53.36v.87h-.06a1.34,1.34,0,0,1-.06-.19,1.07,1.07,0,0,1,0-.14h0a1.27,1.27,0,0,1,0-.42,1.07,1.07,0,0,1,0-.12h.12Z"/><path class="cls-101" d="M53.39,54.16v.07h-.06v-.87h.08A3.19,3.19,0,0,1,53.39,54.16Z"/><path class="cls-90" d="M58.37,53.36v.87h-.06a2.11,2.11,0,0,1,0-.23v-.09a1.8,1.8,0,0,1,0-.45v-.11h.11Z"/><path class="cls-102" d="M53.13,53.36v.87h-.06V53.9a3.43,3.43,0,0,1,0-.44v-.1Z"/><path class="cls-103" d="M53.06,53.36v.87H53v-.87Z"/><path class="cls-70" d="M58.31,53.33v.9h-.06V54.1h0a3.69,3.69,0,0,1,0-.74h0Z"/><rect class="cls-104" x="58.18" y="53.36" width="0.06" height="0.87"/><path class="cls-105" d="M55.69,54.23c-.09,0-.06-.06-.06-.11v-.76h.06Z"/><path class="cls-106" d="M52.88,54.16v.07h-.06v-.87h.09A3.68,3.68,0,0,1,52.88,54.16Z"/><path class="cls-107" d="M52.74,54.23c-.09,0-.06-.06-.06-.11v-.76h.06C52.75,53.65,52.74,53.94,52.74,54.23Z"/><path class="cls-71" d="M57.6,54.23v-.87h.06v.76S57.69,54.23,57.6,54.23Z"/><path class="cls-108" d="M61.25,53.36v.87c-.09,0-.06-.06-.06-.11v-.76Z"/><path class="cls-109" d="M56.26,53.36v.87H56.2a3.85,3.85,0,0,1,0-.87Z"/><path class="cls-61" d="M56.2,53.36v.87h-.06v-.82Z"/><path class="cls-57" d="M55.94,54.23v-.87H56v.76S56,54.23,55.94,54.23Z"/><path class="cls-110" d="M55.88,53.35v.88h-.06v-.07a3.67,3.67,0,0,1,0-.8h.06Z"/><path class="cls-111" d="M55.81,53.36v.87h-.06v-.87Z"/><path class="cls-112" d="M52.94,54.23h-.06v-.87h.06Z"/><path class="cls-51" d="M53.45,54.23h-.06v-.87h.06Z"/><path class="cls-83" d="M55.3,53.36v.87h-.06q0-.43,0-.87Z"/><path class="cls-107" d="M55.43,54.23h-.06v-.87h.06Q55.43,53.79,55.43,54.23Z"/><path class="cls-52" d="M60.54,54.23v-.74s0-.1.06-.1v.74S60.63,54.23,60.54,54.23Z"/><path class="cls-53" d="M53.19,54.17v-.81h.06v.7S53.28,54.17,53.19,54.17Z"/><path class="cls-113" d="M58.82,53.36v.81h-.06v-.76Z"/><text class="cls-114" transform="translate(44.96 43.77) scale(1.06 1)">DRIVER LICENSE</text><path class="cls-115" d="M48.89,50.24a.26.26,0,0,0-.08-.09.27.27,0,0,0-.15,0c-.06,0-.13.08-.2.24a3,3,0,0,0-.15.4v.15h.18l.12-.07a.79.79,0,0,0,.17-.14.86.86,0,0,0,.12-.17.43.43,0,0,0,.06-.18A.26.26,0,0,0,48.89,50.24ZM43,50.91h0l-.07-.22a3,3,0,0,0-.16-.39c-.06-.12-.11-.17-.16-.17a.2.2,0,0,0-.13.06.25.25,0,0,0-.07.09.34.34,0,0,0,0,.12.42.42,0,0,0,.06.18.87.87,0,0,0,.14.17.88.88,0,0,0,.16.13l.11.06H43Zm5.63-1.54a5,5,0,0,0-.1-.6,5.57,5.57,0,0,0-.21-.72q-.12-.33-.22-.55a1.13,1.13,0,0,0-.11-.22h0l-.1.12-.14.17-.25.24a4.28,4.28,0,0,1-.33.29l-.29.2-.2.11-.31.12a4.86,4.86,0,0,1-.6.17l-.36.08h0l.07-.06.2-.16.14-.11h0l.14-.13.11-.09h0l.21-.2.24-.24.07-.08h-.07l-.19.11-.53.28a6.9,6.9,0,0,1-.69.31,6,6,0,0,1-.83.25q-.49.12-1.18.23c-.45.08-.68.15-.68.22v.32a2,2,0,0,0,.13.47c.07.17.11.26.14.27L43,50h.1l-.1-.14-.07-.13v-.06H43l.1,0h.06v-.11h.27l.17-.06a1.29,1.29,0,0,1,.87,0l.19.07h-.39l.15.07a1.05,1.05,0,0,1,.2.12l.06,0h0l-.1,0H44a1,1,0,0,0-.34.06,1.17,1.17,0,0,0-.28.16c-.09.07-.14.12-.14.16a.61.61,0,0,0,.09.21,1,1,0,0,0,.17.24.72.72,0,0,0,.2.14l.2.08h.75l-.15,0a1,1,0,0,1-.3,0,2.31,2.31,0,0,1-.46,0,1.83,1.83,0,0,0-.4,0h-.11v.1a1.27,1.27,0,0,0,.1.28,1,1,0,0,0,.2.3,1.1,1.1,0,0,0,.19.17l.08.06h.08l.32.2q.32.2.61.35a5.53,5.53,0,0,0,.52.24,1.09,1.09,0,0,0,.34.09,1.39,1.39,0,0,0,.42-.13,6.11,6.11,0,0,0,.63-.31l.47-.26.29-.19.14-.1h.06l.11-.09A1,1,0,0,0,48,51.5a1.44,1.44,0,0,0,.14-.31l.08-.21h-.5a2.86,2.86,0,0,1-.43,0H47L46.8,51l-.13,0h.74l.2-.07a.79.79,0,0,0,.21-.13,1,1,0,0,0,.15-.2.94.94,0,0,0,.11-.22v-.1L48,50a1.19,1.19,0,0,0-.27-.15,1,1,0,0,0-.34-.06h-.17a.8.8,0,0,1,.23,0,.63.63,0,0,1,.19.13.52.52,0,0,1,.13.17.47.47,0,0,1,0,.19.43.43,0,0,1,0,.18.64.64,0,0,1-.09.15l-.08.08h-.08v-.14a.68.68,0,0,0,0-.15v-.11h0a.2.2,0,0,1-.13,0,.24.24,0,0,1-.14,0,.2.2,0,0,1-.08-.09.21.21,0,0,1,0-.1h-.31l-.13.07-.11,0,.09-.1a1.2,1.2,0,0,1,.28-.18c.13-.06.18-.09.16-.09h-.42a1.06,1.06,0,0,1,.24-.11,1.32,1.32,0,0,1,.3-.06,1.25,1.25,0,0,1,.56.09l.17.06a.4.4,0,0,0,.16,0h.12l-.06.13v.08a.61.61,0,0,0,.18-.09c.06,0,.09,0,.09,0a.3.3,0,0,1,0,.11.76.76,0,0,1-.09.15l0,.08h.17a.86.86,0,0,0,.16-.24.9.9,0,0,0,0-.74Zm1-.61a4.47,4.47,0,0,0-.08-.64,4.42,4.42,0,0,0-.13-.52,2,2,0,0,0-.09-.23h0l-.1-.13L49,46.91a1.49,1.49,0,0,0-.24-.17,1.66,1.66,0,0,0-.33-.16,1.51,1.51,0,0,0-.31-.08.22.22,0,0,1-.19-.13,1,1,0,0,0-.11-.21.75.75,0,0,0-.15-.17,1.34,1.34,0,0,0-.3-.16,2.74,2.74,0,0,0-.42-.14l-.5-.09a4.63,4.63,0,0,0-.6,0,4.5,4.5,0,0,0-.52,0l-.54.09a3.82,3.82,0,0,0-.6.17l-.4.16-.11,0h0l-.15.08-.23.14-.22.15-.13.1-.13.12-.12.11h0l-.12.12-.06.06v0l-.13.16,0,.08a2,2,0,0,0-.18.35,4.1,4.1,0,0,0-.15.48,4.44,4.44,0,0,0-.11.56,6.54,6.54,0,0,0,0,.77v1h0v.27a2,2,0,0,0,.15.67,8.3,8.3,0,0,1,.28.93l.21.62V53h0V51.75l.28.83.33,1a.19.19,0,0,0,.23.13h.21l-.08-.55-.08-.54v-.06h0l.14.22.29.45a.53.53,0,0,0,.55.2c.26,0,.41-.08.43-.16a1.6,1.6,0,0,0,0-.35c0-.15,0-.24-.06-.26l-.37-.21q-.31-.18-.57-.36c-.18-.13-.32-.23-.41-.31a1.68,1.68,0,0,1-.22-.22,1.27,1.27,0,0,1-.15-.29.69.69,0,0,0-.09-.19h-.11a.49.49,0,0,1-.22-.06L42.52,51h0a1,1,0,0,1-.13-.15.72.72,0,0,1-.12-.24v-.11h0v-.14a.62.62,0,0,1,0-.07v-.15a.26.26,0,0,1,.08-.09h.19l-.06-.14a2.18,2.18,0,0,1-.1-.29,2.1,2.1,0,0,1-.06-.38V49H42l.34-.21.56-.35.25-.17.2-.14.28-.2.11-.09.14-.12.17-.14.11-.1h0l.06-.06h0l.06,0h0l.12-.12h.06v.07a2.08,2.08,0,0,1-.17.23,3.54,3.54,0,0,1-.26.3l-.29.27q-.16.14-.45.35l-.44.31-.16.1h0l.68-.11a7.9,7.9,0,0,0,1-.21,5,5,0,0,0,.52-.16l.46-.21.6-.32.54-.31.25-.15H47v.16a3.24,3.24,0,0,1-.17.33,2.29,2.29,0,0,1-.28.42,2.62,2.62,0,0,1-.27.26l-.26.19-.11.07h0l.25-.08a2.7,2.7,0,0,0,.43-.18l.31-.17a2,2,0,0,0,.28-.23l.17-.16.06-.06.12-.13.22-.24.2-.24L48,47h0l.09.18.09.18h0l.11.27c.07.18.14.38.22.61a5.18,5.18,0,0,1,.15.54.91.91,0,0,0,.06.4c.06.13,0,.23,0,.32v.12h0l.07-.16a6.35,6.35,0,0,0,.2-.62l.14-.48v.17a2.75,2.75,0,0,1,0,.48,2.39,2.39,0,0,1-.13.44,1.53,1.53,0,0,1-.16.32l-.11.15h.08a.28.28,0,0,1,.12.06v0h0a.52.52,0,0,1,0,.16.73.73,0,0,1,0,.21.81.81,0,0,1-.1.2,1,1,0,0,1-.16.2.88.88,0,0,1-.19.14.46.46,0,0,1-.18.06.23.23,0,0,1-.12,0h0v.24h0v.09a1,1,0,0,1-.16.21l-.27.24-.27.2-.46.28-.51.3a.28.28,0,0,0-.17.27,1.42,1.42,0,0,0,0,.32q0,.14.51.14c.32,0,.49,0,.52-.1s.08-.17.15-.33l.16-.33,0-.11h0V53q0,.51.25.53t.37-.31c.08-.22.17-.51.26-.85s.16-.58.19-.71v-.22h0v-.12h0v.14a4,4,0,0,1,0,.42,5.31,5.31,0,0,1,0,.65c0,.22,0,.33,0,.35V53h0l.06-.14a4.1,4.1,0,0,1,.2-.55c.1-.28.19-.56.26-.84s.13-.54.17-.79l.06-.36h0v-.8C49.45,49.22,49.64,49,49.63,48.76Zm.17-.42a4.43,4.43,0,0,0-.1-.54,3.32,3.32,0,0,0-.12-.4,2.68,2.68,0,0,0-.17-.33,1.69,1.69,0,0,0-.28-.36,1.63,1.63,0,0,0-.27-.22,1.6,1.6,0,0,0-.27-.13,1.25,1.25,0,0,0-.31-.08h-.16l-.07-.14a1.15,1.15,0,0,0-.16-.24.83.83,0,0,0-.27-.2,2.85,2.85,0,0,0-.43-.15,3.72,3.72,0,0,0-.58-.11,6.26,6.26,0,0,0-.63,0h-.67l-.55.06-.57.14a4.65,4.65,0,0,0-.67.24,3.93,3.93,0,0,0-.52.28,3.11,3.11,0,0,0-.42.33,2.87,2.87,0,0,0-.25.26l-.17.23a3.25,3.25,0,0,0-.26.45,3.67,3.67,0,0,0-.24.63,4.7,4.7,0,0,0-.14.62,4.75,4.75,0,0,0,0,.59,5.73,5.73,0,0,0,0,.67,3.69,3.69,0,0,0,.14.89,9,9,0,0,0,.23.94q.13.4.27.74c.1.23.21.48.34.76l.19.42h0V52.6l.17.51q.17.51.22.63v.13h0l.31-.08.32-.08h0l-.07-.36,0-.34v-.1h0l.16.33a.52.52,0,0,0,.57.29h.48s.09,0,.13-.17A2.23,2.23,0,0,0,45,53v-.23h0l.22.08a.9.9,0,0,0,.3.07.87.87,0,0,0,.23-.06l.17-.06h0V53a2.38,2.38,0,0,0,.08.38c0,.11.07.16.12.15h.55q.48,0,.58-.22l.1-.24h0V53h0v.59h.76l.14-.45c.08-.27.15-.51.2-.72l.07-.31V52h0v.36a2.28,2.28,0,0,1-.08.59l-.06.32v.06h0l.15-.24c.09-.15.19-.33.29-.54s.18-.38.23-.5.1-.29.17-.49a7,7,0,0,0,.17-.7q.08-.4.13-.85a8.71,8.71,0,0,0,0-1,6.77,6.77,0,0,0,.2-.72Z"/><path class="cls-116" d="M45.47,52.23h-.2a.06.06,0,0,0,0,.06.21.21,0,0,0,.13,0h.1S45.48,52.23,45.47,52.23Zm.65-.2a2.35,2.35,0,0,1-.47,0H45v.08h.55a3.17,3.17,0,0,0,.6,0c.06,0,.1,0,.1-.08S46.21,52,46.12,52Zm-.63-.92-.12.1a.12.12,0,0,0,0,.09.22.22,0,0,0,.06.13l.09.09v-.08a.42.42,0,0,1,0-.24C45.56,51.11,45.55,51.11,45.49,51.11Zm1.34-.8Zm-2-.3h0s0,.1,0,0Zm-.1,0Zm0-.73Zm3.67,0-.12-.08a.87.87,0,0,0-.31,0,1.25,1.25,0,0,0-.29,0h-.21l-.28.06a1.37,1.37,0,0,0-.33.13.79.79,0,0,0-.18.13h0v0h.14a1.77,1.77,0,0,0,.38-.13,3.33,3.33,0,0,1,.43-.16,1.28,1.28,0,0,1,.3,0,1.17,1.17,0,0,1,.27,0h.23Zm-3.79.13-.07-.06-.2-.12a1.47,1.47,0,0,0-.37-.07,2.09,2.09,0,0,0-.38,0,1.31,1.31,0,0,0-.31,0,1,1,0,0,0-.26.09l-.11.06H43a1.21,1.21,0,0,1,.29,0,1.29,1.29,0,0,1,.31,0,3.33,3.33,0,0,1,.45.17,1.59,1.59,0,0,0,.36.13h.13v-.1Zm1.1-1.09-.14.07h0l-.15.07-.19.07h-.36l-.25.06-.3.07h0l.21.11.13.08h0l-.17.31a1.42,1.42,0,0,0-.31-.11H44l.39-.09.41-.1h.15l.34-.12.22-.09h0l.11-.08.09-.07h0Zm2.9,1.17a5,5,0,0,0-.1-.6,5.57,5.57,0,0,0-.21-.72q-.12-.33-.22-.55a1.13,1.13,0,0,0-.11-.22h0l-.1.12-.14.17-.25.24a4.28,4.28,0,0,1-.33.29l-.29.2-.2.11-.31.12a4.86,4.86,0,0,1-.6.17l-.36.08h0l.07-.06.2-.16.14-.11h0l.14-.13.11-.09h0l.21-.2.24-.24.07-.08H46.6l-.19.11-.53.28a6.9,6.9,0,0,1-.69.31,6,6,0,0,1-.83.25q-.49.12-1.18.23c-.45.08-.68.15-.68.22v.32a2,2,0,0,0,.13.47c.07.17.11.26.14.27l.2-.13h.1L43,50l-.07-.13v-.06H43l.1,0h.06v-.11h.27l.17-.06a1.29,1.29,0,0,1,.87,0l.19.07h-.39l.15.07a1.05,1.05,0,0,1,.2.12l.06,0h.1v-.12a.2.2,0,0,0-.11-.18l-.11-.06h0v-.18h0v.16a.45.45,0,0,1,0,.17h.07v.19a1.76,1.76,0,0,0,0,.27,3.88,3.88,0,0,1,0,.6,5.43,5.43,0,0,1,0,.7v.21h-.07a1.42,1.42,0,0,0,0-.16,2.08,2.08,0,0,0,.39-.46v-.3a.37.37,0,0,1,0-.06h0v-.2a1.81,1.81,0,0,0,0-.27v-.17h0v.15a1.7,1.7,0,0,1,0,.22,1.62,1.62,0,0,1,0,.18v.13h0v.07a.91.91,0,0,1,0,.25,1.11,1.11,0,0,1-.06.33.89.89,0,0,1-.12.24.53.53,0,0,1-.17.15.7.7,0,0,1-.23.07.94.94,0,0,1-.26,0H43.9l.32.2q.32.2.61.35a5.53,5.53,0,0,0,.52.24,1.09,1.09,0,0,0,.34.09,1.39,1.39,0,0,0,.42-.13,6.11,6.11,0,0,0,.63-.31l.47-.26.29-.19.14-.1h-.7a.52.52,0,0,1-.15-.08.75.75,0,0,1-.13-.13.74.74,0,0,1-.11-.21,1.43,1.43,0,0,1,0-.5h.2a.49.49,0,0,1,0-.1v-.12h0l.17,0h-.36l.1,0-.22.08h0l-.13.07.13-.07h0c.08-.07,0-.11.13-.16s.18-.09.16-.09h-.27c-.16,0,0,0,0,0s0,0,.08-.08a1.32,1.32,0,0,1,.3-.06,1.25,1.25,0,0,1,.56.09l.17.06a.4.4,0,0,0,.16,0h.12l-.06.13v.08a.61.61,0,0,0,.18-.09c.06,0,.09,0,.09,0a.3.3,0,0,1,0,.11.76.76,0,0,1-.09.15l0,.08H48a.86.86,0,0,0,.16-.24.9.9,0,0,0,.38-1.13Z"/><path class="cls-117" d="M43.61,46.06h0l.06,0a1.28,1.28,0,0,0,.26.14l.35.14a3.83,3.83,0,0,0,.48.1l.44.06H46l-.49.12-.62.11h-1a5.06,5.06,0,0,1-.67,0,2.05,2.05,0,0,1-.38-.09l-.15,0h0l.13-.11.13-.12.13-.1.22-.15.23-.14.15-.08Z"/><path d="M43.91,50a.16.16,0,0,0-.1,0,.15.15,0,0,0-.11,0,.12.12,0,0,0,0,.11.14.14,0,0,0,0,.1.16.16,0,0,0,.2,0,.14.14,0,0,0,0-.11A.13.13,0,0,0,43.91,50Zm.76,0h-.52a.78.78,0,0,0-.25.07.62.62,0,0,0-.18.14.5.5,0,0,0-.11.18.44.44,0,0,0,0,.18.46.46,0,0,0,0,.16.69.69,0,0,0,.11.14l.09.08h.09v-.14a.69.69,0,0,1,0-.15v-.08h0a.21.21,0,0,0,.14,0,.24.24,0,0,0,.13,0,.16.16,0,0,0,.06-.07h0a.25.25,0,0,0,0-.07v-.06h.4Z"/><path d="M47.18,49.64a.16.16,0,0,0-.1,0,.15.15,0,0,0-.11,0,.12.12,0,0,0,0,.11.14.14,0,0,0,0,.1.16.16,0,0,0,.2,0,.14.14,0,0,0,0-.11A.13.13,0,0,0,47.18,49.64Zm.76,0h-.52a.78.78,0,0,0-.25.07.62.62,0,0,0-.18.14.5.5,0,0,0-.11.18.44.44,0,0,0,0,.18.46.46,0,0,0,0,.16.69.69,0,0,0,.11.14l.09.08h.09V50.5a.69.69,0,0,1,0-.15v-.08h0a.21.21,0,0,0,.14,0,.24.24,0,0,0,.13,0,.16.16,0,0,0,.06-.07h0a.25.25,0,0,0,0-.07v-.06h.4Z"/><path d="M44.63,49.29h0v.08H44.5a1.58,1.58,0,0,1-.36-.13,3.46,3.46,0,0,0-.45-.17,1.27,1.27,0,0,0-.31,0,1.17,1.17,0,0,0-.29,0H43l.11-.06a1,1,0,0,1,.26-.09,1.25,1.25,0,0,1,.31,0A2.09,2.09,0,0,1,44,49a1.49,1.49,0,0,1,.36.12l.2.12Z"/><path d="M48.43,49.19h-.24a1.16,1.16,0,0,0-.27,0,1.25,1.25,0,0,0-.3,0,3.3,3.3,0,0,0-.43.16,1.74,1.74,0,0,1-.38.13h-.14v0h0a.78.78,0,0,1,.18-.13,1.34,1.34,0,0,1,.33-.13l.28-.06h.26A1.26,1.26,0,0,1,48,49a.88.88,0,0,1,.24.11l.13.08Z"/><path class="cls-118" d="M44.47,50.28Zm0,0Zm0,0Zm.59-.08V50h0v.15a1.7,1.7,0,0,1,0,.22,1.62,1.62,0,0,1,0,.18v.07h0v-.2a1.81,1.81,0,0,0-.06-.27Zm-.27-1ZM44.56,49Zm1.13-.76h0s0,0,0,0Zm.06,0Zm0,0-.14.07h0l-.15.07-.19.07H44.9l-.25.06-.3.07h0l.21.11.13.08h.07V49h0l.11.06a.2.2,0,0,1,.11.18v.12h-.22l-.1,0h-.32v.06a.25.25,0,0,1,0,.07h0v-.09h.07v.19h-.06a.06.06,0,0,0-.06,0h0v.06a.07.07,0,0,0,0,0h.59V51a2.08,2.08,0,0,1,0,.41,1.42,1.42,0,0,1,0,.16H45v-.21a5.43,5.43,0,0,0,0-.7,3.88,3.88,0,0,0,0-.6,1.76,1.76,0,0,1,0-.27.28.28,0,0,0-.09-.22h0s-.08-.11-.08-.23v-.18h-.07L44.53,49a1.42,1.42,0,0,0-.31-.11H44l.39-.09.41-.1H45l.34-.12.22-.09h0l.11-.08.09-.07h0Z"/><path class="cls-10" d="M48.37,50.93h-.1v-.16a3.19,3.19,0,0,1,.15-.4q.1-.25.2-.24a.27.27,0,0,1,.15,0,.25.25,0,0,1,.08.09.26.26,0,0,1,0,.13.45.45,0,0,1-.06.18.86.86,0,0,1-.12.17.82.82,0,0,1-.17.14l-.12.07Z"/><path class="cls-11" d="M42.92,50.67l.07.22h-.15l-.11-.06a.93.93,0,0,1-.17-.13.87.87,0,0,1-.13-.17.42.42,0,0,1-.06-.18.34.34,0,0,1,0-.12.27.27,0,0,1,.07-.09.21.21,0,0,1,.13-.06.4.4,0,0,1,.16.17A3,3,0,0,1,42.92,50.67Z"/><path class="cls-119" d="M48.82,51.33h0v.23a2.48,2.48,0,0,1-.19.71,7.37,7.37,0,0,0-.27.85q-.12.34-.37.31T47.7,53v-.48h0l0,.11-.16.33-.15.33q0,.1-.51.1t-.51-.14a1.47,1.47,0,0,1,0-.32.28.28,0,0,1,.17-.27l.51-.3.46-.28.27-.2.27-.24a1,1,0,0,0,.16-.21v-.09h.68S48.82,51.34,48.82,51.33Z"/><path class="cls-120" d="M49.26,47.25h-1l-.09-.18L48,47h0l0,.07-.2.24-.22.24-.12.13-.06.06-.17.16a2,2,0,0,1-.28.23l-.31.17a2.63,2.63,0,0,1-.43.18l-.24.08h0L46,48.5l.26-.19a2.57,2.57,0,0,0,.27-.26,2.32,2.32,0,0,0,.28-.42A3.29,3.29,0,0,0,47,47.3v-.07h0v0h-.09l-.25.15-.54.31-.6.32-.46.21-.52.16q-.36.1-1,.21l-.68.11h0l.16-.11.44-.31.45-.35.29-.27a3.75,3.75,0,0,0,.26-.29,2,2,0,0,0,.17-.23V47h.23l.62-.11L46,46.8h-.75l-.44-.06a3.83,3.83,0,0,1-.48-.1L44,46.31a1.28,1.28,0,0,1-.26-.14l-.06,0h0l.11,0,.4-.16a3.9,3.9,0,0,1,.6-.17l.54-.09h.52a4.76,4.76,0,0,1,.6,0l.5.09a2.66,2.66,0,0,1,.42.14,1.31,1.31,0,0,1,.3.16.74.74,0,0,1,.15.17,1,1,0,0,1,.11.21.21.21,0,0,0,.19.13,1.47,1.47,0,0,1,.31.08,1.74,1.74,0,0,1,.33.16A1.48,1.48,0,0,1,49,47l.16.17.1.13Z"/><path class="cls-8" d="M43.81,50a.16.16,0,0,1,.1,0,.13.13,0,0,1,0,.11.14.14,0,0,1,0,.11.16.16,0,0,1-.2,0,.15.15,0,0,1,0-.1.12.12,0,0,1,0-.11A.15.15,0,0,1,43.81,50Z"/><path class="cls-121" d="M42.22,50.34v0h0v.11a.73.73,0,0,0,.12.24,1,1,0,0,0,.13.16h0l.12.07a.48.48,0,0,0,.22.06H43a.66.66,0,0,1,.09.19,1.23,1.23,0,0,0,.15.29,1.64,1.64,0,0,0,.22.22,4.93,4.93,0,0,0,.41.31q.26.18.58.36l.37.21a.59.59,0,0,1,.06.26,1.65,1.65,0,0,1,0,.35q0,.12-.43.16a.53.53,0,0,1-.55-.2l-.29-.45-.14-.22h0v.06l.08.54.08.55h-.2a.19.19,0,0,1-.24-.12h0l-.33-1-.28-.83V53h0v-.12l-.21-.62q-.18-.53-.28-.93t-.15-.67v-.27h.25Z"/><path class="cls-122" d="M41.79,50.3ZM44.58,47h-.74a5.21,5.21,0,0,1-.67,0,2.08,2.08,0,0,1-.38-.09l-.15,0h0l-.09.1-.06.06v0l-.13.16,0,.08a2,2,0,0,0-.18.35,4.1,4.1,0,0,0-.15.48,4.44,4.44,0,0,0-.11.56,6.54,6.54,0,0,0,0,.77v1h0a.49.49,0,0,1,.19,0h.19v.08h0v-.45a.26.26,0,0,1,.08-.09h.19l-.06-.14a2.18,2.18,0,0,1-.1-.29,2.1,2.1,0,0,1-.06-.38V49H42l.34-.21.56-.35.25-.17.2-.14.28-.2.11-.09.14-.12.17-.14.11-.1h0l.06-.06h0l.06,0h0l.12-.11h0Z"/><path class="cls-123" d="M44.81,50.8Zm.21.06v-.07h-.26l-.15,0a1,1,0,0,1-.3,0,2.31,2.31,0,0,1-.46,0,1.83,1.83,0,0,0-.4,0h-.11V51a1.27,1.27,0,0,0,.1.28,1,1,0,0,0,.2.3,1.1,1.1,0,0,0,.19.17l.08.06h.3a.94.94,0,0,0,.26,0,.7.7,0,0,0,.23-.07.53.53,0,0,0,.17-.15.89.89,0,0,0,.12-.24,1.11,1.11,0,0,0,.06-.33A.91.91,0,0,0,45,50.86Z"/><path class="cls-124" d="M45,52h.65a2.26,2.26,0,0,0,.47,0h.13s0,.06-.1.08a3.16,3.16,0,0,1-.6,0Z"/><path class="cls-12" d="M49.23,47.3h.06a2,2,0,0,1,.09.23,4.34,4.34,0,0,1,.13.52,4.52,4.52,0,0,1,.09.64v1.4h0v0H49v0a.28.28,0,0,0-.12-.06H48.8l.11-.15a1.56,1.56,0,0,0,.16-.32A2.41,2.41,0,0,0,49.2,49a2.81,2.81,0,0,0,0-.48v-.17l-.14.48a6.42,6.42,0,0,1-.2.62l-.07.16h0v-.44a1.39,1.39,0,0,0-.06-.4,5.06,5.06,0,0,0-.15-.54q-.11-.34-.22-.61l-.11-.27h1Z"/><path class="cls-13" d="M49.59,50.11h0l-.06.36q-.06.36-.17.79a8.77,8.77,0,0,1-.26.84l-.2.55-.06.14h0v-.1l0-.35a5.41,5.41,0,0,0,0-.65,4,4,0,0,0,0-.42v-.14h0v.12h-.65V51h0a.23.23,0,0,0,.12,0,.47.47,0,0,0,.18-.06.88.88,0,0,0,.19-.14,1,1,0,0,0,.16-.2.78.78,0,0,0,.1-.2.72.72,0,0,0,0-.21A.54.54,0,0,0,49,50V50h.56v.13Z"/><path class="cls-125" d="M47.7,51.51h0Zm-1.14-.77Zm1.49.09h-.43a2.86,2.86,0,0,1-.43,0h-.24l-.2-.06-.13,0h-.16a1.43,1.43,0,0,0,0,.5.74.74,0,0,0,.11.21.75.75,0,0,0,.13.13.52.52,0,0,0,.15.08h.76l.11-.09a1,1,0,0,0,.16-.18,1.44,1.44,0,0,0,.14-.31l.08-.21h0Z"/><path class="cls-126" d="M44.41,50.27Zm.1.2v-.12h-.07v.09h0a.16.16,0,0,1-.06.07.24.24,0,0,1-.13,0,.21.21,0,0,1-.14,0h0v.08a.69.69,0,0,0,0,.15v.14H44l-.09-.08a.69.69,0,0,1-.11-.14.46.46,0,0,1,0-.16.44.44,0,0,1,0-.18.5.5,0,0,1,.11-.18.62.62,0,0,1,.18-.14.78.78,0,0,1,.25-.07H44a1,1,0,0,0-.34.06,1.17,1.17,0,0,0-.28.16c-.09.07-.14.12-.14.16a.61.61,0,0,0,.09.21,1,1,0,0,0,.17.24.72.72,0,0,0,.2.14l.2.08h.54a.07.07,0,0,1,0,0v-.06h0a.06.06,0,0,1,.06,0h.06Z"/><path class="cls-126" d="M47.51,50.08Zm.1.2v-.12h-.07v.09h0a.16.16,0,0,1-.06.07.24.24,0,0,1-.13,0,.21.21,0,0,1-.14,0h0v.08a.69.69,0,0,0,0,.15v.14h-.09L47,50.61a.69.69,0,0,1-.11-.14.46.46,0,0,1,0-.16.44.44,0,0,1,0-.18A.5.5,0,0,1,47,50a.62.62,0,0,1,.18-.14.78.78,0,0,1,.25-.07H47.1a1,1,0,0,0-.34.06,1.17,1.17,0,0,0-.28.16c-.09.07-.14.12-.14.16a.61.61,0,0,0,.09.21,1,1,0,0,0,.17.24.72.72,0,0,0,.2.14l.2.08h.54a.07.07,0,0,1,0,0v-.06h0a.06.06,0,0,1,.06,0h.06Z"/><path class="cls-127" d="M45.28,52.11h.1a.22.22,0,0,1-.13,0,.06.06,0,0,1,0-.06h0Z"/><path class="cls-124" d="M45.56,51.14a.42.42,0,0,0,0,.24v.08a.34.34,0,0,1-.09-.09.22.22,0,0,1-.06-.13.12.12,0,0,1,0-.09l.12-.1Q45.61,51,45.56,51.14Z"/><path class="cls-74" d="M46.48,49.93l-.14.16v0c0-.29.07-.31.59-.46l.73-.07s-.63.16-.62.2S46.51,49.81,46.48,49.93Z"/></g></g></svg>