<svg id="Layer_1" data-name="Layer 1" xmlns="http://www.w3.org/2000/svg" xmlns:xlink="http://www.w3.org/1999/xlink" viewBox="0 0 250.08 65.12"><defs><style>.cls-1{fill:#d1ecf2;stroke:#6fcbdc;}.cls-1,.cls-10{stroke-miterlimit:10;}.cls-2{font-size:12px;fill:#369;}.cls-2,.cls-4{font-family:Montserrat-Bold, Montserrat;}.cls-2,.cls-4,.cls-7{font-weight:700;}.cls-3{fill:#6fcbdc;}.cls-4{font-size:40px;}.cls-10,.cls-13,.cls-4,.cls-7{fill:#fff;}.cls-5,.cls-6{fill:#24526c;}.cls-5{fill-rule:evenodd;}.cls-7{font-size:0.9px;font-family:OpenSans-Bold, Open Sans;}.cls-8{fill:#7fc4e6;}.cls-9{fill:#bebcbc;opacity:0.3;}.cls-10{stroke:#000;stroke-width:0.5px;}.cls-11{fill:#2c5791;}.cls-12{fill:url(#radial-gradient);}</style><radialGradient id="radial-gradient" cx="206.89" cy="16.4" r="4.74" gradientUnits="userSpaceOnUse"><stop offset="0" stop-color="#5985bd"/><stop offset="0.85" stop-color="#2c5791"/><stop offset="1" stop-color="#1b3c6c"/></radialGradient></defs><title>step3</title><rect class="cls-1" x="0.5" y="1.71" width="249.08" height="54.91"/><text class="cls-2" transform="translate(58.3 18.38) scale(1.02 1)">Get text or email <tspan x="17.93" y="14.4">when records </tspan><tspan x="47.16" y="28.8">are ready</tspan></text><rect class="cls-3" x="0.5" y="1.6" width="52.02" height="55.03"/><text class="cls-4" transform="translate(13 43.64) scale(1.21 1)">3</text><path class="cls-5" d="M214,2.11l-.12-.32-.24-.38-.3-.25L213,1l-.42-.19-.48-.13-.78-.13L210.21.38,207.29.19l-3.4-.13L200.54,0l-.93,0-2.42,0-3.4.13-2.93.19L189.8.51,189,.64l-.48.13-.42.19-.36.19-.3.25-.18.38-.18.32-.12.45V55.43l.12.38.18.45.24.32.3.25.36.26.42.19.42.13,1.49.19,2.51.32,1.61.13,1.79.06,2,.06,1.22,0,.93,0,2.15-.07,2-.06,1.79-.06,1.61-.13,2.51-.32,1.49-.19.42-.13.42-.19.36-.26.3-.25.24-.32.18-.45.12-.38V2.56Zm-.3,52.8-.06.38-.06.38-.12.32-.18.25-.24.26-.3.13-.36.19-.42.07-1.43.25-2.51.26-1.55.13-1.79.13-2,.07h-4.3l-2-.07-1.79-.13-1.55-.13-2.51-.26-1.43-.25-.42-.07-.36-.19-.24-.13-.3-.26-.18-.25-.12-.32-.06-.38-.06-.38V3.07l.06-.45.06-.32.12-.32.18-.25.24-.19.3-.19.36-.13.42-.13.72-.07L190.93.9,193.85.7l3.4-.13,2.36,0,.93,0,3.28.07,3.4.13,2.93.19,1.07.13.72.07.42.13.36.13.3.19.24.19.18.25.12.32.06.32.06.45Zm-.06-52.23-.12-.38L213.38,2l-.18-.26L213,1.6l-.3-.19-.3-.13-.42-.13L211.23,1,210.15,1,207.23.77l-3.4-.13L200.54.58l-.93,0-2.36,0-3.4.13L190.93,1,189.85,1l-.72.13-.42.13-.3.13-.3.19-.24.19L187.7,2l-.12.25-.12.38V55.3l.12.38.12.26.18.25.24.26.3.19.36.13.36.13,1.43.19,2.51.25,1.55.13,1.79.13,2,.06h4.3l2-.06,1.79-.13,1.55-.13,2.51-.25,1.43-.19.42-.13.3-.13.3-.19.24-.26.18-.25.12-.26.12-.38ZM200,2.49l.12-.19.18-.13.24-.06.24.06.18.13.12.19.06.26-.06.25L201,3.2l-.18.13-.24.06-.24-.06-.18-.13L200,3l-.06-.25Zm-8.9.13.06-.13.12-.06h.24l.12.06.06.13v.25l-.06.13-.12.07h-.24L191.17,3l-.06-.13Zm21.79,49H188.24V5l.06-.06h24.54l.06.06Zm.6-49.35L213.38,2l-.18-.26L213,1.6l-.3-.19-.3-.13-.42-.13L211.23,1,210.15,1,207.23.77l-3.4-.13L200.54.58l-.93,0V4.92h13.23l.06.06V51.65H199.61v6h3.08l2-.06,1.79-.13,1.55-.13,2.51-.25,1.43-.19.42-.13.3-.13.3-.19.24-.26.18-.25.12-.26.12-.38V2.69ZM201.08,3,201,3.2l-.18.13-.24.06-.24-.06-.18-.13L200,3l-.06-.25.06-.26.12-.19.18-.13.24-.06.24.06.18.13.12.19.06.26ZM188.3,4.92h11.31V.59l-2.36,0-3.4.13L190.93,1,189.85,1l-.72.13-.42.13-.3.13-.3.19-.24.19L187.7,2l-.12.25-.12.38V55.3l.12.38.12.26.18.25.24.26.3.19.36.13.36.13,1.43.19,2.51.25,1.55.13,1.79.13,2,.06h1.22v-6H188.24V5Zm2.8-2.3.06-.13.12-.06h.24l.12.06.06.13v.25l-.06.13-.12.07h-.24L191.17,3l-.06-.13Z"/><path class="cls-6" d="M214,2.11l-.12-.32-.24-.38-.3-.25L213,1l-.42-.19-.48-.13-.78-.13L210.21.38,207.29.19l-3.4-.13L200.54,0l-.93,0-2.42,0-3.4.13-2.93.19L189.8.51,189,.64l-.48.13-.42.19-.36.19-.3.25-.18.38-.18.32-.12.45V55.43l.12.38.18.45.24.32.3.25.36.26.42.19.42.13,1.49.19,2.51.32,1.61.13,1.79.06,2,.06,1.22,0,.93,0,2.15-.07,2-.06,1.79-.06,1.61-.13,2.51-.32,1.49-.19.42-.13.42-.19.36-.26.3-.25.24-.32.18-.45.12-.38V2.56Zm-.3,52.8-.06.38-.06.38-.12.32-.18.25-.24.26-.3.13-.36.19-.42.07-1.43.25-2.51.26-1.55.13-1.79.13-2,.07h-4.3l-2-.07-1.79-.13-1.55-.13-2.51-.26-1.43-.25-.42-.07-.36-.19-.24-.13-.3-.26-.18-.25-.12-.32-.06-.38-.06-.38V3.07l.06-.45.06-.32.12-.32.18-.25.24-.19.3-.19.36-.13.42-.13.72-.07L190.93.9,193.85.7l3.4-.13,2.36,0,.93,0,3.28.07,3.4.13,2.93.19,1.07.13.72.07.42.13.36.13.3.19.24.19.18.25.12.32.06.32.06.45Zm-.06-52.23-.12-.38L213.38,2l-.18-.26L213,1.6l-.3-.19-.3-.13-.42-.13L211.23,1,210.15,1,207.23.77l-3.4-.13L200.54.58l-.93,0-2.36,0-3.4.13L190.93,1,189.85,1l-.72.13-.42.13-.3.13-.3.19-.24.19L187.7,2l-.12.25-.12.38V55.3l.12.38.12.26.18.25.24.26.3.19.36.13.36.13,1.43.19,2.51.25,1.55.13,1.79.13,2,.06h4.3l2-.06,1.79-.13,1.55-.13,2.51-.25,1.43-.19.42-.13.3-.13.3-.19.24-.26.18-.25.12-.26.12-.38ZM200,2.49l.12-.19.18-.13.24-.06.24.06.18.13.12.19.06.26-.06.25L201,3.2l-.18.13-.24.06-.24-.06-.18-.13L200,3l-.06-.25Zm-8.9.13.06-.13.12-.06h.24l.12.06.06.13v.25l-.06.13-.12.07h-.24L191.17,3l-.06-.13Zm21.79,49H188.24V5l.06-.06h24.54l.06.06Zm.6-49.35L213.38,2l-.18-.26L213,1.6l-.3-.19-.3-.13-.42-.13L211.23,1,210.15,1,207.23.77l-3.4-.13L200.54.58l-.93,0V4.92h13.23l.06.06V51.65H199.61v6h3.08l2-.06,1.79-.13,1.55-.13,2.51-.25,1.43-.19.42-.13.3-.13.3-.19.24-.26.18-.25.12-.26.12-.38V2.69ZM201.08,3,201,3.2l-.18.13-.24.06-.24-.06-.18-.13L200,3l-.06-.25.06-.26.12-.19.18-.13.24-.06.24.06.18.13.12.19.06.26ZM188.3,4.92h11.31V.59l-2.36,0-3.4.13L190.93,1,189.85,1l-.72.13-.42.13-.3.13-.3.19-.24.19L187.7,2l-.12.25-.12.38V55.3l.12.38.12.26.18.25.24.26.3.19.36.13.36.13,1.43.19,2.51.25,1.55.13,1.79.13,2,.06h1.22v-6H188.24V5Zm2.8-2.3.06-.13.12-.06h.24l.12.06.06.13v.25l-.06.13-.12.07h-.24L191.17,3l-.06-.13Z"/><text class="cls-7" transform="translate(189.1 32.31)">File Name</text><text class="cls-7" transform="translate(202.23 32.31)">Size</text><text class="cls-7" transform="translate(207.22 32.31)">Status</text><rect class="cls-8" x="188.3" y="4.92" width="24.6" height="46.73"/><polygon class="cls-9" points="214.09 2.56 214.09 55.43 213.98 55.81 213.81 56.26 213.59 56.58 213.31 56.83 212.97 57.09 212.57 57.28 212.18 57.41 210.77 57.6 208.4 57.92 206.88 58.05 205.19 58.11 203.33 58.17 201.3 58.24 200.43 58.21 200.43 0.02 201.3 0 204.46 0.07 207.67 0.19 210.43 0.38 211.44 0.51 212.18 0.64 212.63 0.77 213.02 0.96 213.36 1.15 213.64 1.41 213.87 1.79 213.98 2.11 214.09 2.56"/><path d="M210.48,42.19H190.74l-.06-.08.51-.43c.5-.45,1-.88,1.48-1.35a2.57,2.57,0,0,0,.78-1.93c0-1.36,0-2.73,0-4.09a6.62,6.62,0,0,1,.11-1.31,7.67,7.67,0,0,1,1.8-3.62,6.64,6.64,0,0,1,3-1.95l.36-.1c.23,0,.26-.25.29-.41a1.6,1.6,0,0,1,1.15-1.17A1.66,1.66,0,0,1,202.27,27c.06.31.27.36.49.42a6,6,0,0,1,1.91.92,7.22,7.22,0,0,1,2.66,3.43,6.93,6.93,0,0,1,.47,2.58c0,1.36,0,2.71,0,4.07a2.54,2.54,0,0,0,.65,1.86c.34.35.73.65,1.1,1l1,.86Z"/><path d="M197,43h7.24c-.09.24-.15.46-.24.67a3.87,3.87,0,0,1-2,2.18.76.76,0,0,1-.3.06c-.57,0-1.14,0-1.71,0a2,2,0,0,1-1.51-.56,4,4,0,0,1-1.37-2.13A2.49,2.49,0,0,0,197,43Z"/><path class="cls-10" d="M231,8.81V23.7a2.94,2.94,0,0,1-2.94,2.94H211.73l-6.39,7.94,1.06-7.94h-2.33a2.8,2.8,0,0,1-.52,0,3,3,0,0,1-2.42-2.89V8.81a3,3,0,0,1,2.42-2.89,2.8,2.8,0,0,1,.52,0h24A2.94,2.94,0,0,1,231,8.81Z"/><path class="cls-11" d="M214.48,14.62H214v4.33h-.42V14.62H213v-.42h1.43Z"/><path class="cls-11" d="M216.48,18.95h-.42V17.1a.31.31,0,0,0-.32-.32h-.32v2.17H215V14.19h.74a.74.74,0,0,1,.74.74V16a.71.71,0,0,1-.22.53.71.71,0,0,1,.22.53ZM216.05,16V14.93a.31.31,0,0,0-.32-.32h-.32v1.74h.32a.31.31,0,0,0,.32-.32Z"/><path class="cls-11" d="M217.75,18.95h-.42V14.19h.42Z"/><path class="cls-11" d="M220.81,18.95h-.42V16.62l-.47,2.32h-.42L219,16.62v2.33h-.42V14.19H219l.68,3.67.68-3.67h.43Z"/><path class="cls-11" d="M223.13,18.21a.74.74,0,0,1-1.48,0v-.32h.42v.32a.32.32,0,1,0,.63,0v-.58a1,1,0,0,0-.27-.72l-.51-.42a1.15,1.15,0,0,1-.27-.81v-.74a.74.74,0,0,1,1.48,0v.32h-.42v-.32a.32.32,0,1,0-.63,0v.58a1,1,0,0,0,.27.72l.51.42a1.15,1.15,0,0,1,.27.81Z"/><path class="cls-11" d="M225.46,18.95H225l-.58-2.14v2.14H224v-3.7h.48l.58,2.13V15.25h.42Z"/><path class="cls-11" d="M227.58,18.95h-1.27v-3.7h1.27v.42h-.84v1.21h.84v.42h-.84v1.21h.84Z"/><path class="cls-11" d="M229.85,15.68h-.48v3.27h-.42V15.68h-.52v-.42h1.43Z"/><circle class="cls-12" cx="206.89" cy="16.4" r="4.74"/><path class="cls-13" d="M204.3,19.41l-.17.06a42.67,42.67,0,0,0,6.05-1l-.93-5.78-5.38,0a1.9,1.9,0,0,0-.47.44l.89,6.29Zm1.65-.5c-.09,0-.17-.1-.17-.23s.06-.24.16-.24.17.1.17.23S206,18.91,206,18.91Zm.72-.1c-.09,0-.17-.1-.17-.23s.06-.24.15-.24.17.1.17.23S206.77,18.8,206.68,18.81Zm.72-.1c-.09,0-.17-.1-.17-.23s.06-.24.16-.24.17.1.17.23S207.49,18.7,207.4,18.7Zm.72-.1c-.09,0-.17-.1-.17-.23s.06-.24.15-.24.17.1.17.23S208.21,18.6,208.12,18.6Zm.8-.14,0-.33.43-.05,0,.31Zm-.1-5.14.67,4.21-4.71.65-.67-4.82Z"/><polygon class="cls-11" points="209.5 17.54 208.83 13.33 204.12 13.37 204.79 18.19 209.5 17.54"/><path class="cls-13" d="M208.15,19.26l-.58.11v.27l-1.94.39,0-.3-1,.16h0c.5.07.78.63.83.74l3.91-.81A1.38,1.38,0,0,0,208.15,19.26Z"/><path class="cls-13" d="M205.64,17.07a9.23,9.23,0,0,1,.58,1.29,5.56,5.56,0,0,1,1.62-.72,13.07,13.07,0,0,0,1.35-.47c-.11-.19-.25-.45-.41-.74a8.7,8.7,0,0,0-1.06.4,8.1,8.1,0,0,1-1.55.49l0-.13a8.18,8.18,0,0,0,1.59-.49,8.66,8.66,0,0,1,1-.38l-.21-.43a8.69,8.69,0,0,0-1.1.38,8.14,8.14,0,0,1-1.57.44l0-.13a8.18,8.18,0,0,0,1.6-.45,8.72,8.72,0,0,1,1.05-.36l-.19-.43a8.66,8.66,0,0,0-1.17.35,8.15,8.15,0,0,1-1.59.39l0-.13a8.2,8.2,0,0,0,1.62-.39,8.7,8.7,0,0,1,1.13-.34c0-.1-.07-.19-.1-.28l-.07-.22a8.62,8.62,0,0,0-1.32.36,8.17,8.17,0,0,1-1.6.37l0-.14a8.21,8.21,0,0,0,1.62-.37,8.65,8.65,0,0,1,1.29-.36l-.12-.43a8.54,8.54,0,0,0-1.46.32,8.19,8.19,0,0,1-1.62.3l0-.14a8.2,8.2,0,0,0,1.64-.3,8.59,8.59,0,0,1,1.43-.32c-.12-.46-.19-.77-.19-.77a8.38,8.38,0,0,0-1.69.34,18.09,18.09,0,0,0-1.83.38,5.73,5.73,0,0,0,.42,1.09C204.78,15.57,205.27,16.42,205.64,17.07Z"/></svg>