<svg id="Layer_1" data-name="Layer 1" xmlns="http://www.w3.org/2000/svg" viewBox="0 0 250 66.25"><defs><style>.cls-1{fill:#d2edf3;stroke:#6fcbdc;stroke-miterlimit:10;}.cls-2{font-size:12px;fill:#369;}.cls-2,.cls-72{font-family:Montserrat-Bold, Montserrat;}.cls-2,.cls-54,.cls-61,.cls-62,.cls-63,.cls-64,.cls-65,.cls-72{font-weight:700;}.cls-3,.cls-5,.cls-61,.cls-72{fill:#fff;}.cls-3,.cls-70{fill-rule:evenodd;}.cls-4{fill:#d8ebf6;}.cls-6{fill:#cbcbca;}.cls-7{fill:#cacac9;}.cls-8{fill:#bebdbd;}.cls-9{fill:#f0f5e2;}.cls-10{fill:#72bc44;}.cls-11{fill:#79c043;}.cls-12{fill:#7bc043;}.cls-13{fill:#bab9b7;}.cls-14{fill:#b9b9b9;}.cls-15{fill:#60ae46;}.cls-16{fill:#6eba44;}.cls-17{fill:#6db945;}.cls-18{fill:#747372;}.cls-19{fill:#ebeae8;}.cls-20{fill:#747373;}.cls-21{fill:#757472;}.cls-22{fill:#ebeae9;}.cls-23{fill:#7d7d7d;}.cls-24{fill:#e5e5e4;}.cls-25{fill:#7f7f7f;}.cls-26{fill:#646565;}.cls-27{fill:#626363;}.cls-28{fill:#979797;}.cls-29{fill:#5e5f5e;}.cls-30{fill:#595a5a;}.cls-31,.cls-58,.cls-64,.cls-65,.cls-68,.cls-69{fill:#676767;}.cls-32{fill:#555;}.cls-33{fill:#e8e7e7;}.cls-34{fill:#e7e6e6;}.cls-35{fill:#ebebeb;}.cls-36{fill:#5f6060;}.cls-37{fill:#939393;}.cls-38{fill:#f1f1f1;}.cls-39{fill:#7b7b7b;}.cls-40{fill:#707171;}.cls-41{fill:#797979;}.cls-42{fill:#7c7c7c;}.cls-43{fill:#696969;}.cls-44{fill:#aaa;}.cls-45{fill:#8d8d8d;}.cls-46{fill:#777677;}.cls-47{fill:#e8e6e2;}.cls-48{fill:#fffffb;}.cls-49{fill:#e9e6e1;}.cls-50{fill:#fffffc;}.cls-51{fill:#eaeaea;}.cls-52{fill:#040202;}.cls-53{fill:#040303;}.cls-54{font-size:1.32px;}.cls-54,.cls-55,.cls-56,.cls-57,.cls-59,.cls-62{fill:#333;}.cls-54,.cls-61,.cls-62,.cls-63,.cls-64,.cls-65{font-family:OpenSans-Bold, Open Sans;}.cls-55{font-size:1.37px;}.cls-55,.cls-56,.cls-57,.cls-58,.cls-59{font-family:OpenSans, Open Sans;}.cls-56{font-size:1.17px;}.cls-57,.cls-58,.cls-65,.cls-68,.cls-69{font-size:0.49px;}.cls-59{font-size:1.07px;}.cls-60,.cls-63{fill:#1a8dcc;}.cls-61,.cls-62,.cls-63,.cls-64{font-size:0.39px;}.cls-66{fill:#eaeae8;}.cls-67{fill:#e8e6e1;}.cls-68{font-family:OpenSans-Light, Open Sans;}.cls-69{font-family:OpenSansLight-Italic, Open Sans;font-style:italic;}.cls-70{fill:#24516c;}.cls-71{fill:#6fcbdc;}.cls-72{font-size:40px;}</style></defs><title>step1</title><rect class="cls-1" x="0.5" y="7.28" width="249" height="55"/><text class="cls-2" transform="translate(74.17 32.35) scale(1.02 1)">Enter request<tspan x="10.2" y="14.4">information</tspan></text><polygon class="cls-3" points="225.77 2.43 225.77 63.81 225.71 64.28 225.53 64.7 225.29 65.07 224.99 65.39 224.57 65.65 224.15 65.86 223.67 65.97 223.13 66.02 176.06 66.02 175.53 65.97 175.05 65.86 174.57 65.65 174.21 65.44 173.85 65.13 173.61 64.76 173.49 64.33 173.43 63.91 173.43 2.43 173.49 2.01 173.61 1.64 173.79 1.27 174.09 0.96 174.45 0.69 174.87 0.48 175.29 0.38 175.76 0.32 223.31 0.32 223.79 0.38 224.27 0.48 224.69 0.69 225.05 0.96 225.35 1.27 225.59 1.64 225.71 2.01 225.77 2.43"/><path class="cls-4" d="M222.65,7.06H176.81c0-.35,0-.69,0-1,0-.08,0-.1.09-.09h45.58c.13,0,.17,0,.16.16C222.64,6.42,222.65,6.74,222.65,7.06Z"/><path class="cls-5" d="M186.38,25.42a.1.1,0,0,1-.07-.07,7.91,7.91,0,0,0,0-.86c0-.22,0-.24.25-.24h19.34c.22,0,.24,0,.25.24a8.07,8.07,0,0,0,0,.86.1.1,0,0,1-.08.07s-.08,0-.08-.06a.82.82,0,0,1,0-.12,3.77,3.77,0,0,0,0-.63.16.16,0,0,0-.19-.18H186.59s-.17-.07-.13.08,0,.38,0,.56,0,.21,0,.32S186.41,25.38,186.38,25.42Z"/><path class="cls-5" d="M206.17,53.15a.1.1,0,0,1-.08.07s-.08,0-.08-.06a.82.82,0,0,1,0-.12,3.77,3.77,0,0,0,0-.63.16.16,0,0,0-.19-.18H186.59s-.17-.07-.13.08,0,.38,0,.56,0,.21,0,.32-.08,0-.11,0a.1.1,0,0,1-.07-.07,7.91,7.91,0,0,0,0-.86c0-.22,0-.24.25-.24h19.34c.22,0,.24,0,.25.24A8.07,8.07,0,0,0,206.17,53.15Z"/><path class="cls-5" d="M206.17,59.61a.1.1,0,0,1-.08.07s-.08,0-.08-.06a.82.82,0,0,1,0-.12,3.77,3.77,0,0,0,0-.63.16.16,0,0,0-.19-.18H186.59s-.17-.07-.13.08,0,.38,0,.56,0,.21,0,.32-.08,0-.11,0a.1.1,0,0,1-.07-.07,7.91,7.91,0,0,0,0-.86c0-.22,0-.24.25-.24h19.34c.22,0,.24,0,.25.24A8.07,8.07,0,0,0,206.17,59.61Z"/><path class="cls-6" d="M196.26,48.8h9.61c.3,0,.31,0,.31.31s0,.46,0,.68-.06.21-.2.2H186.59c-.28,0-.29,0-.29-.29s0-.44,0-.67,0-.24.24-.24h9.72Z"/><path class="cls-7" d="M206.1,61.26c-.05.06-.12,0-.19,0H186.55c-.22,0-.25,0-.25-.24s0-.49,0-.74.07-.23.23-.22h19.33c.31,0,.32,0,.32.32s0,.42,0,.63,0,.17-.08.21a1.36,1.36,0,0,1,0-.45c0-.14,0-.28,0-.42s-.07-.19-.2-.19h-19.1c-.38,0-.38,0-.38.38,0,.15,0,.29,0,.44a.17.17,0,0,0,.19.19h19.16A.55.55,0,0,1,206.1,61.26Z"/><path class="cls-7" d="M206.1,54.8c-.05.06-.12,0-.19,0H186.55c-.22,0-.25,0-.25-.24s0-.49,0-.74.07-.23.23-.22h19.33c.31,0,.32,0,.32.32s0,.42,0,.63,0,.17-.08.21a1.36,1.36,0,0,1,0-.45c0-.14,0-.28,0-.42s-.07-.19-.2-.19h-19.1c-.38,0-.38,0-.38.38,0,.15,0,.29,0,.44a.17.17,0,0,0,.19.19h19.16A.55.55,0,0,1,206.1,54.8Z"/><path class="cls-6" d="M196.22,28.65h-9.63c-.28,0-.29,0-.29-.29s0-.47,0-.7.06-.21.2-.2h19.36c.3,0,.31,0,.31.31s0,.43,0,.65,0,.24-.24.24h-9.72Z"/><path class="cls-7" d="M206.1,27c-.05.06-.12,0-.19,0H186.55c-.22,0-.25,0-.25-.24s0-.49,0-.74.07-.23.23-.22h19.33c.31,0,.32,0,.32.32s0,.42,0,.63,0,.17-.08.21a1.36,1.36,0,0,1,0-.45c0-.14,0-.28,0-.42s-.07-.19-.2-.19h-19.1c-.38,0-.38,0-.38.38,0,.15,0,.29,0,.44a.17.17,0,0,0,.19.19h19.16A.55.55,0,0,1,206.1,27Z"/><path class="cls-7" d="M206.14,23.73c0,.1-.14.07-.22.07H186.59c-.27,0-.29,0-.29-.27s0-.48,0-.72.06-.21.2-.2h19.35c.32,0,.32,0,.32.31s0,.43,0,.65c0,.06,0,.12,0,.16a.33.33,0,0,1-.06-.23c0-.18,0-.36,0-.54s0-.25-.26-.25h-19c-.39,0-.39,0-.39.39,0,.15,0,.29,0,.44a.16.16,0,0,0,.18.17h19.16A1,1,0,0,1,206.14,23.73Z"/><path class="cls-7" d="M206.14,51.54c0,.1-.14.07-.22.07H186.61c-.3,0-.31,0-.31-.29s0-.47,0-.7.06-.21.2-.2h19.35c.32,0,.32,0,.32.31s0,.43,0,.65c0,.06,0,.12,0,.16a.33.33,0,0,1-.06-.23c0-.18,0-.36,0-.54s0-.25-.26-.25h-19c-.39,0-.39,0-.39.39,0,.15,0,.29,0,.44a.16.16,0,0,0,.18.17h19.16A1,1,0,0,1,206.14,51.54Z"/><path class="cls-7" d="M196.25,21.24h9.7c.17,0,.25,0,.23.22a4,4,0,0,0,0,.56c0,.11,0,.14-.15.14H186.55c-.28,0-.25,0-.25-.24s0-.35,0-.53,0-.16.15-.15h9.79Z"/><path class="cls-7" d="M196.25,47.43h9.7c.17,0,.25,0,.23.22a4.05,4.05,0,0,0,0,.56c0,.11,0,.14-.15.14H186.55c-.28,0-.25,0-.25-.24s0-.36,0-.54,0-.14.14-.13h9.81Z"/><path class="cls-8" d="M179.35,18.86h40.75v0H179.36Z"/><path class="cls-8" d="M179.35,62.15H220.1v0H179.35Z"/><path class="cls-8" d="M220.11,45.07H179.35v0H220.1Z"/><path class="cls-9" d="M180.75,13a.08.08,0,0,0-.07.1c0,.18-.08.36,0,.55s0,.06-.07.05a.39.39,0,0,1,0-.25c0-.22,0-.43,0-.65s0-.22.23-.28a.11.11,0,0,0,.07,0,.42.42,0,0,0-.36,0c-.11,0-.08.13-.08.21s0,.43,0,.65-.06.24-.25.24-.3,0-.43-.07a.94.94,0,0,1,0-.41c0-.19,0-.2-.22-.21h-.32a.16.16,0,0,1-.17-.17c0-.08,0-.15,0-.23,0-.27,0-.27.25-.36,0,0,0,0,0-.05a.49.49,0,0,0-.35,0c-.08,0-.07.1-.07.16,0,.25,0,.49,0,.74a.18.18,0,0,1,0,.08c-.06,0,0-.09,0-.14,0-.27,0-.54,0-.81s0-.19.19-.17.32,0,.47,0,.06,0,.06-.07,0-.32,0-.47,0-.12.08-.13a.21.21,0,0,1,0,.15c0,.27,0,.54,0,.82a.22.22,0,0,1-.06.16c-.07.07-.19,0-.29.11a.53.53,0,0,0,.38,0c.11,0,.07-.13.08-.21,0-.25,0-.5,0-.75a.19.19,0,0,1,.2-.14h.23c.21,0,.23,0,.28.23s0,.2,0,.3,0,.17.16.17h.37c.14,0,.21.06.21.2s0,.15,0,.23c0,.25,0,.25-.25.31S180.81,12.94,180.75,13Z"/><path class="cls-7" d="M206.17,59.61c-.06,0,0-.11,0-.16q0-.37,0-.74c0-.12-.06-.18-.18-.18H186.65c-.31,0-.31,0-.31.31s0,.41,0,.61,0,.12,0,.16c0-.3,0-.6,0-.9s.07-.24.23-.22h19.32c.32,0,.32,0,.32.31S206.17,59.34,206.17,59.61Z"/><path class="cls-7" d="M206.17,25.34c-.06,0,0-.11,0-.16q0-.37,0-.74c0-.12-.06-.18-.18-.18H186.65c-.31,0-.31,0-.31.31s0,.41,0,.61,0,.12,0,.16c0-.3,0-.6,0-.9s.07-.24.23-.22h19.32c.32,0,.32,0,.32.31S206.17,25.07,206.17,25.34Z"/><path class="cls-7" d="M206.17,53.15c-.06,0,0-.11,0-.16q0-.37,0-.74c0-.12-.06-.18-.18-.18H186.65c-.31,0-.31,0-.31.31s0,.41,0,.61,0,.12,0,.16c0-.3,0-.6,0-.9s.07-.24.23-.22h19.32c.32,0,.32,0,.32.31S206.17,52.88,206.17,53.15Z"/><path class="cls-7" d="M191,56.87h4.42c.25,0,.27,0,.27.26s0,.47,0,.7,0,.23-.24.23h-8.89c-.27,0-.29,0-.29-.28s0-.46,0-.68,0-.23.24-.23Z"/><path class="cls-7" d="M191,56.17H186.5c-.16,0-.21,0-.2-.19a3.51,3.51,0,0,0,0-.54c0-.15,0-.19.19-.18h9c.18,0,.25,0,.23.22a2.65,2.65,0,0,0,0,.51c0,.16-.05.19-.2.19H191Z"/><path class="cls-7" d="M206,59.64s.05,0,.07,0H186.38s.07,0,.1,0,.17,0,.26,0h19C205.83,59.6,205.94,59.57,206,59.64Z"/><path class="cls-7" d="M186.38,53.22s.07,0,.1,0,.17,0,.26,0h19c.1,0,.22,0,.31,0s.05,0,.07,0H186.38Z"/><path class="cls-7" d="M206,25.38s.05,0,.07,0H186.38s.07,0,.1,0,.17,0,.26,0h19C205.83,25.33,205.94,25.31,206,25.38Z"/><path class="cls-6" d="M203.22,55.26h2.7c.23,0,.25,0,.26.25s0,.48,0,.72-.06.22-.22.22h-5.47c-.16,0-.23-.06-.22-.22s0-.5,0-.75.07-.22.24-.22Z"/><path class="cls-10" d="M179.75,13.44a1.4,1.4,0,0,0,.51,0c.1,0,.1-.08.1-.15,0-.27,0-.54,0-.81,0-.12,0-.17.16-.16h.29c.09,0,.14,0,.14.12a.1.1,0,0,1-.13.1c-.19,0-.23.06-.22.22s0,.6,0,.89h-.94c-.1,0-.13,0-.13-.13s0-.29,0-.44,0-.13-.14-.13h-.61v-.07a2.6,2.6,0,0,1,.66,0,.18.18,0,0,1,.17.19c0,.12,0,.23,0,.35s0,.15.13.15h.59a.12.12,0,0,0,.13-.13c0-.19,0-.38,0-.57a1.72,1.72,0,0,0,0,.45c0,.14-.06.22-.21.22a2.66,2.66,0,0,1-.37,0C179.79,13.55,179.7,13.55,179.75,13.44Z"/><path class="cls-7" d="M200.3,58c-.08-.13,0-.26,0-.39s0-.33,0-.49,0-.24.25-.24H206a.14.14,0,0,1,.16.15c0,.3,0,.61,0,.91,0,0,0,0,0,.06l0,0a.65.65,0,0,1,0-.29c0-.18,0-.35,0-.53a.17.17,0,0,0-.19-.18h-5.17c-.36,0-.36,0-.37.36a2.24,2.24,0,0,1,0,.64Z"/><path class="cls-11" d="M180.75,13c0-.17,0-.24.21-.21s.14,0,.15-.14c0-.49,0-.49-.51-.49-.26,0-.26,0-.22-.26.05,0,.09.07.14.1s.05,0,.06,0l0,0h.14A.27.27,0,0,0,181,12c.15,0,.22,0,.22.2a1.19,1.19,0,0,1,0,.4c0,.08,0,.15.08.22V13a1,1,0,0,1-.57,0Z"/><path class="cls-7" d="M206.14,58c0,.08-.11.07-.18.07h-5.47c-.07,0-.15,0-.18-.07h0a.23.23,0,0,1,.15,0H206a.23.23,0,0,1,.15,0Z"/><path class="cls-12" d="M181.33,12.85c-.09,0-.18-.1-.14-.21s0-.25,0-.37-.05-.2-.2-.19-.25.06-.23-.13a.92.92,0,0,1,.29,0s0,.06.07,0,.22,0,.22.16S181.33,12.6,181.33,12.85Z"/><path class="cls-12" d="M179.49,12.36c.06-.07,0-.16,0-.23,0-.29,0-.59,0-.88h1a.54.54,0,0,1-.38.17.94.94,0,0,0-.45,0c-.06,0,0-.07-.07-.11,0,.23,0,.47,0,.7a1,1,0,0,1,0,.23C179.6,12.33,179.58,12.4,179.49,12.36Z"/><path class="cls-11" d="M179.71,11.45a.28.28,0,0,1,.25-.07c.21,0,.38-.09.57-.13s.07.08.07.13,0,.37,0,.56h0c-.16,0-.16-.12-.14-.23a.89.89,0,0,0,0-.31c-.07.09,0,.2-.09.26s0-.23-.13-.21-.38-.11-.52.09C179.67,11.54,179.68,11.49,179.71,11.45Z"/><path class="cls-13" d="M181,40.79c.24,0,.24,0,.24.25s0,.24-.23.24-.27,0-.27-.28S180.75,40.79,181,40.79Z"/><path class="cls-14" d="M181,42.16c-.25,0-.25,0-.25-.21s0-.28.28-.28.22,0,.22.25S181.25,42.16,181,42.16Z"/><path class="cls-14" d="M181,43.92c-.28,0-.24,0-.24-.27s0-.22.28-.22.21,0,.22.27S181.25,43.92,181,43.92Z"/><path class="cls-13" d="M181.25,42.8c0,.24,0,.24-.23.24s-.27,0-.27-.23,0-.26.26-.27S181.25,42.55,181.25,42.8Z"/><path class="cls-9" d="M180.75,13h.57s0,.07-.07.07h-.44S180.76,13,180.75,13Z"/><path class="cls-11" d="M181.11,11.94s.07,0,0,.06-.09,0-.1-.06Z"/><path class="cls-5" d="M219.44,9l0,0a0,0,0,0,1,0,0,0,0,0,0,1,0,0S219.42,9,219.44,9Z"/><path class="cls-5" d="M219.72,8.68l0,0a0,0,0,0,1,0,0,0,0,0,0,1,0,0S219.71,8.7,219.72,8.68Z"/><path class="cls-5" d="M186.41,25.1a2.27,2.27,0,0,1,0-.63.37.37,0,0,0,.07-.11h19.33c.25,0,.26,0,.26.25a2.9,2.9,0,0,1,0,.7.39.39,0,0,1-.23,0H186.78A.35.35,0,0,1,186.41,25.1Z"/><path class="cls-5" d="M186.41,25.1s.07,0,.08,0c.05.19.2.18.35.18h19.23l0,.07H186.48C186.43,25.29,186.33,25.22,186.41,25.1Z"/><path class="cls-5" d="M186.52,24.36c0,.06.06.14-.07.11s-.07,0,0-.08S186.48,24.37,186.52,24.36Z"/><path class="cls-5" d="M186.41,52.91a2.27,2.27,0,0,1,0-.63.37.37,0,0,0,.07-.11h19.33c.25,0,.26,0,.26.25a2.9,2.9,0,0,1,0,.7.39.39,0,0,1-.23,0H186.78A.35.35,0,0,1,186.41,52.91Z"/><path class="cls-5" d="M186.41,52.91s.07,0,.08,0c.05.19.2.18.35.18h19.23l0,.07H186.48C186.43,53.1,186.33,53,186.41,52.91Z"/><path class="cls-5" d="M186.52,52.17c0,.06.06.14-.07.11s-.07,0,0-.08S186.48,52.17,186.52,52.17Z"/><path class="cls-5" d="M186.52,58.63h19.33c.25,0,.26,0,.26.25a2.9,2.9,0,0,1,0,.7.39.39,0,0,1-.23,0H186.78a.35.35,0,0,1-.38-.25,2.27,2.27,0,0,1,0-.63A.37.37,0,0,0,186.52,58.63Z"/><path class="cls-5" d="M186.41,59.37s.07,0,.08,0c.05.19.2.18.35.18h19.23l0,.07H186.48C186.43,59.56,186.33,59.48,186.41,59.37Z"/><path class="cls-5" d="M186.52,58.63c0,.06.06.14-.07.11s-.07,0,0-.08S186.48,58.63,186.52,58.63Z"/><path class="cls-5" d="M196.22,50h-9.59c-.28,0-.29,0-.29-.27s0-.44,0-.67.06-.19.18-.18h19.31c.3,0,.3,0,.3.29s0,.43,0,.65-.06.19-.18.18h-9.74Z"/><path class="cls-5" d="M206.1,61.26H186.58c-.21,0-.24,0-.24-.23s0-.46,0-.68.06-.22.21-.21h19.28c.31,0,.32,0,.31.3a3.37,3.37,0,0,1,0,.82Z"/><path class="cls-5" d="M206.1,54.8H186.58c-.21,0-.24,0-.24-.23s0-.46,0-.68.06-.22.21-.21h19.28c.31,0,.32,0,.31.3a3.37,3.37,0,0,1,0,.82Z"/><path class="cls-5" d="M196.24,27.49h9.61c.28,0,.29,0,.29.29s0,.42,0,.63-.05.21-.2.2h-19.3c-.31,0-.31,0-.31-.31s0-.36,0-.54,0-.27.27-.27h9.63Z"/><path class="cls-5" d="M206.1,27H186.58c-.21,0-.24,0-.24-.23s0-.46,0-.68.06-.22.21-.21h19.28c.31,0,.32,0,.31.3a3.37,3.37,0,0,1,0,.82Z"/><path class="cls-5" d="M206.14,23.73a.89.89,0,0,1-.28,0H186.62c-.27,0-.28,0-.28-.28s0-.43,0-.65.05-.2.19-.19h19.3c.31,0,.31,0,.31.32s0,.51,0,.77Z"/><path class="cls-5" d="M206.14,51.54a.89.89,0,0,1-.28,0H186.62c-.27,0-.28,0-.28-.28s0-.43,0-.65.05-.2.19-.19h19.3c.31,0,.31,0,.31.32s0,.51,0,.77Z"/><path class="cls-5" d="M196.23,22.12h-9.67c-.17,0-.25,0-.23-.22a3.15,3.15,0,0,0,0-.49c0-.11,0-.15.15-.14h19.41c.28,0,.25,0,.25.24s0,.32,0,.47,0,.13-.14.13h-9.77Z"/><path class="cls-5" d="M196.25,47.47h9.67c.18,0,.25,0,.23.22a2.71,2.71,0,0,0,0,.47c0,.13,0,.16-.17.16H186.59c-.28,0-.25,0-.25-.24s0-.3,0-.46,0-.16.16-.15h9.76Z"/><path class="cls-15" d="M179.75,13.44s0,.08.07.08h.48c.07,0,.09,0,.09-.11s0-.26,0-.39a.33.33,0,0,1,.14-.29c0,.28,0,.56,0,.85,0,.07-.06.08-.11.08h-.73c-.1,0-.12,0-.12-.13s0-.27,0-.4-.05-.17-.18-.17a1.91,1.91,0,0,1-.6,0c0-.29,0-.58,0-.88,0-.08,0-.12.11-.11h.34c.07,0,.13,0,.13.1s0,.13-.12.11-.23.09-.23.26c0,.37,0,.37.38.37s.36,0,.36.34Q179.75,13.28,179.75,13.44Z"/><path class="cls-5" d="M180,13.37c.18,0,.21-.06.2-.2,0-.46,0-.92,0-1.39,0-.18-.08-.23-.24-.2a.12.12,0,0,0-.12.14c0,.5,0,1,0,1.51a.41.41,0,0,0,0,.09s.06,0,0,.09h0c-.06,0-.06-.05-.06-.09s0-.28,0-.42a.16.16,0,0,0-.18-.18h-.43c-.1,0-.15,0-.14-.13s0-.15,0-.23,0-.15.15-.14.22,0,.22-.19c0,.15.06.28-.17.26s-.17.07-.17.18a.15.15,0,0,0,.16.17h0c.57,0,.52.06.52-.48,0-.17,0-.34,0-.51s0-.13.14-.13c.45,0,.36-.05.36.34s0,.36.36.36h0c.35,0,.4.06.34.4,0,.07,0,.08-.11.09s-.13,0-.19,0-.06,0-.08,0,0-.06.05-.07h.11c.14,0,.18-.06.18-.18s-.05-.18-.18-.18c-.6,0-.49,0-.5.48,0,.15,0,.29,0,.44S180.31,13.44,180,13.37Z"/><path class="cls-16" d="M180,12.45q0-.34,0-.68c0-.08,0-.15.11-.15s.11.07.11.14q0,.7,0,1.4c0,.08,0,.15-.12.15s-.1-.09-.1-.16c0-.23,0-.47,0-.7Z"/><path class="cls-17" d="M179.71,11.45s0,.08,0,.1c0,.3,0,.6,0,.89,0,.1,0,.14-.13.13h-.34c-.09,0-.11,0-.11-.12s0-.11.11-.1h.21c.1,0,.07-.09.08-.15,0-.27,0-.54,0-.8,0-.1,0-.16.15-.13S179.63,11.39,179.71,11.45Z"/><path class="cls-12" d="M180.39,11.67c0-.09,0-.17,0-.26s0-.1.07-.09.07,0,.07.08a.94.94,0,0,1,0,.29.2.2,0,0,0,.08.25c0,.05.11.09,0,.12s-.17,0-.24-.1,0,0,0-.07S180.36,11.74,180.39,11.67Z"/><path class="cls-5" d="M191,56.91h4.4c.25,0,.26,0,.26.26s0,.37,0,.56,0,.3-.3.3h-8.8c-.22,0-.24,0-.24-.24s0-.4,0-.6,0-.28.28-.28Z"/><path class="cls-5" d="M191,56.14h-4.46c-.16,0-.22,0-.21-.2a2.68,2.68,0,0,0,0-.47c0-.15.05-.19.18-.17h8.93c.23,0,.23,0,.23.22s0,.31,0,.46-.07.16-.19.16Z"/><path class="cls-5" d="M203.22,55.3h2.67c.23,0,.25,0,.25.25s0,.44,0,.67-.05.2-.2.2H200.5c-.15,0-.2-.06-.2-.2s0-.47,0-.7.07-.22.24-.22Z"/><path class="cls-5" d="M206.14,58a.9.9,0,0,1-.28,0h-5.28a.89.89,0,0,1-.28,0c0-.29,0-.57,0-.86s.05-.23.23-.23h5.39c.17,0,.23.07.23.23S206.14,57.71,206.14,58Z"/><path class="cls-5" d="M181,41.24c-.21.06-.2-.06-.21-.21s.06-.2.22-.21.21.08.22.23S181.15,41.28,181,41.24Z"/><path class="cls-5" d="M181,41.72c.2-.06.19.06.21.21s-.09.2-.24.21-.19-.09-.2-.23S180.85,41.68,181,41.72Z"/><path class="cls-5" d="M181,43.47c.2-.06.2.06.21.21s-.05.21-.22.21-.22-.06-.22-.23S180.85,43.43,181,43.47Z"/><path class="cls-5" d="M181,42.59c.2-.06.2.06.21.21s-.08.2-.24.21-.2-.08-.2-.23S180.85,42.56,181,42.59Z"/><path class="cls-5" d="M206.16,35.69c0,.07,0,0-.07.07s-.13,0-.11-.08a1.07,1.07,0,0,0,.06-.38c0-.33,0-.65,0-1s-.05-.24-.26-.25H186.86c-.44,0-.4,0-.41.4s0,.65,0,1c0,.08,0,.17-.09.22s0-.09,0-.13q0-.72,0-1.44c0-.16,0-.21.21-.21h19.35a.5.5,0,0,1,.23,0h0a.3.3,0,0,1,.05.21q0,.7,0,1.4A.39.39,0,0,0,206.16,35.69Z"/><path class="cls-7" d="M206.09,33.91H186.64c-.32,0-.32,0-.32.31s0,.84,0,1.26c0,.06,0,.13,0,.18,6.44,0,12.89,0,19.33,0a.41.41,0,0,1,.29.05s.08,0,.1,0H186.6c-.31,0-.32,0-.32-.32s0-.87,0-1.3c0-.27,0-.28.28-.28h19.3C205.94,33.87,206,33.84,206.09,33.91Z"/><path class="cls-7" d="M206.16,35.69c-.06-.05,0-.12,0-.18q0-.67,0-1.33a.91.91,0,0,0,0-.28c.07,0,.07.1.07.16Q206.16,34.88,206.16,35.69Z"/><path class="cls-5" d="M206,35.73H186.62c-.09,0-.2,0-.26-.06a1.9,1.9,0,0,0,0-.48c0-.33,0-.67,0-1,0-.13,0-.19.18-.17h19.2c.29,0,.32,0,.32.31s0,.73,0,1.09A.4.4,0,0,1,206,35.73Z"/><path class="cls-5" d="M187,34.17s0,0,0-.07,0,0,0,0l0,.08Z"/><path class="cls-5" d="M206.12,38.25c0,.07,0,0-.07.07s-.13,0-.11-.08a1.07,1.07,0,0,0,.06-.38c0-.33,0-.65,0-1s-.05-.24-.26-.25H186.82c-.44,0-.4,0-.41.4s0,.65,0,1c0,.08,0,.17-.09.22s0-.09,0-.13q0-.72,0-1.44c0-.16,0-.21.21-.21h19.35a.5.5,0,0,1,.23,0h0a.3.3,0,0,1,.05.21q0,.7,0,1.4A.39.39,0,0,0,206.12,38.25Z"/><path class="cls-7" d="M206.05,36.46H186.61c-.32,0-.32,0-.32.31s0,.84,0,1.26c0,.06,0,.13,0,.18,6.44,0,12.89,0,19.33,0a.41.41,0,0,1,.29.05s.08,0,.1,0H186.57c-.31,0-.32,0-.32-.32s0-.87,0-1.3c0-.27,0-.28.28-.28h19.3C205.91,36.43,206,36.4,206.05,36.46Z"/><path class="cls-7" d="M206.12,38.25c-.06-.05,0-.12,0-.18q0-.67,0-1.33a.91.91,0,0,0,0-.28c.07,0,.07.1.07.16Q206.12,37.43,206.12,38.25Z"/><path class="cls-5" d="M205.95,38.28H186.58c-.09,0-.2,0-.26-.06a1.9,1.9,0,0,0,0-.48c0-.33,0-.67,0-1,0-.13,0-.19.18-.17h19.2c.29,0,.32,0,.32.31s0,.73,0,1.09A.4.4,0,0,1,205.95,38.28Z"/><path class="cls-5" d="M186.95,36.73s0,0,0-.07,0,0,0,0l0,.08Z"/><path class="cls-18" d="M206.07,21.31a3.11,3.11,0,0,1,0,.71,0,0,0,0,1-.05.05,1.61,1.61,0,0,1-.52,0,.14.14,0,0,1,.05-.07l.05,0c.34,0,.34,0,.34-.36a1.54,1.54,0,0,1,0-.19.18.18,0,0,1,0-.05A.15.15,0,0,1,206.07,21.31Z"/><path class="cls-19" d="M205.57,22l0,0c0-.2,0-.41,0-.61s0-.14.13-.13h.41l0,0a.37.37,0,0,1-.26,0c-.12,0-.17,0-.17.17A.88.88,0,0,1,205.57,22Z"/><path class="cls-20" d="M206.07,47.5a3,3,0,0,1,0,.71.05.05,0,0,1-.06.06,1.6,1.6,0,0,1-.5,0,.14.14,0,0,1,.05-.07l.05,0c.34,0,.34,0,.34-.36a1.54,1.54,0,0,1,0-.19.18.18,0,0,1,0-.05A.15.15,0,0,1,206.07,47.5Z"/><path class="cls-19" d="M205.57,48.21l0,0c0-.2,0-.41,0-.61s0-.14.13-.13h.41l0,0a.37.37,0,0,1-.26,0c-.12,0-.17,0-.17.17A.89.89,0,0,1,205.57,48.21Z"/><path class="cls-21" d="M195.62,55.33a3.1,3.1,0,0,1,0,.72,0,0,0,0,1,0,0,2.69,2.69,0,0,1-.51,0s0,0,0,0l0,0h.06c.35,0,.35.07.35-.36a1.44,1.44,0,0,1,0-.19.18.18,0,0,1,0-.05A.15.15,0,0,1,195.62,55.33Z"/><path class="cls-22" d="M195.11,56h0c0-.19,0-.38,0-.58s0-.14.13-.13h.41l0,0a.35.35,0,0,1-.22,0c-.2,0-.2,0-.21.21S195.2,55.9,195.11,56Z"/><path class="cls-23" d="M186.59,55.56c0,.07,0,.1.07.11s.15,0,.13.13-.11.11-.2.08,0,0,0,0,.09,0,.09-.06,0-.06-.09-.07-.2-.09-.05-.2a0,0,0,0,1,0,0Z"/><path class="cls-24" d="M189,55.89h-.08a.19.19,0,0,1,0-.28l.13.07a.05.05,0,0,1,0,.06.19.19,0,0,1,0,.07A.5.5,0,0,0,189,55.89Z"/><path class="cls-25" d="M188.69,55.82c0-.07-.08-.1-.15-.12s-.13-.09,0-.17a0,0,0,0,1,.06,0c-.08.08,0,.1,0,.13s.18,0,.09.15Z"/><path class="cls-26" d="M186.85,55.82c0-.09,0-.18.09-.2s.14,0,.12.14-.11,0-.16.07Z"/><path class="cls-26" d="M189.35,55.82a.16.16,0,0,1,0-.18.11.11,0,0,1,.13,0,.08.08,0,0,1,0,.09c0,.06-.06,0-.1,0s-.09,0-.06.07A0,0,0,0,1,189.35,55.82Z"/><path class="cls-27" d="M189,55.75l0-.07s.09-.06.11,0a.8.8,0,0,1,0,.21l-.09,0v0A.51.51,0,0,1,189,55.75Z"/><path class="cls-28" d="M189.27,55.61a.47.47,0,0,1,0,.25c-.06-.09,0-.17,0-.25A0,0,0,0,1,189.27,55.61Z"/><path class="cls-29" d="M188.88,55.61a.29.29,0,0,0,0,.28c-.07-.06-.12-.3-.06-.34S188.83,55.62,188.88,55.61Z"/><path class="cls-30" d="M187.77,55.52c.1.13,0,.25,0,.36A.62.62,0,0,1,187.77,55.52Z"/><path class="cls-31" d="M188.16,55.65c.15,0,.07.12.08.18s0,.05-.08,0a.36.36,0,0,1,0-.11S188.2,55.7,188.16,55.65Z"/><path class="cls-32" d="M187.13,55.86v-.34A.54.54,0,0,1,187.13,55.86Z"/><path class="cls-33" d="M187.45,55.75v0c-.06.09-.13.13-.19,0S187.37,55.7,187.45,55.75Z"/><path class="cls-34" d="M186.89,55.82c0-.13.11,0,.17-.07v0C187,55.84,187,55.93,186.89,55.82Z"/><path class="cls-35" d="M188.16,55.65c.06.06,0,.07,0,.11h0a0,0,0,0,1-.05,0C188,55.6,188.11,55.66,188.16,55.65Z"/><path class="cls-36" d="M187.45,55.75c-.06,0-.16-.06-.17.07s0,0,0,0a.2.2,0,0,1,0-.14l0,0h.13l0,0Z"/><path class="cls-37" d="M187.55,55.87c-.07-.06-.13-.13,0-.18h0v.14A0,0,0,0,1,187.55,55.87Z"/><path class="cls-25" d="M186.89,55.82c.07.06.11,0,.16,0,0,.16-.12.14-.21,0Z"/><path class="cls-25" d="M187.24,55.82h0c.07.05.12,0,.17,0Q187.37,56,187.24,55.82Z"/><path class="cls-25" d="M189.35,55.82h0c.06.06.1,0,.15,0S189.43,55.94,189.35,55.82Z"/><path class="cls-38" d="M188.13,55.75c.11,0,.07.05,0,.1s-.05,0-.08,0,0-.08,0-.1Z"/><path class="cls-39" d="M188.57,55.54h-.06c.09-.07.16,0,.25.09Z"/><path class="cls-25" d="M187.27,55.68h0c.07-.11.14-.11.2,0h0A.45.45,0,0,1,187.27,55.68Z"/><path class="cls-40" d="M186.59,55.56v0a.12.12,0,0,1,.18.08C186.71,55.58,186.66,55.52,186.59,55.56Z"/><path class="cls-41" d="M187.56,55.68c0-.15.09-.05.17,0-.07,0-.13-.06-.17,0Z"/><path class="cls-42" d="M187.55,55.87v0c.05.05.09,0,.16,0S187.63,55.92,187.55,55.87Z"/><path class="cls-43" d="M188.69,55.82h0c0,.08-.1.09-.2,0Z"/><path class="cls-44" d="M189.27,55.61h-.06s0-.09,0-.09S189.27,55.58,189.27,55.61Z"/><path class="cls-25" d="M186.63,55.85l0,0a.09.09,0,0,1-.07-.12Z"/><path class="cls-45" d="M188.13,55.75l0,.1c-.1,0-.06-.06,0-.11Z"/><path class="cls-46" d="M189,55.89s-.08-.07,0-.11a.22.22,0,0,1,.1.07h0C189,55.92,189,55.89,189,55.89Z"/><path class="cls-47" d="M206,21.38c0,.17,0,.33,0,.5s0,.15-.14.14h-.3a3.74,3.74,0,0,1,0-.56c0-.07,0-.1.09-.09A1.48,1.48,0,0,1,206,21.38Z"/><path class="cls-48" d="M206,21.38c-.43,0-.43,0-.43.42V22h0c0-.19,0-.37,0-.56s0-.13.12-.12H206Z"/><path class="cls-49" d="M206,47.57c0,.17,0,.35,0,.52s0,.13-.12.12h-.32a3.73,3.73,0,0,1,0-.56c0-.07,0-.1.09-.09A1.48,1.48,0,0,1,206,47.57Z"/><path class="cls-50" d="M206,47.57c-.43,0-.43,0-.43.42v.21h0c0-.19,0-.37,0-.56s0-.13.12-.12H206Z"/><path class="cls-49" d="M195.58,55.4c0,.17,0,.33,0,.5s0,.15-.14.14h-.3a3.75,3.75,0,0,1,0-.56c0-.07,0-.1.09-.09A1.48,1.48,0,0,1,195.58,55.4Z"/><path class="cls-5" d="M195.58,55.4c-.43,0-.43,0-.43.42V56h0c0-.17,0-.35,0-.52s0-.15.14-.14h.34Z"/><path class="cls-34" d="M189.06,55.86a.09.09,0,0,1-.1-.07l.07,0C189.14,55.76,189.08,55.81,189.06,55.86Z"/><path class="cls-33" d="M186.89,55.7s0-.06.09,0a.08.08,0,0,1,0,0A.11.11,0,0,1,186.89,55.7Z"/><path class="cls-33" d="M189.4,55.7s0-.06.09,0a.08.08,0,0,1,0,0A.11.11,0,0,1,189.4,55.7Z"/><path class="cls-51" d="M187.27,55.68a.11.11,0,0,1,.14,0C187.36,55.74,187.31,55.74,187.27,55.68Z"/><path class="cls-52" d="M205.77,21.74l-.1-.1h.26Z"/><path class="cls-52" d="M205.69,47.82h.21C205.8,48,205.8,48,205.69,47.82Z"/><path class="cls-53" d="M195.34,55.79l-.06-.07-.06-.07h.24C195.44,55.71,195.38,55.74,195.34,55.79Z"/><text class="cls-54" transform="translate(182 12.85) scale(1.02 1)">USA GENERAL HOSPITAL</text><text class="cls-55" transform="translate(179.49 17.89) scale(1.02 1)">NEW MEDICAL RECORDS REQUEST</text><text class="cls-56" transform="translate(179.46 20.37) scale(1.02 1)">PATIENT MEDICAL RECORD INFORMATION</text><text class="cls-57" transform="translate(182.21 21.74) scale(1.02 1)">Facility</text><text class="cls-57" transform="translate(179.45 23.21) scale(1.02 1)">Patient Last Name</text><text class="cls-57" transform="translate(179.55 24.86) scale(1.02 1)">Patient First Name</text><text class="cls-57" transform="translate(178.91 26.44) scale(1.02 1)">Other Patient Names</text><text class="cls-57" transform="translate(179.25 28.05) scale(1.02 1)">Last <tspan x="1.06" y="0">4</tspan><tspan x="1.33" y="0" xml:space="preserve"> Digits of SSN</tspan></text><text class="cls-57" transform="translate(179.07 29.72) scale(1.02 1)">Patient Date of Birth</text><text class="cls-57" transform="translate(180.88 31.03) scale(1.02 1)">Service Start</text><text class="cls-57" transform="translate(181.13 32.8) scale(1.02 1)">Service End</text><text class="cls-57" transform="translate(178.85 34.47) scale(1.02 1)">Types of Information</text><text class="cls-57" transform="translate(181.77 37.24) scale(1.02 1)">Purpose</text><text class="cls-58" transform="translate(179.41 40.02) scale(1.02 1)">The following information will not be released unless you specifcally authorize it by checking the relevant box(es) below</text><text class="cls-59" transform="translate(179.49 46.72) scale(1.02 1)">REQUESTOR INFORMATION</text><text class="cls-57" transform="translate(177.77 47.82) scale(1.02 1)">Relationship to Patient</text><text class="cls-57" transform="translate(181.62 49.4) scale(1.02 1)">Name</text><text class="cls-57" transform="translate(181.18 51.01) scale(1.02 1)">Address</text><text class="cls-57" transform="translate(181.74 52.59) scale(1.02 1)">Line <tspan x="1.08" y="0">2</tspan></text><text class="cls-57" transform="translate(182.16 54.24) scale(1.02 1)">City</text><text class="cls-57" transform="translate(181.97 55.89) scale(1.02 1)">State</text><text class="cls-57" transform="translate(179.47 57.4) scale(1.02 1)">Phone Number</text><text class="cls-57" transform="translate(179.78 59.12) scale(1.02 1)">Email Address</text><text class="cls-57" transform="translate(178.14 60.7) scale(1.02 1)">Retype Email Address</text><text class="cls-59" transform="translate(179.35 63.89) scale(1.02 1)">DELIVERY INFORMATION</text><path class="cls-60" d="M179.4,7.94h13.2a.42.42,0,0,1,.36.14,3.2,3.2,0,0,0,.3.3c.06.06.08.11,0,.17s-.27.25-.39.38-.15.06-.23.06H179.4l0,0c.12-.11.24-.22.36-.32s.16-.2,0-.32a4.57,4.57,0,0,1-.36-.33Z"/><text class="cls-61" transform="translate(183.26 8.57) scale(1.02 1)">ENTER REQUEST INFORMATION</text><path class="cls-7" d="M193,9a1.62,1.62,0,0,1,.37-.41c.11-.1.08-.16,0-.24L193,8a.38.38,0,0,1,.21,0H206a.6.6,0,0,1,.48.19c.33.34.33.33,0,.67a.62.62,0,0,1-.5.2H193Z"/><text class="cls-62" transform="translate(197.31 8.57) scale(1.02 1)">UPLOAD AUTHORIZATION</text><path class="cls-7" d="M206.45,9l.36-.39c.13-.14.14-.18,0-.3a2.72,2.72,0,0,1-.32-.33c0-.06.09,0,.13,0H219a.31.31,0,0,1,.25.1l.33.32c.08.07.09.12,0,.2a5.29,5.29,0,0,0-.38.39c-.06.06-.12,0-.18,0H206.45Z"/><text class="cls-62" transform="translate(211.01 8.57) scale(1.02 1)">REVIEW AND SUBMIT</text><text class="cls-63" transform="translate(217.18 6.57) scale(1.02 1)">CONTACT US</text><text class="cls-64" transform="translate(181.5 41.26) scale(1.02 1)">Information pertaining to drug and alcohol abuse, diagnosis, or treatment</text><text class="cls-64" transform="translate(181.5 42.14) scale(1.02 1)">Information pertaining to mental health diagnosis or treatment</text><text class="cls-64" transform="translate(181.5 43.01) scale(1.02 1)">HIV/AIDS test results</text><text class="cls-64" transform="translate(181.5 43.89) scale(1.02 1)">Genetic testing information</text><text class="cls-65" transform="translate(199.07 55.9) scale(1.02 1)">Zip</text><text class="cls-65" transform="translate(199.07 57.68) scale(1.02 1)">Ext.</text><path class="cls-7" d="M191,30h-4.49c-.16,0-.22,0-.21-.2a3.49,3.49,0,0,0,0-.54c0-.15,0-.19.18-.17h9c.17,0,.23,0,.22.21a3.24,3.24,0,0,0,0,.54c0,.16-.07.16-.19.16Z"/><path class="cls-5" d="M191,29.95h-4.46c-.16,0-.23,0-.21-.2a3.72,3.72,0,0,0,0-.51c0-.11,0-.15.15-.14h9c.17,0,.24,0,.22.21a2.49,2.49,0,0,0,0,.46c0,.15,0,.18-.19.18Z"/><path class="cls-21" d="M195.62,29.14a3.13,3.13,0,0,1,0,.71,0,0,0,0,1-.05.05,1.64,1.64,0,0,1-.52,0,.14.14,0,0,1,.05-.07l.05,0c.34,0,.34,0,.34-.36a1.54,1.54,0,0,1,0-.19.18.18,0,0,1,0-.05A.15.15,0,0,1,195.62,29.14Z"/><path class="cls-66" d="M195.11,29.85l0,0c0-.2,0-.41,0-.61s0-.14.13-.13h.41l0,0a.37.37,0,0,1-.26,0c-.12,0-.17,0-.17.17A.88.88,0,0,1,195.11,29.85Z"/><path class="cls-67" d="M195.58,29.21c0,.17,0,.35,0,.52s0,.13-.12.12h-.32a3.75,3.75,0,0,1,0-.56c0-.07,0-.1.09-.09A1.49,1.49,0,0,1,195.58,29.21Z"/><path class="cls-5" d="M195.58,29.21c-.43,0-.43,0-.43.42v.21h0c0-.19,0-.37,0-.56s0-.13.12-.12h.35Z"/><path class="cls-52" d="M195.22,29.46h.23C195.35,29.61,195.35,29.61,195.22,29.46Z"/><text class="cls-68" transform="translate(186.51 29.69) scale(1.02 1)">Month</text><path class="cls-7" d="M191,31.62h-4.49c-.16,0-.22,0-.21-.2a3.49,3.49,0,0,0,0-.54c0-.15,0-.19.18-.17h9c.17,0,.23,0,.22.21a3.24,3.24,0,0,0,0,.54c0,.16-.07.16-.19.16Z"/><path class="cls-5" d="M191,31.58h-4.46c-.16,0-.23,0-.21-.2a3.72,3.72,0,0,0,0-.51c0-.11,0-.15.15-.14h9c.17,0,.24,0,.22.21a2.49,2.49,0,0,0,0,.46c0,.15,0,.18-.19.18Z"/><path class="cls-21" d="M195.62,30.78a3.13,3.13,0,0,1,0,.71,0,0,0,0,1-.05.05,1.64,1.64,0,0,1-.52,0,.14.14,0,0,1,.05-.07l.05,0c.34,0,.34,0,.34-.36a1.54,1.54,0,0,1,0-.19.18.18,0,0,1,0-.05A.15.15,0,0,1,195.62,30.78Z"/><path class="cls-66" d="M195.11,31.49l0,0c0-.2,0-.41,0-.61s0-.14.13-.13h.41l0,0a.37.37,0,0,1-.26,0c-.12,0-.17,0-.17.17A.88.88,0,0,1,195.11,31.49Z"/><path class="cls-67" d="M195.58,30.84c0,.17,0,.35,0,.52s0,.13-.12.12h-.32a3.75,3.75,0,0,1,0-.56c0-.07,0-.1.09-.09A1.49,1.49,0,0,1,195.58,30.84Z"/><path class="cls-5" d="M195.58,30.84c-.43,0-.43,0-.43.42v.21h0c0-.19,0-.37,0-.56s0-.13.12-.12h.35Z"/><path class="cls-52" d="M195.22,31.09h.23C195.35,31.24,195.35,31.24,195.22,31.09Z"/><text class="cls-68" transform="translate(186.51 31.32) scale(1.02 1)">Month</text><path class="cls-7" d="M191,33.21h-4.49c-.16,0-.22,0-.21-.2a3.49,3.49,0,0,0,0-.54c0-.15,0-.19.18-.17h9c.17,0,.23,0,.22.21a3.24,3.24,0,0,0,0,.54c0,.16-.07.16-.19.16Z"/><path class="cls-5" d="M191,33.17h-4.46c-.16,0-.23,0-.21-.2a3.72,3.72,0,0,0,0-.51c0-.11,0-.15.15-.14h9c.17,0,.24,0,.22.21a2.49,2.49,0,0,0,0,.46c0,.15,0,.18-.19.18Z"/><path class="cls-21" d="M195.62,32.37a3.13,3.13,0,0,1,0,.71,0,0,0,0,1-.05.05,1.64,1.64,0,0,1-.52,0,.14.14,0,0,1,.05-.07l.05,0c.34,0,.34,0,.34-.36a1.54,1.54,0,0,1,0-.19.18.18,0,0,1,0-.05A.15.15,0,0,1,195.62,32.37Z"/><path class="cls-66" d="M195.11,33.08l0,0c0-.2,0-.41,0-.61s0-.14.13-.13h.41l0,0a.37.37,0,0,1-.26,0c-.12,0-.17,0-.17.17A.88.88,0,0,1,195.11,33.08Z"/><path class="cls-67" d="M195.58,32.44c0,.17,0,.35,0,.52s0,.13-.12.12h-.32a3.75,3.75,0,0,1,0-.56c0-.07,0-.1.09-.09A1.49,1.49,0,0,1,195.58,32.44Z"/><path class="cls-5" d="M195.58,32.44c-.43,0-.43,0-.43.42v.21h0c0-.19,0-.37,0-.56s0-.13.12-.12h.35Z"/><path class="cls-52" d="M195.22,32.68h.23C195.35,32.84,195.35,32.84,195.22,32.68Z"/><text class="cls-68" transform="translate(186.51 32.92) scale(1.02 1)">Month</text><path class="cls-7" d="M198,30h-1.56c-.12,0-.17,0-.16-.16s0-.41,0-.61,0-.15.14-.15h3.2c.12,0,.14,0,.14.15s0,.41,0,.61,0,.16-.16.16Z"/><path class="cls-5" d="M198,29.95h-1.54c-.11,0-.16,0-.16-.15s0-.37,0-.56,0-.14.13-.14h3.15c.11,0,.13,0,.13.14s0,.37,0,.56,0,.15-.15.15Z"/><path class="cls-21" d="M199.63,29.14a3.13,3.13,0,0,1,0,.71,0,0,0,0,1-.05.05,1.64,1.64,0,0,1-.52,0,.14.14,0,0,1,.05-.07l.05,0c.34,0,.34,0,.34-.36a1.54,1.54,0,0,1,0-.19.18.18,0,0,1,0-.05A.15.15,0,0,1,199.63,29.14Z"/><path class="cls-66" d="M199.12,29.85l0,0c0-.2,0-.41,0-.61s0-.14.13-.13h.41l0,0a.37.37,0,0,1-.26,0c-.12,0-.17,0-.17.17A.88.88,0,0,1,199.12,29.85Z"/><path class="cls-67" d="M199.59,29.21c0,.17,0,.35,0,.52s0,.13-.12.12h-.32a3.75,3.75,0,0,1,0-.56c0-.07,0-.1.09-.09A1.49,1.49,0,0,1,199.59,29.21Z"/><path class="cls-5" d="M199.59,29.21c-.43,0-.43,0-.43.42v.21h0c0-.19,0-.37,0-.56s0-.13.12-.12h.35Z"/><path class="cls-52" d="M199.23,29.46h.23C199.36,29.61,199.36,29.61,199.23,29.46Z"/><text class="cls-68" transform="translate(196.35 29.72) scale(1.02 1)">Day</text><path class="cls-7" d="M198,31.62H196.4c-.12,0-.17,0-.16-.16s0-.41,0-.61,0-.15.14-.15h3.2c.12,0,.14,0,.14.15s0,.41,0,.61,0,.16-.16.16Z"/><path class="cls-5" d="M198,31.58h-1.54c-.11,0-.16,0-.16-.15s0-.37,0-.56,0-.14.13-.14h3.15c.11,0,.13,0,.13.14s0,.37,0,.56,0,.15-.15.15Z"/><path class="cls-21" d="M199.61,30.78a3.13,3.13,0,0,1,0,.71,0,0,0,0,1-.05.05,1.64,1.64,0,0,1-.52,0,.14.14,0,0,1,.05-.07l.05,0c.34,0,.34,0,.34-.36a1.54,1.54,0,0,1,0-.19.18.18,0,0,1,0-.05A.15.15,0,0,1,199.61,30.78Z"/><path class="cls-66" d="M199.1,31.49l0,0c0-.2,0-.41,0-.61s0-.14.13-.13h.41l0,0a.37.37,0,0,1-.26,0c-.12,0-.17,0-.17.17A.88.88,0,0,1,199.1,31.49Z"/><path class="cls-67" d="M199.57,30.85c0,.17,0,.35,0,.52s0,.13-.12.12h-.32a3.75,3.75,0,0,1,0-.56c0-.07,0-.1.09-.09A1.49,1.49,0,0,1,199.57,30.85Z"/><path class="cls-5" d="M199.57,30.85c-.43,0-.43,0-.43.42v.21h0c0-.19,0-.37,0-.56s0-.13.12-.12h.35Z"/><path class="cls-52" d="M199.21,31.09h.23C199.34,31.25,199.34,31.25,199.21,31.09Z"/><text class="cls-68" transform="translate(196.33 31.35) scale(1.02 1)">Day</text><path class="cls-7" d="M198,33.19H196.4c-.12,0-.17,0-.16-.16s0-.41,0-.61,0-.15.14-.15h3.2c.12,0,.14,0,.14.15s0,.41,0,.61,0,.16-.16.16Z"/><path class="cls-5" d="M198,33.16h-1.54c-.11,0-.16,0-.16-.15s0-.37,0-.56,0-.14.13-.14h3.15c.11,0,.13,0,.13.14s0,.37,0,.56,0,.15-.15.15Z"/><path class="cls-21" d="M199.61,32.35a3.13,3.13,0,0,1,0,.71,0,0,0,0,1-.05.05,1.64,1.64,0,0,1-.52,0,.14.14,0,0,1,.05-.07l.05,0c.34,0,.34,0,.34-.36a1.54,1.54,0,0,1,0-.19.18.18,0,0,1,0-.05A.15.15,0,0,1,199.61,32.35Z"/><path class="cls-66" d="M199.11,33.06l0,0c0-.2,0-.41,0-.61s0-.14.13-.13h.41l0,0a.37.37,0,0,1-.26,0c-.12,0-.17,0-.17.17A.88.88,0,0,1,199.11,33.06Z"/><path class="cls-67" d="M199.57,32.42c0,.17,0,.35,0,.52s0,.13-.12.12h-.32a3.75,3.75,0,0,1,0-.56c0-.07,0-.1.09-.09A1.49,1.49,0,0,1,199.57,32.42Z"/><path class="cls-5" d="M199.57,32.42c-.43,0-.43,0-.43.42v.21h0c0-.19,0-.37,0-.56s0-.13.12-.12h.35Z"/><path class="cls-52" d="M199.21,32.67h.23C199.34,32.82,199.34,32.82,199.21,32.67Z"/><text class="cls-68" transform="translate(196.33 32.93) scale(1.02 1)">Day</text><path class="cls-5" d="M200.33,31.84l0,0a9,9,0,0,1,0-1,.14.14,0,0,1,.15-.15h5.46c.24,0,.26,0,.27.26a7.45,7.45,0,0,0,0,.84.1.1,0,0,1-.08.07s-.09,0-.08-.08a3.49,3.49,0,0,0,0-.72c0-.17,0-.2-.21-.21h-5c-.42,0-.42,0-.42.41a.94.94,0,0,0,.1.56A.24.24,0,0,1,200.33,31.84Z"/><path class="cls-7" d="M206.17,31.8c-.06,0,0-.11,0-.16,0-.23,0-.46,0-.68s0-.23-.24-.23h-5.34c-.23,0-.26,0-.26.25s0,.56,0,.84c-.07-.11,0-.24,0-.36s0-.35,0-.53,0-.24.25-.24h5.41c.22,0,.25,0,.25.24S206.17,31.51,206.17,31.8Z"/><path class="cls-7" d="M206,31.84s.05,0,.07,0h-5.6c-.06,0-.12,0-.17,0h.18a.32.32,0,0,1,.24-.05h5A.33.33,0,0,1,206,31.84Z"/><path class="cls-5" d="M206,31.84h-5.52c-.16,0-.16-.18-.15-.28a4.89,4.89,0,0,0,0-.59c0-.12,0-.16.15-.16,1,0,2,0,2.93,0h2.45c.15,0,.21.05.2.19A2.21,2.21,0,0,1,206,31.84Z"/><text class="cls-69" transform="translate(200.63 31.49) scale(1.02 1)">Year</text><path class="cls-5" d="M200.33,30.15l0,0a9,9,0,0,1,0-1,.14.14,0,0,1,.15-.15h5.46c.24,0,.26,0,.27.26a7.45,7.45,0,0,0,0,.84.1.1,0,0,1-.08.07s-.09,0-.08-.08a3.49,3.49,0,0,0,0-.72c0-.17,0-.2-.21-.21h-5c-.42,0-.42,0-.42.41a.94.94,0,0,0,.1.56A.24.24,0,0,1,200.33,30.15Z"/><path class="cls-7" d="M206.17,30.11c-.06,0,0-.11,0-.16,0-.23,0-.46,0-.68s0-.23-.24-.23h-5.34c-.23,0-.26,0-.26.25s0,.56,0,.84c-.07-.11,0-.24,0-.36s0-.35,0-.53,0-.24.25-.24h5.41c.22,0,.25,0,.25.24S206.17,29.82,206.17,30.11Z"/><path class="cls-7" d="M206,30.15s.05,0,.07,0h-5.6c-.06,0-.12,0-.17,0h.18a.32.32,0,0,1,.24-.05h5A.33.33,0,0,1,206,30.15Z"/><path class="cls-5" d="M206,30.15h-5.52c-.16,0-.16-.18-.15-.28a4.89,4.89,0,0,0,0-.59c0-.12,0-.16.15-.16,1,0,2,0,2.93,0h2.45c.15,0,.21.05.2.19A2.21,2.21,0,0,1,206,30.15Z"/><text class="cls-69" transform="translate(200.63 29.81) scale(1.02 1)">Year</text><path class="cls-5" d="M200.35,33.43l0,0a9,9,0,0,1,0-1,.14.14,0,0,1,.15-.15h5.46c.24,0,.26,0,.27.26a7.45,7.45,0,0,0,0,.84.1.1,0,0,1-.08.07s-.09,0-.08-.08a3.49,3.49,0,0,0,0-.72c0-.17,0-.2-.21-.21h-5c-.42,0-.42,0-.42.41a.94.94,0,0,0,.1.56A.24.24,0,0,1,200.35,33.43Z"/><path class="cls-7" d="M206.19,33.39c-.06,0,0-.11,0-.16,0-.23,0-.46,0-.68s0-.23-.24-.23h-5.34c-.23,0-.26,0-.26.25s0,.56,0,.84c-.07-.11,0-.24,0-.36s0-.35,0-.53,0-.24.25-.24h5.41c.22,0,.25,0,.25.24S206.19,33.1,206.19,33.39Z"/><path class="cls-7" d="M206,33.43s.05,0,.07,0h-5.6c-.06,0-.12,0-.17,0h.18a.32.32,0,0,1,.24-.05h5A.33.33,0,0,1,206,33.43Z"/><path class="cls-5" d="M206,33.43h-5.52c-.16,0-.16-.18-.15-.28a4.89,4.89,0,0,0,0-.59c0-.12,0-.16.15-.16,1,0,2,0,2.93,0h2.45c.15,0,.21.05.2.19A2.21,2.21,0,0,1,206,33.43Z"/><text class="cls-69" transform="translate(200.65 33.09) scale(1.02 1)">Year</text><path class="cls-70" d="M198.41,3l.18.05v.21l-.18.05-.12-.05-.06-.1.06-.1.12-.05Zm1.31-.16.12.05L200,3l.06.1v.21l-.06.05-.12.1h-.24l-.12-.1-.06-.05V3.08l.06-.1.12-.05.12-.05ZM222.8,6.1V60l-.06.05h-46l-.06-.05V6.1ZM199.72,61.82l-.36.05-.3.05-.24.16-.24.16-.24.21-.12.26-.12.26v.57l.12.26.18.21.18.21.24.21.3.1.3.1H200l.3-.1.3-.16.24-.16L201,64l.18-.21.06-.31.06-.26-.06-.26-.06-.26-.18-.26-.18-.21-.24-.16-.3-.16-.3-.05-.3-.05Zm.36-.1.3.1.3.16.3.16.18.26.18.26.12.26v.63l-.12.26-.18.26-.18.26-.3.16-.3.16-.3.1-.36.05-.36-.05-.3-.1-.3-.1-.3-.21-.18-.21-.18-.26-.12-.26-.06-.31v-.05l.06-.31.12-.26.12-.26.24-.26.24-.16.3-.16.36-.1ZM176.16.63l-.47.05-.42.1-.42.21-.36.26-.3.31-.18.36-.12.37-.06.42V63.49l.06.42.12.42.24.37.36.31.36.21.47.21.47.1.53.05H223l.53-.05.47-.1.42-.21.42-.26.3-.31.24-.37.18-.42.06-.47V2.71l-.06-.42-.12-.37-.24-.36-.3-.31L224.58,1l-.42-.21-.47-.1-.47-.05Zm47.59-.1.47.16.42.21.42.26.3.31.24.42.12.42.06.42V63.38l-.06.47-.12.47-.3.37-.3.37-.42.26-.47.21-.53.16-.53.05H176.45l-.59-.05-.47-.16-.47-.21-.42-.26-.36-.31-.24-.36-.18-.42-.06-.47V2.71l.06-.42.18-.42.18-.42.36-.31.36-.26.42-.21.47-.16ZM176.16,0l-.59.05-.59.1-.53.26L174,.78l-.36.42-.3.47-.18.52-.06.52V63.49l.06.57.24.52.3.47.42.36.47.37.59.26.59.16.71.05H223l.65-.05.59-.16.59-.26.48-.37.47-.42.3-.47.18-.57.06-.57V2.71l-.06-.52-.18-.52-.3-.47-.36-.42L225,.42l-.53-.26-.59-.1L223.22,0Z"/><rect class="cls-71" x="0.22" y="7.36" width="52.02" height="55.03"/><text class="cls-72" transform="translate(16.26 49.4) scale(1.21 1)">1</text></svg>