<svg id="Layer_1" data-name="Layer 1" xmlns="http://www.w3.org/2000/svg" viewBox="0 0 250.5 70.8"><defs><style>.cls-1{fill:#c0e5e7;stroke:#6fcbdc;stroke-miterlimit:10;}.cls-2{font-size:12px;fill:#369;}.cls-2,.cls-6{font-family:Montserrat-Bold, Montserrat;font-weight:700;}.cls-3{fill:#24516c;fill-rule:evenodd;}.cls-34,.cls-4{fill:none;}.cls-17,.cls-4{stroke:#fff;}.cls-28,.cls-29,.cls-4{stroke-linejoin:round;}.cls-4{stroke-width:0.72px;}.cls-5{fill:#6fcbdc;}.cls-6{font-size:40px;}.cls-17,.cls-6,.cls-7{fill:#fff;}.cls-20,.cls-32,.cls-8{fill:#fdd9b2;}.cls-8{stroke:#fdd9b2;}.cls-10,.cls-11,.cls-13,.cls-14,.cls-15,.cls-16,.cls-17,.cls-18,.cls-19,.cls-21,.cls-22,.cls-23,.cls-25,.cls-27,.cls-30,.cls-31,.cls-8{stroke-width:0.5px;}.cls-14,.cls-33,.cls-9{fill:#ffe8bc;}.cls-10{fill:#d5a066;stroke:#d5a066;}.cls-11,.cls-32,.cls-33{stroke:#000;}.cls-12{fill:#ffe8bd;}.cls-13{fill:#fbe7bc;stroke:#fbe7bc;}.cls-14{stroke:#ffe8bc;}.cls-15{fill:#a06e3b;stroke:#a06e3b;}.cls-16{fill:#623412;stroke:#623412;}.cls-18{fill:#9d6b37;stroke:#9d6b37;}.cls-19{fill:#6e3e18;stroke:#6e3e18;}.cls-108,.cls-21{fill:#010101;}.cls-21{stroke:#010101;}.cls-22{fill:#73421a;stroke:#73421a;}.cls-23{fill:#8f5e2b;stroke:#8f5e2b;}.cls-24{fill:#fdd9b1;}.cls-109,.cls-25{fill:#eff8f8;}.cls-25{stroke:#eff8f8;}.cls-26{fill:#ebf6f9;}.cls-110,.cls-27{fill:#fffbfb;}.cls-27{stroke:#fffbfb;}.cls-28{fill:#ccdd60;}.cls-28,.cls-29{stroke:#c7c7c7;stroke-linecap:round;}.cls-29{fill:#f2f2f2;}.cls-30{fill:#50c2c4;stroke:#26bbb4;}.cls-31{fill:#394f51;stroke:#394f51;}.cls-32,.cls-33{stroke-width:0.25px;}.cls-35{fill:#676767;}.cls-36{fill:#333;}.cls-37{fill:#e8e8e8;}.cls-38{fill:#7d7d7d;}.cls-39{fill:#a4a4a4;}.cls-40{fill:#6e6e6e;}.cls-41{fill:#a0a0a0;}.cls-42{fill:#303030;}.cls-43{fill:#b1b1b1;}.cls-44{fill:#b5b5b5;}.cls-45{fill:#868686;}.cls-46{fill:gray;}.cls-47{fill:#757575;}.cls-48{fill:#7c7c7c;}.cls-49{fill:#a6a6a6;}.cls-50{fill:#979797;}.cls-51{fill:#5c5c5c;}.cls-52{fill:#6b6b6b;}.cls-53{fill:#919191;}.cls-54{fill:#626262;}.cls-55{fill:#222;}.cls-56{fill:#5b5b5b;}.cls-57{fill:#989898;}.cls-58{fill:#969696;}.cls-59{fill:#8a8a8a;}.cls-60{fill:#8f8f8f;}.cls-61{fill:#a2a2a2;}.cls-62{fill:#888;}.cls-63{fill:#7e7e7e;}.cls-64{fill:#787878;}.cls-65{fill:#828282;}.cls-66{fill:#1e1e1e;}.cls-67{fill:#252525;}.cls-68{fill:#292929;}.cls-69{fill:#aaa;}.cls-70{fill:#b2b2b2;}.cls-71{fill:#bcbcbc;}.cls-72{fill:#8b8b8b;}.cls-73{fill:#9f9f9f;}.cls-74{fill:#efefef;}.cls-75{fill:#bbb;}.cls-76{fill:#b3b3b3;}.cls-77{fill:#9c9c9c;}.cls-78{fill:#bdbdbd;}.cls-79{fill:#353535;}.cls-80{fill:#6d6d6d;}.cls-81{fill:#696969;}.cls-82{fill:#181818;}.cls-83{fill:#9b9b9b;}.cls-84{fill:#686868;}.cls-85{fill:#9d9d9d;}.cls-86{fill:#6c6c6c;}.cls-87{fill:#878787;}.cls-88{fill:#909090;}.cls-89{fill:#c2c2c2;}.cls-90{fill:#606060;}.cls-91{fill:#d6d6d6;}.cls-92{fill:#1d1d1d;}.cls-93{fill:#6f6f6f;}.cls-94{fill:#656565;}.cls-95{fill:#ebebeb;}.cls-96{fill:#5a5a5a;}.cls-97{fill:#e9e9e9;}.cls-98{fill:#585858;}.cls-99{fill:#565656;}.cls-100{fill:#9a9a9a;}.cls-101{fill:#5e5e5e;}.cls-102{fill:#bfbfbf;}.cls-103{fill:#484848;}.cls-104{fill:#2e2e2e;}.cls-105{fill:#262626;}.cls-106{fill:#454545;}.cls-107{font-size:1.95px;fill:#cbcbca;font-family:MyriadPro-Regular, Myriad Pro;}</style></defs><title>step2</title><rect class="cls-1" x="0.5" y="8.71" width="249.5" height="55"/><text class="cls-2" transform="translate(102.52 24.06) scale(1.02 1)">Snap picture <tspan x="0" y="14.4">of photo </tspan><tspan x="0" y="28.8">identifcation</tspan></text><path class="cls-3" d="M43.75,3.47l.18.05v.21l-.18.05-.12-.05-.06-.11.06-.11.12-.05Zm1.34-.16.12.05.12.05.06.11v.21l-.06.05-.12.11H45l-.12-.11-.06-.05V3.53l.06-.11L45,3.37l.12-.05ZM68.86,6.64V62.13l-.06.05H21.46l-.06-.05V6.64ZM45.1,64l-.37.05-.31.05-.24.16-.24.16-.24.22-.12.27-.12.27v.59l.12.27.18.21.18.22.24.21.31.11.31.11h.61l.31-.11.31-.16.24-.16.18-.22.18-.21.06-.32.06-.27-.06-.27-.06-.27-.18-.27-.18-.22L46,64.22l-.31-.16L45.4,64,45.1,64Zm.37-.11.31.11.31.16.31.16.18.27.18.27.12.27v.64l-.12.27-.18.27-.18.27-.31.16-.31.16-.31.11L45.1,67,44.73,67l-.31-.11-.31-.11-.31-.22-.18-.21L43.45,66l-.12-.27-.06-.32v-.05l.06-.32.12-.27.12-.27.24-.27.24-.16.31-.16.37-.11ZM20.85,1l-.49.05-.43.11-.43.21-.37.27L18.83,2l-.18.38-.12.38-.06.43V65.67l.06.43.12.43.24.38.37.32.37.21.49.22.49.11.55.05h48l.55-.05.49-.11.43-.22.43-.27.31-.32.24-.38.18-.43.06-.48V3.15l-.06-.43-.12-.38L71.37,2l-.31-.32-.37-.27-.43-.21-.49-.11L69.29,1Zm49-.11.49.16.43.22.43.27.31.32.24.43.12.43.06.43V65.57l-.06.48-.12.48-.31.38-.31.38-.43.27-.49.22-.55.16L69.1,68h-48l-.61-.05-.49-.16-.49-.22-.43-.27L18.77,67l-.24-.38-.18-.43-.06-.48V3.15l.06-.43.18-.43.18-.43.37-.32.37-.27.43-.22L20.36.9Zm-49-.54-.61.05-.61.11-.55.27-.49.38-.37.43-.31.48-.18.54-.06.54V65.67l.06.59.24.54.31.48.43.38.49.38.61.27.61.16.73.05h48l.67-.05.61-.16L71,68l.49-.38.49-.43.31-.48.18-.59.06-.59V3.15l-.06-.54-.18-.54L72,1.59l-.37-.43L71.12.79,70.57.52,70,.41,69.29.36Z"/><path class="cls-4" d="M43.75,3.47l.18.05v.21l-.18.05-.12-.05-.06-.11.06-.11.12-.05Zm1.34-.16.12.05.12.05.06.11v.21l-.06.05-.12.11H45l-.12-.11-.06-.05V3.53l.06-.11L45,3.37l.12-.05ZM68.86,6.64V62.13l-.06.05H21.46l-.06-.05V6.64ZM45.1,64l-.37.05-.31.05-.24.16-.24.16-.24.22-.12.27-.12.27v.59l.12.27.18.21.18.22.24.21.31.11.31.11h.61l.31-.11.31-.16.24-.16.18-.22.18-.21.06-.32.06-.27-.06-.27-.06-.27-.18-.27-.18-.22L46,64.22l-.31-.16L45.4,64,45.1,64Zm.37-.11.31.11.31.16.31.16.18.27.18.27.12.27v.64l-.12.27-.18.27-.18.27-.31.16-.31.16-.31.11L45.1,67,44.73,67l-.31-.11-.31-.11-.31-.22-.18-.21L43.45,66l-.12-.27-.06-.32v-.05l.06-.32.12-.27.12-.27.24-.27.24-.16.31-.16.37-.11ZM20.85,1l-.49.05-.43.11-.43.21-.37.27L18.83,2l-.18.38-.12.38-.06.43V65.67l.06.43.12.43.24.38.37.32.37.21.49.22.49.11.55.05h48l.55-.05.49-.11.43-.22.43-.27.31-.32.24-.38.18-.43.06-.48V3.15l-.06-.43-.12-.38L71.37,2l-.31-.32-.37-.27-.43-.21-.49-.11L69.29,1Zm49-.11.49.16.43.22.43.27.31.32.24.43.12.43.06.43V65.57l-.06.48-.12.48-.31.38-.31.38-.43.27-.49.22-.55.16L69.1,68h-48l-.61-.05-.49-.16-.49-.22-.43-.27L18.77,67l-.24-.38-.18-.43-.06-.48V3.15l.06-.43.18-.43.18-.43.37-.32.37-.27.43-.22L20.36.9Zm-49-.54-.61.05-.61.11-.55.27-.49.38-.37.43-.31.48-.18.54-.06.54V65.67l.06.59.24.54.31.48.43.38.49.38.61.27.61.16.73.05h48l.67-.05.61-.16L71,68l.49-.38.49-.43.31-.48.18-.59.06-.59V3.15l-.06-.54-.18-.54L72,1.59l-.37-.43L71.12.79,70.57.52,70,.41,69.29.36Z"/><rect class="cls-5" x="197.76" y="8.9" width="52.02" height="55.03"/><text class="cls-6" transform="translate(209.24 50.94) scale(1.21 1)">2</text><rect class="cls-7" x="21.81" y="6.24" width="46.57" height="56.56"/><path class="cls-8" d="M50.16,28.53A6.46,6.46,0,0,1,49.7,31,3.76,3.76,0,0,1,49,32a7.28,7.28,0,0,1-1.46,1.17,14.25,14.25,0,0,1-2.2,1.15l-.27.09a1,1,0,0,0-.07.21l-2,.93a7.15,7.15,0,0,1-.74.33c0-.5,0-1,0-1.52a14.4,14.4,0,0,1-1.93-.9,8.5,8.5,0,0,1-2-1.41,2.57,2.57,0,0,1-.51-.88A8.91,8.91,0,0,1,37.58,30l0,0a.75.75,0,0,0,.22-.4c0,.13.08.26.12.39a4.17,4.17,0,0,0,.87,1.57,6.23,6.23,0,0,0,1.08,1s.65.31,1.28.59a14.9,14.9,0,0,0,1.49.6.69.69,0,0,0,.53-.15,1,1,0,0,1,.78-.12c.21.07.33.29.57.32A8.11,8.11,0,0,0,46,33.19c.18-.11.58-.3,1-.57a4.08,4.08,0,0,0,1.28-1.12,5.27,5.27,0,0,0,1.27-2.83,1.08,1.08,0,0,1,.56-.14Z"/><path d="M54.82,24.83a.83.83,0,0,0-.26-.31.93.93,0,0,0-.52-.15q-.33,0-.69.84a11,11,0,0,0-.51,1.38l-.15.53h.08l0,0,0,0H53l.26,0a3.81,3.81,0,0,0,.41-.24,2.81,2.81,0,0,0,.58-.47,2.94,2.94,0,0,0,.4-.58,1.56,1.56,0,0,0,.2-.61A.89.89,0,0,0,54.82,24.83ZM34.52,27.12v-.06l-.25-.76A10.23,10.23,0,0,0,33.69,25c-.2-.4-.39-.59-.56-.58a.73.73,0,0,0-.46.21.93.93,0,0,0-.25.3,1.16,1.16,0,0,0,0,.41,1.45,1.45,0,0,0,.2.62,3,3,0,0,0,.46.6,3.18,3.18,0,0,0,.57.46,2,2,0,0,0,.37.2l.24,0h.27Zm19.39-5.3a17.78,17.78,0,0,0-.35-2.07,18.85,18.85,0,0,0-.71-2.49q-.41-1.12-.75-1.9a4.09,4.09,0,0,0-.39-.77,0,0,0,0,0,0,0,.33.33,0,0,1-.1.11,2.77,2.77,0,0,0-.33.42,4.77,4.77,0,0,1-.48.59l-.84.81q-.61.57-1.14,1a11.45,11.45,0,0,1-1,.69,6.34,6.34,0,0,1-.71.39L46,19a16.55,16.55,0,0,1-2.06.57l-1.26.28h0l0,0h0l.25-.2.69-.55a4.64,4.64,0,0,1,.47-.36.61.61,0,0,0,.18-.15c.09-.09.25-.24.49-.43a3.26,3.26,0,0,1,.39-.31.61.61,0,0,0,.18-.15l.73-.7a11.71,11.71,0,0,0,.84-.84l.25-.28h0l0,0,0,0,0-.05,0-.06h0v-.07h-.16l0,0,0,0h0l0,0-.66.36q-.62.34-1.82,1t-2.37,1.08a21.05,21.05,0,0,1-2.86.87q-1.71.41-4.06.8t-2.35.77c0,.25,0,.62.11,1.11a7.25,7.25,0,0,0,.44,1.62c.23.59.39.9.48.93l.49.12.35.07h0v-.11h-.13l0,0-.25-.45-.24-.44,0-.07,0-.07v-.07h.05l0,0h.11l.24.15a1.8,1.8,0,0,0,.35.18l.16.05,0,0,.06,0,.06,0h.2v-.07h-.08l0-.07,0,0-.1-.22-.08-.18,0-.05,0-.06,0,0,0,0V22.6h.1l0,0,0,0h0l.31.13A1,1,0,0,0,36,23a4.16,4.16,0,0,0,.59-.2,4.3,4.3,0,0,1,1.94-.3,4.55,4.55,0,0,1,1.07.21,3.94,3.94,0,0,1,.67.26l.16.1,0,0h0l0,0,0,0h0l0,0h0l-.08,0-.08,0-.1,0-.71-.13L39,23H38.8l0,0,0,0,0,0,0,0,0,0,0,0,0,0,0,0,.5.25a3.83,3.83,0,0,1,.71.43l.21.18h0l0,0h.09l0,0,0,0h0v0h0v0h0v0h-.12l0,0,0,0h0l0,0L40.13,24l-.31-.17,0,0-.12-.06h-.08l0,0h0l-.31-.11-.31-.1h-.06l-.18,0-.12,0-.69,0a3.45,3.45,0,0,0-1.16.2,4.08,4.08,0,0,0-.95.54q-.48.36-.48.55a2.13,2.13,0,0,0,.29.74,3.61,3.61,0,0,0,.58.84,2.57,2.57,0,0,0,.69.49,3,3,0,0,0,.69.26,4.86,4.86,0,0,0,.94,0l.67,0h.24l.33-.07.39-.09.06,0h.12v0h.12l0,0,0,0h-.08l0,0h-.08l0,0L40,27l-.51.18a3.58,3.58,0,0,1-1,.18,8.27,8.27,0,0,1-1.59-.17,6.22,6.22,0,0,0-1.39-.15l-.35,0h0l.06.33a4.3,4.3,0,0,0,.34,1,3.65,3.65,0,0,0,.68,1,3.93,3.93,0,0,0,.67.58,1.07,1.07,0,0,1,.28.21v0h0l0,0,0,0h0l0,0h0l0,0h0l0,0h0l.38.24.72.45.1.06q1,.65,2,1.14a19.34,19.34,0,0,0,1.8.83,5.13,5.13,0,0,0,1,.29l.2,0a1.55,1.55,0,0,0,.4-.08A9.26,9.26,0,0,0,45,33q1.08-.46,2.18-1.06l1.37-.76.24-.14q.5-.31,1-.64l.15-.1.34-.24h0l0,0v0h0l0,0v0h.13l.36-.32a3.5,3.5,0,0,0,.57-.63,5.2,5.2,0,0,0,.49-1.05l.27-.74V27.1H52l-.23,0a6.2,6.2,0,0,0-1.14.15,10.21,10.21,0,0,1-1.47.18,4.56,4.56,0,0,1-.78,0,4.31,4.31,0,0,1-.68-.21L47.25,27h-.1l-.08,0h0l0,0h.08v0h.12l.29.07.39.09.1,0h.24l.67,0a5.59,5.59,0,0,0,.88,0,3.07,3.07,0,0,0,.69-.26,2.75,2.75,0,0,0,.71-.44,3.29,3.29,0,0,0,.52-.69,3.18,3.18,0,0,0,.36-.77c.05-.2.07-.31,0-.35a4.59,4.59,0,0,0-.5-.39,4.08,4.08,0,0,0-.93-.53,3.44,3.44,0,0,0-1.16-.2l-.69,0-.12,0-.12,0-.06,0-.06,0,.45,0a2.8,2.8,0,0,1,.8.17,2.15,2.15,0,0,1,.65.43,1.79,1.79,0,0,1,.43.57,1.66,1.66,0,0,1,.12.65,1.44,1.44,0,0,1-.13.63,2.24,2.24,0,0,1-.32.5,1.13,1.13,0,0,1-.29.27L50,26.8h0l-.08,0,0,0,0,0,0,0,0,0h0v-.48a2.38,2.38,0,0,0,0-.52l0-.15,0-.05,0-.06,0-.05,0-.06h-.05l0,0h-.06l-.13.12a.7.7,0,0,1-.43.13.84.84,0,0,1-.47-.07.71.71,0,0,1-.27-.32.75.75,0,0,1-.09-.34V25h0l0-.05a.76.76,0,0,1,.07-.14l0-.08h.08l.08,0h0v-.07h-.12l0,0,0,0-.08,0a3.89,3.89,0,0,0-.53,0h-.45l-.08,0-.08,0h0V24.4l0,0,0,0h.14l.08-.11A.48.48,0,0,1,47.4,24l.06,0h0l0,0,0,0h0l0,0,0,0h0l-.08,0-.06,0-.06,0h0l0,0-.43.23c-.26.14-.39.2-.38.18a2.56,2.56,0,0,1,.33-.33,4.08,4.08,0,0,1,1-.62c.44-.21.62-.32.54-.32s-.39,0-.94.15-.72.08-.51-.05a3.56,3.56,0,0,1,.82-.37,4.27,4.27,0,0,1,1-.2,4.3,4.3,0,0,1,1.94.3,4.16,4.16,0,0,0,.59.2,1.44,1.44,0,0,0,.55-.17q.43-.19.4-.1a4.64,4.64,0,0,1-.21.43c-.13.23-.08.32.13.27a2,2,0,0,0,.62-.3c.2-.14.3-.18.3-.1a1.08,1.08,0,0,1-.14.39,2.79,2.79,0,0,1-.32.51,1.05,1.05,0,0,0-.19.27s.06,0,.18,0a2,2,0,0,0,.42-.1q.25-.08.56-.84A3.1,3.1,0,0,0,53.9,21.82Zm3.45-2.1a15.42,15.42,0,0,0-.29-2.2,15,15,0,0,0-.45-1.79,7,7,0,0,0-.31-.79l-.09-.17V14.7l0,0,0,0,0,0,0,0,0,0L56,14.38c0-.06-.16-.21-.35-.44a7.05,7.05,0,0,0-.55-.59,5.21,5.21,0,0,0-.82-.58,6,6,0,0,0-1.13-.55A5.1,5.1,0,0,0,52.1,12a.74.74,0,0,1-.66-.45,3.55,3.55,0,0,0-.38-.74,2.57,2.57,0,0,0-.52-.58,4.5,4.5,0,0,0-1-.55,9.29,9.29,0,0,0-1.45-.48q-.71-.17-1.73-.31a17.47,17.47,0,0,0-3.86-.11q-.77.07-1.86.3a13.48,13.48,0,0,0-2.08.59c-.65.25-1.11.43-1.37.55l-.39.18,0,0,0,0h-.06l-.51.29q-.49.28-.8.49l-.75.51a2.43,2.43,0,0,0-.45.33,3.85,3.85,0,0,1-.44.41l-.43.37H33.2l0,0h-.05l0,0h0l-.36.37h0l-.16.16-.13.13,0,0a6.84,6.84,0,0,0-.54.66l-.19.28a7,7,0,0,0-.61,1.2,14.07,14.07,0,0,0-.51,1.64,15.7,15.7,0,0,0-.37,1.94A22.48,22.48,0,0,0,30.11,22q0,1.7.06,2.27t.08.72l0,.15,0,.11,0,.11h0l.16.92q.17.92.52,2.31t1,3.21q.61,1.83.73,2.12l.14.35,0,.06,0,.05,0,.06,0,.05,0,.06,0,0,0,0v-.18l0-.18q0-.18-.12-1.35t-.12-2.18l0-1,0,.05,0,.06,0,.05,0,.06,0,.06,0,.05,1,2.84,1.15,3.38a.66.66,0,0,0,.84.43l.71-.11h.06v0s-.1-.65-.29-1.88L36,32.78v-.22h0l0,0,0,0h0l0,.06,0,.05,0,0,.49.76,1,1.55a1.84,1.84,0,0,0,1.89.7q1.36-.13,1.47-.55a5.63,5.63,0,0,0,.12-1.22c0-.08,0-.15,0-.22q0-.59-.2-.68t-1.27-.71q-.82-.47-1.55-1l-.43-.29q-.92-.65-1.42-1.08a5.65,5.65,0,0,1-.75-.77,4.26,4.26,0,0,1-.52-1,2.27,2.27,0,0,0-.31-.66,1.82,1.82,0,0,1-.37,0,1.66,1.66,0,0,1-.75-.21,1.75,1.75,0,0,1-.42-.25.53.53,0,0,0-.15-.15,3.37,3.37,0,0,1-.45-.53,2.5,2.5,0,0,1-.42-.81L32,25.4v-.35a2,2,0,0,1,0-.32v0l0-.07a2.17,2.17,0,0,1,.16-.35.9.9,0,0,1,.26-.32,1.11,1.11,0,0,1,.42-.15l.28,0V23.7l0-.07s-.08-.21-.2-.48a7.21,7.21,0,0,1-.33-1,7.08,7.08,0,0,1-.21-1.31l0-.72h-.12l-.55.07-.43.06-.12,0-.12,0h0l.08,0h.08l0,0,0,0,1.18-.74,1.92-1.22q.75-.48.86-.57l.69-.48,1-.67a2.51,2.51,0,0,0,.39-.32,3.27,3.27,0,0,1,.48-.4c.22-.16.5-.41.86-.74l.54-.5.32-.3.08-.07q.53-.49.55-.5a0,0,0,0,0,0,0v0l.07-.07.09-.11,0,0h.08l0,0,0,0h.1v.07l0,0,0,0,0,.07,0,0,0,0v.07h0a1.29,1.29,0,0,0-.13.22,6.62,6.62,0,0,1-.57.79,12.83,12.83,0,0,1-.88,1q-.43.44-1,.94t-1.54,1.21q-1,.71-1.53,1.07l-.56.36h0l0,0,0,0h0l0,0,0,0-.08,0H34l2.33-.39q2.33-.39,3.57-.72a17.25,17.25,0,0,0,1.78-.55q.55-.22,1.58-.73t2.07-1.1l1.84-1.07.87-.52.11-.07,0,0h.12l.08,0h.06V14l0,.06,0,.05,0,0,0,0,0,.05-.08.24a11.54,11.54,0,0,1-.59,1.14,8,8,0,0,1-1,1.44,8.78,8.78,0,0,1-.93.89,9.19,9.19,0,0,1-.89.66l-.38.25h0l-.08,0h0l0,0,0,0h0l.08,0,.08,0,.84-.28a9.16,9.16,0,0,0,1.48-.62q.64-.34,1.05-.6a6.8,6.8,0,0,0,1-.78,7.17,7.17,0,0,1,.6-.54s.1-.07.22-.2l.42-.44q.25-.25.76-.84t.69-.83l.19-.25h0l0-.07,0,0,0,0h0l0,0h.05l0,0,0,0,0,0,0,0,.29.63c.2.42.3.63.31.63h0V15l.37.92q.37.92.75,2.08a17.73,17.73,0,0,1,.51,1.86q.14.7.22,1.37t.1,1.09l0,.42,0,0,0,0,0,0,0,0,0-.07h0l0,0,.24-.54a22.12,22.12,0,0,0,.69-2.14l.47-1.64,0-.07,0-.07,0-.07,0-.07,0,.87A9.63,9.63,0,0,1,56,20.33a8.34,8.34,0,0,1-.44,1.5,5.38,5.38,0,0,1-.56,1.1,6,6,0,0,1-.39.52l-.13.14h0l0,0h-.09v.07l.27.07a.94.94,0,0,1,.4.2,1.11,1.11,0,0,1,.16.17l.05.06h0l0,.11a1.86,1.86,0,0,1,.07.55,2.48,2.48,0,0,1-.06.74,2.63,2.63,0,0,1-.33.7,3.58,3.58,0,0,1-.56.69,3.05,3.05,0,0,1-.66.47,1.63,1.63,0,0,1-.63.2.79.79,0,0,1-.41-.05l-.14-.07h0l-.12.39-.14.44,0,.06,0,.07v.06h0L52,29a3.45,3.45,0,0,1-.55.71,10.58,10.58,0,0,1-.93.84c-.36.29-.67.52-.93.7h0q-.39.26-1.57,1t-1.77,1a1,1,0,0,0-.58.93v.11a4.93,4.93,0,0,0,.14,1c0,.14.16.25.38.33a2.66,2.66,0,0,0,.65.13q.32,0,.74,0,1.65,0,1.77-.33t.52-1.13q.39-.79.55-1.14l.18-.39,0,0,0,0,0,0,0,0,0,0,0-.06,0-.05v1.76q0,1.76.87,1.83T52.89,35q.4-1.15.91-2.92t.67-2.45c.1-.45.16-.71.17-.77v-.09h0l0-.11,0-.11v-.18h.08v.18l0,.31a13.56,13.56,0,0,1,0,1.44,18.71,18.71,0,0,1-.18,2.25q-.16,1.13-.18,1.22l0,.09,0,.09,0,.09v.07h0l0-.05,0-.06,0,0,0,0h0l0,0,.2-.47q.19-.43.71-1.88t.89-2.9q.37-1.46.58-2.71l.2-1.25h0l0-.17,0-.17,0-.24q0-.24.06-1.73T57.35,19.72Zm.57-1.44a15.21,15.21,0,0,0-.35-1.85,12.15,12.15,0,0,0-.41-1.37,9.09,9.09,0,0,0-.59-1.14,5.86,5.86,0,0,0-.95-1.22,5.66,5.66,0,0,0-.93-.77,5.6,5.6,0,0,0-.92-.44,4.37,4.37,0,0,0-1.06-.27c-.35,0-.53-.09-.54-.12a5,5,0,0,0-.23-.5,4,4,0,0,0-.56-.84,2.8,2.8,0,0,0-.93-.67A10.11,10.11,0,0,0,49,8.55a12.59,12.59,0,0,0-2-.39A21.66,21.66,0,0,0,44.78,8q-1.08,0-2.3.07a18.34,18.34,0,0,0-1.9.22q-.69.13-2,.5a15.86,15.86,0,0,0-2.3.83,13.5,13.5,0,0,0-1.78,1,10.86,10.86,0,0,0-1.44,1.13,9.74,9.74,0,0,0-.86.89l-.6.8A10.89,10.89,0,0,0,30.73,15a12.81,12.81,0,0,0-.83,2.17,16.22,16.22,0,0,0-.47,2.12,16.71,16.71,0,0,0-.16,2,20.09,20.09,0,0,0,.1,2.31q.12,1.22.49,3.08a31.31,31.31,0,0,0,.8,3.23q.43,1.36.92,2.55t1.16,2.62l.67,1.44,0,0,0,0h0l0,0,0,0,0,0,0,0v-.18l0-.15q0-.15-.12-1t-.14-1.77l0-.92,0,.06,0,.06,0,.07,0,.07.59,1.77q.59,1.77.75,2.16c.1.26.16.41.17.44v.06l1.06-.27,1.1-.28h0v0s-.08-.44-.23-1.24l-.22-1.2,0-.11,0-.11v-.11h0l0,0,0,0,0,0,0,0,0,.05,0,.06.56,1.13a1.77,1.77,0,0,0,1.95,1h.08l.46,0a8.86,8.86,0,0,1,1.11-.06q.26,0,.44-.6l.06-.23a7.73,7.73,0,0,0,.2-1l.05-.42c0-.18,0-.3,0-.36v-.13h.08l.08,0,.77.28a3.19,3.19,0,0,0,1,.26,3.14,3.14,0,0,0,.78-.2l.59-.2.08,0h0l0,.07.08.57,0,.16a8,8,0,0,0,.27,1.29q.16.54.4.51h0c.17,0,.25-.05.24-.07s.47,0,1.45,0h.28q1.59,0,1.9-.75l.35-.83,0,0,0-.05,0-.06,0-.05,0-.06,0,0,0,0,0,1c0,.64,0,1,0,1.07v.11h.06l1.31.17q1.25.15,1.3,0t.48-1.55q.43-1.42.69-2.47l.26-1.05,0-.13,0-.13h0v.26l-.1,1q-.1,1-.29,2t-.22,1.11l0,.07,0,.07,0,.07v.07h.08V36l0,0,0,0h0l0,0h0l0,0,0-.07s.19-.29.51-.81.66-1.14,1-1.85.61-1.29.78-1.73.36-1,.57-1.68a24.35,24.35,0,0,0,.59-2.4q.27-1.38.45-2.92A29.48,29.48,0,0,0,58,21,23.45,23.45,0,0,0,57.92,18.28Z"/><path class="cls-9" d="M43.15,31.34a.06.06,0,0,1-.06,0s-.13-.05-.35-.07l-.33,0,0,0a.11.11,0,0,1-.07.06s-.06.05-.07.13a.2.2,0,0,0,.07.19.74.74,0,0,0,.44.1c.23,0,.35,0,.35,0s0-.06,0-.06,0-.06,0-.15S43.18,31.34,43.15,31.34Zm2.24-.69a7.83,7.83,0,0,1-1.61.14,12.39,12.39,0,0,1-1.37,0,4.29,4.29,0,0,1-.63-.17l-.46-.14s-.08,0-.11.16l0,.17,0,0,0,0h.1l.06,0,.2.06q.14,0,1.88.06A11,11,0,0,0,45.51,31c.22-.07.33-.17.34-.29S45.7,30.57,45.39,30.65Zm-2.17-3-.42.33a.41.41,0,0,0-.11.31.75.75,0,0,0,.21.45,1.15,1.15,0,0,0,.32.3c.08,0,.09-.05,0-.27a1.46,1.46,0,0,1,.09-.84Q43.53,27.39,43.22,27.62Zm4.61-2.77h0a0,0,0,0,0,0,0v0h0s0,0,0,0A0,0,0,0,0,47.84,24.85Zm-6.84-1,0-.06h-.12v.07h0v0h0l0,0h0v0s0,0,0,0l.06,0h0S41,23.87,41,23.82Zm-.33,0h-.05l0,0h-.11v.07h.14s0,0,0,0Zm-.11-2.5h0s0,0,0,0,0,0,0,0l0,0a0,0,0,0,0,0,0A0,0,0,0,0,40.55,21.31Zm12.63-.18-.43-.27a3,3,0,0,0-.84-.37,4.37,4.37,0,0,0-1-.15,4.83,4.83,0,0,0-.88,0c-.24,0-.56.11-1,.22a4.63,4.63,0,0,0-1.14.46,2.71,2.71,0,0,0-.62.43l-.11.14v.18l0,0,0,0h.1l0,0,0,0,.28,0A6,6,0,0,0,49,21.54,11.25,11.25,0,0,1,50.47,21a4.26,4.26,0,0,1,1-.11,4,4,0,0,1,.94.09l.43.11.06,0,.06,0,.06,0,0,0,0,0h.12v0S53.21,21.15,53.17,21.13Zm-13,.44a1.34,1.34,0,0,0-.23-.2,5.05,5.05,0,0,0-.7-.42A5.16,5.16,0,0,0,38,20.53a7.22,7.22,0,0,0-1.3-.18,4.3,4.3,0,0,0-1.06.09,3.25,3.25,0,0,0-.88.31l-.37.2h0l0,0h-.1l0,0h0l0,0,0,0,.06,0,.06,0,.43-.11a4,4,0,0,1,1-.11,4.35,4.35,0,0,1,1.08.13,11.79,11.79,0,0,1,1.55.57,5.49,5.49,0,0,0,1.26.44h.22l0,0,.08,0,0,0h0l0,0,0,0V21.6Zm3.77-3.76a2.16,2.16,0,0,0-.47.26v0h-.1v-.05s0-.06,0-.06a0,0,0,0,0,0,0v0h-.08l0,0a.08.08,0,0,0,0,0,3,3,0,0,1-.51.26,3,3,0,0,1-.66.25c-.1,0-.17,0-.19.07a.09.09,0,0,1-.09,0,.09.09,0,0,0-.1,0,.06.06,0,0,1-.08,0,0,0,0,0,0-.07,0s-.07.05-.16.06-.14,0-.14,0,0,0-.06,0,0,0,0,0,0,0,0,0a0,0,0,0,0-.06,0,6.62,6.62,0,0,1-.86.22l-1,.22c-.12,0-.18,0-.18.07s0,0-.08,0-.07,0-.08,0-.07,0-.18,0-.17,0-.17,0,0,0-.08,0-.07,0-.08,0-.13,0-.35.07-.35,0-.35.07,0,0-.08,0a.34.34,0,0,0-.16,0l-.31.06-.23,0-.1,0-.1,0,.18,0,.18,0,.49,0L38,20l.11,0,.19,0,.18,0a.16.16,0,0,1,.09,0s0,0,.05,0,0,0,.06,0,.06.06.09.05a.05.05,0,0,1,.06,0l.05,0,.29.09a3.51,3.51,0,0,1,.72.36l.46.29h.07l.08,0h.06l0-.07h0l0,0h0l0,0h-.11l0,0-.14-.09a5.28,5.28,0,0,0-.51-.3,4.74,4.74,0,0,0-1.06-.39l-.65-.17h-.2v-.07h.16l1.35-.31,1.41-.33.53-.15a10.8,10.8,0,0,0,1.16-.41l.75-.3s.06,0,.06-.07,0,0,0,0a.1.1,0,0,1,0,0,.06.06,0,0,0,0,0s0,0,0-.06,0-.07,0-.07a.25.25,0,0,0,.11-.08s.06,0,.05,0,0,.09,0,.09,0,0,0,0,0,0,.11,0A2.44,2.44,0,0,0,44,17.9a2,2,0,0,1,.31-.24,0,0,0,0,0,0,0S44.21,17.65,43.91,17.8Zm10,4a17.78,17.78,0,0,0-.35-2.07,18.85,18.85,0,0,0-.71-2.49q-.41-1.12-.75-1.9a4.09,4.09,0,0,0-.39-.77,0,0,0,0,0,0,0,.33.33,0,0,1-.1.11,2.77,2.77,0,0,0-.33.42,4.77,4.77,0,0,1-.48.59l-.84.81q-.61.57-1.14,1a11.45,11.45,0,0,1-1,.69,6.34,6.34,0,0,1-.71.39L46,19a16.55,16.55,0,0,1-2.06.57l-1.26.28h0l0,0h0l.25-.2.69-.55a4.64,4.64,0,0,1,.47-.36.61.61,0,0,0,.18-.15c.09-.09.25-.24.49-.43a3.26,3.26,0,0,1,.39-.31.61.61,0,0,0,.18-.15l.73-.7a11.71,11.71,0,0,0,.84-.84l.25-.28h0l0,0,0,0,0-.05,0-.06h0v-.07h-.16l0,0,0,0h0l0,0-.66.36q-.62.34-1.82,1t-2.37,1.08a21.05,21.05,0,0,1-2.86.87q-1.71.41-4.06.8t-2.35.77c0,.25,0,.62.11,1.11a7.25,7.25,0,0,0,.44,1.62c.23.59.39.9.48.93l.49.12.35.07h0v-.11h-.13l0,0-.25-.45-.24-.44,0-.07,0-.07v-.07h.05l0,0h.11l.24.15a1.8,1.8,0,0,0,.35.18l.16.05,0,0,.06,0,.06,0h.2v-.07h-.08l0-.07,0,0-.1-.22-.08-.18,0-.05,0-.06,0,0,0,0V22.6h.1l0,0,0,0h0l.31.13A1,1,0,0,0,36,23a4.16,4.16,0,0,0,.59-.2,4.3,4.3,0,0,1,1.94-.3,4.55,4.55,0,0,1,1.07.21,3.94,3.94,0,0,1,.67.26l.16.1,0,0h0l0,0,0,0h0l0,0h0l-.08,0-.08,0-.1,0-.71-.13L39,23H38.8l0,0,0,0,0,0,0,0,0,0,0,0,0,0,0,0,.5.25a3.83,3.83,0,0,1,.71.43l.21.18h0l0,0h.09l0,.06,0,.06h.14v-.11h0l0,0,0,0h0V24h.12l.06,0,.06,0h.25v-.11l0,0,0,0h-.06l0,0s0,0,0,0,.08-.14.08-.41a.69.69,0,0,0-.39-.63l-.39-.22v-.07h0l.08,0s.05-.12.08-.32V21.9c0-.13,0-.19,0-.2s0,0,0-.11l0-.07.06-.17h0v-.07H40.6v-.07h.12v.64a1.72,1.72,0,0,1,0,.58,0,0,0,0,0,0,0s.08.07.23.15l.16.08h0l.16.1c.06,0,.11.24.13.59v.07a6.58,6.58,0,0,0,.12.94,13.18,13.18,0,0,1,0,2.07,18.87,18.87,0,0,1-.16,2.4q-.12.68-.14.74l0,.11,0,.06,0,0,0,.07,0,0H40.9l0-.06,0-.06,0,0,0,0,0-.06,0-.09s.06-.21.14-.55a7.4,7.4,0,0,0,.14-1.42l0-.9v-.13a1.07,1.07,0,0,1,0-.22,1.89,1.89,0,0,0,0-.21c0-.12,0-.31,0-.57a6.19,6.19,0,0,0,0-.94l0-.26,0-.07,0-.07,0,0,0,0v.15l0,.05,0,.06,0,.28a5.64,5.64,0,0,1,0,.76,6.08,6.08,0,0,1,0,.63l0,.15,0,.07,0,.15,0,.07h0v0s-.06,0-.16.07l-.16,0,0,.07s0,.07.06.07.06.08.11.23a3.18,3.18,0,0,1,0,.85,3.72,3.72,0,0,1-.2,1.13,3,3,0,0,1-.42.82,1.84,1.84,0,0,1-.58.5,2.42,2.42,0,0,1-.8.26,3.16,3.16,0,0,1-.9,0h0a2.53,2.53,0,0,1-.48-.1l-.09,0-.18-.09h0l0,0,0,0h-.23v.07h.18v.07h0v0h0l0,0v0h0l0,0v0l.38.24.72.45.1.06q1,.65,2,1.14a19.34,19.34,0,0,0,1.8.83,5.13,5.13,0,0,0,1,.29l.2,0a1.55,1.55,0,0,0,.4-.08A9.26,9.26,0,0,0,45,33q1.08-.46,2.18-1.06l1.37-.76.24-.14q.5-.31,1-.64l.15-.1.34-.24h0l0,0h0l0,0h.05l0,0,.14-.11.14-.12h.08l0,0h.1l0,0h0v-.07h-.05l0,0h-.14l0,0h0l0,0h0l0,0-.13.08-.09.07h-.06l0,0,0,0h0l-.2.15,0,0a.59.59,0,0,1-.25.13l-.18,0-.39,0h0l-.6,0a2.31,2.31,0,0,1-.65-.13,1.82,1.82,0,0,1-.52-.27,2.51,2.51,0,0,1-.44-.45,2.54,2.54,0,0,1-.39-.74,3.25,3.25,0,0,1-.18-1,3.3,3.3,0,0,1,0-.76l0-.06a.56.56,0,0,1,0-.13h0a.09.09,0,0,0,.06-.06l0,0,.18,0a.36.36,0,0,1,.26,0l.1.09v0h0l0,0v0h.08l.29.07.39.09.1,0h.24v0l-.08,0,0,0,0,0-.06,0-.06,0h0l0,0,0,0H47.7l.16-.07a.55.55,0,0,0,.2-.14.2.2,0,0,0,.05-.1v0h0v-.11h0s0,0,0,0,0,0,0,0a0,0,0,0,1,0,0s-.06,0-.16,0-.16,0-.18-.07a1.88,1.88,0,0,1,0-.36l0-.28,0-.15,0,.11,0,.11,0-.15v0c0-.07,0-.11.08-.12s.06,0,.05-.06,0-.06.08-.07l.1,0v-.11l.07,0,.05,0v0h0V25h0v0h0l0-.05a.76.76,0,0,1,.07-.14l0-.08h.08l.08,0h0v-.07h-.12l0,0,0,0-.08,0a3.89,3.89,0,0,0-.53,0h-.45l-.08,0-.08,0h0V24.4l0,0,0,0h.14l.08-.11A.48.48,0,0,1,47.4,24l.06,0h0l0,0,0,0h0l0,0,0,0h0l-.08,0-.06,0-.06,0h0l0,0-.43.23c-.26.14-.39.2-.38.18a2.56,2.56,0,0,1,.33-.33,4.08,4.08,0,0,1,1-.62c.44-.21.62-.32.54-.32s-.39,0-.94.15-.72.08-.51-.05a3.56,3.56,0,0,1,.82-.37,4.27,4.27,0,0,1,1-.2,4.3,4.3,0,0,1,1.94.3,4.16,4.16,0,0,0,.59.2,1.44,1.44,0,0,0,.55-.17q.43-.19.4-.1a4.64,4.64,0,0,1-.21.43c-.13.23-.08.32.13.27a2,2,0,0,0,.62-.3c.2-.14.3-.18.3-.1a1.08,1.08,0,0,1-.14.39,2.79,2.79,0,0,1-.32.51,1.05,1.05,0,0,0-.19.27s.06,0,.18,0a2,2,0,0,0,.42-.1q.25-.08.56-.84A3.1,3.1,0,0,0,53.9,21.82Z"/><path class="cls-10" d="M36.62,10.43h0v0h.16l.22.18a4.41,4.41,0,0,0,.9.5,10.66,10.66,0,0,0,1.22.48,13.2,13.2,0,0,0,1.65.35q1.12.18,1.53.22t1.55,0q1.14,0,1.35,0l.22,0h.16l0,0,0,0,0,0,0,0,0,0,0,0-.06,0-.41.15a16.1,16.1,0,0,1-1.69.41q-1.33.28-2.14.37l-.8.09v-.09l0,0,0,0,0,0,0,0,0,0,0,0v-.07h-.1l0,0,0,0h-.08l0,0-.09.11-.07.07h0l0,0h-.06l-.51,0q-.45,0-2,0a17.43,17.43,0,0,1-2.29-.11,7.06,7.06,0,0,1-1.29-.3l-.53-.18,0,0,0,0,0,0,0,0h0v0h0v0h.1l.43-.37a3.77,3.77,0,0,0,.44-.41,2.49,2.49,0,0,1,.45-.33l.75-.51q.31-.21.8-.49l.51-.29Z"/><path class="cls-11" d="M37.67,24.19a.54.54,0,0,0-.34-.1.52.52,0,0,0-.36.14.43.43,0,0,0-.13.36.5.5,0,0,0,.15.34.54.54,0,0,0,.68,0,.49.49,0,0,0,.13-.38A.44.44,0,0,0,37.67,24.19Zm2.62.18,0,0h-.08l0,0,0,0h0l-.2-.16-.19-.16h0l0,0,0,0h0l0,0v0H39.5v0l-.31-.11-.31-.1-.53.07a2.65,2.65,0,0,0-.87.24,2.12,2.12,0,0,0-.62.49,1.77,1.77,0,0,0-.37.63,1.46,1.46,0,0,0-.06.63,1.56,1.56,0,0,0,.16.53,2.17,2.17,0,0,0,.38.49,2.74,2.74,0,0,0,.31.29l0,0,.08,0,0,0,0,0,0,0,0,0h0v-.48a2.59,2.59,0,0,1,0-.54l0-.17,0-.06,0-.06,0,0,0,0h.05l0,0h.05l.18.14a.71.71,0,0,0,.48.12.85.85,0,0,0,.46-.14.52.52,0,0,0,.21-.23l.05-.15v-.2a.82.82,0,0,0-.05-.26.63.63,0,0,0-.15-.2l-.11-.1,0,0,0,0h0l.06,0,.06,0,.06,0,.06,0,.18,0a2,2,0,0,1,.41,0l.33,0,.1,0,.08,0,.08,0h0V24.4Z"/><path class="cls-11" d="M40.13,21.56l0,0v.26l0,0,0,0h0l0,0,0,0,0,0,0,0h-.22a5.45,5.45,0,0,1-1.26-.44A11.9,11.9,0,0,0,36.92,21a4.38,4.38,0,0,0-1.08-.13,4,4,0,0,0-1,.11l-.43.11-.06,0-.06,0,0,0,0,0h.16l.37-.2a3.31,3.31,0,0,1,.88-.31,4.29,4.29,0,0,1,1.06-.09,7.18,7.18,0,0,1,1.29.18,5.12,5.12,0,0,1,1.22.41,5,5,0,0,1,.7.42A1.38,1.38,0,0,1,40.13,21.56Z"/><path class="cls-11" d="M53.23,21.19v0h-.12l0,0,0,0-.06,0-.06,0-.06,0L52.43,21a4,4,0,0,0-.94-.09,4.29,4.29,0,0,0-1,.11,11.36,11.36,0,0,0-1.49.55,6,6,0,0,1-1.31.46l-.27,0,0,0,0,0h-.1l0,0,0,0v-.18l.11-.14a2.69,2.69,0,0,1,.62-.43A4.61,4.61,0,0,1,49,20.6q.63-.17,1-.22a4.77,4.77,0,0,1,.88,0,4.34,4.34,0,0,1,1,.15,3,3,0,0,1,.84.37l.43.27S53.23,21.17,53.23,21.19Z"/><path class="cls-12" d="M39.62,25h0s0,0,0,0h0Zm-.16-.15h0s0,0,0,0h0Zm-.12,0h0s0,0,0,0h0Zm2-.27,0-.26,0-.07,0-.07,0,0,0,0v.15l0,.05,0,.06,0,.28a5.64,5.64,0,0,1,0,.76,6.08,6.08,0,0,1,0,.63l0,.15v.15l0-.06a1.17,1.17,0,0,0,0-.17c0-.12,0-.31,0-.57A6.19,6.19,0,0,0,41.37,24.55Zm-.91-3.62s-.07,0-.07,0,0,0,.07.07.07,0,.07,0S40.5,21,40.45,20.94Zm-.55-.4a0,0,0,0,0,0,0s0,0,0,0S39.91,20.53,39.9,20.54Zm3.88-2.63a.12.12,0,0,0-.07.11s0,0,.07,0S43.84,17.88,43.79,17.91Zm.2-.1a0,0,0,0,0,0,0s0,0,0,0S44,17.8,44,17.81Zm-.08,0a2.16,2.16,0,0,0-.47.26v0h-.1v-.05s0-.06,0-.06a0,0,0,0,0,0,0v0h-.08l0,0a.08.08,0,0,0,0,0,3,3,0,0,1-.51.26,3,3,0,0,1-.66.25c-.1,0-.17,0-.19.07a.09.09,0,0,1-.09,0,.09.09,0,0,0-.1,0,.06.06,0,0,1-.08,0,0,0,0,0,0-.07,0s-.07.05-.16.06-.14,0-.14,0,0,0-.06,0,0,0,0,0,0,0,0,0a0,0,0,0,0-.06,0,6.62,6.62,0,0,1-.86.22l-1,.22c-.12,0-.18,0-.18.07s0,0-.08,0-.07,0-.08,0-.07,0-.18,0-.17,0-.17,0,0,0-.08,0-.07,0-.08,0-.13,0-.35.07-.35,0-.35.07,0,0-.08,0a.34.34,0,0,0-.16,0l-.31.06-.23,0-.1,0-.1,0,.18,0,.18,0,.49,0L38,20l.11,0,.19,0,.18,0a.16.16,0,0,1,.09,0s0,0,.05,0,0,0,.06,0,.06.06.09.05a.05.05,0,0,1,.06,0l.05,0,.29.09a3.51,3.51,0,0,1,.72.36l.46.29h.07l.08,0h.06l0-.07v.11h0s0,0,0,0a.07.07,0,0,1,0,0h0s0,0,0,0h0s0,.07,0,.16a.71.71,0,0,0,0,.07c0,.05,0,.09,0,.1s0,.08,0,.21V22c0,.2-.05.31-.08.32l-.08,0h0v.07l.39.22a.69.69,0,0,1,.39.63c0,.27,0,.41-.08.41s-.07,0,0,0l0,0h.06l0,0,0,0V24h0l0,0,0,0h0l0,0L41,23.81l0,0h-.12v.07h0v0h0l0,0h0v0s0,0,0,0l.06,0h.11v0h-.14l-.06,0-.06,0h0l0,0,0,0h0l0,0h-.1l0,0h-.11v.07h.09l0,0h0l0,0a.2.2,0,0,1,0,.07l0,.06h0v.07h0v0h0v.05h-.12l0,0,0,0h0l0,0L40.13,24l-.31-.17,0,0-.12-.06H39.5v0h0l.08,0,0,0,0,0h0l.19.16.2.16h0l0,0,0,0h.08l0,0,0,0v.07h0l-.08,0-.08,0-.1,0-.33,0a2,2,0,0,0-.41,0l-.18,0-.06,0-.06,0-.06,0-.06,0h0l0,0,0,0,.11.1a.63.63,0,0,1,.15.2.82.82,0,0,1,.05.26v.17h.06l0-.3v0h0l0,0h0l.06,0,.06,0h0l0,0h0v.06a.1.1,0,0,0,.06.09l0,0a.22.22,0,0,1,0,.1v.11l0-.22,0,.09,0,.09-.05.23-.05.26a.13.13,0,0,0,0,.08l0,.09v0h-.06l-.16,0a.22.22,0,0,0-.2.07l-.1.09h0v.07l0,.13a.24.24,0,0,0,.13.17l.18.07.08,0h-.16v0l0,0,0,0h0l-.08,0-.08,0,0,0,0,0h0v0h.24l.33-.07.39-.09.06,0h.08v0l0,0h0v-.05l0,0h0l.11,0h0l.25,0a.31.31,0,0,0,.14,0s0,0,0,0v0l.16,0q.16,0,.16-.07v0h0l0,0,0,0,0,.13,0,.13,0,.9a7.4,7.4,0,0,1-.14,1.42q-.12.52-.14.55l0,.09,0,.06,0,0,0,0,0,.06,0,.06h.16l0,0,0-.07,0,0,0-.06,0-.11s.06-.28.14-.74a18.87,18.87,0,0,0,.16-2.4,13.18,13.18,0,0,0,0-2.07,6.58,6.58,0,0,1-.12-.94V23.3a.91.91,0,0,0-.29-.69h0c-.18-.12-.27-.38-.27-.79v-.62l0,0,0,0,0-.06V21h-.05l0,0h-.11l0,0-.14-.09a5.28,5.28,0,0,0-.51-.3,4.74,4.74,0,0,0-1.06-.39l-.65-.17h-.2v-.07h.16l1.35-.31,1.41-.33.53-.15a10.8,10.8,0,0,0,1.16-.41l.75-.3s.06,0,.06-.07,0,0,0,0a.1.1,0,0,1,0,0,.06.06,0,0,0,0,0s0,0,0-.06,0-.07,0-.07a.25.25,0,0,0,.11-.08s.06,0,.05,0,0,.09,0,.09,0,0,0,0,0,0,.11,0A2.44,2.44,0,0,0,44,17.9a2,2,0,0,1,.31-.24,0,0,0,0,0,0,0S44.21,17.65,43.91,17.8Z"/><path class="cls-13" d="M53,27.19h-.2l0,0,0,0h-.08l.15-.54a11,11,0,0,1,.51-1.38q.36-.85.69-.84a.93.93,0,0,1,.52.15.85.85,0,0,1,.26.31.9.9,0,0,1,.06.44,1.55,1.55,0,0,1-.2.61,3,3,0,0,1-.4.58,2.82,2.82,0,0,1-.58.47,3.58,3.58,0,0,1-.41.24Z"/><path class="cls-14" d="M34.25,26.3l.25.76v.11h-.27l-.24,0a1.91,1.91,0,0,1-.37-.2,3.2,3.2,0,0,1-.57-.46,3,3,0,0,1-.46-.6,1.46,1.46,0,0,1-.2-.62,1.17,1.17,0,0,1,0-.41.93.93,0,0,1,.25-.3.73.73,0,0,1,.46-.21q.25,0,.56.58A10.31,10.31,0,0,1,34.25,26.3Z"/><path class="cls-15" d="M54.57,28.57V28.5l0,.07,0,.07v.17q0,.09-.17.77T53.8,32q-.51,1.77-.91,2.92T51.61,36q-.88-.07-.87-1.83V32.45l0,.06,0,.06,0,0,0,0,0,0,0,0,0,0-.18.39q-.16.35-.55,1.14t-.52,1.13q-.13.33-1.77.33t-1.77-.5a5.05,5.05,0,0,1-.15-1.11,1,1,0,0,1,.58-.93q.6-.32,1.77-1t1.57-1q.39-.26.94-.7a10.55,10.55,0,0,0,.93-.84A3.46,3.46,0,0,0,52,29l.16-.31h0l0,0v0h0l.06,0,0,0h1.29a3.49,3.49,0,0,1,.82,0s0,0,.06,0S54.57,28.62,54.57,28.57Z"/><path class="cls-16" d="M56.1,14.51l0,0,0,0,0,0,0,0,0,0v.07h-.14V14.7h-.18l-1.63,0-1.57,0v0h-.12v0h0s-.11-.21-.31-.63l-.29-.63,0,0,0,0,0,0,0,0h-.08l0,0,0,0,0,0,0,0h0l-.19.25q-.18.24-.69.83t-.76.84l-.42.44a.87.87,0,0,1-.22.2,7.09,7.09,0,0,0-.6.54,6.78,6.78,0,0,1-1,.78q-.41.26-1.05.6a9.07,9.07,0,0,1-1.48.62l-.84.28-.08,0-.08,0h0l0,0,0,0h0l0,0,0,0h0l.38-.25a9.33,9.33,0,0,0,.89-.66A8.84,8.84,0,0,0,46.7,17a8,8,0,0,0,1-1.44,11.32,11.32,0,0,0,.59-1.14l.08-.24,0-.06,0,0,0,0,0-.06,0-.06v-.07h-.06l0,0,0,0h-.12l0,0-.11.07-.87.52-1.84,1.07q-1,.59-2.07,1.1t-1.58.73a17.29,17.29,0,0,1-1.78.55q-1.24.33-3.57.72L34,19.26h-.24l0,0,0,0,0,0,0,0h0l0,0,0,0h0l.56-.36q.56-.36,1.53-1.07t1.54-1.21q.57-.5,1-.94a12.91,12.91,0,0,0,.88-1,6.72,6.72,0,0,0,.57-.79,1.25,1.25,0,0,1,.13-.22h0v0l.8-.09q.8-.09,2.14-.37a16.1,16.1,0,0,0,1.69-.41l.41-.15.06,0,0,0,0,0,0,0,0,0,0,0,0,0h-.16l-.22,0q-.22,0-1.35,0t-1.55,0q-.41,0-1.53-.22a13.2,13.2,0,0,1-1.65-.35,10.66,10.66,0,0,1-1.22-.48,4.41,4.41,0,0,1-.9-.5l-.22-.18h-.16v0h0l0,0,0,0,.39-.18q.39-.18,1.37-.55A13.43,13.43,0,0,1,40.6,9a18.85,18.85,0,0,1,1.86-.3,16.11,16.11,0,0,1,1.8-.06,16.39,16.39,0,0,1,2.06.17q1,.15,1.73.31a9.15,9.15,0,0,1,1.45.48,4.5,4.5,0,0,1,1,.55,2.56,2.56,0,0,1,.52.58,3.56,3.56,0,0,1,.38.74.74.74,0,0,0,.66.45,5.06,5.06,0,0,1,1.08.27,6,6,0,0,1,1.13.55,5.11,5.11,0,0,1,.82.58,6.94,6.94,0,0,1,.55.59q.29.35.35.44Z"/><path class="cls-17" d="M37.33,24.09a.53.53,0,0,1,.34.1.44.44,0,0,1,.13.36.49.49,0,0,1-.13.38.54.54,0,0,1-.68,0,.5.5,0,0,1-.15-.34.42.42,0,0,1,.13-.36A.52.52,0,0,1,37.33,24.09Z"/><path class="cls-18" d="M31.86,25.18l0,.07,0,.06s0,.06,0,.06h0l0,0h0l.11.39a2.5,2.5,0,0,0,.42.81,3.42,3.42,0,0,0,.45.54.55.55,0,0,1,.15.15,1.74,1.74,0,0,0,.42.25,1.67,1.67,0,0,0,.75.21,1.79,1.79,0,0,0,.37,0,2.29,2.29,0,0,1,.31.66,4.23,4.23,0,0,0,.52,1,5.65,5.65,0,0,0,.75.77q.5.43,1.42,1.08t2,1.25q1.06.61,1.27.71t.21.9A5.69,5.69,0,0,1,41,35.31q-.11.42-1.47.55a1.84,1.84,0,0,1-1.89-.7l-1-1.55-.49-.76,0,0,0-.06,0-.06h0l0,0,0,0h0v.22l.27,1.85q.27,1.85.29,1.88v0h-.06l-.71.11a.66.66,0,0,1-.84-.43l-1.15-3.38-1-2.84,0-.06,0-.06,0-.06,0-.06,0-.06,0-.06,0,1q0,1,.12,2.18T33,34.22l0,.18v.18l0,0,0,0,0-.06,0-.06,0-.06,0-.06,0-.06-.14-.35q-.12-.3-.73-2.12t-1-3.21q-.35-1.38-.52-2.31l-.16-.92v-.15h0v-.06s0-.05,0,0a.05.05,0,0,0,.06,0,1.82,1.82,0,0,1,.66,0q.64,0,.67.07s0,.06,0,.05,0,0,0,.07Z"/><path class="cls-19" d="M30.36,25h0s0,0,0,0S30.36,25,30.36,25ZM40,13.52l-.53.07q-.43,0-1.65.05h-.37a17.32,17.32,0,0,1-2.29-.11,7,7,0,0,1-1.29-.3l-.53-.18,0,0,0,0h0l0,0a.09.09,0,0,1,0,0v-.05h0s-.06,0-.1.1a2.81,2.81,0,0,1-.26.3h0l-.24.25,0,0,0,0-.22.25-.11.14-.21.27-.19.28a7,7,0,0,0-.61,1.2,14.07,14.07,0,0,0-.51,1.64,15.7,15.7,0,0,0-.37,1.94A22.48,22.48,0,0,0,30.11,22q0,1.7.06,2.27t.08.72l0,.15,0,.11,0,.11h0v-.15h0l.06-.09h0A1.37,1.37,0,0,1,31,25h.13q.64,0,.67.07s0,.06,0,.05,0,0,0,.07l0,.07v.15H32v-.35a2,2,0,0,1,0-.32v0l0-.07a2.17,2.17,0,0,1,.16-.35.9.9,0,0,1,.26-.32,1.11,1.11,0,0,1,.42-.15l.28,0V23.7l0-.07s-.08-.21-.2-.48a7.21,7.21,0,0,1-.33-1,7.08,7.08,0,0,1-.21-1.31l0-.72h-.12l-.55.07-.43.06-.12,0-.12,0h0l.08,0h.08l0,0,0,0,1.18-.74,1.92-1.22q.75-.48.86-.57l.69-.48,1-.67a2.51,2.51,0,0,0,.39-.32,3.27,3.27,0,0,1,.48-.4c.22-.16.5-.41.86-.74l.53-.49.33-.31.08-.07q.53-.49.55-.5a0,0,0,0,0,0,0v0Z"/><path class="cls-20" d="M40.36,26.77h0Zm.71.21c0-.15-.08-.22-.11-.23s0,0-.06-.07l0-.07v0s0,0,0,0a.31.31,0,0,1-.14,0l-.25,0h0c-.06,0-.1,0-.11,0h0a0,0,0,0,1,0,0h0s0,0,0,0v0l0,0a0,0,0,0,1,0,0l0,0h-.12l0,0L40,27l-.51.18a3.58,3.58,0,0,1-1,.18,8.27,8.27,0,0,1-1.59-.17,6.22,6.22,0,0,0-1.39-.15l-.35,0h0l.06.33a4.3,4.3,0,0,0,.34,1,3.65,3.65,0,0,0,.68,1,3.93,3.93,0,0,0,.67.58,1.07,1.07,0,0,1,.28.21v0h.1v.07h.14v-.07H37.3l0,0,0,0h-.08v-.07h.14l0,0,0,0h0l.18.09.09,0a2.53,2.53,0,0,0,.48.1h0a3.16,3.16,0,0,0,.9,0,2.42,2.42,0,0,0,.8-.26,1.84,1.84,0,0,0,.58-.5,3,3,0,0,0,.42-.82,3.72,3.72,0,0,0,.2-1.13A3.18,3.18,0,0,0,41.07,27Z"/><path class="cls-21" d="M41.37,31l-.06,0h-.1l0,0,0,0,0-.17q0-.17.11-.16l.46.14a4.22,4.22,0,0,0,.63.17,12.47,12.47,0,0,0,1.37,0,7.79,7.79,0,0,0,1.61-.14q.47-.12.46.07t-.34.29a10.89,10.89,0,0,1-2.07.08q-1.75,0-1.88-.06Z"/><path class="cls-22" d="M56,14.71h.06v.07h.14l.09.17a6.83,6.83,0,0,1,.31.79,15,15,0,0,1,.45,1.79,15.55,15.55,0,0,1,.29,2.2q.06,1,0,2.53T57.31,24l0,.24,0,.17,0,.17h0v-.17q0-.17,0-.17a.09.09,0,0,1-.06-.06,2.15,2.15,0,0,0-.69,0,8.59,8.59,0,0,0-.92,0l-.25,0h-.08v.07h0l-.05-.06a1.24,1.24,0,0,0-.16-.17,1,1,0,0,0-.4-.2l-.27-.07V23.7h.13l.13-.14a6.38,6.38,0,0,0,.39-.52,5.38,5.38,0,0,0,.56-1.1,8.29,8.29,0,0,0,.44-1.5,9.68,9.68,0,0,0,.18-1.66l0-.87,0,.07,0,.07,0,.07,0,.07-.47,1.64a22.12,22.12,0,0,1-.69,2.14l-.24.54,0,0h0l0,0,0,0,0,0,0,0,0,0,0,0,0-.42q0-.42-.1-1.09t-.22-1.37A17.44,17.44,0,0,0,53.66,18q-.37-1.16-.75-2.09L52.55,15v-.13h.12v0l1.57,0,1.63,0H56Z"/><path class="cls-23" d="M57.23,24.39v.17L57,25.81q-.21,1.25-.58,2.71t-.89,2.9q-.52,1.45-.71,1.88l-.2.47,0,0h0l0,0,0,0,0,.06,0,.06h0V34l0-.09,0-.09,0-.09q0-.09.18-1.22a18.64,18.64,0,0,0,.18-2.25,13.66,13.66,0,0,0,0-1.44l0-.31v-.18h-.08v.18l0,.11,0,.11h0v-.07l0-.07,0-.07v.07s0,.07-.07.07-.06,0-.06,0a3.49,3.49,0,0,0-.82,0H52.25v.07h-.08v-.07l0,0,0,0,0-.06.14-.44.12-.39h0l.14.07a.78.78,0,0,0,.41.06,1.63,1.63,0,0,0,.63-.2,3,3,0,0,0,.66-.47,3.59,3.59,0,0,0,.56-.69,2.67,2.67,0,0,0,.33-.7,2.5,2.5,0,0,0,.06-.74,1.86,1.86,0,0,0-.07-.55l0-.11v-.08h.08l.25,0a8.59,8.59,0,0,1,.92,0,2.15,2.15,0,0,1,.69,0,.09.09,0,0,0,.06.06s0,.06,0,.17Z"/><path class="cls-24" d="M50.89,29.43h0l0,0h-.14l0,0h0l0,0h0l-.07,0s-.06.05-.05.07,0,0,.09,0l.1-.07h.08l0,0h.1l0,0h0v-.07ZM47,26.77h0Zm5.13.32H52l-.23,0a6.2,6.2,0,0,0-1.14.15,10.21,10.21,0,0,1-1.47.18,4.56,4.56,0,0,1-.78,0,4.31,4.31,0,0,1-.68-.21L47.25,27h-.14l0,0a0,0,0,0,1,0,0l0,0v0s0-.06-.12-.1a.66.66,0,0,0-.33-.05c-.14,0-.22,0-.22,0a.06.06,0,0,0,0,.06s0,0,0,0l0,0h0a.63.63,0,0,0,0,.13l0,.06a3.3,3.3,0,0,0,0,.76,3.25,3.25,0,0,0,.18,1,2.54,2.54,0,0,0,.39.74,2.51,2.51,0,0,0,.44.45,1.82,1.82,0,0,0,.52.27,2.31,2.31,0,0,0,.65.13l.6,0h0l.39,0,.18,0a.59.59,0,0,0,.25-.13l0,0,.2-.15h0l0,0,0,0h.07l0,0h0v0h0l0,0h0l0,0,0,0h0l0,0h.11l0,0h.08l.36-.32a3.5,3.5,0,0,0,.57-.63,5.2,5.2,0,0,0,.49-1.05l.27-.74V27.1Z"/><path class="cls-25" d="M48.68,23.41l.12,0,.69,0a3.44,3.44,0,0,1,1.16.2,4.06,4.06,0,0,1,.93.53,4.48,4.48,0,0,1,.5.39s0,.15,0,.35a3.18,3.18,0,0,1-.36.77,3.32,3.32,0,0,1-.52.69,2.75,2.75,0,0,1-.71.44,3.12,3.12,0,0,1-.69.26,5.63,5.63,0,0,1-.88,0l-.67,0v0l0,0,0,0,0,0,0,0-.06,0-.06,0h0l0,0,0,0H47.7l.16-.07a.56.56,0,0,0,.2-.14.2.2,0,0,0,.05-.1v0h0v-.11h0s0,0,0,0,0,0,0,0a0,0,0,0,1,0,0s-.06,0-.16,0-.16,0-.18-.07a1.82,1.82,0,0,1,0-.36l0-.28,0-.07,0-.07,0,.11,0,.11,0-.15a.71.71,0,0,1,.1-.28l.08-.13h.08v0h.06v-.15h.14V25h0v.11a.74.74,0,0,0,.09.34.71.71,0,0,0,.27.32.85.85,0,0,0,.47.07.7.7,0,0,0,.43-.13l.13-.12h.13l0,.06,0,.06,0,.06,0,.06,0,.15a2.3,2.3,0,0,1,0,.52V27h0l0,0,0,0,0,0,0,0,0,0,0,0h0l.11-.06a1.11,1.11,0,0,0,.29-.27,2.25,2.25,0,0,0,.32-.5,1.44,1.44,0,0,0,.13-.63,1.64,1.64,0,0,0-.12-.65,1.77,1.77,0,0,0-.43-.57,2.16,2.16,0,0,0-.66-.44,2.78,2.78,0,0,0-.8-.17l-.45,0,.06,0,.06,0Z"/><path class="cls-26" d="M39.42,24.93h0S39.42,24.94,39.42,24.93Zm.33.7.05-.23,0-.09,0-.09,0,.22,0-.11,0-.1v0a.38.38,0,0,0,0-.09s0-.08-.07-.08h0s0,0,0,0h0v0h0l0,0,0,0h-.06v0l0,0h-.08v0l0,0h.05a0,0,0,0,1,0,0h0l0,.3h-.06v0l-.05.15a.52.52,0,0,1-.21.23.85.85,0,0,1-.46.14.71.71,0,0,1-.48-.12l-.18-.14h-.05l0,0h-.05l0,0,0,0,0,.06,0,.06,0,.17a2.59,2.59,0,0,0,0,.54V27h0l0,0,0,0,0,0,0,0-.08,0,0,0a2.74,2.74,0,0,1-.31-.29,2.17,2.17,0,0,1-.38-.49,1.56,1.56,0,0,1-.16-.53,1.46,1.46,0,0,1,.06-.63,1.77,1.77,0,0,1,.37-.63,2.12,2.12,0,0,1,.62-.49,2.65,2.65,0,0,1,.87-.24l.53-.07h-.06l-.18,0-.12,0-.69,0a3.45,3.45,0,0,0-1.16.2,4.08,4.08,0,0,0-.95.54q-.48.36-.48.55a2.13,2.13,0,0,0,.29.74,3.61,3.61,0,0,0,.58.84,2.57,2.57,0,0,0,.69.49,3,3,0,0,0,.69.26,4.86,4.86,0,0,0,.94,0l.67,0h0v0h0l0,0,0,0,.08,0,.08,0h.16v-.07h.06l-.08,0-.18-.07a.24.24,0,0,1-.13-.17l0-.13v-.07h0l.1-.09a.22.22,0,0,1,.2-.07l.16,0h.06v0l0-.09a.13.13,0,0,1,0-.08Z"/><path class="cls-27" d="M42.39,31.26l0,0,.33,0q.33,0,.35.07a.06.06,0,0,0,.06,0s0,0,0,.14,0,.14,0,.15,0,0,0,.06-.12.05-.35,0a.74.74,0,0,1-.44-.1.2.2,0,0,1-.07-.19q0-.11.07-.13A.12.12,0,0,0,42.39,31.26Z"/><path class="cls-21" d="M43.35,27.91a1.46,1.46,0,0,0-.09.84q.09.32,0,.27a1.16,1.16,0,0,1-.32-.3.75.75,0,0,1-.21-.45.41.41,0,0,1,.11-.31l.42-.33Q43.53,27.39,43.35,27.91Z"/><path class="cls-8" d="M42.33,34.41c0,.51,0,1,0,1.52a7.15,7.15,0,0,0,.74-.33l2-.93a1,1,0,0,1,.07-.21c0,.38,0,.76,0,1.14a1.37,1.37,0,0,0,.58,1.16l0,.09a3.41,3.41,0,0,1-1.71,1,1.32,1.32,0,0,0,.2.31h-1a3.47,3.47,0,0,0,.21-.3A4.39,4.39,0,0,1,42,37.18c-.13-.11-.3-.21-.32-.39a1.3,1.3,0,0,0,.61-1.08c0-.43,0-.87,0-1.3Z"/><path class="cls-28" d="M39.88,36.08A.52.52,0,0,1,40,36a1,1,0,0,0-.31.63,1.56,1.56,0,0,0,.28.94,5.57,5.57,0,0,0,1.8,1.71,2.36,2.36,0,0,1,.42.3c.17.41.36.81.49,1.24a3.66,3.66,0,0,0,.25.67,9.16,9.16,0,0,1-.09,1q-.27,2.46-.36,4.93c0,.08,0,.16-.06.24-.16-.25-.27-.52-.42-.77-.28-.54-.62-1.06-.94-1.58a13.45,13.45,0,0,0-.86-1.18,9,9,0,0,0-.79-.77,3.19,3.19,0,0,0-1.05-.6c-.12,0-.27-.09-.28-.23a.66.66,0,0,1,.18-.26c.31-.31.65-.59.94-.92a8,8,0,0,0,.67-.62.21.21,0,0,0,0-.29,1,1,0,0,0-.32-.11c-.52-.1-1-.23-1.54-.36a1.38,1.38,0,0,0-.6-.09V40a2.6,2.6,0,0,0-.85-1.5l.07,0c.47-.37,1-.71,1.44-1.06l1.82-1.32Z"/><path class="cls-28" d="M51.1,39a.64.64,0,0,1-.19.46,2.19,2.19,0,0,1-1,.42c-.51.14-1,.26-1.55.38a6.44,6.44,0,0,0-.71.14.21.21,0,0,0-.15.24.62.62,0,0,0,.24.33c.25.2.46.43.7.64s.34.37.53.54a2.26,2.26,0,0,1,.32.32c.08.1,0,.25-.12.29l-.54.22a3.53,3.53,0,0,0,0-.63c0,.37,0,.74,0,1.11H48a.24.24,0,0,0-.14,0A7.72,7.72,0,0,0,46.64,45c-.36.54-.68,1.11-1,1.68s-.49.94-.7,1.43l0,0c0-.47,0-.94,0-1.42s-.06-1-.08-1.43-.06-1-.14-1.53c0-.76-.15-1.52-.24-2.28a.41.41,0,0,0,.14-.21,11.15,11.15,0,0,1,.6-1.59c.06-.15.23-.22.36-.31a6.14,6.14,0,0,0,1.77-1.58,2.41,2.41,0,0,0,.39-.82,1,1,0,0,0-.31-.94.55.55,0,0,1,.16.08L50.11,38a6.08,6.08,0,0,1,.77.61A1,1,0,0,1,51.1,39Z"/><path class="cls-29" d="M37.41,39.88A1.38,1.38,0,0,1,38,40c.51.13,1,.26,1.54.36a1,1,0,0,1,.32.11.21.21,0,0,1,0,.29,8,8,0,0,1-.67.62c-.29.33-.63.61-.94.92a.66.66,0,0,0-.18.26c0,.14.17.19.28.23a3.19,3.19,0,0,1,1.05.6,9,9,0,0,1,.79.77,13.45,13.45,0,0,1,.86,1.18c.33.52.66,1,.94,1.58.15.25.26.53.42.77s0,.6,0,.9c-.36,0-.72-.08-1.08-.11s-.68-.1-1-.15a.25.25,0,0,0-.18,0l-.05,0a.66.66,0,0,0,.25-.48.38.38,0,0,0-.34-.36,5.37,5.37,0,0,0-1,0c-.14-.42-.2-.86-.3-1.3-.26-1.22-.52-2.43-.79-3.65-.17-.87-.36-1.73-.54-2.6Z"/><path class="cls-29" d="M47.88,43.46a.24.24,0,0,1,.14,0c0,.06,0,.12.07.17a6.71,6.71,0,0,1,.67,1.91,3.61,3.61,0,0,1,0,.92,2.15,2.15,0,0,1-.37,1.06A2,2,0,0,1,48,48a4.08,4.08,0,0,1-2.24.74,1.79,1.79,0,0,1-.81,0c0-.19,0-.39,0-.58.21-.48.47-1,.7-1.43s.64-1.14,1-1.68a7.72,7.72,0,0,1,1.24-1.52Z"/><path class="cls-29" d="M52.44,61c-.05-.43-.09-.87-.13-1.3s-.06-.62-.09-.93c-.07-.75-.14-1.5-.22-2.25s-.16-1.52-.22-2.28-.13-1.33-.19-2c0-.33-.05-.65-.09-1,0-.07,0-.15,0-.22s0-.21,0-.24a7.5,7.5,0,0,1-2,1l-.6.17-.41.09-.14,0-.41.07a4.89,4.89,0,0,1-.55.06h-.05c-.41,0-.83,0-1.25,0s-.76-.07-1.13-.07h-.16v0l0-.11,0,.1a9.59,9.59,0,0,1-.3,1.26c.07,1.09.15,2.17.26,3.26,0,.36.08.71.1,1.07h0c.06.51.1,1,.18,1.52,0,.06,0,.11,0,.17s0,.38.08.57,0,.32.06.48,0,.37.08.55h7.28ZM51,59.08a.81.81,0,0,1-.68.22,1.38,1.38,0,0,1-.8-.37,5.06,5.06,0,0,1-.91-1.33c-.2-.35-.34-.71-.51-1.07a3.65,3.65,0,0,1-.24-.7.84.84,0,0,1,.63-.93.87.87,0,0,1,.71.12,1.33,1.33,0,0,1,.43.63l.6,1.13c.16.25.28.52.44.77l.12.2.12.2.11.2c0,.07.06.14.09.21A.67.67,0,0,1,51,59.08Z"/><path class="cls-29" d="M36.09,55.41h0Z"/><path class="cls-29" d="M39.81,51.2v0a1.66,1.66,0,0,0,.68-.13v.09l.39.12a7.84,7.84,0,0,1-.89,0Z"/><path class="cls-29" d="M43,53.38c-.1,1.18-.2,2.37-.34,3.55,0,.26-.07.52-.08.77h0c-.08.81-.21,1.62-.31,2.44q-.07.46-.14.93H42c.08-.53.16-1.06.23-1.6s.13-.8.15-1.21.13-1,.18-1.52.07-.71.1-1.07q.14-1.34.23-2.69v0l0,.18Z"/><path class="cls-30" d="M47.67,36.94a2.41,2.41,0,0,1-.39.82,6.14,6.14,0,0,1-1.77,1.58c-.13.09-.3.16-.36.31a11.15,11.15,0,0,0-.6,1.59.41.41,0,0,1-.14.21c.09.76.2,1.52.24,2.28.08.51.08,1,.14,1.53s0,1,.08,1.43,0,.94,0,1.42,0,1.12,0,1.68c0,.32,0,.65-.06,1s-.07.87-.13,1.3a9.49,9.49,0,0,1-.31,1.36c.07,1.09.15,2.17.26,3.26,0,.36.08.71.1,1.07a14.39,14.39,0,0,1-1.83,0,2.13,2.13,0,0,1-.37-.06c0-.26.06-.52.08-.77.14-1.18.24-2.37.34-3.55-.07-.25-.13-.49-.19-.74s-.11-.71-.17-1.06a31.48,31.48,0,0,1-.11-4.14q.08-2.47.36-4.93a9.16,9.16,0,0,0,.09-1,3.66,3.66,0,0,1-.25-.67c-.14-.42-.33-.82-.49-1.24a2.36,2.36,0,0,0-.42-.3A5.57,5.57,0,0,1,40,37.58a1.56,1.56,0,0,1-.28-.94A1,1,0,0,1,40,36a1.87,1.87,0,0,1,1.14-.43.53.53,0,0,1,.26,0,1.65,1.65,0,0,0,.07.79c.05.14.18.25.22.4s.19.28.32.39a4.9,4.9,0,0,0,1.89.68,3.68,3.68,0,0,0,1.79-1l0-.09a1.59,1.59,0,0,0,.29-.57,3.55,3.55,0,0,0,0-.58,1.12,1.12,0,0,1,.56,0,1.85,1.85,0,0,1,.83.4A1,1,0,0,1,47.67,36.94Z"/><path class="cls-29" d="M48.51,54.91a.87.87,0,0,1,.71.12,1.34,1.34,0,0,1,.43.63l.6,1.13c.16.25.28.52.44.77a4.72,4.72,0,0,1,.44.81.67.67,0,0,1-.11.71.81.81,0,0,1-.68.22,1.38,1.38,0,0,1-.8-.37,5.06,5.06,0,0,1-.91-1.33c-.2-.35-.34-.71-.51-1.07a3.63,3.63,0,0,1-.24-.7.84.84,0,0,1,.63-.93Z"/><path class="cls-17" d="M36.09,55.4h0Z"/><path class="cls-31" d="M45.09,60.51c0,.18,0,.37.08.55H42.11q.07-.46.14-.93c.11-.81.23-1.62.31-2.44a2.11,2.11,0,0,0,.37.06,14.2,14.2,0,0,0,1.83,0c.06.51.1,1,.18,1.52,0,.06,0,.11,0,.17s0,.38.08.57S45.08,60.35,45.09,60.51Z"/><path class="cls-29" d="M43.76,52c.91.16,1.2.17,1.77.24a10.15,10.15,0,0,0,1.79,0,9.4,9.4,0,0,0,1.1-.16,8.07,8.07,0,0,0,3-1.27A5.75,5.75,0,0,0,53.9,47a7.09,7.09,0,0,0,.07-2c0-.29-.09-.58-.08-.88l0,.06a6.38,6.38,0,0,0-.21-1A10.71,10.71,0,0,0,53,41.36a7.88,7.88,0,0,0-1.27-1.83A5.41,5.41,0,0,0,51.1,39a.64.64,0,0,1-.19.46,2.19,2.19,0,0,1-1,.42c-.51.14-1,.26-1.55.38a6.44,6.44,0,0,0-.71.14.21.21,0,0,0-.15.24.62.62,0,0,0,.24.33c.25.2.46.43.7.64s.34.37.53.54a2.26,2.26,0,0,1,.32.32c.08.1,0,.25-.12.29l-.54.22a3.53,3.53,0,0,0,0-.63c0,.37,0,.74,0,1.11H48c0,.06,0,.12.07.17a6.71,6.71,0,0,1,.67,1.91,3.61,3.61,0,0,1,0,.92,2.15,2.15,0,0,1-.37,1.06A2,2,0,0,1,48,48a4.08,4.08,0,0,1-2.24.74,12.61,12.61,0,0,1-2.31-.06c-1-.07-2.07-.18-2.07-.18-.35,0-.68-.1-1-.15a.25.25,0,0,0-.18,0c.14.07.32.17.32.34a.63.63,0,0,1-.26.52c.13.07.29.12.36.25a.5.5,0,0,1,0,.34,1.13,1.13,0,0,1-.31.33c.14,0,.32,0,.4.17a.54.54,0,0,1-.18.71v.09c.4.12,1.39.5,1.6.56s.77.21,1.69.37Z"/><path class="cls-29" d="M44.45,51.15c.91-.16,1.48-.32,1.69-.37s1.19-.44,1.6-.56v-.09a.54.54,0,0,1-.18-.71c.09-.13.26-.14.4-.17a1.13,1.13,0,0,1-.31-.33.5.5,0,0,1,0-.34c.07-.13.23-.18.36-.25a.63.63,0,0,1-.26-.52c0-.18.17-.27.32-.34a.25.25,0,0,0-.18,0c-.34,0-.68.12-1,.15,0,0-1.09.11-2.07.18a12.61,12.61,0,0,1-2.31.06,4.08,4.08,0,0,1-2.24-.74,2,2,0,0,1-.43-.48,2.15,2.15,0,0,1-.37-1.06,3.61,3.61,0,0,1,0-.92,6.71,6.71,0,0,1,.67-1.91c0-.06,0-.12.07-.17h-.51c0-.37,0-.74,0-1.11a3.53,3.53,0,0,0,0,.63l-.54-.22c-.11,0-.2-.19-.12-.29a2.26,2.26,0,0,1,.32-.32c.19-.17.34-.37.53-.54s.45-.44.7-.64a.62.62,0,0,0,.24-.33.21.21,0,0,0-.15-.24,6.44,6.44,0,0,0-.71-.14c-.52-.13-1-.24-1.55-.38a2.19,2.19,0,0,1-1-.42.64.64,0,0,1-.19-.46,5.41,5.41,0,0,0-.59.58,7.88,7.88,0,0,0-1.27,1.83,10.71,10.71,0,0,0-.69,1.89,6.38,6.38,0,0,0-.21,1l0-.06c0,.29-.08.58-.08.88a7.09,7.09,0,0,0,.07,2,5.75,5.75,0,0,0,2.44,3.79,8.07,8.07,0,0,0,3,1.27,9.4,9.4,0,0,0,1.1.16,10.15,10.15,0,0,0,1.79,0c.57-.07.86-.08,1.77-.24Z"/><path class="cls-29" d="M35.35,55.4h0Zm.74,3.06h0v0Zm0-.12a1.92,1.92,0,0,1,.08-.19A1.78,1.78,0,0,0,36.14,58.34Zm6.62-6.5c0-.15-.07-.3-.1-.46s0-.23-.06-.34l0,.09v0c-.43,0-.86.08-1.29.06h-.41l.49.16.33.1a4.72,4.72,0,0,1,.92.3s0,0,0,0,0,.18,0,.13a5.25,5.25,0,0,0,.14.66v0l.09.34,0-.57C42.86,52.22,42.8,52,42.76,51.84Z"/><path class="cls-29" d="M42.79,52.64v0a5.25,5.25,0,0,1-.14-.66s0-.08,0-.13,0,0,0,0a4.72,4.72,0,0,0-.92-.3l-.33-.1-.49-.16h0a7.92,7.92,0,0,1-.87,0h-.23c-.29,0-.58-.09-.87-.14a8,8,0,0,1-3-1.27s0,.2,0,.24,0,.15,0,.22c0,.33-.06.65-.09,1-.07.67-.14,1.33-.19,2s-.15,1.52-.22,2.28-.14,1.5-.22,2.25c0,.31-.06.62-.09.92s-.08.87-.13,1.3-.08.72-.11,1.08H42c.08-.53.16-1.06.23-1.6s.13-.8.15-1.21.13-1,.18-1.52.07-.71.1-1.07q.14-1.34.23-2.69h0Zm-6.7,2.77h0Zm0,3.06h0v0Zm0-.12a1.78,1.78,0,0,1,.08-.19A1.92,1.92,0,0,0,36.14,58.34Z"/><path class="cls-29" d="M36.1,58.47v0Z"/><path class="cls-29" d="M36.28,58h0l-.06.11a2,2,0,0,0-.08.19,2,2,0,0,1,.08-.19Z"/><path class="cls-32" d="M67.52,40.49l.15,1.11c-.27,0-.76-.68-1-.68-.53,0-1.24-1.16-1.76-1.14s-.73-.46-1.11-.42-.92.11-1.38.17-.78.12-1.17.2-.81.18-1.21.28l-.82.23-.85.29-.53.2a.64.64,0,0,1-.15,0c-.37-.07-.75-.12-1.12-.22-.62-.16-1.24-.31-1.85-.51a7.94,7.94,0,0,1-2.84-1.54,4.15,4.15,0,0,1-1.18-1.69,2.08,2.08,0,0,1-.06-.32l0-.2a2.28,2.28,0,0,1,.11-.68,1.62,1.62,0,0,1,.49-.77,1.42,1.42,0,0,1,.86-.35,1.44,1.44,0,0,1,1.37.79,2,2,0,0,0,.77.77,8.53,8.53,0,0,0,2.16.86,24.82,24.82,0,0,0,4,.7l.35,0-.05-.08a.94.94,0,0,0,.24.1l1.56.12,1.87.12L66,38C66.26,38,67.31,40.49,67.52,40.49Z"/><path class="cls-33" d="M68.22,63.64V40.93l-.7-.44-1.41-.81c-.34-.19-.68-.37-1-.54s-.85-.4-1.29-.58-.74-.31-1.12-.45-.79-.27-1.18-.39l-.82-.23-.87-.19-.55-.11a.75.75,0,0,1-.14-.06H59c-.34,0-.68-.09-1-.09h-8a1,1,0,0,0-.46.12,1.73,1.73,0,0,0-1,1.72A1.79,1.79,0,0,0,49,40.11a1.36,1.36,0,0,0,.38.27,3,3,0,0,0,.36.15h5.65c.66,0,1.33,0,2,0s1,.09,1.55.15h0c.23,0,.45.08.67.12l.15.06.35.11.51.22a4.46,4.46,0,0,1,2,1.77,6.38,6.38,0,0,1,.79,2.38,12,12,0,0,1,.11,2.08,14.58,14.58,0,0,1-.18,2,8.73,8.73,0,0,1-.68,2.28,5.58,5.58,0,0,1-1.54,2,4.45,4.45,0,0,1-1.68.88,6.42,6.42,0,0,1-.77.16h0l-.42,0H54.75l-1,0c-.39.07-.79.12-1.18.2a5,5,0,0,0-2,.85A1.87,1.87,0,0,0,49.93,58,1.52,1.52,0,0,0,51,59.09a1.44,1.44,0,0,0,1.26-.26,2.61,2.61,0,0,1,.67-.32,6.06,6.06,0,0,1,1.81-.22c.76,0,1.52,0,2.29,0l.76,0,1.42.15c.46.06.92.11,1.37.19s.75.14,1.12.23c.65.17,1.3.33,1.94.54a8.75,8.75,0,0,1,2.18,1.06,5.31,5.31,0,0,1,1.65,1.84A5.58,5.58,0,0,1,68,63.64"/><line class="cls-34" x1="57.69" y1="55.73" x2="57.68" y2="55.73"/><rect class="cls-35" x="38.87" y="40.41" width="25.45" height="15.32" rx="0.46" ry="0.46"/><rect class="cls-36" x="39.54" y="41.13" width="24.11" height="13.88" rx="3.62" ry="3.62"/><rect class="cls-37" x="50.91" y="50.08" width="11.21" height="0.94"/><rect class="cls-38" x="41.26" y="44.56" width="8.77" height="9.68"/><rect class="cls-39" x="50.87" y="44.56" width="11.3" height="1.68"/><rect class="cls-37" x="50.91" y="46.85" width="11.21" height="0.94"/><rect class="cls-37" x="50.91" y="48.47" width="11.21" height="0.94"/><rect class="cls-37" x="50.91" y="51.69" width="11.21" height="0.94"/><rect class="cls-37" x="50.91" y="53.3" width="11.21" height="0.94"/><path class="cls-37" d="M55.88,53.34h0Z"/><path class="cls-37" d="M58.25,53.35h0v0Z"/><path class="cls-37" d="M58.31,53.32v0h0Z"/><path class="cls-37" d="M60.78,53.33v0h0Z"/><path class="cls-40" d="M59.71,54.22h-.16l0,0v0q0-.41,0-.82h.28A1.48,1.48,0,0,1,59.71,54.22Z"/><path class="cls-41" d="M59.94,53.35s0,0,0,.05,0,.32,0,.48v0a.9.9,0,0,1,0,.14.29.29,0,0,1,0,.08v0l-.06.07h-.13v-.87Z"/><path class="cls-42" d="M60.16,53.35c0,.29,0,.58,0,.87H60A1.51,1.51,0,0,1,60,54a1.42,1.42,0,0,1,0-.15,1.39,1.39,0,0,1,0-.48v-.05Z"/><path class="cls-43" d="M61,54.22h-.06a.25.25,0,0,1-.06-.08.34.34,0,0,1,0-.17s0,0,0-.06h0s0-.06,0-.09,0,0,0-.06a2.18,2.18,0,0,0,0-.33v-.08H61c0,.18,0,.37,0,.55S61.05,54.12,61,54.22Z"/><path class="cls-44" d="M59.39,54a.7.7,0,0,1,0,.12.62.62,0,0,1,0,.11h-.06a3.94,3.94,0,0,1,0-.76s0-.07,0-.11h.16a1.79,1.79,0,0,0,0,.29h0A1.78,1.78,0,0,1,59.39,54Z"/><path class="cls-45" d="M59.39,54.22a1,1,0,0,1,0-.11c0-.25,0-.5,0-.75h.1c0,.25,0,.51,0,.76C59.46,54.16,59.48,54.22,59.39,54.22Z"/><path class="cls-46" d="M51.81,53.35s0,.06,0,.1h0c0,.09,0,.17,0,.26s0,0,0,0,0,.11,0,.16h0a.49.49,0,0,0,0,.18.31.31,0,0,0,.08.13H52v-.87Z"/><path class="cls-47" d="M60.83,53.76v.15s0,0,0,.06,0,.05,0,.08h0a.32.32,0,0,1,0,.08v0l-.06.07h-.06v-.87h.11v0h0C60.83,53.49,60.83,53.62,60.83,53.76Z"/><path class="cls-48" d="M60,53.35v.87H60c0-.06,0-.11,0-.17a1.57,1.57,0,0,1,0-.16,2.1,2.1,0,0,1,0-.46v-.08Z"/><path class="cls-49" d="M60,53.35v.87H59.9v-.07a3.74,3.74,0,0,1,0-.8Z"/><path class="cls-50" d="M51.91,53.35c0,.29,0,.58,0,.87h-.13a.13.13,0,0,1,0-.15.89.89,0,0,0,0-.09,1.82,1.82,0,0,0,0-.27,1.92,1.92,0,0,1,0-.27s0-.06,0-.08Z"/><path class="cls-51" d="M59.27,54.22H59.2v-.87h.06C59.27,53.64,59.27,53.93,59.27,54.22Z"/><path class="cls-52" d="M59.9,53.35v.87h-.06c0-.29,0-.58,0-.87Z"/><path class="cls-53" d="M61.06,53.35v.87H61c0-.29,0-.58,0-.87Z"/><path class="cls-54" d="M51.82,53.75q0,.08,0,.16h0a1.54,1.54,0,0,1,0,.19v.12h-.06v-.87h.09s0,.06,0,.1h0C51.82,53.55,51.82,53.65,51.82,53.75Z"/><path class="cls-55" d="M60.93,54.22h-.06c0-.06,0-.11,0-.16h0s0-.1,0-.15a1.84,1.84,0,0,1,0-.45v-.11h.11C60.93,53.64,60.93,53.93,60.93,54.22Z"/><path class="cls-56" d="M60.86,53.35v.87H60.8v-.07a3.22,3.22,0,0,1,0-.8v0Z"/><rect class="cls-57" x="59.33" y="53.35" width="0.06" height="0.87"/><path class="cls-58" d="M60.8,53.35v.87h-.06c0-.29,0-.58,0-.87h0v0Z"/><path class="cls-59" d="M54.12,53.91h0a1,1,0,0,1,0,.15.94.94,0,0,1-.06.16H53.7a1.55,1.55,0,0,1,0-.25,1.54,1.54,0,0,1,0,.25s-.06-.05-.06-.08c0-.26,0-.52,0-.79h.09c0,.09,0,.18,0,.28,0-.1,0-.19,0-.28h.42l0,.14A1.58,1.58,0,0,1,54.12,53.91Z"/><path class="cls-60" d="M60.61,53.38c-.09.28,0,.57-.06.84H60.3c0-.29,0-.57,0-.87h.32Z"/><path class="cls-57" d="M57.6,54.22h-.26c-.12-.18,0-.37-.06-.56s0-.21,0-.31h.35c0,.18,0,.37,0,.55S57.66,54.12,57.6,54.22Z"/><path class="cls-61" d="M59.14,53.35H59c0,.09,0,.18,0,.28,0-.1,0-.19,0-.28h-.19s0,.09,0,.14h0a2,2,0,0,0,0,.21,1.11,1.11,0,0,1,0,.16h0a.54.54,0,0,0,0,.26h0l0,0,0,.05h.06A1.46,1.46,0,0,0,59,54a1.59,1.59,0,0,0,0,.25h.13C59.14,53.92,59.14,53.63,59.14,53.35Z"/><path class="cls-62" d="M58.27,53.89h0a1,1,0,0,1,0,.1v0l0,.06h0l0,.13H58a4.77,4.77,0,0,1,0-.87h.29v0a.81.81,0,0,1,0,.1A1.31,1.31,0,0,1,58.27,53.89Z"/><path class="cls-48" d="M54.73,54.07l0,0,0,.1h-.18c0-.29,0-.58,0-.87h.27A1.77,1.77,0,0,1,54.73,54.07Z"/><path class="cls-63" d="M56.52,53.71a2,2,0,0,1-.06.29h0c0,.08,0,.15-.07.23h-.13a2.08,2.08,0,0,1-.06-.32,1.92,1.92,0,0,1,0-.45s0-.07,0-.11h.3v0A1.37,1.37,0,0,1,56.52,53.71Z"/><path class="cls-59" d="M55.56,53.35c0,.1,0,.19,0,.29v.58h-.13l-.06-.07v0a.35.35,0,0,1,0-.12.84.84,0,0,1,0-.17h0a1.4,1.4,0,0,0,0-.15.27.27,0,0,1,0,0c0-.1,0-.2,0-.3Z"/><path class="cls-64" d="M52.49,54a1,1,0,0,1-.06.26H52.3a2,2,0,0,1-.06-.87h.24c0,.07,0,.14,0,.21A2,2,0,0,1,52.49,54Z"/><path class="cls-42" d="M57.35,54.22h-.12c0-.29,0-.58,0-.87h.13C57.35,53.64,57.34,53.93,57.35,54.22Z"/><path class="cls-45" d="M54.41,54.22h-.13a1.68,1.68,0,0,1-.06-.19,1.35,1.35,0,0,1,0-.59l0-.1h.2C54.41,53.63,54.41,53.92,54.41,54.22Z"/><path class="cls-65" d="M57,54.07l0,0,0,.1h-.12c0-.29,0-.58,0-.87H57A1.66,1.66,0,0,1,57,54.07Z"/><path class="cls-66" d="M55.11,54.22H55a1.05,1.05,0,0,1-.06-.16v-.14h0a1.44,1.44,0,0,1,0-.4h0l0-.15h.2C55.11,53.63,55.11,53.92,55.11,54.22Z"/><path class="cls-65" d="M54.92,53.9V54h0a1.75,1.75,0,0,1,0,.18h-.13l0-.1a5.26,5.26,0,0,1,0-.77h.21s0,.07,0,.1A2,2,0,0,1,54.92,53.9Z"/><path class="cls-48" d="M57.09,54.22H57a1,1,0,0,1,0-.1,5,5,0,0,1,0-.77h.15C57.09,53.63,57.09,53.92,57.09,54.22Z"/><path class="cls-67" d="M52.3,53.83v.39h-.12c0-.29,0-.58,0-.87h.11a.19.19,0,0,0,0,.13A.86.86,0,0,1,52.3,53.83Z"/><path class="cls-53" d="M56.64,54.22h-.13a1.24,1.24,0,0,1-.06-.23h0a2,2,0,0,1,0-.64h.19A4.06,4.06,0,0,1,56.64,54.22Z"/><path class="cls-68" d="M56.52,53.35v.87h-.13c0-.16,0-.32,0-.47s0-.22,0-.28,0-.07,0-.11Z"/><path class="cls-69" d="M54.73,53.35c0,.24,0,.48,0,.72,0,0,0,.1,0,.14h-.06v-.87Z"/><path class="cls-70" d="M61.31,54.22h-.06a3.94,3.94,0,0,1,0-.76.8.8,0,0,1,0-.11h.09C61.3,53.64,61.32,53.93,61.31,54.22Z"/><path class="cls-71" d="M52.49,54.22h-.06v-.87h.1A4.87,4.87,0,0,1,52.49,54.22Z"/><path class="cls-72" d="M56.7,53.35c0,.28,0,.57,0,.85l-.05,0v-.87Z"/><path class="cls-44" d="M53.35,53.35h0v0l0,.07c-.07.24,0,.49-.07.72l-.06.07h-.06a1.69,1.69,0,0,1-.06-.19v0a1.2,1.2,0,0,1,0-.12,1.26,1.26,0,0,1,0-.44s0-.07,0-.1Z"/><path class="cls-73" d="M58.5,54.22h-.06a.25.25,0,0,1-.06-.08.75.75,0,0,1,0-.34,2.88,2.88,0,0,0,0-.43v0h0v0h.22c0,.18,0,.37,0,.55S58.56,54.12,58.5,54.22Z"/><path class="cls-41" d="M53.06,54v.11a.83.83,0,0,1,0,.15h-.06l-.06-.07v0a.25.25,0,0,1,0-.07,1.49,1.49,0,0,1,0-.24,3.1,3.1,0,0,0,0-.47h.25c0,.07,0,.15,0,.22A2.24,2.24,0,0,1,53.06,54Z"/><path class="cls-43" d="M57,53.35q0,.36,0,.72v.15H56.9v-.87Z"/><path class="cls-49" d="M55.84,53.88a1,1,0,0,1,0,.17.31.31,0,0,1,0,.08v0l-.06.07h-.06a3.94,3.94,0,0,1,0-.76.64.64,0,0,1,0-.11h.22A3.32,3.32,0,0,0,55.84,53.88Z"/><path class="cls-74" d="M54.18,53.35s0,.06,0,.1,0,.29,0,.44v0a.85.85,0,0,1,0,.13.28.28,0,0,1,0,.08v0h0l-.06.06H54c0-.29,0-.58,0-.87Z"/><path class="cls-75" d="M52.87,53.9c0,.05,0,.11,0,.16l0,.16h-.06a3.94,3.94,0,0,1,0-.76.81.81,0,0,1,0-.11h.14s0,.07,0,.11A1.8,1.8,0,0,1,52.87,53.9Z"/><path class="cls-76" d="M51.83,54.09h0V53.7c0-.09,0-.18,0-.27s0-.06,0-.08h.07c0,.21,0,.43,0,.64C51.85,54,51.86,54.07,51.83,54.09Z"/><path class="cls-77" d="M55.33,53.65c0,.06,0,.12,0,.19v.08s0,.06,0,.09a.34.34,0,0,1,0,.13v0l-.06.07-.05,0c0-.28,0-.56,0-.85h.15C55.33,53.45,55.33,53.55,55.33,53.65Z"/><path class="cls-78" d="M55.94,54.22h-.06c0-.06,0-.11,0-.16a1.47,1.47,0,0,1,0-.16,1.87,1.87,0,0,1,0-.44s0-.07,0-.11H56c0,.18,0,.37,0,.55S56,54.12,55.94,54.22Z"/><path class="cls-79" d="M58.84,54.17a.07.07,0,0,1,0,0H58.7c0-.29,0-.58,0-.87h.13c0,.07,0,.14,0,.21s0,.15,0,.23,0,.23,0,.34A.07.07,0,0,1,58.84,54.17Z"/><path class="cls-80" d="M52.57,53.35c0,.16,0,.33,0,.49s0,.22,0,.33,0,0-.06,0v-.66c0-.07,0-.14,0-.21Z"/><path class="cls-81" d="M55.37,54.15v.07H55.3v-.07a3.23,3.23,0,0,1,0-.8h.1A3.19,3.19,0,0,1,55.37,54.15Z"/><path class="cls-82" d="M58,54.22s-.06-.05-.06-.08c0-.24,0-.48,0-.72,0,0,0-.05,0-.08H58C58,53.64,58,53.93,58,54.22Z"/><path class="cls-57" d="M53.45,54.22l-.06-.07v0a.26.26,0,0,1,0-.07,2.31,2.31,0,0,1,0-.38c0-.1,0-.21,0-.31v0h.17c0,.25,0,.51,0,.76C53.51,54.16,53.53,54.22,53.45,54.22Z"/><path class="cls-83" d="M53.38,53.91c0,.05,0,.1,0,.15s0,.11,0,.16h-.13v-.06a4.21,4.21,0,0,0,0-.81h.15s0,.07,0,.11A1.84,1.84,0,0,1,53.38,53.91Z"/><path class="cls-84" d="M55,53.35v.87h-.06c0-.06,0-.12,0-.18h0s0-.07,0-.11h0a3.38,3.38,0,0,1,0-.4h0c0-.05,0-.1,0-.15Z"/><rect class="cls-85" x="54.85" y="53.35" width="0.06" height="0.87"/><path class="cls-86" d="M59,54.22h-.06v-.87H59c0,.11,0,.22,0,.33S59,54,59,54.22Z"/><path class="cls-87" d="M58.82,54.22v-.1h0c0-.09,0-.17,0-.26h0a2.78,2.78,0,0,1,0-.37h0s0-.09,0-.14h.08c0,.29,0,.58,0,.87Z"/><path class="cls-88" d="M58.5,54.22c0-.29,0-.58,0-.87h.06c0,.25,0,.51,0,.76C58.56,54.16,58.58,54.22,58.5,54.22Z"/><path class="cls-89" d="M54.28,53.35v.87h-.06c0-.06,0-.11,0-.16a1.47,1.47,0,0,1,0-.16,2,2,0,0,1,0-.44s0-.07,0-.11Z"/><path class="cls-90" d="M54.21,53.35v.87h-.06v-.06h0c0-.08,0-.16,0-.25h0a3.88,3.88,0,0,1,0-.42s0-.09,0-.14Z"/><path class="cls-91" d="M54.15,53.35v.87h-.06v-.16c0-.24,0-.47,0-.7Z"/><path class="cls-92" d="M53.7,54.22h-.06v-.87h.06c0,.11,0,.22,0,.33S53.7,54,53.7,54.22Z"/><path class="cls-93" d="M58.43,53.35c0,.29,0,.58,0,.87h-.06a1.34,1.34,0,0,1-.06-.19,1.07,1.07,0,0,1,0-.14h0a1.27,1.27,0,0,1,0-.42,1.07,1.07,0,0,1,0-.12h0v0Z"/><path class="cls-94" d="M53.39,54.15v.07h-.06v-.87h.08A3.19,3.19,0,0,1,53.39,54.15Z"/><path class="cls-83" d="M58.37,53.35v.87h-.06a2.11,2.11,0,0,1-.05-.23s0-.06,0-.09a1.8,1.8,0,0,1,0-.45v-.11h0v0Z"/><path class="cls-95" d="M53.13,53.35v.87h-.06l0-.15c0-.06,0-.12,0-.18a3.43,3.43,0,0,1,0-.44s0-.07,0-.1Z"/><path class="cls-96" d="M53.06,53.35v.87H53c0-.29,0-.58,0-.87Z"/><path class="cls-63" d="M58.31,53.32v.9h-.06l0-.13h0a3.69,3.69,0,0,1,0-.74h0v0h.05Z"/><rect class="cls-97" x="58.18" y="53.35" width="0.06" height="0.87"/><path class="cls-98" d="M55.69,54.22c-.09,0-.06-.06-.06-.11,0-.25,0-.51,0-.76h.06C55.69,53.64,55.69,53.93,55.69,54.22Z"/><path class="cls-99" d="M52.88,54.15v.07h-.06v-.87h.09A3.68,3.68,0,0,1,52.88,54.15Z"/><path class="cls-100" d="M52.74,54.22c-.09,0-.06-.06-.06-.11,0-.25,0-.51,0-.76h.06C52.75,53.64,52.74,53.93,52.74,54.22Z"/><path class="cls-64" d="M57.6,54.22c0-.29,0-.58,0-.87h.06c0,.25,0,.51,0,.76C57.67,54.16,57.69,54.22,57.6,54.22Z"/><path class="cls-101" d="M61.25,53.35v.87c-.09,0-.06-.06-.06-.11,0-.25,0-.51,0-.76Z"/><path class="cls-102" d="M56.26,53.35v.87H56.2a3.85,3.85,0,0,1,0-.87Z"/><path class="cls-54" d="M56.2,53.35v.87s-.06,0-.06,0c0-.27,0-.55,0-.82Z"/><path class="cls-50" d="M55.94,54.22c0-.29,0-.58,0-.87H56c0,.25,0,.51,0,.76C56,54.16,56,54.22,55.94,54.22Z"/><path class="cls-103" d="M55.88,53.34v.88h-.06v-.07a3.67,3.67,0,0,1,0-.8h.09Z"/><path class="cls-104" d="M55.81,53.35v.87h-.06c0-.29,0-.58,0-.87Z"/><path class="cls-105" d="M52.94,54.22h-.06v-.87h.06C52.94,53.64,52.94,53.93,52.94,54.22Z"/><path class="cls-44" d="M53.45,54.22h-.06v-.87h.06Q53.45,53.78,53.45,54.22Z"/><path class="cls-76" d="M55.3,53.35v.87h-.06q0-.43,0-.87Z"/><path class="cls-100" d="M55.43,54.22h-.06v-.87h.06Q55.43,53.78,55.43,54.22Z"/><path class="cls-45" d="M60.54,54.22c0-.25,0-.49,0-.74,0,0,0-.1.06-.1,0,.25,0,.49,0,.74C60.61,54.16,60.63,54.22,60.54,54.22Z"/><path class="cls-46" d="M53.19,54.16c0-.27,0-.54,0-.81h.06c0,.23,0,.47,0,.7C53.25,54.1,53.28,54.16,53.19,54.16Z"/><path class="cls-106" d="M58.82,53.35v.81s-.06,0-.06,0c0-.25,0-.51,0-.76Z"/><text class="cls-107" transform="translate(44.96 43.76) scale(1.06 1)">DRIVER LICENSE</text><path class="cls-11" d="M48.89,50.23a.26.26,0,0,0-.08-.09.27.27,0,0,0-.15,0c-.06,0-.13.08-.2.24a3,3,0,0,0-.15.4l0,.15h.18l.12-.07a.79.79,0,0,0,.17-.14.86.86,0,0,0,.12-.17.43.43,0,0,0,.06-.18A.26.26,0,0,0,48.89,50.23ZM43,50.9v0l-.07-.22a3,3,0,0,0-.16-.39c-.06-.12-.11-.17-.16-.17a.2.2,0,0,0-.13.06.25.25,0,0,0-.07.09.34.34,0,0,0,0,.12.42.42,0,0,0,.06.18.87.87,0,0,0,.14.17.88.88,0,0,0,.16.13l.11.06H43Zm5.63-1.54a5,5,0,0,0-.1-.6,5.57,5.57,0,0,0-.21-.72q-.12-.33-.22-.55a1.13,1.13,0,0,0-.11-.22h0l0,0-.1.12-.14.17-.25.24a4.28,4.28,0,0,1-.33.29l-.29.2-.2.11-.31.12a4.86,4.86,0,0,1-.6.17l-.36.08h0l.07-.06.2-.16.14-.11.05,0,.14-.13.11-.09.05,0,.21-.2.24-.24.07-.08h0v0h-.07l-.19.11-.53.28q-.35.18-.69.31a6,6,0,0,1-.83.25q-.49.12-1.18.23c-.45.08-.68.15-.68.22s0,.18,0,.32a2,2,0,0,0,.13.47c.07.17.11.26.14.27L43,50l.1,0h0v0h0L43,49.86l-.07-.13v-.06h.05l.07,0,.1.05,0,0h.06l0-.06,0-.05v0h0v0h.06l.09,0,.12,0,.17-.06a1.29,1.29,0,0,1,.87,0l.19.07,0,0h0l-.21,0-.18,0h0l.15.07a1.05,1.05,0,0,1,.2.12l.06.05h0l-.1-.05-.09,0h-.09l-.09,0-.09,0H44a1,1,0,0,0-.34.06,1.17,1.17,0,0,0-.28.16c-.09.07-.14.12-.14.16a.61.61,0,0,0,.09.21,1,1,0,0,0,.17.24.72.72,0,0,0,.2.14l.2.08h.54l.1,0,.11,0h0l-.15.05a1,1,0,0,1-.3.05,2.31,2.31,0,0,1-.46,0,1.83,1.83,0,0,0-.4,0h-.11l0,.1a1.27,1.27,0,0,0,.1.28,1,1,0,0,0,.2.3,1.1,1.1,0,0,0,.19.17l.08.06h.08l.32.2q.32.2.61.35a5.53,5.53,0,0,0,.52.24,1.09,1.09,0,0,0,.34.09,1.39,1.39,0,0,0,.42-.13c.21-.09.42-.19.63-.31l.47-.26.29-.19.14-.1h.06l.11-.09a1,1,0,0,0,.16-.18,1.44,1.44,0,0,0,.14-.31l.08-.21v0H48l-.33,0a2.86,2.86,0,0,1-.43.05H47l-.2-.06-.13-.05h0l.08,0,.11,0h.55l.2-.07a.79.79,0,0,0,.21-.13,1,1,0,0,0,.15-.2.94.94,0,0,0,.11-.22c0-.06,0-.09,0-.1L47.95,50a1.19,1.19,0,0,0-.27-.15,1,1,0,0,0-.34-.06h-.17a.8.8,0,0,1,.23.05.63.63,0,0,1,.19.13.52.52,0,0,1,.13.17.47.47,0,0,1,0,.19.43.43,0,0,1,0,.18.64.64,0,0,1-.09.15l-.08.08,0,0h-.08v-.14a.68.68,0,0,0,0-.15v-.11h0l0,0a.2.2,0,0,1-.13,0,.24.24,0,0,1-.14,0,.2.2,0,0,1-.08-.09.21.21,0,0,1,0-.1v0h0v0l0,0v0h-.36v0h.05l0,0,0,0h0l-.13.07-.11.05.09-.1a1.2,1.2,0,0,1,.28-.18c.13-.06.18-.09.16-.09l-.27,0c-.16,0-.21,0-.15,0a1.06,1.06,0,0,1,.24-.11,1.32,1.32,0,0,1,.3-.06,1.25,1.25,0,0,1,.56.09l.17.06a.4.4,0,0,0,.16,0c.08,0,.12,0,.12,0l-.06.13c0,.07,0,.09,0,.08a.61.61,0,0,0,.18-.09c.06,0,.09-.05.09,0a.3.3,0,0,1,0,.11.76.76,0,0,1-.09.15l-.05.08h.05l.12,0s.1-.1.16-.24A.9.9,0,0,0,48.62,49.36Zm1-.61a4.47,4.47,0,0,0-.08-.64,4.42,4.42,0,0,0-.13-.52,2,2,0,0,0-.09-.23l0,0h0l0,0-.1-.13L49,46.9a1.49,1.49,0,0,0-.24-.17,1.66,1.66,0,0,0-.33-.16,1.51,1.51,0,0,0-.31-.08.22.22,0,0,1-.19-.13,1,1,0,0,0-.11-.21.75.75,0,0,0-.15-.17,1.34,1.34,0,0,0-.3-.16,2.74,2.74,0,0,0-.42-.14l-.5-.09a4.63,4.63,0,0,0-.6,0,4.5,4.5,0,0,0-.52,0l-.54.09a3.82,3.82,0,0,0-.6.17l-.4.16-.11.05h0l-.15.08-.23.14-.22.15-.13.1-.13.12-.12.11h0l-.12.12-.06.06,0,.05-.13.16-.05.08a2,2,0,0,0-.18.35,4.1,4.1,0,0,0-.15.48,4.44,4.44,0,0,0-.11.56,6.54,6.54,0,0,0,0,.77q0,.49,0,.66l0,.21v.11h0l0,.27q0,.27.15.67t.28.93l.21.62,0,.1v0s0-.17,0-.39,0-.44,0-.63v-.2l.28.83.33,1a.19.19,0,0,0,.24.13l.2,0h0l-.08-.55-.08-.54v-.06h0v0h0l.14.22.29.45a.53.53,0,0,0,.55.2c.26,0,.41-.08.43-.16a1.6,1.6,0,0,0,0-.35c0-.15,0-.24-.06-.26l-.37-.21q-.31-.18-.57-.36c-.18-.13-.32-.23-.41-.31a1.68,1.68,0,0,1-.22-.22,1.27,1.27,0,0,1-.15-.29.69.69,0,0,0-.09-.19h-.11a.49.49,0,0,1-.22-.06l-.12-.07,0,0a1,1,0,0,1-.13-.15.72.72,0,0,1-.12-.24l0-.11h0V50.3a.62.62,0,0,1,0-.07v-.05l0-.1a.26.26,0,0,1,.08-.09l.12,0h.07v0l-.06-.14a2.18,2.18,0,0,1-.1-.29,2.1,2.1,0,0,1-.06-.38v-.21h0l-.16,0-.12,0h0l.34-.21.56-.35.25-.17.2-.14.28-.2.11-.09.14-.12.17-.14.11-.1h0l.06-.06,0,0,0,0,0,0,0,0,.06-.05,0,0,.12-.12h0l0,0,0,0h.06v0h0l0,.07a2.08,2.08,0,0,1-.17.23,3.54,3.54,0,0,1-.26.3l-.29.27q-.16.14-.45.35l-.44.31-.16.1h0l.68-.11q.68-.11,1-.21a5,5,0,0,0,.52-.16l.46-.21.6-.32.54-.31.25-.15,0,0H47v.09l0,.07a3.24,3.24,0,0,1-.17.33,2.29,2.29,0,0,1-.28.42,2.62,2.62,0,0,1-.27.26l-.26.19-.11.07h0l.25-.08a2.7,2.7,0,0,0,.43-.18l.31-.17a2,2,0,0,0,.28-.23l.17-.16.06-.06.12-.13.22-.24.2-.24L48,47H48l.09.18.09.18h0v0l.11.27c.07.18.14.38.22.61a5.18,5.18,0,0,1,.15.54c0,.14,0,.27.06.4s0,.23,0,.32v.12h.05l.07-.16a6.35,6.35,0,0,0,.2-.62l.14-.48v.17a2.75,2.75,0,0,1-.05.48,2.39,2.39,0,0,1-.13.44,1.53,1.53,0,0,1-.16.32l-.11.15,0,0h0l.08,0a.28.28,0,0,1,.12.06l0,.05v0h0v0a.52.52,0,0,1,0,.16.73.73,0,0,1,0,.21.81.81,0,0,1-.1.2,1,1,0,0,1-.16.2.88.88,0,0,1-.19.14.46.46,0,0,1-.18.06.23.23,0,0,1-.12,0l0,0h0l0,.11,0,.13v0h0l0,.09a1,1,0,0,1-.16.21,2.93,2.93,0,0,1-.27.24l-.27.2-.46.28-.51.3a.28.28,0,0,0-.17.27,1.42,1.42,0,0,0,0,.32q0,.14.51.14c.32,0,.49,0,.52-.1s.08-.17.15-.33l.16-.33.05-.11h0V53q0,.51.25.53t.37-.31c.08-.22.17-.51.26-.85s.16-.58.19-.71l0-.22v0h0v-.12h0v.14a4,4,0,0,1,0,.42,5.31,5.31,0,0,1-.05.65c0,.22,0,.33-.05.35v.1h0v0h0l.06-.14c0-.08.1-.27.2-.55s.19-.56.26-.84.13-.54.17-.79l.06-.36h0V50s0-.21,0-.5S49.64,48.95,49.63,48.75Zm.17-.42a4.43,4.43,0,0,0-.1-.54,3.32,3.32,0,0,0-.12-.4,2.68,2.68,0,0,0-.17-.33,1.69,1.69,0,0,0-.28-.36,1.63,1.63,0,0,0-.27-.22,1.6,1.6,0,0,0-.27-.13,1.25,1.25,0,0,0-.31-.08c-.1,0-.15,0-.16,0l-.07-.14a1.15,1.15,0,0,0-.16-.24.83.83,0,0,0-.27-.2,2.85,2.85,0,0,0-.43-.15,3.72,3.72,0,0,0-.58-.11,6.26,6.26,0,0,0-.63,0c-.21,0-.43,0-.67,0a5.17,5.17,0,0,0-.55.06l-.57.14a4.65,4.65,0,0,0-.67.24,3.93,3.93,0,0,0-.52.28,3.11,3.11,0,0,0-.42.33,2.87,2.87,0,0,0-.25.26l-.17.23a3.25,3.25,0,0,0-.26.45,3.67,3.67,0,0,0-.24.63,4.7,4.7,0,0,0-.14.62,4.75,4.75,0,0,0,0,.59,5.73,5.73,0,0,0,0,.67q0,.35.14.89a9,9,0,0,0,.23.94q.13.4.27.74c.1.23.21.48.34.76l.19.42h0v-.1l0-.29c0-.16,0-.34,0-.51v-.19l.17.51q.17.51.22.63l0,.13v0l.31-.08.32-.08h0l-.07-.36L43.6,53v-.1h0v0l.16.33a.52.52,0,0,0,.57.29l.48,0c.05,0,.09-.05.13-.17a2.23,2.23,0,0,0,.08-.37c0-.13,0-.2,0-.23v0h0l.22.08a.9.9,0,0,0,.3.07.87.87,0,0,0,.23-.06l.17-.06h0l0,.21a2.38,2.38,0,0,0,.08.38c0,.11.07.16.12.15l.07,0h.48q.48,0,.58-.22l.1-.24h0V53h0v.28c0,.19,0,.29,0,.31v0h0l.38,0c.24,0,.37,0,.38,0l.14-.45c.08-.27.15-.51.2-.72l.07-.31v-.07h0v.07l0,.29q0,.29-.08.59l-.06.32v.06h0v0h0v0l.15-.24c.09-.15.19-.33.29-.54s.18-.38.23-.5.1-.29.17-.49a7,7,0,0,0,.17-.7q.08-.4.13-.85a8.71,8.71,0,0,0,.05-1A6.77,6.77,0,0,0,49.79,48.33Z"/><path class="cls-9" d="M45.5,52.12h0l-.1,0h-.1l0,0s0,0,0,0a.06.06,0,0,0,0,.06.21.21,0,0,0,.13,0c.07,0,.1,0,.1,0s0,0,0,0,0,0,0,0S45.51,52.12,45.5,52.12Zm.65-.2a2.35,2.35,0,0,1-.47,0h-.4l-.18,0-.13,0s0,0,0,0v0H45L45,52l.55,0a3.17,3.17,0,0,0,.6,0c.06,0,.1,0,.1-.08S46.24,51.9,46.15,51.92ZM45.52,51l-.12.1a.12.12,0,0,0,0,.09.22.22,0,0,0,.06.13l.09.09s0,0,0-.08a.42.42,0,0,1,0-.24C45.59,51,45.58,51,45.52,51Zm1.34-.8h0Zm-2-.3v0h0S44.88,50,44.88,49.94Zm-.1,0h0s0,0,0,0Zm0-.73h0Zm3.67-.05-.12-.08A.87.87,0,0,0,48,49a1.25,1.25,0,0,0-.29,0H47.5l-.28.06a1.37,1.37,0,0,0-.33.13.79.79,0,0,0-.18.13l0,0v.05h.14a1.77,1.77,0,0,0,.38-.13,3.33,3.33,0,0,1,.43-.16,1.28,1.28,0,0,1,.3,0,1.17,1.17,0,0,1,.27,0l.12,0h.11Zm-3.79.13-.07-.06-.2-.12A1.47,1.47,0,0,0,44,49a2.09,2.09,0,0,0-.38-.05,1.31,1.31,0,0,0-.31,0,1,1,0,0,0-.26.09l-.11.06h0l.13,0a1.21,1.21,0,0,1,.29,0,1.29,1.29,0,0,1,.31,0,3.33,3.33,0,0,1,.45.17,1.59,1.59,0,0,0,.36.13h.13V49.3Zm1.1-1.09-.14.07h0v0s0,0,0,0h0l-.15.07-.19.07-.05,0H45l0,0h-.1l-.25.06-.3.07-.05,0h-.19l-.1,0-.1,0h-.07l-.09,0h.12l.16,0h.25l.08,0,.21.11.13.08h0l0,0L44.53,49a1.42,1.42,0,0,0-.31-.11l-.19,0H44v0h0l.39-.09.41-.1.15,0,.34-.12.22-.09,0,0h0s0,0,0,0,0,0,0,0l0,0s0,0,0,0,0,0,0,0h0l.11-.08.09-.07h0Zm2.9,1.17a5,5,0,0,0-.1-.6,5.57,5.57,0,0,0-.21-.72q-.12-.33-.22-.55a1.13,1.13,0,0,0-.11-.22h0l0,0-.1.12-.14.17-.25.24a4.28,4.28,0,0,1-.33.29l-.29.2-.2.11-.31.12a4.86,4.86,0,0,1-.6.17l-.36.08h0l.07-.06.2-.16.14-.11.05,0,.14-.13.11-.09.05,0,.21-.2.24-.24.07-.08h0v0h-.07l-.19.11-.53.28q-.35.18-.69.31a6,6,0,0,1-.83.25q-.49.12-1.18.23c-.45.08-.68.15-.68.22s0,.18,0,.32a2,2,0,0,0,.13.47c.07.17.11.26.14.27L43,50l.1,0h0v0h0L43,49.86l-.07-.13v-.06h.05l.07,0,.1.05,0,0h.06l0-.06,0-.05v0h0v0h.06l.09,0,.12,0,.17-.06a1.29,1.29,0,0,1,.87,0l.19.07,0,0h0l-.21,0-.18,0h0l.15.07a1.05,1.05,0,0,1,.2.12l.06.05h0v0h0v0h.1v0h0s0,0,0-.12a.2.2,0,0,0-.11-.18l-.11-.06v0h0s0,0,0-.09,0-.09,0-.09,0,0,0,0v0l0,0h0v0h0v0h0v.16a.45.45,0,0,1,0,.17h0l.07,0,0,0h0l0,0s0,.08,0,.19a1.76,1.76,0,0,0,0,.27,3.88,3.88,0,0,1,0,.6,5.43,5.43,0,0,1,0,.7l0,.21v0h-.07v0h0v0a1.42,1.42,0,0,0,0-.16A2.08,2.08,0,0,0,45,51v-.3a.37.37,0,0,1,0-.06v0h0s0-.1,0-.2a1.81,1.81,0,0,0,0-.27V50h0v.15a1.7,1.7,0,0,1,0,.22,1.62,1.62,0,0,1,0,.18v.13h0l0,0h0v0l0,0s0,0,0,.07a.91.91,0,0,1,0,.25,1.11,1.11,0,0,1-.06.33.89.89,0,0,1-.12.24.53.53,0,0,1-.17.15.7.7,0,0,1-.23.07.94.94,0,0,1-.26,0l-.17,0-.05,0h-.1v0h.09l.32.2q.32.2.61.35a5.53,5.53,0,0,0,.52.24,1.09,1.09,0,0,0,.34.09,1.39,1.39,0,0,0,.42-.13c.21-.09.42-.19.63-.31l.47-.26.29-.19.14-.1h0l0,0,0,0h.08v0h-.1l0,0,0,0h0l-.06,0-.08,0h-.35a.64.64,0,0,1-.19,0,.52.52,0,0,1-.15-.08.75.75,0,0,1-.13-.13.74.74,0,0,1-.11-.21,1,1,0,0,1-.05-.28,1,1,0,0,1,0-.22v0l0,0h.15l0,0h0l.08,0,.11,0h-.05l0,0,.06,0v0h-.1s0,0-.05,0a.49.49,0,0,1,0-.1v-.12s0,0,0,0,0,0,0,0,0,0,0,0h0v0h0v0h0v0l0,0v0h-.36v0h.05l0,0,0,0h0l-.13.07-.11.05.09-.1a1.2,1.2,0,0,1,.28-.18c.13-.06.18-.09.16-.09l-.27,0c-.16,0-.21,0-.15,0a1.06,1.06,0,0,1,.24-.11,1.32,1.32,0,0,1,.3-.06,1.25,1.25,0,0,1,.56.09l.17.06a.4.4,0,0,0,.16,0c.08,0,.12,0,.12,0l-.06.13c0,.07,0,.09,0,.08a.61.61,0,0,0,.18-.09c.06,0,.09-.05.09,0a.3.3,0,0,1,0,.11.76.76,0,0,1-.09.15l-.05.08h.05l.12,0s.1-.1.16-.24A.9.9,0,0,0,48.62,49.36Z"/><path class="cls-10" d="M43.61,46.05h.05l.06.05a1.28,1.28,0,0,0,.26.14l.35.14a3.83,3.83,0,0,0,.48.1l.44.06h.87l-.12,0-.49.12-.62.11-.23,0h0l0,0,0,0h-.75a5.06,5.06,0,0,1-.67,0,2.05,2.05,0,0,1-.38-.09l-.15-.05h0l.13-.11.13-.12.13-.1.22-.15.23-.14.15-.08Z"/><path class="cls-11" d="M43.91,50a.16.16,0,0,0-.1,0,.15.15,0,0,0-.11,0,.12.12,0,0,0,0,.11.14.14,0,0,0,0,.1.16.16,0,0,0,.2,0,.14.14,0,0,0,0-.11A.13.13,0,0,0,43.91,50Zm.76.05h0l-.06,0-.06,0h-.07l-.09,0-.09,0-.15,0a.78.78,0,0,0-.25.07.62.62,0,0,0-.18.14.5.5,0,0,0-.11.18.44.44,0,0,0,0,.18.46.46,0,0,0,0,.16.69.69,0,0,0,.11.14l.09.08h.09v-.14a.69.69,0,0,1,0-.15v-.08h0l.05,0a.21.21,0,0,0,.14,0,.24.24,0,0,0,.13,0,.16.16,0,0,0,.06-.07v0h0v0a.25.25,0,0,0,0-.07l0-.06,0,0h.4v0Z"/><path d="M44.63,49.28h0v.08h-.13a1.58,1.58,0,0,1-.36-.13,3.46,3.46,0,0,0-.45-.17,1.27,1.27,0,0,0-.31,0,1.17,1.17,0,0,0-.29,0l-.13,0h0l.11-.06a1,1,0,0,1,.26-.09,1.25,1.25,0,0,1,.31,0A2.09,2.09,0,0,1,44,49a1.49,1.49,0,0,1,.36.12l.2.12Z"/><path d="M48.43,49.18h-.11l-.13,0a1.16,1.16,0,0,0-.27,0,1.25,1.25,0,0,0-.3,0,3.3,3.3,0,0,0-.43.16,1.74,1.74,0,0,1-.38.13h-.14v-.05l0,0a.78.78,0,0,1,.18-.13,1.34,1.34,0,0,1,.33-.13l.28-.06h.26A1.26,1.26,0,0,1,48,49a.88.88,0,0,1,.24.11l.13.08Z"/><path class="cls-12" d="M44.47,50.27h0Zm0,0h0Zm0,0h0Zm.59-.08V50h0v.15a1.7,1.7,0,0,1,0,.22,1.62,1.62,0,0,1,0,.18v.07h0s0-.1,0-.2A1.81,1.81,0,0,0,45,50.15Zm-.27-1.05h0l0,0h0ZM44.56,49h0Zm1.13-.76a0,0,0,0,0,0,0s0,0,0,0S45.7,48.22,45.69,48.22Zm.06,0h0Zm0,0-.14.07h0v0s0,0,0,0h0l-.15.07-.19.07-.05,0H45l0,0h-.1l-.25.06-.3.07-.05,0h-.19l-.1,0-.1,0h-.07l-.09,0h.12l.16,0h.25l.08,0,.21.11.13.08h.07v0h0s0,0,0,0,0,0,0,0v0s0,0,0,0,0,0,0,.09,0,.09,0,.09h0v0l.11.06a.2.2,0,0,1,.11.18c0,.08,0,.12,0,.12h0v0h-.15v0h0v0h-.07l-.1-.05-.09,0h0l.06,0,.06,0h.05v0h-.4l0,0,0,.06a.25.25,0,0,1,0,.07v0h0v-.09h.07v0a0,0,0,0,0,0,0h0v.12l0,.07a0,0,0,0,0,0,0v0h-.06a.06.06,0,0,0-.06,0l0,0h0v.06a.07.07,0,0,0,0,.05l.05,0H44.4l.1,0,.11,0h.28l0,0h0V51a2.08,2.08,0,0,1,0,.41,1.42,1.42,0,0,1,0,.16v0h0v0h.07v0l0-.21a5.43,5.43,0,0,0,0-.7,3.88,3.88,0,0,0,0-.6,1.76,1.76,0,0,1,0-.27.28.28,0,0,0-.09-.22h0c-.05,0-.08-.11-.08-.23v-.18h0v0h-.07l0,0L44.53,49a1.42,1.42,0,0,0-.31-.11l-.19,0H44v0h0l.39-.09.41-.1.15,0,.34-.12.22-.09,0,0h0s0,0,0,0,0,0,0,0l0,0s0,0,0,0,0,0,0,0h0l.11-.08.09-.07h0Z"/><path class="cls-13" d="M48.37,50.92h-.1l0-.16a3.19,3.19,0,0,1,.15-.4q.1-.25.2-.24a.27.27,0,0,1,.15,0,.25.25,0,0,1,.08.09.26.26,0,0,1,0,.13.45.45,0,0,1-.06.18.86.86,0,0,1-.12.17.82.82,0,0,1-.17.14l-.12.07Z"/><path class="cls-14" d="M42.92,50.66l.07.22v0h-.15l-.11-.06a.93.93,0,0,1-.17-.13.87.87,0,0,1-.13-.17.42.42,0,0,1-.06-.18.34.34,0,0,1,0-.12.27.27,0,0,1,.07-.09.21.21,0,0,1,.13-.06s.1.05.16.17A3,3,0,0,1,42.92,50.66Z"/><path class="cls-15" d="M48.82,51.32v0h0v0l0,.23q0,.2-.19.71t-.27.85q-.12.34-.37.31T47.7,53v-.48h0l-.05.11-.16.33q-.11.23-.15.33t-.51.1q-.48,0-.51-.14a1.47,1.47,0,0,1,0-.32.28.28,0,0,1,.17-.27l.51-.3.46-.28.27-.2.27-.24a1,1,0,0,0,.16-.21l0-.09h.68S48.82,51.33,48.82,51.32Z"/><path class="cls-16" d="M49.26,47.24h-1l-.09-.18L48,47H48l-.05.07-.2.24-.22.24-.12.13-.06.06-.17.16a2,2,0,0,1-.28.23l-.31.17a2.63,2.63,0,0,1-.43.18l-.24.08h0l.11-.07.26-.19a2.57,2.57,0,0,0,.27-.26,2.32,2.32,0,0,0,.28-.42,3.29,3.29,0,0,0,.17-.33l0-.07v0h0v-.05h-.09l0,0-.25.15-.54.31-.6.32-.46.21-.52.16q-.36.1-1,.21l-.68.11h0l.16-.11.44-.31q.28-.21.45-.35l.29-.27a3.75,3.75,0,0,0,.26-.29,2,2,0,0,0,.17-.23l0-.06h0l.23,0,.62-.11.49-.12.12,0h-.87l-.44-.06a3.83,3.83,0,0,1-.48-.1L44,46.3a1.28,1.28,0,0,1-.26-.14l-.06-.05h0l.11-.05.4-.16a3.9,3.9,0,0,1,.6-.17l.54-.09.52,0a4.76,4.76,0,0,1,.6,0l.5.09a2.66,2.66,0,0,1,.42.14,1.31,1.31,0,0,1,.3.16.74.74,0,0,1,.15.17,1,1,0,0,1,.11.21.21.21,0,0,0,.19.13,1.47,1.47,0,0,1,.31.08,1.74,1.74,0,0,1,.33.16,1.48,1.48,0,0,1,.24.17l.16.17.1.13Z"/><path class="cls-7" d="M43.81,50a.16.16,0,0,1,.1,0,.13.13,0,0,1,0,.11.14.14,0,0,1,0,.11.16.16,0,0,1-.2,0,.15.15,0,0,1,0-.1.12.12,0,0,1,0-.11A.15.15,0,0,1,43.81,50Z"/><path class="cls-18" d="M42.22,50.33v.05h0l0,.11a.73.73,0,0,0,.12.24,1,1,0,0,0,.13.16l0,0,.12.07a.48.48,0,0,0,.22.06H43a.66.66,0,0,1,.09.19,1.23,1.23,0,0,0,.15.29,1.64,1.64,0,0,0,.22.22q.15.13.41.31t.58.36l.37.21s.06.11.06.26a1.65,1.65,0,0,1,0,.35q0,.12-.43.16a.53.53,0,0,1-.55-.2l-.29-.45-.14-.22h0v0h0v.06l.08.54.08.55h0l-.2,0a.19.19,0,0,1-.24-.13l-.33-1-.28-.83v.2q0,.29,0,.63l0,.39v.11h0V53l0-.1-.21-.62q-.18-.53-.28-.93t-.15-.67l0-.27v0h0v0s0,0,0,0H42q.19,0,.19,0v0Z"/><path class="cls-19" d="M41.79,50.29h0ZM44.58,47l-.15,0h-.59a5.21,5.21,0,0,1-.67,0,2.08,2.08,0,0,1-.38-.09l-.15-.05h0v0h0l0,0-.09.1-.06.06,0,.05-.13.16-.05.08a2,2,0,0,0-.18.35,4.1,4.1,0,0,0-.15.48,4.44,4.44,0,0,0-.11.56,6.54,6.54,0,0,0,0,.77q0,.49,0,.66l0,.21v.11h0v0h0l0,0h0a.49.49,0,0,1,.19,0c.12,0,.19,0,.19,0h0v.08h0V50.3s0,0,0-.07v-.05l0-.1a.26.26,0,0,1,.08-.09l.12,0h.07v0l-.06-.14a2.18,2.18,0,0,1-.1-.29,2.1,2.1,0,0,1-.06-.38v-.21h0l-.16,0-.12,0h0l.34-.21.56-.35.25-.17.2-.14.28-.2.11-.09.14-.12.17-.14.11-.1h0l.06-.06,0,0,0,0,0,0,0,0,.06-.05,0,0,.12-.11h0Z"/><path class="cls-20" d="M44.69,50.8h0Zm.21.06s0-.07,0-.07l0,0v0h-.26l-.15.05a1,1,0,0,1-.3.05,2.31,2.31,0,0,1-.46,0,1.83,1.83,0,0,0-.4,0h-.11l0,.1a1.27,1.27,0,0,0,.1.28,1,1,0,0,0,.2.3,1.1,1.1,0,0,0,.19.17l.08.06h0v0h.08l.05,0,.17,0a.94.94,0,0,0,.26,0,.7.7,0,0,0,.23-.07.53.53,0,0,0,.17-.15.89.89,0,0,0,.12-.24,1.11,1.11,0,0,0,.06-.33A.91.91,0,0,0,44.9,50.86Z"/><path class="cls-108" d="M45,52h-.06v0s0,0,0,0l.13,0,.18,0h.4a2.26,2.26,0,0,0,.47,0q.14,0,.13,0s0,.06-.1.08a3.16,3.16,0,0,1-.6,0L45,52Z"/><path class="cls-22" d="M49.23,47.29h.06l0,0a2,2,0,0,1,.09.23,4.34,4.34,0,0,1,.13.52,4.52,4.52,0,0,1,.09.64q0,.3,0,.73t0,.5v.17h0v0s0,0,0-.05l0,0H49v0h0v0l0-.05a.28.28,0,0,0-.12-.06l-.08,0h0l0,0,.11-.15a1.56,1.56,0,0,0,.16-.32,2.41,2.41,0,0,0,.13-.44,2.81,2.81,0,0,0,.05-.48v-.17l-.14.48a6.42,6.42,0,0,1-.2.62l-.07.16H48.8v-.12q0-.12,0-.32t-.06-.4a5.06,5.06,0,0,0-.15-.54q-.11-.34-.22-.61l-.11-.27v0h1Z"/><path class="cls-23" d="M49.59,50.1v0l-.06.36q-.06.36-.17.79t-.26.84q-.15.42-.2.55l-.06.14h0v0h0v-.1l.05-.35a5.41,5.41,0,0,0,.05-.65,4,4,0,0,0,0-.42v-.14h0v.12h0v0s0,0,0,0h-.65v0h0v0l0-.13,0-.11h0l0,0a.23.23,0,0,0,.12,0,.47.47,0,0,0,.18-.06.88.88,0,0,0,.19-.14,1,1,0,0,0,.16-.2.78.78,0,0,0,.1-.2.72.72,0,0,0,0-.21.54.54,0,0,0,0-.16v-.06h.56l0,0s0,0,0,.05Z"/><path class="cls-24" d="M47.75,51.57h-.1l0,0h.12v0Zm-1.14-.77h0Zm1.49.09H48l-.33,0a2.86,2.86,0,0,1-.43.05H47l-.2-.06-.13-.05h0l0,0h-.16v0h0l0,0v0a1,1,0,0,0,0,.22,1,1,0,0,0,.05.28.74.74,0,0,0,.11.21.75.75,0,0,0,.13.13.52.52,0,0,0,.15.08.64.64,0,0,0,.19,0h.35l.08,0,.06,0h.08l.11-.09a1,1,0,0,0,.16-.18,1.44,1.44,0,0,0,.14-.31l.08-.21v0Z"/><path class="cls-109" d="M47.11,49.82h.23a1,1,0,0,1,.34.06,1.18,1.18,0,0,1,.27.15l.14.11s0,0,0,.1a.92.92,0,0,1-.11.22,1,1,0,0,1-.15.2.8.8,0,0,1-.2.13l-.2.08h-.6l0,0,.06,0v0h-.1s0,0-.05,0a.53.53,0,0,1,0-.1v-.1a.21.21,0,0,1,0-.08l0,0h0v0h0v0h0v0a.21.21,0,0,0,0,.1.21.21,0,0,0,.08.09.25.25,0,0,0,.14,0,.2.2,0,0,0,.13,0l0,0h0v.11a.67.67,0,0,1,0,.15v.14h.08l0,0,.09-.08a.65.65,0,0,0,.09-.15.42.42,0,0,0,0-.18.48.48,0,0,0,0-.19.51.51,0,0,0-.13-.17.63.63,0,0,0-.19-.13.81.81,0,0,0-.23-.05h-.06Z"/><path class="cls-26" d="M44.41,50.26h0Zm.1.2v-.12h0v0l0,0h-.07v.09h0v0a.16.16,0,0,1-.06.07.24.24,0,0,1-.13,0,.21.21,0,0,1-.14,0l-.05,0h0v.08a.69.69,0,0,0,0,.15v.14h-.09l-.09-.08a.69.69,0,0,1-.11-.14.46.46,0,0,1,0-.16.44.44,0,0,1,0-.18.5.5,0,0,1,.11-.18.62.62,0,0,1,.18-.14.78.78,0,0,1,.25-.07l.15,0H44a1,1,0,0,0-.34.06,1.17,1.17,0,0,0-.28.16c-.09.07-.14.12-.14.16a.61.61,0,0,0,.09.21,1,1,0,0,0,.17.24.72.72,0,0,0,.2.14l.2.08h.59l-.05,0a.07.07,0,0,1,0-.05v-.06h0l0,0a.06.06,0,0,1,.06,0h.06v0a0,0,0,0,1,0,0Z"/><path class="cls-110" d="M45.28,52.1h.1l.1,0h0s0,0,0,0,0,0,0,0,0,0,0,0,0,0-.1,0a.22.22,0,0,1-.13,0,.06.06,0,0,1,0-.06s0,0,0,0Z"/><path class="cls-108" d="M45.56,51.13a.42.42,0,0,0,0,.24q0,.09,0,.08a.34.34,0,0,1-.09-.09.22.22,0,0,1-.06-.13.12.12,0,0,1,0-.09l.12-.1Q45.61,51,45.56,51.13Z"/></svg>