<svg id="Layer_1" data-name="Layer 1" xmlns="http://www.w3.org/2000/svg" viewBox="0 0 262.5 68.49"><defs><style>.cls-1{fill:#c0e5e7;stroke:#6fcbdc;}.cls-1,.cls-17,.cls-18,.cls-5,.cls-7{stroke-miterlimit:10;}.cls-13,.cls-2,.cls-23,.cls-8{fill:#fff;}.cls-3{font-size:0.97px;fill:#6698cb;}.cls-10,.cls-3,.cls-8{font-family:OpenSans, Open Sans;}.cls-4{font-size:2.76px;fill:gray;font-family:MyriadPro-Regular, Myriad Pro;}.cls-5{fill:none;}.cls-5,.cls-7,.cls-9{stroke:#000;}.cls-6{font-size:2.92px;}.cls-10,.cls-6{fill:#4d4e4e;}.cls-13,.cls-6{font-family:OpenSans-CondensedLight, Open Sans;}.cls-7{fill:#575757;}.cls-8{font-size:0.89px;}.cls-9{fill:#336767;stroke-linejoin:round;stroke-width:0.72px;}.cls-10{font-size:1.14px;}.cls-11{font-family:OpenSans-Bold, Open Sans;}.cls-11,.cls-21,.cls-23{font-weight:700;}.cls-12{fill:#0098cc;}.cls-13{font-size:1.62px;}.cls-14{fill:#40ba92;}.cls-15,.cls-21{fill:#369;}.cls-16{fill:#f9f9f9;}.cls-17,.cls-18{fill:#f4fafc;}.cls-17{stroke:#060606;}.cls-18{stroke:#cdd1d1;}.cls-19{fill:#6eb944;}.cls-20{fill:#5fac46;}.cls-21{font-size:12px;}.cls-21,.cls-23{font-family:Montserrat-Bold, Montserrat;}.cls-22{fill:#6fcbdc;}.cls-23{font-size:40px;}</style></defs><title>step4</title><rect class="cls-1" x="0.5" y="3.26" width="261" height="55"/><rect class="cls-2" x="9.18" y="1.55" width="94.02" height="55.32"/><text class="cls-3" transform="translate(90.13 9.02) scale(1.02 1)">Contact Us</text><text class="cls-4" transform="translate(26.18 13.55) scale(1.02 1)">USA General Hospital</text><line class="cls-5" x1="25.79" y1="14.88" x2="55.5" y2="14.88"/><text class="cls-6" transform="translate(22.2 25.79) scale(1.02 1)">REQUEST MY RECORDS FROM USA MEDICAL CENTER</text><rect class="cls-7" x="10.9" y="52.36" width="90.68" height="2.4"/><text class="cls-8" transform="translate(37.77 53.78) scale(1.05 1)"><tspan xml:space="preserve">TRIMSNet Portal v 3.0.0.264  @2017  TRIMSNet IP LLC.  All Rights Reserved.</tspan></text><path class="cls-9" d="M56.25,1.76l.09,0,.14,0,0,.12,0,.08,0,.12,0,.12-.14,0-.09,0-.14,0L56,2.3l0-.12,0-.12,0-.08,0-.12.14,0,.14,0Zm45.31,2.18,0,0V54.74H10.89V3.94ZM9.26.36,9,.4,8.51.57,8,.77l-.42.29-.33.37L7,1.84l-.14.45,0,.25V56.18l0,.21.14.45.28.41.33.37.42.29.47.25.51.12.23,0H103.2l.28,0,.51-.12.47-.25.37-.29.33-.37.28-.41.14-.45,0-.21V2.54l0-.25-.14-.45-.28-.41-.33-.37-.37-.29L104,.57,103.48.4l-.28,0ZM44.94,58.45l-.19,2-.23,2-.23,1.81L44,65.54l-.14.49-.09.33-.14.25-.14.12-.37.08-.61.12-1.45.21-1.12.16-.42.08-.23,0,0,0v.12l0,0,.33,0,.56,0,2.06,0,3.23,0H66.82l3.18,0,2.06,0,.61,0,.33,0,0,0v-.12l0,0-.23,0-.42-.08-1.12-.16-1.45-.21-.61-.12-.37-.08-.14-.12-.14-.25L68.37,66l-.09-.49L68,64.26l-.28-1.81-.23-2-.14-2Zm-5.42,9.31V68l0,0,.89,0,2.53,0,6.83,0H62.47l6.78,0,2.57,0,.89,0,0,0V67.8l0,0-1.08,0-2,0-7.15,0H49.75l-7.15,0-2,0-1.08,0Z"/><text class="cls-10" transform="translate(22.15 28.4) scale(1.02 1)">This webpage allows you to electronically request a copy of your own medical records or those of your child/ward (proof of <tspan x="0" y="1.78">guardianship may be required). If you will not be able to complete the entire process electronically, please refer to this page </tspan><tspan x="0" y="3.57">for instructions on submitting your request by mail. You will need to </tspan><tspan class="cls-11" x="36.23" y="3.57">print out, sign, and electronically submit</tspan><tspan x="59.24" y="3.57" xml:space="preserve"> an </tspan><tspan x="0" y="5.35">authorization form as well as a copy of your driver&apos;s license or other state-issued ID. Documents can be scanned or </tspan><tspan x="0" y="7.14">photographed with a mobile/tablet device. Acceptable fle types are Adobe PDF and common image formats.</tspan></text><rect class="cls-12" x="21.96" y="36.59" width="21.97" height="10.22"/><text class="cls-13" transform="translate(26.73 42.72) scale(1.02 1)">START A NEW REQUEST</text><rect class="cls-14" x="45.32" y="36.62" width="21.93" height="10.22"/><text class="cls-13" transform="translate(47.27 42.72) scale(1.02 1)">UPDATE AN EXISTING REQUEST OR <tspan x="2.43" y="1.95">UPLOAD AUTHORIZATION</tspan></text><rect class="cls-15" x="68.62" y="36.59" width="21.97" height="10.22"/><text class="cls-13" transform="translate(70.71 42.72) scale(1.02 1)">DOWNLOAD MEDICAL RECORDS I <tspan x="4.66" y="1.95">HAVE ORDERED</tspan></text><polygon class="cls-16" points="80.6 39.43 80.6 40.08 78.61 40.08 78.61 39.43 78.94 39.43 78.94 39.75 80.26 39.75 80.26 39.43 80.6 39.43"/><polygon class="cls-2" points="80.45 38.61 79.61 39.3 78.76 38.61 79.27 38.61 79.27 37.64 79.93 37.64 79.93 38.61 80.45 38.61"/><path class="cls-2" d="M56.44,39.84H55a.23.23,0,0,1-.13,0,.21.21,0,0,1-.09-.11.25.25,0,0,1,0-.08q0-.75,0-1.5a.22.22,0,0,1,0-.13.22.22,0,0,1,.11-.08h2.95a.23.23,0,0,1,.13,0,.21.21,0,0,1,.09.11.25.25,0,0,1,0,.09q0,.75,0,1.5a.22.22,0,0,1,0,.13.21.21,0,0,1-.11.08H56.44ZM55,39.62h2.88V38.11H55Z"/><path class="cls-2" d="M55.89,39.41v-.22H57v.22Z"/><path class="cls-2" d="M55.67,39h-.44v-.22h.44Z"/><path class="cls-2" d="M57.22,39v-.22h.44V39Z"/><path class="cls-2" d="M55.67,39.19v.22h-.44v-.22Z"/><path class="cls-2" d="M57.22,39.41v-.22h.44v.22Z"/><path class="cls-2" d="M55.45,38.54h-.22v-.22h.22Z"/><path class="cls-2" d="M55.89,38.54h-.22v-.22h.22Z"/><path class="cls-2" d="M56.11,38.54v-.22h.22v.22Z"/><path class="cls-2" d="M56.56,38.54v-.22h.22v.22Z"/><path class="cls-2" d="M57,38.54v-.22h.22v.22Z"/><path class="cls-2" d="M57.66,38.32v.22h-.22v-.22Z"/><path class="cls-2" d="M55.89,38.76h.22V39h-.22Z"/><path class="cls-2" d="M56.55,39h-.22v-.22h.22Z"/><path class="cls-2" d="M56.78,39v-.22H57V39Z"/><path class="cls-17" d="M57.94,40.33a1,1,0,0,1-.07-.21,1.89,1.89,0,0,0,0-.21,1.28,1.28,0,0,0-.18-.37.48.48,0,0,0-.16-.15.19.19,0,0,0-.21,0h0a.19.19,0,0,0-.19,0h0a.18.18,0,0,0-.12,0l-.06,0,0,0-.13-.18a.26.26,0,0,0-.12-.1.15.15,0,0,0-.17,0,.19.19,0,0,0,0,.18.46.46,0,0,0,.06.15l.19.31v0h0a.25.25,0,0,0-.14.09.18.18,0,0,0,.06.27l.11.07a.13.13,0,0,1,.05.07.57.57,0,0,0,.24.3.25.25,0,0,0,.18,0s0,0,0,0l.12.13a.11.11,0,0,0,.16,0l.45-.34a.19.19,0,0,0,.08-.11v0Zm-.57.48-.14-.16a.06.06,0,0,0-.06,0h-.1l-.07,0-.11-.1-.06-.09,0-.07a.17.17,0,0,0-.07-.08l-.15-.1a0,0,0,0,1,0-.05A.13.13,0,0,1,56.7,40a.17.17,0,0,1,.13.07l.16.22h0l-.06-.11c-.13-.25-.28-.49-.42-.73a.6.6,0,0,1,0-.1.06.06,0,0,1,0-.06,0,0,0,0,1,.06,0l.06.06.23.31v0c0-.13.12-.17.21-.08s0-.08.09-.1a.12.12,0,0,1,.11,0l0,0a.08.08,0,0,1,.11,0l.09.07a1,1,0,0,1,.22.47,1.2,1.2,0,0,0,.12.38Z"/><path class="cls-18" d="M57.86,40.43l-.49.38-.14-.16a.06.06,0,0,0-.06,0h-.1l-.07,0-.11-.1-.06-.09,0-.07a.17.17,0,0,0-.07-.08l-.15-.1a0,0,0,0,1,0-.05A.13.13,0,0,1,56.7,40a.17.17,0,0,1,.13.07l.16.22h0l-.06-.11c-.13-.25-.28-.49-.42-.73a.6.6,0,0,1,0-.1.06.06,0,0,1,0-.06,0,0,0,0,1,.06,0l.06.06.23.31v0c0-.13.12-.17.21-.08s0-.08.09-.1a.12.12,0,0,1,.11,0l0,0a.08.08,0,0,1,.11,0l.09.07a1,1,0,0,1,.22.47A1.2,1.2,0,0,0,57.86,40.43Z"/><path class="cls-2" d="M32.91,38.06a1.22,1.22,0,1,0,1.24,1.22A1.23,1.23,0,0,0,32.91,38.06Zm.74,1.34H33v.65h-.25V39.4h-.62v-.24h.62v-.65H33v.65h.62Z"/><path class="cls-19" d="M23.67,12.8q0-.5,0-1c0-.11,0-.23.16-.22s.15.1.15.21q0,1,0,2c0,.12,0,.22-.17.22s-.15-.13-.15-.23c0-.34,0-.68,0-1Z"/><polygon class="cls-20" points="25.09 12.65 25.09 12.99 24.64 12.99 24.64 14.64 23.02 14.64 23.02 13.58 21.96 13.58 21.96 11.99 22.81 11.99 22.81 12.33 22.32 12.33 22.32 13.19 23.35 13.19 23.35 14.2 24.24 14.2 24.24 12.65 25.09 12.65"/><rect class="cls-20" x="25.24" y="13.58" width="0.42"/><polygon class="cls-20" points="25.67 11.99 25.67 13.58 24.82 13.58 24.82 13.25 25.24 13.25 25.24 12.39 24.24 12.39 24.24 11.45 23.35 11.45 23.35 12.99 22.52 12.99 22.52 12.65 22.95 12.65 22.95 11.05 24.64 11.05 24.64 11.99 25.67 11.99"/><text class="cls-21" transform="translate(115.25 19.53) scale(1.02 1)">Download <tspan x="0" y="14.4">records </tspan><tspan x="0" y="28.8">immediately</tspan></text><rect class="cls-22" x="210.48" y="3.4" width="52.02" height="55.03"/><text class="cls-23" transform="translate(221.17 45.44) scale(1.21 1)">4</text></svg>