<svg id="Layer_1" data-name="Layer 1" xmlns="http://www.w3.org/2000/svg" xmlns:xlink="http://www.w3.org/1999/xlink" viewBox="0 0 224.8 77"><defs><style>.cls-1{fill:#2d5793;}.cls-2{fill:url(#radial-gradient);}.cls-3{fill:#fff;}</style><radialGradient id="radial-gradient" cx="38.5" cy="38.5" r="38.5" gradientUnits="userSpaceOnUse"><stop offset="0" stop-color="#5986bf"/><stop offset="0.85" stop-color="#2d5793"/><stop offset="1" stop-color="#1b3c6c"/></radialGradient></defs><title>Artboard 1</title><path class="cls-1" d="M100,24h-3.9V59.2H92.71V24H88.45V20.59H100Z"/><path class="cls-1" d="M116.29,59.2h-3.44v-15a2.56,2.56,0,0,0-2.56-2.57h-2.56V59.2h-3.44V20.59h6a6,6,0,0,1,6,6v9a5.75,5.75,0,0,1-1.81,4.29,5.75,5.75,0,0,1,1.81,4.29Zm-3.44-23.6v-9A2.55,2.55,0,0,0,110.28,24h-2.56V38.18h2.56a2.56,2.56,0,0,0,2.56-2.57Z"/><path class="cls-1" d="M126.59,59.2h-3.44V20.59h3.44Z"/><path class="cls-1" d="M151.47,59.2H148V40.33L144.2,59.2h-3.43l-3.85-18.87V59.2h-3.44V20.59h3.44l5.56,29.75L148,20.59h3.47Z"/><path class="cls-1" d="M170.32,53.2a6,6,0,0,1-12,0V50.64h3.44V53.2a2.56,2.56,0,1,0,5.12,0V48.47a7.86,7.86,0,0,0-2.23-5.88q-2.06-1.67-4.11-3.39a9.33,9.33,0,0,1-2.23-6.6v-6a6,6,0,0,1,12,0v2.57h-3.44V26.6a2.56,2.56,0,1,0-5.12,0v4.72A7.86,7.86,0,0,0,164,37.2q2.05,1.67,4.11,3.39a9.34,9.34,0,0,1,2.23,6.6Z"/><path class="cls-1" d="M189.19,59.2h-3.86l-4.7-17.37V59.2h-3.44v-30h3.87l4.69,17.32V29.2h3.44Z"/><path class="cls-1" d="M206.38,59.2H196.09v-30h10.29v3.44h-6.84v9.83h6.84v3.44h-6.84v9.83h6.84Z"/><path class="cls-1" d="M224.8,32.65h-3.9V59.2h-3.44V32.65H213.2V29.2h11.6Z"/><circle class="cls-2" cx="38.5" cy="38.5" r="38.5"/><path class="cls-3" d="M17.44,63l-1.4.51c17.23-.67,46.68-7.43,49.14-8L57.65,8.59c-.25,0-30.35-.24-43.68-.38a15.42,15.42,0,0,0-3.82,3.54l7.26,51.06Zm13.42-4.06c-.74,0-1.34-.79-1.38-1.86s.52-1.92,1.26-1.94,1.34.79,1.38,1.86S31.6,58.88,30.86,58.91Zm5.88-.84c-.74,0-1.34-.79-1.37-1.86s.52-1.92,1.26-1.94S38,55.06,38,56.12,37.47,58,36.73,58.06Zm5.87-.84c-.74,0-1.34-.79-1.37-1.86s.52-1.92,1.26-1.94,1.35.79,1.38,1.86S43.34,57.2,42.6,57.22Zm5.87-.84c-.74,0-1.34-.79-1.37-1.86s.52-1.92,1.26-1.94,1.34.8,1.38,1.86S49.22,56.35,48.48,56.38ZM55,55.28l-.25-2.65,3.48-.44.24,2.49Zm-.78-41.69,5.45,34.19-38.2,5.3L16,13.95Z"/><polygon class="cls-1" points="59.68 47.78 54.23 13.59 16.01 13.95 21.48 53.08 59.68 47.78"/><path class="cls-3" d="M48.73,61.74l-4.71.9.07,2.16L28.3,68l-.13-2.41-7.76,1.31-.12,0c4,.53,6.32,5.14,6.72,6l31.74-6.56C57.92,65.25,54.11,60.83,48.73,61.74Z"/><path class="cls-3" d="M28.32,43.93A74.9,74.9,0,0,1,33,54.37S37.62,51,46.18,48.53a106.12,106.12,0,0,0,11-3.8c-.88-1.55-2.06-3.68-3.29-6a70.64,70.64,0,0,0-8.6,3.22,65.77,65.77,0,0,1-12.61,3.95c-.11-.27-.23-.63-.37-1.06a66.38,66.38,0,0,0,12.9-4,70.33,70.33,0,0,1,8.18-3.09c-.58-1.13-1.17-2.3-1.73-3.47a70.54,70.54,0,0,0-8.95,3.06A66.1,66.1,0,0,1,29.9,40.91c-.1-.27-.22-.63-.34-1.08a66.36,66.36,0,0,0,13-3.66,70.76,70.76,0,0,1,8.55-3C50.56,32,50,30.87,49.58,29.75a70.32,70.32,0,0,0-9.49,2.81,66.15,66.15,0,0,1-12.93,3.13c-.09-.28-.19-.64-.3-1.09A66.53,66.53,0,0,0,40,31.44a70.6,70.6,0,0,1,9.16-2.74c-.31-.81-.59-1.58-.81-2.3l-.53-1.75a70,70,0,0,0-10.73,3,66.32,66.32,0,0,1-13,3c-.08-.28-.18-.64-.29-1.1a66.62,66.62,0,0,0,13.17-3,70.2,70.2,0,0,1,10.5-2.91c-.36-1.23-.69-2.4-1-3.48A69.32,69.32,0,0,0,34.7,22.7a66.51,66.51,0,0,1-13.16,2.42c-.07-.28-.15-.65-.23-1.11a66.6,66.6,0,0,0,13.3-2.44A69.7,69.7,0,0,1,46.22,19c-1-3.76-1.56-6.23-1.56-6.23a68.05,68.05,0,0,0-13.74,2.75C27,16.69,16.67,17.54,16,18.57c.4,1.86,1.17,3.92,3.38,8.84C21.36,31.75,25.36,38.72,28.32,43.93Z"/></svg>